<?xml version="1.0" encoding="utf-8" standalone="no"?>
<!DOCTYPE svg PUBLIC "-//W3C//DTD SVG 1.1//EN"
  "http://www.w3.org/Graphics/SVG/1.1/DTD/svg11.dtd">
<svg xmlns:xlink="http://www.w3.org/1999/xlink" width="720pt" height="720pt" viewBox="0 0 720 720" xmlns="http://www.w3.org/2000/svg" version="1.1">
 <metadata>
  <rdf:RDF xmlns:dc="http://purl.org/dc/elements/1.1/" xmlns:cc="http://creativecommons.org/ns#" xmlns:rdf="http://www.w3.org/1999/02/22-rdf-syntax-ns#">
   <cc:Work>
    <dc:type rdf:resource="http://purl.org/dc/dcmitype/StillImage"/>
    <dc:date>2025-04-28T15:03:28.974619</dc:date>
    <dc:format>image/svg+xml</dc:format>
    <dc:creator>
     <cc:Agent>
      <dc:title>Matplotlib v3.6.3, https://matplotlib.org/</dc:title>
     </cc:Agent>
    </dc:creator>
   </cc:Work>
  </rdf:RDF>
 </metadata>
 <defs>
  <style type="text/css">*{stroke-linejoin: round; stroke-linecap: butt}</style>
 </defs>
 <g id="figure_1">
  <g id="patch_1">
   <path d="M 0 720 
L 720 720 
L 720 0 
L 0 0 
z
" style="fill: #ffffff"/>
  </g>
  <g id="axes_1">
   <g id="patch_2">
    <path d="M 72.405865 103.255889 
L 589.893213 103.255889 
L 589.893213 3.00024 
L 72.405865 3.00024 
z
" style="fill: #ffffff"/>
   </g>
   <g id="matplotlib.axis_1">
    <g id="xtick_1">
     <g id="line2d_1">
      <defs>
       <path id="m2d8b27a38b" d="M 0 0 
L 0 7 
" style="stroke: #000000; stroke-width: 2"/>
      </defs>
      <g>
       <use xlink:href="#m2d8b27a38b" x="95.637282" y="103.255889" style="stroke: #000000; stroke-width: 2"/>
      </g>
     </g>
     <g id="text_1">
      <!-- 0 -->
      <g transform="translate(92.332595 122.874014) scale(0.12 -0.12)">
       <defs>
        <path id="DroidSans-30" d="M 3225 2291 
Q 3225 1738 3145 1300 
Q 3066 863 2889 559 
Q 2713 256 2434 96 
Q 2156 -63 1759 -63 
Q 1391 -63 1117 96 
Q 844 256 664 559 
Q 484 863 395 1300 
Q 306 1738 306 2291 
Q 306 2844 386 3281 
Q 466 3719 639 4020 
Q 813 4322 1089 4481 
Q 1366 4641 1759 4641 
Q 2131 4641 2406 4483 
Q 2681 4325 2862 4023 
Q 3044 3722 3134 3284 
Q 3225 2847 3225 2291 
z
M 884 2291 
Q 884 1822 931 1472 
Q 978 1122 1081 889 
Q 1184 656 1351 539 
Q 1519 422 1759 422 
Q 2000 422 2169 537 
Q 2338 653 2445 884 
Q 2553 1116 2601 1467 
Q 2650 1819 2650 2291 
Q 2650 2759 2601 3109 
Q 2553 3459 2445 3690 
Q 2338 3922 2169 4037 
Q 2000 4153 1759 4153 
Q 1519 4153 1351 4037 
Q 1184 3922 1081 3690 
Q 978 3459 931 3109 
Q 884 2759 884 2291 
z
" transform="scale(0.015625)"/>
       </defs>
       <use xlink:href="#DroidSans-30"/>
      </g>
     </g>
    </g>
    <g id="xtick_2">
     <g id="line2d_2">
      <g>
       <use xlink:href="#m2d8b27a38b" x="166.819435" y="103.255889" style="stroke: #000000; stroke-width: 2"/>
      </g>
     </g>
     <g id="text_2">
      <!-- 10 -->
      <g transform="translate(160.21006 122.874014) scale(0.12 -0.12)">
       <defs>
        <path id="DroidSans-31" d="M 2222 0 
L 1672 0 
L 1672 2853 
Q 1672 2988 1673 3141 
Q 1675 3294 1679 3445 
Q 1684 3597 1689 3736 
Q 1694 3875 1697 3981 
Q 1644 3925 1603 3884 
Q 1563 3844 1520 3806 
Q 1478 3769 1431 3726 
Q 1384 3684 1319 3628 
L 856 3250 
L 556 3634 
L 1753 4569 
L 2222 4569 
L 2222 0 
z
" transform="scale(0.015625)"/>
       </defs>
       <use xlink:href="#DroidSans-31"/>
       <use xlink:href="#DroidSans-30" x="55.078125"/>
      </g>
     </g>
    </g>
    <g id="xtick_3">
     <g id="line2d_3">
      <g>
       <use xlink:href="#m2d8b27a38b" x="238.001588" y="103.255889" style="stroke: #000000; stroke-width: 2"/>
      </g>
     </g>
     <g id="text_3">
      <!-- 20 -->
      <g transform="translate(231.392213 122.874014) scale(0.12 -0.12)">
       <defs>
        <path id="DroidSans-32" d="M 3150 0 
L 300 0 
L 300 488 
L 1394 1678 
Q 1628 1931 1812 2140 
Q 1997 2350 2126 2550 
Q 2256 2750 2325 2951 
Q 2394 3153 2394 3391 
Q 2394 3575 2341 3715 
Q 2288 3856 2189 3954 
Q 2091 4053 1956 4103 
Q 1822 4153 1656 4153 
Q 1359 4153 1120 4033 
Q 881 3913 666 3725 
L 347 4097 
Q 472 4209 615 4307 
Q 759 4406 925 4478 
Q 1091 4550 1275 4592 
Q 1459 4634 1663 4634 
Q 1963 4634 2205 4550 
Q 2447 4466 2615 4308 
Q 2784 4150 2876 3923 
Q 2969 3697 2969 3413 
Q 2969 3147 2886 2906 
Q 2803 2666 2658 2433 
Q 2513 2200 2311 1965 
Q 2109 1731 1875 1478 
L 997 544 
L 997 519 
L 3150 519 
L 3150 0 
z
" transform="scale(0.015625)"/>
       </defs>
       <use xlink:href="#DroidSans-32"/>
       <use xlink:href="#DroidSans-30" x="55.078125"/>
      </g>
     </g>
    </g>
    <g id="xtick_4">
     <g id="line2d_4">
      <g>
       <use xlink:href="#m2d8b27a38b" x="309.183741" y="103.255889" style="stroke: #000000; stroke-width: 2"/>
      </g>
     </g>
     <g id="text_4">
      <!-- 30 -->
      <g transform="translate(302.574366 122.874014) scale(0.12 -0.12)">
       <defs>
        <path id="DroidSans-33" d="M 3003 3500 
Q 3003 3272 2931 3084 
Q 2859 2897 2729 2759 
Q 2600 2622 2419 2533 
Q 2238 2444 2016 2406 
L 2016 2388 
Q 2569 2319 2856 2036 
Q 3144 1753 3144 1300 
Q 3144 1000 3042 750 
Q 2941 500 2734 319 
Q 2528 138 2212 37 
Q 1897 -63 1466 -63 
Q 1125 -63 823 -9 
Q 522 44 256 184 
L 256 716 
Q 528 572 845 494 
Q 1163 416 1453 416 
Q 1741 416 1950 478 
Q 2159 541 2295 656 
Q 2431 772 2495 940 
Q 2559 1109 2559 1319 
Q 2559 1531 2476 1682 
Q 2394 1834 2241 1932 
Q 2088 2031 1867 2078 
Q 1647 2125 1369 2125 
L 953 2125 
L 953 2597 
L 1369 2597 
Q 1622 2597 1819 2659 
Q 2016 2722 2148 2837 
Q 2281 2953 2350 3112 
Q 2419 3272 2419 3463 
Q 2419 3625 2362 3753 
Q 2306 3881 2203 3970 
Q 2100 4059 1956 4106 
Q 1813 4153 1638 4153 
Q 1303 4153 1048 4048 
Q 794 3944 563 3775 
L 275 4166 
Q 394 4263 539 4347 
Q 684 4431 856 4495 
Q 1028 4559 1223 4596 
Q 1419 4634 1638 4634 
Q 1975 4634 2229 4550 
Q 2484 4466 2656 4314 
Q 2828 4163 2915 3955 
Q 3003 3747 3003 3500 
z
" transform="scale(0.015625)"/>
       </defs>
       <use xlink:href="#DroidSans-33"/>
       <use xlink:href="#DroidSans-30" x="55.078125"/>
      </g>
     </g>
    </g>
    <g id="xtick_5">
     <g id="line2d_5">
      <g>
       <use xlink:href="#m2d8b27a38b" x="380.365894" y="103.255889" style="stroke: #000000; stroke-width: 2"/>
      </g>
     </g>
     <g id="text_5">
      <!-- 40 -->
      <g transform="translate(373.756519 122.874014) scale(0.12 -0.12)">
       <defs>
        <path id="DroidSans-34" d="M 3397 1025 
L 2731 1025 
L 2731 0 
L 2181 0 
L 2181 1025 
L 72 1025 
L 72 1522 
L 2144 4594 
L 2731 4594 
L 2731 1544 
L 3397 1544 
L 3397 1025 
z
M 2181 1544 
L 2181 2656 
Q 2181 2831 2186 3023 
Q 2191 3216 2197 3398 
Q 2203 3581 2211 3740 
Q 2219 3900 2222 4006 
L 2194 4006 
Q 2172 3944 2139 3867 
Q 2106 3791 2067 3714 
Q 2028 3638 1987 3566 
Q 1947 3494 1913 3444 
L 628 1544 
L 2181 1544 
z
" transform="scale(0.015625)"/>
       </defs>
       <use xlink:href="#DroidSans-34"/>
       <use xlink:href="#DroidSans-30" x="55.078125"/>
      </g>
     </g>
    </g>
    <g id="xtick_6">
     <g id="line2d_6">
      <g>
       <use xlink:href="#m2d8b27a38b" x="451.548047" y="103.255889" style="stroke: #000000; stroke-width: 2"/>
      </g>
     </g>
     <g id="text_6">
      <!-- 50 -->
      <g transform="translate(444.938672 122.874014) scale(0.12 -0.12)">
       <defs>
        <path id="DroidSans-35" d="M 1703 2803 
Q 2013 2803 2280 2717 
Q 2547 2631 2745 2462 
Q 2944 2294 3056 2044 
Q 3169 1794 3169 1466 
Q 3169 1109 3062 825 
Q 2956 541 2747 344 
Q 2538 147 2230 42 
Q 1922 -63 1522 -63 
Q 1363 -63 1208 -47 
Q 1053 -31 911 -1 
Q 769 28 641 75 
Q 513 122 409 184 
L 409 722 
Q 513 650 652 594 
Q 791 538 944 500 
Q 1097 463 1251 442 
Q 1406 422 1538 422 
Q 1784 422 1978 480 
Q 2172 538 2306 659 
Q 2441 781 2512 965 
Q 2584 1150 2584 1403 
Q 2584 1850 2309 2086 
Q 2034 2322 1509 2322 
Q 1425 2322 1326 2314 
Q 1228 2306 1129 2293 
Q 1031 2281 942 2267 
Q 853 2253 788 2241 
L 506 2419 
L 678 4569 
L 2834 4569 
L 2834 4050 
L 1172 4050 
L 1050 2741 
Q 1150 2759 1314 2781 
Q 1478 2803 1703 2803 
z
" transform="scale(0.015625)"/>
       </defs>
       <use xlink:href="#DroidSans-35"/>
       <use xlink:href="#DroidSans-30" x="55.078125"/>
      </g>
     </g>
    </g>
    <g id="xtick_7">
     <g id="line2d_7">
      <g>
       <use xlink:href="#m2d8b27a38b" x="522.7302" y="103.255889" style="stroke: #000000; stroke-width: 2"/>
      </g>
     </g>
     <g id="text_7">
      <!-- 60 -->
      <g transform="translate(516.120825 122.874014) scale(0.12 -0.12)">
       <defs>
        <path id="DroidSans-36" d="M 353 1953 
Q 353 2281 386 2606 
Q 419 2931 501 3229 
Q 584 3528 728 3784 
Q 872 4041 1094 4230 
Q 1316 4419 1625 4526 
Q 1934 4634 2350 4634 
Q 2409 4634 2481 4631 
Q 2553 4628 2626 4620 
Q 2700 4613 2767 4602 
Q 2834 4591 2888 4575 
L 2888 4091 
Q 2778 4128 2640 4147 
Q 2503 4166 2369 4166 
Q 2088 4166 1873 4098 
Q 1659 4031 1503 3909 
Q 1347 3788 1242 3619 
Q 1138 3450 1072 3245 
Q 1006 3041 975 2809 
Q 944 2578 934 2328 
L 972 2328 
Q 1034 2441 1123 2539 
Q 1213 2638 1331 2708 
Q 1450 2778 1598 2818 
Q 1747 2859 1931 2859 
Q 2228 2859 2468 2767 
Q 2709 2675 2878 2497 
Q 3047 2319 3139 2061 
Q 3231 1803 3231 1472 
Q 3231 1116 3134 831 
Q 3038 547 2856 348 
Q 2675 150 2419 43 
Q 2163 -63 1844 -63 
Q 1531 -63 1257 59 
Q 984 181 784 431 
Q 584 681 468 1059 
Q 353 1438 353 1953 
z
M 1838 416 
Q 2025 416 2179 480 
Q 2334 544 2446 673 
Q 2559 803 2620 1001 
Q 2681 1200 2681 1472 
Q 2681 1691 2629 1864 
Q 2578 2038 2475 2159 
Q 2372 2281 2217 2347 
Q 2063 2413 1856 2413 
Q 1647 2413 1473 2339 
Q 1300 2266 1178 2148 
Q 1056 2031 989 1881 
Q 922 1731 922 1581 
Q 922 1372 980 1164 
Q 1038 956 1152 790 
Q 1266 625 1437 520 
Q 1609 416 1838 416 
z
" transform="scale(0.015625)"/>
       </defs>
       <use xlink:href="#DroidSans-36"/>
       <use xlink:href="#DroidSans-30" x="55.078125"/>
      </g>
     </g>
    </g>
    <g id="text_8">
     <!-- $\frac{\omega}{2\pi} \left[\frac{1}{T_2^*}\right]$ -->
     <g transform="translate(305.319539 146.857764) scale(0.18 -0.18)">
      <defs>
       <path id="DejaVuSans-Oblique-3c9" d="M 1369 -91 
Q 72 -91 434 1766 
Q 575 2500 1256 3500 
L 1875 3500 
Q 1231 2500 1088 1750 
Q 819 397 1519 397 
Q 2166 397 2478 2078 
L 3009 2078 
Q 2669 388 3316 397 
Q 4013 403 4275 1750 
Q 4419 2500 4169 3500 
L 4788 3500 
Q 5075 2500 4934 1766 
Q 4578 -94 3278 -91 
Q 2428 -88 2503 844 
Q 2194 -91 1369 -91 
z
" transform="scale(0.015625)"/>
       <path id="DejaVuSans-32" d="M 1228 531 
L 3431 531 
L 3431 0 
L 469 0 
L 469 531 
Q 828 903 1448 1529 
Q 2069 2156 2228 2338 
Q 2531 2678 2651 2914 
Q 2772 3150 2772 3378 
Q 2772 3750 2511 3984 
Q 2250 4219 1831 4219 
Q 1534 4219 1204 4116 
Q 875 4013 500 3803 
L 500 4441 
Q 881 4594 1212 4672 
Q 1544 4750 1819 4750 
Q 2544 4750 2975 4387 
Q 3406 4025 3406 3419 
Q 3406 3131 3298 2873 
Q 3191 2616 2906 2266 
Q 2828 2175 2409 1742 
Q 1991 1309 1228 531 
z
" transform="scale(0.015625)"/>
       <path id="DejaVuSans-Oblique-3c0" d="M 584 3500 
L 3938 3500 
L 3825 2925 
L 3384 2925 
L 2966 775 
Q 2922 550 2981 450 
Q 3038 353 3209 353 
Q 3256 353 3325 363 
Q 3397 369 3419 372 
L 3338 -44 
Q 3222 -84 3103 -103 
Q 2981 -122 2866 -122 
Q 2491 -122 2388 81 
Q 2284 288 2391 838 
L 2797 2925 
L 1506 2925 
L 938 0 
L 350 0 
L 919 2925 
L 472 2925 
L 584 3500 
z
" transform="scale(0.015625)"/>
       <path id="STIXSizeTwoSym-Regular-5b" d="M 2701 -1786 
L 1216 -1786 
L 1216 10022 
L 2701 10022 
L 2701 9766 
L 1702 9766 
L 1702 -1530 
L 2701 -1530 
L 2701 -1786 
z
" transform="scale(0.015625)"/>
       <path id="DejaVuSans-31" d="M 794 531 
L 1825 531 
L 1825 4091 
L 703 3866 
L 703 4441 
L 1819 4666 
L 2450 4666 
L 2450 531 
L 3481 531 
L 3481 0 
L 794 0 
L 794 531 
z
" transform="scale(0.015625)"/>
       <path id="DejaVuSans-Oblique-54" d="M 378 4666 
L 4325 4666 
L 4225 4134 
L 2559 4134 
L 1759 0 
L 1125 0 
L 1925 4134 
L 275 4134 
L 378 4666 
z
" transform="scale(0.015625)"/>
       <path id="DejaVuSans-2a" d="M 3009 3897 
L 1888 3291 
L 3009 2681 
L 2828 2375 
L 1778 3009 
L 1778 1831 
L 1422 1831 
L 1422 3009 
L 372 2375 
L 191 2681 
L 1313 3291 
L 191 3897 
L 372 4206 
L 1422 3572 
L 1422 4750 
L 1778 4750 
L 1778 3572 
L 2828 4206 
L 3009 3897 
z
" transform="scale(0.015625)"/>
       <path id="STIXSizeTwoSym-Regular-5d" d="M 1722 -1786 
L 237 -1786 
L 237 -1530 
L 1235 -1530 
L 1235 9766 
L 237 9766 
L 237 10022 
L 1722 10022 
L 1722 -1786 
z
" transform="scale(0.015625)"/>
      </defs>
      <use xlink:href="#DejaVuSans-Oblique-3c9" transform="translate(14 44.99375) scale(0.7)"/>
      <use xlink:href="#DejaVuSans-32" transform="translate(0 -39.2375) scale(0.7)"/>
      <use xlink:href="#DejaVuSans-Oblique-3c0" transform="translate(44.536133 -39.2375) scale(0.7)"/>
      <use xlink:href="#STIXSizeTwoSym-Regular-5b" transform="translate(99.179688 -44.698438) scale(0.892082)"/>
      <use xlink:href="#DejaVuSans-31" transform="translate(164.123917 43.965625) scale(0.7)"/>
      <use xlink:href="#DejaVuSans-Oblique-54" transform="translate(140.123917 -50.448437) scale(0.7)"/>
      <use xlink:href="#DejaVuSans-2a" transform="translate(197.340832 -23.651562) scale(0.49)"/>
      <use xlink:href="#DejaVuSans-32" transform="translate(182.882706 -69.589062) scale(0.49)"/>
      <use xlink:href="#STIXSizeTwoSym-Regular-5d" transform="translate(245.801281 -44.698438) scale(0.892082)"/>
      <path d="M 0 18.965625 
L 0 25.215625 
L 86.679688 25.215625 
L 86.679688 18.965625 
L 0 18.965625 
z
"/>
      <path d="M 140.123917 18.965625 
L 140.123917 25.215625 
L 233.301281 25.215625 
L 233.301281 18.965625 
L 140.123917 18.965625 
z
"/>
     </g>
    </g>
   </g>
   <g id="matplotlib.axis_2">
    <g id="ytick_1">
     <g id="line2d_8">
      <defs>
       <path id="m4056e3c85d" d="M 0 0 
L -7 0 
" style="stroke: #000000; stroke-width: 2"/>
      </defs>
      <g>
       <use xlink:href="#m4056e3c85d" x="72.405865" y="101.163637" style="stroke: #000000; stroke-width: 2"/>
      </g>
     </g>
     <g id="text_9">
      <!-- 0.00 -->
      <g transform="translate(38.86024 105.7227) scale(0.12 -0.12)">
       <defs>
        <path id="DroidSans-2e" d="M 459 347 
Q 459 466 490 548 
Q 522 631 575 682 
Q 628 734 700 757 
Q 772 781 856 781 
Q 938 781 1011 757 
Q 1084 734 1137 682 
Q 1191 631 1222 548 
Q 1253 466 1253 347 
Q 1253 231 1222 148 
Q 1191 66 1137 12 
Q 1084 -41 1011 -66 
Q 938 -91 856 -91 
Q 772 -91 700 -66 
Q 628 -41 575 12 
Q 522 66 490 148 
Q 459 231 459 347 
z
" transform="scale(0.015625)"/>
       </defs>
       <use xlink:href="#DroidSans-30"/>
       <use xlink:href="#DroidSans-2e" x="55.078125"/>
       <use xlink:href="#DroidSans-30" x="81.884766"/>
       <use xlink:href="#DroidSans-30" x="136.962891"/>
      </g>
     </g>
    </g>
    <g id="ytick_2">
     <g id="line2d_9">
      <g>
       <use xlink:href="#m4056e3c85d" x="72.405865" y="58.720236" style="stroke: #000000; stroke-width: 2"/>
      </g>
     </g>
     <g id="text_10">
      <!-- 0.02 -->
      <g transform="translate(38.86024 63.279298) scale(0.12 -0.12)">
       <use xlink:href="#DroidSans-30"/>
       <use xlink:href="#DroidSans-2e" x="55.078125"/>
       <use xlink:href="#DroidSans-30" x="81.884766"/>
       <use xlink:href="#DroidSans-32" x="136.962891"/>
      </g>
     </g>
    </g>
    <g id="ytick_3">
     <g id="line2d_10">
      <g>
       <use xlink:href="#m4056e3c85d" x="72.405865" y="16.276834" style="stroke: #000000; stroke-width: 2"/>
      </g>
     </g>
     <g id="text_11">
      <!-- 0.04 -->
      <g transform="translate(38.86024 20.835897) scale(0.12 -0.12)">
       <use xlink:href="#DroidSans-30"/>
       <use xlink:href="#DroidSans-2e" x="55.078125"/>
       <use xlink:href="#DroidSans-30" x="81.884766"/>
       <use xlink:href="#DroidSans-34" x="136.962891"/>
      </g>
     </g>
    </g>
    <g id="text_12">
     <!-- $\frac{\mathrm{Re}[S(\omega)]}{(2\pi)^2} \left[\frac{1}{T_2^*}\right]$ -->
     <g transform="translate(22.26024 98.578065) rotate(-90) scale(0.18 -0.18)">
      <defs>
       <path id="DejaVuSans-52" d="M 2841 2188 
Q 3044 2119 3236 1894 
Q 3428 1669 3622 1275 
L 4263 0 
L 3584 0 
L 2988 1197 
Q 2756 1666 2539 1819 
Q 2322 1972 1947 1972 
L 1259 1972 
L 1259 0 
L 628 0 
L 628 4666 
L 2053 4666 
Q 2853 4666 3247 4331 
Q 3641 3997 3641 3322 
Q 3641 2881 3436 2590 
Q 3231 2300 2841 2188 
z
M 1259 4147 
L 1259 2491 
L 2053 2491 
Q 2509 2491 2742 2702 
Q 2975 2913 2975 3322 
Q 2975 3731 2742 3939 
Q 2509 4147 2053 4147 
L 1259 4147 
z
" transform="scale(0.015625)"/>
       <path id="DejaVuSans-65" d="M 3597 1894 
L 3597 1613 
L 953 1613 
Q 991 1019 1311 708 
Q 1631 397 2203 397 
Q 2534 397 2845 478 
Q 3156 559 3463 722 
L 3463 178 
Q 3153 47 2828 -22 
Q 2503 -91 2169 -91 
Q 1331 -91 842 396 
Q 353 884 353 1716 
Q 353 2575 817 3079 
Q 1281 3584 2069 3584 
Q 2775 3584 3186 3129 
Q 3597 2675 3597 1894 
z
M 3022 2063 
Q 3016 2534 2758 2815 
Q 2500 3097 2075 3097 
Q 1594 3097 1305 2825 
Q 1016 2553 972 2059 
L 3022 2063 
z
" transform="scale(0.015625)"/>
       <path id="DejaVuSans-5b" d="M 550 4863 
L 1875 4863 
L 1875 4416 
L 1125 4416 
L 1125 -397 
L 1875 -397 
L 1875 -844 
L 550 -844 
L 550 4863 
z
" transform="scale(0.015625)"/>
       <path id="DejaVuSans-Oblique-53" d="M 3859 4513 
L 3738 3897 
Q 3422 4066 3111 4152 
Q 2800 4238 2509 4238 
Q 1944 4238 1609 3991 
Q 1275 3744 1275 3334 
Q 1275 3109 1398 2989 
Q 1522 2869 2034 2731 
L 2413 2638 
Q 3053 2472 3303 2217 
Q 3553 1963 3553 1503 
Q 3553 797 2998 353 
Q 2444 -91 1538 -91 
Q 1166 -91 791 -17 
Q 416 56 38 206 
L 166 856 
Q 513 641 861 531 
Q 1209 422 1556 422 
Q 2147 422 2503 684 
Q 2859 947 2859 1369 
Q 2859 1650 2717 1795 
Q 2575 1941 2106 2059 
L 1728 2156 
Q 1081 2325 845 2545 
Q 609 2766 609 3163 
Q 609 3859 1145 4304 
Q 1681 4750 2541 4750 
Q 2875 4750 3203 4690 
Q 3531 4631 3859 4513 
z
" transform="scale(0.015625)"/>
       <path id="DejaVuSans-28" d="M 1984 4856 
Q 1566 4138 1362 3434 
Q 1159 2731 1159 2009 
Q 1159 1288 1364 580 
Q 1569 -128 1984 -844 
L 1484 -844 
Q 1016 -109 783 600 
Q 550 1309 550 2009 
Q 550 2706 781 3412 
Q 1013 4119 1484 4856 
L 1984 4856 
z
" transform="scale(0.015625)"/>
       <path id="DejaVuSans-29" d="M 513 4856 
L 1013 4856 
Q 1481 4119 1714 3412 
Q 1947 2706 1947 2009 
Q 1947 1309 1714 600 
Q 1481 -109 1013 -844 
L 513 -844 
Q 928 -128 1133 580 
Q 1338 1288 1338 2009 
Q 1338 2731 1133 3434 
Q 928 4138 513 4856 
z
" transform="scale(0.015625)"/>
       <path id="DejaVuSans-5d" d="M 1947 4863 
L 1947 -844 
L 622 -844 
L 622 -397 
L 1369 -397 
L 1369 4416 
L 622 4416 
L 622 4863 
L 1947 4863 
z
" transform="scale(0.015625)"/>
      </defs>
      <use xlink:href="#DejaVuSans-52" transform="translate(0 53.810938) scale(0.7)"/>
      <use xlink:href="#DejaVuSans-65" transform="translate(48.637695 53.810938) scale(0.7)"/>
      <use xlink:href="#DejaVuSans-5b" transform="translate(91.704102 53.810938) scale(0.7)"/>
      <use xlink:href="#DejaVuSans-Oblique-53" transform="translate(119.013672 53.810938) scale(0.7)"/>
      <use xlink:href="#DejaVuSans-28" transform="translate(163.447266 53.810938) scale(0.7)"/>
      <use xlink:href="#DejaVuSans-Oblique-3c9" transform="translate(190.756836 53.810938) scale(0.7)"/>
      <use xlink:href="#DejaVuSans-29" transform="translate(249.375 53.810938) scale(0.7)"/>
      <use xlink:href="#DejaVuSans-5d" transform="translate(276.68457 53.810938) scale(0.7)"/>
      <use xlink:href="#DejaVuSans-28" transform="translate(64 -49.834375) scale(0.7)"/>
      <use xlink:href="#DejaVuSans-32" transform="translate(91.30957 -49.834375) scale(0.7)"/>
      <use xlink:href="#DejaVuSans-Oblique-3c0" transform="translate(135.845703 -49.834375) scale(0.7)"/>
      <use xlink:href="#DejaVuSans-29" transform="translate(177.989258 -49.834375) scale(0.7)"/>
      <use xlink:href="#DejaVuSans-32" transform="translate(205.96875 -23.0375) scale(0.49)"/>
      <use xlink:href="#STIXSizeTwoSym-Regular-5b" transform="translate(316.494141 -44.084375) scale(0.892082)"/>
      <use xlink:href="#DejaVuSans-31" transform="translate(381.43837 44.579688) scale(0.7)"/>
      <use xlink:href="#DejaVuSans-Oblique-54" transform="translate(357.43837 -49.834375) scale(0.7)"/>
      <use xlink:href="#DejaVuSans-2a" transform="translate(414.655285 -23.0375) scale(0.49)"/>
      <use xlink:href="#DejaVuSans-32" transform="translate(400.197159 -68.975) scale(0.49)"/>
      <use xlink:href="#STIXSizeTwoSym-Regular-5d" transform="translate(463.115734 -44.084375) scale(0.892082)"/>
      <path d="M 0 19.579688 
L 0 25.829688 
L 303.994141 25.829688 
L 303.994141 19.579688 
L 0 19.579688 
z
"/>
      <path d="M 357.43837 19.579688 
L 357.43837 25.829688 
L 450.615734 25.829688 
L 450.615734 19.579688 
L 357.43837 19.579688 
z
"/>
     </g>
    </g>
   </g>
   <g id="line2d_11">
    <path d="M 95.928017 7.557315 
L 107.741941 7.557315 
L 108.323465 9.703427 
L 109.462838 17.241451 
L 111.131489 26.279328 
L 112.80014 33.559841 
L 114.521098 39.720822 
L 115.660595 43.217392 
L 117.329246 47.674832 
L 118.997897 51.495561 
L 120.718855 54.903486 
L 121.858228 56.913776 
L 123.526879 59.561243 
L 126.335026 63.366902 
L 128.055985 65.373353 
L 129.724636 67.125289 
L 133.114245 70.203908 
L 135.922269 72.362001 
L 139.311878 74.59732 
L 142.120026 76.202201 
L 145.509635 77.898722 
L 148.317659 79.138818 
L 152.846765 80.882423 
L 157.905025 82.529988 
L 163.521196 84.071591 
L 168.579457 85.256834 
L 174.77709 86.502547 
L 182.695805 87.836063 
L 191.701586 89.08552 
L 201.288828 90.181556 
L 213.102756 91.286017 
L 226.080104 92.268706 
L 241.282898 93.197224 
L 259.875797 94.099084 
L 281.858801 94.933023 
L 307.789698 95.694557 
L 340.446265 96.424124 
L 381.022169 97.097987 
L 431.743597 97.71152 
L 498.197097 98.281396 
L 566.371061 98.698814 
L 566.371061 98.698814 
" clip-path="url(#p2446acb78f)" style="fill: none; stroke: #1f77b4; stroke-width: 1.5; stroke-linecap: square"/>
   </g>
   <g id="patch_3">
    <path d="M 72.405865 103.255889 
L 72.405865 3.00024 
" style="fill: none; stroke: #000000; stroke-width: 2; stroke-linejoin: miter; stroke-linecap: square"/>
   </g>
   <g id="patch_4">
    <path d="M 589.893213 103.255889 
L 589.893213 3.00024 
" style="fill: none; stroke: #000000; stroke-width: 2; stroke-linejoin: miter; stroke-linecap: square"/>
   </g>
   <g id="patch_5">
    <path d="M 72.405865 103.255889 
L 589.893213 103.255889 
" style="fill: none; stroke: #000000; stroke-width: 2; stroke-linejoin: miter; stroke-linecap: square"/>
   </g>
   <g id="patch_6">
    <path d="M 72.405865 3.00024 
L 589.893213 3.00024 
" style="fill: none; stroke: #000000; stroke-width: 2; stroke-linejoin: miter; stroke-linecap: square"/>
   </g>
  </g>
  <g id="axes_2">
   <g id="patch_7">
    <path d="M 72.405865 672.495072 
L 589.893213 672.495072 
L 589.893213 171.216827 
L 72.405865 171.216827 
z
" style="fill: #ffffff"/>
   </g>
   <g id="PathCollection_1">
    <path d="M 72.405865 466.748582 
L 77.99736 466.56742 
L 98.280232 465.705103 
L 118.520224 466.525882 
L 124.1546 466.718819 
L 129.785008 466.529726 
L 150.028967 465.78572 
L 156.197579 466.00838 
L 175.903335 466.950377 
L 181.349591 466.708109 
L 201.777702 465.581948 
L 222.533855 467.025876 
L 227.652069 467.312302 
L 232.770284 467.025876 
L 253.526437 465.619957 
L 273.370072 466.141941 
L 279.400804 466.387954 
L 285.177568 466.387954 
L 305.275171 466.323104 
L 311.189811 466.254397 
L 331.149539 466.873317 
L 350.649062 465.808607 
L 357.023906 465.771777 
L 378.52274 467.745294 
L 382.898274 467.982555 
L 387.338823 467.682315 
L 408.772641 465.815239 
L 414.718518 466.224138 
L 434.647008 468.008119 
L 439.032494 467.735653 
L 460.521376 465.90308 
L 466.478421 466.21332 
L 486.395743 467.443703 
L 506.262385 466.164227 
L 512.270111 465.806645 
L 531.913508 465.947975 
L 538.144478 466.092257 
L 557.83224 465.99095 
L 564.018845 465.857416 
L 570.373337 465.828322 
L 589.893213 465.905605 
L 589.893213 446.919862 
L 589.893213 421.85595 
L 589.893213 396.792037 
L 589.893213 371.728125 
L 589.893213 346.664213 
L 589.893213 321.6003 
L 589.893213 296.536388 
L 589.893213 271.472476 
L 589.893213 246.408564 
L 589.893213 221.344651 
L 589.893213 196.280739 
L 589.893213 171.216827 
L 564.018845 171.216827 
L 538.144478 171.216827 
L 512.270111 171.216827 
L 486.395743 171.216827 
L 460.521376 171.216827 
L 434.647008 171.216827 
L 408.772641 171.216827 
L 382.898274 171.216827 
L 357.023906 171.216827 
L 331.149539 171.216827 
L 305.275171 171.216827 
L 279.400804 171.216827 
L 253.526437 171.216827 
L 227.652069 171.216827 
L 201.777702 171.216827 
L 175.903335 171.216827 
L 150.028967 171.216827 
L 124.1546 171.216827 
L 98.280232 171.216827 
L 72.405865 171.216827 
L 72.405865 196.280739 
L 72.405865 221.344651 
L 72.405865 246.408564 
L 72.405865 271.472476 
L 72.405865 296.536388 
L 72.405865 321.6003 
L 72.405865 346.664213 
L 72.405865 371.728125 
L 72.405865 396.792037 
L 72.405865 421.85595 
L 72.405865 446.919862 
" clip-path="url(#pb1a7c2b11e)" style="fill: #481f70"/>
   </g>
   <g id="PathCollection_2">
    <path d="M 72.405865 588.317993 
L 88.368205 587.701779 
L 98.280232 587.421491 
L 108.170552 587.722807 
L 124.1546 588.375197 
L 140.16562 587.748935 
L 150.028967 587.375337 
L 159.915671 587.72631 
L 175.903335 587.874408 
L 185.771969 587.743814 
L 201.777702 587.584413 
L 218.504518 588.442311 
L 227.652069 588.642879 
L 236.932266 588.313819 
L 253.526437 587.490783 
L 263.093144 588.036284 
L 279.400804 588.236244 
L 295.662995 587.992238 
L 305.275171 587.515446 
L 321.276901 587.739936 
L 331.149539 587.709725 
L 346.869033 587.46654 
L 357.023906 587.422161 
L 367.203398 587.442693 
L 382.898274 587.814886 
L 392.709201 587.799713 
L 408.772641 587.654546 
L 418.55436 587.828007 
L 434.647008 587.917441 
L 450.834797 587.920167 
L 460.521376 587.864364 
L 476.578532 587.793626 
L 486.395743 587.951578 
L 496.273151 587.735314 
L 512.270111 587.510581 
L 522.20794 587.676785 
L 538.144478 588.252969 
L 554.070204 587.666312 
L 564.018845 587.573903 
L 574.066326 587.570569 
L 589.893213 587.835038 
L 589.893213 572.239423 
L 589.893213 547.175511 
L 589.893213 522.111599 
L 589.893213 497.047686 
L 589.893213 471.983774 
L 589.893213 465.905605 
L 570.373337 465.828322 
L 564.018845 465.857416 
L 557.83224 465.99095 
L 538.144478 466.092257 
L 531.913508 465.947975 
L 512.270111 465.806645 
L 506.262385 466.164227 
L 486.395743 467.443703 
L 466.478421 466.21332 
L 460.521376 465.90308 
L 439.032494 467.735653 
L 434.647008 468.008119 
L 414.718518 466.224138 
L 408.772641 465.815239 
L 387.338823 467.682315 
L 382.898274 467.982555 
L 378.52274 467.745294 
L 357.023906 465.771777 
L 350.649062 465.808607 
L 331.149539 466.873317 
L 311.189811 466.254397 
L 305.275171 466.323104 
L 285.177568 466.387954 
L 279.400804 466.387954 
L 273.370072 466.141941 
L 253.526437 465.619957 
L 232.770284 467.025876 
L 227.652069 467.312302 
L 222.533855 467.025876 
L 201.777702 465.581948 
L 181.349591 466.708109 
L 175.903335 466.950377 
L 156.197579 466.00838 
L 150.028967 465.78572 
L 129.785008 466.529726 
L 124.1546 466.718819 
L 118.520224 466.525882 
L 98.280232 465.705103 
L 77.99736 466.56742 
L 72.405865 466.748582 
L 72.405865 471.983774 
L 72.405865 497.047686 
L 72.405865 522.111599 
L 72.405865 547.175511 
L 72.405865 572.239423 
" clip-path="url(#pb1a7c2b11e)" style="fill: #3b528b"/>
   </g>
   <g id="PathCollection_3">
    <path d="M 72.405865 629.172329 
L 79.128634 628.879442 
L 98.280232 628.397344 
L 117.684344 628.634838 
L 124.1546 628.717339 
L 143.586238 628.608174 
L 150.028967 628.543404 
L 169.064453 628.991917 
L 175.903335 629.001579 
L 182.734429 628.984374 
L 201.777702 628.501863 
L 221.12694 628.687993 
L 227.652069 628.800029 
L 247.087772 628.604236 
L 253.526437 628.491705 
L 259.893977 628.535339 
L 279.400804 628.636078 
L 298.945958 628.498213 
L 305.275171 628.457529 
L 324.433564 628.87286 
L 331.149539 628.869137 
L 337.874072 628.88115 
L 357.023906 628.536851 
L 376.346095 628.714194 
L 382.898274 628.717869 
L 389.437839 628.701977 
L 408.772641 628.463435 
L 415.086054 628.482908 
L 434.647008 628.52973 
L 454.219446 628.471784 
L 460.521376 628.445222 
L 466.803637 628.452731 
L 486.395743 628.542391 
L 505.958593 628.481072 
L 512.270111 628.477898 
L 518.610031 628.508585 
L 538.144478 628.67131 
L 557.558639 628.625103 
L 564.018845 628.585203 
L 583.368271 628.68781 
L 589.893213 628.697542 
L 589.893213 622.367248 
L 589.893213 597.303336 
L 589.893213 587.835038 
L 574.066326 587.570569 
L 564.018845 587.573903 
L 554.070204 587.666312 
L 538.144478 588.252969 
L 522.20794 587.676785 
L 512.270111 587.510581 
L 496.273151 587.735314 
L 486.395743 587.951578 
L 476.578532 587.793626 
L 460.521376 587.864364 
L 450.834797 587.920167 
L 434.647008 587.917441 
L 418.55436 587.828007 
L 408.772641 587.654546 
L 392.709201 587.799713 
L 382.898274 587.814886 
L 367.203398 587.442693 
L 357.023906 587.422161 
L 346.869033 587.46654 
L 331.149539 587.709725 
L 321.276901 587.739936 
L 305.275171 587.515446 
L 295.662995 587.992238 
L 279.400804 588.236244 
L 263.093144 588.036284 
L 253.526437 587.490783 
L 236.932266 588.313819 
L 227.652069 588.642879 
L 218.504518 588.442311 
L 201.777702 587.584413 
L 185.771969 587.743814 
L 175.903335 587.874408 
L 159.915671 587.72631 
L 150.028967 587.375337 
L 140.16562 587.748935 
L 124.1546 588.375197 
L 108.170552 587.722807 
L 98.280232 587.421491 
L 88.368205 587.701779 
L 72.405865 588.317993 
L 72.405865 597.303336 
L 72.405865 622.367248 
" clip-path="url(#pb1a7c2b11e)" style="fill: #287c8e"/>
   </g>
   <g id="PathCollection_4">
    <path d="M 72.405865 650.422777 
L 95.660242 649.969086 
L 98.280232 649.963481 
L 100.892936 649.962027 
L 124.1546 650.0988 
L 147.386764 649.990602 
L 150.028967 649.99331 
L 152.675805 649.995092 
L 175.903335 650.010734 
L 199.143517 649.982835 
L 201.777702 649.979981 
L 204.413802 649.98469 
L 227.652069 650.167938 
L 250.895265 649.979917 
L 253.526437 649.975524 
L 256.152994 649.975447 
L 279.400804 650.049428 
L 302.643694 649.980212 
L 305.275171 649.978441 
L 307.906251 649.979827 
L 331.149539 649.9737 
L 333.773421 649.972855 
L 357.023906 649.99258 
L 380.247717 649.998694 
L 382.898274 649.995597 
L 406.15263 649.969105 
L 408.772641 649.972251 
L 431.989362 650.005562 
L 434.647008 650.00595 
L 437.305056 650.00595 
L 460.521376 649.960372 
L 483.771386 649.973316 
L 486.395743 649.974546 
L 489.017644 649.970936 
L 512.270111 649.965492 
L 535.47422 650.017779 
L 538.144478 650.020589 
L 540.817395 650.020354 
L 564.018845 649.953024 
L 566.621782 649.952566 
L 589.893213 649.968923 
L 589.893213 647.43116 
L 589.893213 628.697542 
L 583.368271 628.68781 
L 564.018845 628.585203 
L 557.558639 628.625103 
L 538.144478 628.67131 
L 518.610031 628.508585 
L 512.270111 628.477898 
L 505.958593 628.481072 
L 486.395743 628.542391 
L 466.803637 628.452731 
L 460.521376 628.445222 
L 454.219446 628.471784 
L 434.647008 628.52973 
L 415.086054 628.482908 
L 408.772641 628.463435 
L 389.437839 628.701977 
L 382.898274 628.717869 
L 376.346095 628.714194 
L 357.023906 628.536851 
L 337.874072 628.88115 
L 331.149539 628.869137 
L 324.433564 628.87286 
L 305.275171 628.457529 
L 298.945958 628.498213 
L 279.400804 628.636078 
L 259.893977 628.535339 
L 253.526437 628.491705 
L 247.087772 628.604236 
L 227.652069 628.800029 
L 221.12694 628.687993 
L 201.777702 628.501863 
L 182.734429 628.984374 
L 175.903335 629.001579 
L 169.064453 628.991917 
L 150.028967 628.543404 
L 143.586238 628.608174 
L 124.1546 628.717339 
L 117.684344 628.634838 
L 98.280232 628.397344 
L 79.128634 628.879442 
L 72.405865 629.172329 
L 72.405865 647.43116 
" clip-path="url(#pb1a7c2b11e)" style="fill: #20a486"/>
   </g>
   <g id="PathCollection_5">
    <path d="M 72.405865 661.591083 
L 83.893817 661.366954 
L 98.280232 661.33618 
L 112.626633 661.328193 
L 124.1546 661.395975 
L 135.667947 661.342354 
L 150.028967 661.357071 
L 164.415181 661.366759 
L 175.903335 661.374496 
L 187.397746 661.360697 
L 201.777702 661.345117 
L 216.16811 661.370822 
L 227.652069 661.46138 
L 239.138464 661.368463 
L 253.526437 661.34444 
L 267.889175 661.344019 
L 279.400804 661.380652 
L 290.909997 661.346379 
L 305.275171 661.33671 
L 319.638175 661.344276 
L 331.149539 661.341241 
L 345.504635 661.336616 
L 357.023906 661.346389 
L 368.529961 661.349418 
L 382.898274 661.33263 
L 394.435228 661.319487 
L 408.772641 661.336699 
L 420.27479 661.353202 
L 434.647008 661.355304 
L 449.021397 661.355304 
L 460.521376 661.332727 
L 472.038043 661.339139 
L 486.395743 661.345869 
L 500.74 661.326117 
L 512.270111 661.323417 
L 523.776242 661.349345 
L 538.144478 661.364463 
L 552.52702 661.363202 
L 564.018845 661.329853 
L 578.364355 661.32733 
L 589.893213 661.335433 
L 589.893213 649.968923 
L 566.621782 649.952566 
L 564.018845 649.953024 
L 540.817395 650.020354 
L 538.144478 650.020589 
L 535.47422 650.017779 
L 512.270111 649.965492 
L 489.017644 649.970936 
L 486.395743 649.974546 
L 483.771386 649.973316 
L 460.521376 649.960372 
L 437.305056 650.00595 
L 434.647008 650.00595 
L 431.989362 650.005562 
L 408.772641 649.972251 
L 406.15263 649.969105 
L 382.898274 649.995597 
L 380.247717 649.998694 
L 357.023906 649.99258 
L 333.773421 649.972855 
L 331.149539 649.9737 
L 307.906251 649.979827 
L 305.275171 649.978441 
L 302.643694 649.980212 
L 279.400804 650.049428 
L 256.152994 649.975447 
L 253.526437 649.975524 
L 250.895265 649.979917 
L 227.652069 650.167938 
L 204.413802 649.98469 
L 201.777702 649.979981 
L 199.143517 649.982835 
L 175.903335 650.010734 
L 152.675805 649.995092 
L 150.028967 649.99331 
L 147.386764 649.990602 
L 124.1546 650.0988 
L 100.892936 649.962027 
L 98.280232 649.963481 
L 95.660242 649.969086 
L 72.405865 650.422777 
" clip-path="url(#pb1a7c2b11e)" style="fill: #5ec962"/>
   </g>
   <g id="PathCollection_6">
    <path d="M 589.893213 661.335433 
L 578.364355 661.32733 
L 564.018845 661.329853 
L 552.52702 661.363202 
L 538.144478 661.364463 
L 523.776242 661.349345 
L 512.270111 661.323417 
L 500.74 661.326117 
L 486.395743 661.345869 
L 472.038043 661.339139 
L 460.521376 661.332727 
L 449.021397 661.355304 
L 434.647008 661.355304 
L 420.27479 661.353202 
L 408.772641 661.336699 
L 394.435228 661.319487 
L 382.898274 661.33263 
L 368.529961 661.349418 
L 357.023906 661.346389 
L 345.504635 661.336616 
L 331.149539 661.341241 
L 319.638175 661.344276 
L 305.275171 661.33671 
L 290.909997 661.346379 
L 279.400804 661.380652 
L 267.889175 661.344019 
L 253.526437 661.34444 
L 239.138464 661.368463 
L 227.652069 661.46138 
L 216.16811 661.370822 
L 201.777702 661.345117 
L 187.397746 661.360697 
L 175.903335 661.374496 
L 164.415181 661.366759 
L 150.028967 661.357071 
L 135.667947 661.342354 
L 124.1546 661.395975 
L 112.626633 661.328193 
L 98.280232 661.33618 
L 83.893817 661.366954 
L 72.405865 661.591083 
L 72.405865 672.495072 
L 98.280232 672.495072 
L 124.1546 672.495072 
L 150.028967 672.495072 
L 175.903335 672.495072 
L 201.777702 672.495072 
L 227.652069 672.495072 
L 253.526437 672.495072 
L 279.400804 672.495072 
L 305.275171 672.495072 
L 331.149539 672.495072 
L 357.023906 672.495072 
L 382.898274 672.495072 
L 408.772641 672.495072 
L 434.647008 672.495072 
L 460.521376 672.495072 
L 486.395743 672.495072 
L 512.270111 672.495072 
L 538.144478 672.495072 
L 564.018845 672.495072 
L 589.893213 672.495072 
" clip-path="url(#pb1a7c2b11e)" style="fill: #c8e020"/>
   </g>
   <g id="matplotlib.axis_3">
    <g id="xtick_8">
     <g id="line2d_12">
      <g>
       <use xlink:href="#m2d8b27a38b" x="124.1546" y="672.495072" style="stroke: #000000; stroke-width: 2"/>
      </g>
     </g>
     <g id="text_13">
      <!-- 10 -->
      <g transform="translate(117.545225 692.113197) scale(0.12 -0.12)">
       <use xlink:href="#DroidSans-31"/>
       <use xlink:href="#DroidSans-30" x="55.078125"/>
      </g>
     </g>
    </g>
    <g id="xtick_9">
     <g id="line2d_13">
      <g>
       <use xlink:href="#m2d8b27a38b" x="210.402491" y="672.495072" style="stroke: #000000; stroke-width: 2"/>
      </g>
     </g>
     <g id="text_14">
      <!-- 20 -->
      <g transform="translate(203.793116 692.113197) scale(0.12 -0.12)">
       <use xlink:href="#DroidSans-32"/>
       <use xlink:href="#DroidSans-30" x="55.078125"/>
      </g>
     </g>
    </g>
    <g id="xtick_10">
     <g id="line2d_14">
      <g>
       <use xlink:href="#m2d8b27a38b" x="296.650382" y="672.495072" style="stroke: #000000; stroke-width: 2"/>
      </g>
     </g>
     <g id="text_15">
      <!-- 30 -->
      <g transform="translate(290.041007 692.113197) scale(0.12 -0.12)">
       <use xlink:href="#DroidSans-33"/>
       <use xlink:href="#DroidSans-30" x="55.078125"/>
      </g>
     </g>
    </g>
    <g id="xtick_11">
     <g id="line2d_15">
      <g>
       <use xlink:href="#m2d8b27a38b" x="382.898274" y="672.495072" style="stroke: #000000; stroke-width: 2"/>
      </g>
     </g>
     <g id="text_16">
      <!-- 40 -->
      <g transform="translate(376.288899 692.113197) scale(0.12 -0.12)">
       <use xlink:href="#DroidSans-34"/>
       <use xlink:href="#DroidSans-30" x="55.078125"/>
      </g>
     </g>
    </g>
    <g id="xtick_12">
     <g id="line2d_16">
      <g>
       <use xlink:href="#m2d8b27a38b" x="469.146165" y="672.495072" style="stroke: #000000; stroke-width: 2"/>
      </g>
     </g>
     <g id="text_17">
      <!-- 50 -->
      <g transform="translate(462.53679 692.113197) scale(0.12 -0.12)">
       <use xlink:href="#DroidSans-35"/>
       <use xlink:href="#DroidSans-30" x="55.078125"/>
      </g>
     </g>
    </g>
    <g id="xtick_13">
     <g id="line2d_17">
      <g>
       <use xlink:href="#m2d8b27a38b" x="555.394056" y="672.495072" style="stroke: #000000; stroke-width: 2"/>
      </g>
     </g>
     <g id="text_18">
      <!-- 60 -->
      <g transform="translate(548.784681 692.113197) scale(0.12 -0.12)">
       <use xlink:href="#DroidSans-36"/>
       <use xlink:href="#DroidSans-30" x="55.078125"/>
      </g>
     </g>
    </g>
    <g id="text_19">
     <!-- $J$ -->
     <g transform="translate(328.449539 712.674135) scale(0.18 -0.18)">
      <defs>
       <path id="DejaVuSans-Oblique-4a" d="M 1069 4666 
L 1703 4666 
L 856 325 
Q 691 -522 298 -901 
Q -94 -1281 -800 -1281 
L -1050 -1281 
L -947 -750 
L -750 -750 
Q -328 -750 -109 -509 
Q 109 -269 225 325 
L 1069 4666 
z
" transform="scale(0.015625)"/>
      </defs>
      <use xlink:href="#DejaVuSans-Oblique-4a" transform="translate(0 0.09375)"/>
     </g>
    </g>
   </g>
   <g id="matplotlib.axis_4">
    <g id="ytick_4">
     <g id="line2d_18">
      <g>
       <use xlink:href="#m4056e3c85d" x="72.405865" y="622.367248" style="stroke: #000000; stroke-width: 2"/>
      </g>
     </g>
     <g id="text_20">
      <!-- 10 -->
      <g transform="translate(48.687115 626.92631) scale(0.12 -0.12)">
       <use xlink:href="#DroidSans-31"/>
       <use xlink:href="#DroidSans-30" x="55.078125"/>
      </g>
     </g>
    </g>
    <g id="ytick_5">
     <g id="line2d_19">
      <g>
       <use xlink:href="#m4056e3c85d" x="72.405865" y="538.820874" style="stroke: #000000; stroke-width: 2"/>
      </g>
     </g>
     <g id="text_21">
      <!-- 20 -->
      <g transform="translate(48.687115 543.379936) scale(0.12 -0.12)">
       <use xlink:href="#DroidSans-32"/>
       <use xlink:href="#DroidSans-30" x="55.078125"/>
      </g>
     </g>
    </g>
    <g id="ytick_6">
     <g id="line2d_20">
      <g>
       <use xlink:href="#m4056e3c85d" x="72.405865" y="455.274499" style="stroke: #000000; stroke-width: 2"/>
      </g>
     </g>
     <g id="text_22">
      <!-- 30 -->
      <g transform="translate(48.687115 459.833562) scale(0.12 -0.12)">
       <use xlink:href="#DroidSans-33"/>
       <use xlink:href="#DroidSans-30" x="55.078125"/>
      </g>
     </g>
    </g>
    <g id="ytick_7">
     <g id="line2d_21">
      <g>
       <use xlink:href="#m4056e3c85d" x="72.405865" y="371.728125" style="stroke: #000000; stroke-width: 2"/>
      </g>
     </g>
     <g id="text_23">
      <!-- 40 -->
      <g transform="translate(48.687115 376.287188) scale(0.12 -0.12)">
       <use xlink:href="#DroidSans-34"/>
       <use xlink:href="#DroidSans-30" x="55.078125"/>
      </g>
     </g>
    </g>
    <g id="ytick_8">
     <g id="line2d_22">
      <g>
       <use xlink:href="#m4056e3c85d" x="72.405865" y="288.181751" style="stroke: #000000; stroke-width: 2"/>
      </g>
     </g>
     <g id="text_24">
      <!-- 50 -->
      <g transform="translate(48.687115 292.740813) scale(0.12 -0.12)">
       <use xlink:href="#DroidSans-35"/>
       <use xlink:href="#DroidSans-30" x="55.078125"/>
      </g>
     </g>
    </g>
    <g id="ytick_9">
     <g id="line2d_23">
      <g>
       <use xlink:href="#m4056e3c85d" x="72.405865" y="204.635376" style="stroke: #000000; stroke-width: 2"/>
      </g>
     </g>
     <g id="text_25">
      <!-- 60 -->
      <g transform="translate(48.687115 209.194439) scale(0.12 -0.12)">
       <use xlink:href="#DroidSans-36"/>
       <use xlink:href="#DroidSans-30" x="55.078125"/>
      </g>
     </g>
    </g>
    <g id="text_26">
     <!-- $N$ -->
     <g transform="translate(40.36149 428.60595) rotate(-90) scale(0.18 -0.18)">
      <defs>
       <path id="DejaVuSans-Oblique-4e" d="M 1081 4666 
L 1931 4666 
L 3219 666 
L 4000 4666 
L 4616 4666 
L 3706 0 
L 2853 0 
L 1569 4025 
L 788 0 
L 172 0 
L 1081 4666 
z
" transform="scale(0.015625)"/>
      </defs>
      <use xlink:href="#DejaVuSans-Oblique-4e" transform="translate(0 0.09375)"/>
     </g>
    </g>
   </g>
   <g id="PathCollection_7"/>
   <g id="PathCollection_8">
    <path d="M 589.893213 465.905605 
L 570.373337 465.828322 
L 564.018845 465.857416 
L 557.83224 465.99095 
L 538.144478 466.092257 
L 531.913508 465.947975 
L 512.270111 465.806645 
L 506.262385 466.164227 
L 486.395743 467.443703 
L 466.478421 466.21332 
L 460.521376 465.90308 
L 439.032494 467.735653 
L 434.647008 468.008119 
L 414.718518 466.224138 
L 408.772641 465.815239 
L 387.338823 467.682315 
L 382.898274 467.982555 
L 378.52274 467.745294 
L 357.023906 465.771777 
L 350.649062 465.808607 
L 331.149539 466.873317 
L 311.189811 466.254397 
L 305.275171 466.323104 
L 285.177568 466.387954 
L 279.400804 466.387954 
L 273.370072 466.141941 
L 253.526437 465.619957 
L 232.770284 467.025876 
L 227.652069 467.312302 
L 222.533855 467.025876 
L 201.777702 465.581948 
L 181.349591 466.708109 
L 175.903335 466.950377 
L 156.197579 466.00838 
L 150.028967 465.78572 
L 129.785008 466.529726 
L 124.1546 466.718819 
L 118.520224 466.525882 
L 98.280232 465.705103 
L 77.99736 466.56742 
L 72.405865 466.748582 
" clip-path="url(#pb1a7c2b11e)" style="fill: none; stroke: #443983; stroke-width: 1.5"/>
   </g>
   <g id="PathCollection_9">
    <path d="M 589.893213 587.835038 
L 574.066326 587.570569 
L 564.018845 587.573903 
L 554.070204 587.666312 
L 538.144478 588.252969 
L 522.20794 587.676785 
L 512.270111 587.510581 
L 496.273151 587.735314 
L 486.395743 587.951578 
L 476.578532 587.793626 
L 460.521376 587.864364 
L 450.834797 587.920167 
L 434.647008 587.917441 
L 418.55436 587.828007 
L 408.772641 587.654546 
L 392.709201 587.799713 
L 382.898274 587.814886 
L 367.203398 587.442693 
L 357.023906 587.422161 
L 346.869033 587.46654 
L 331.149539 587.709725 
L 321.276901 587.739936 
L 305.275171 587.515446 
L 295.662995 587.992238 
L 279.400804 588.236244 
L 263.093144 588.036284 
L 253.526437 587.490783 
L 236.932266 588.313819 
L 227.652069 588.642879 
L 218.504518 588.442311 
L 201.777702 587.584413 
L 185.771969 587.743814 
L 175.903335 587.874408 
L 159.915671 587.72631 
L 150.028967 587.375337 
L 140.16562 587.748935 
L 124.1546 588.375197 
L 108.170552 587.722807 
L 98.280232 587.421491 
L 88.368205 587.701779 
L 72.405865 588.317993 
" clip-path="url(#pb1a7c2b11e)" style="fill: none; stroke: #31688e; stroke-width: 1.5"/>
   </g>
   <g id="PathCollection_10">
    <path d="M 589.893213 628.697542 
L 583.368271 628.68781 
L 564.018845 628.585203 
L 557.558639 628.625103 
L 538.144478 628.67131 
L 518.610031 628.508585 
L 512.270111 628.477898 
L 505.958593 628.481072 
L 486.395743 628.542391 
L 466.803637 628.452731 
L 460.521376 628.445222 
L 454.219446 628.471784 
L 434.647008 628.52973 
L 415.086054 628.482908 
L 408.772641 628.463435 
L 389.437839 628.701977 
L 382.898274 628.717869 
L 376.346095 628.714194 
L 357.023906 628.536851 
L 337.874072 628.88115 
L 331.149539 628.869137 
L 324.433564 628.87286 
L 305.275171 628.457529 
L 298.945958 628.498213 
L 279.400804 628.636078 
L 259.893977 628.535339 
L 253.526437 628.491705 
L 247.087772 628.604236 
L 227.652069 628.800029 
L 221.12694 628.687993 
L 201.777702 628.501863 
L 182.734429 628.984374 
L 175.903335 629.001579 
L 169.064453 628.991917 
L 150.028967 628.543404 
L 143.586238 628.608174 
L 124.1546 628.717339 
L 117.684344 628.634838 
L 98.280232 628.397344 
L 79.128634 628.879442 
L 72.405865 629.172329 
" clip-path="url(#pb1a7c2b11e)" style="fill: none; stroke: #21918c; stroke-width: 1.5"/>
   </g>
   <g id="PathCollection_11">
    <path d="M 589.893213 649.968923 
L 566.621782 649.952566 
L 564.018845 649.953024 
L 540.817395 650.020354 
L 538.144478 650.020589 
L 535.47422 650.017779 
L 512.270111 649.965492 
L 489.017644 649.970936 
L 486.395743 649.974546 
L 483.771386 649.973316 
L 460.521376 649.960372 
L 437.305056 650.00595 
L 434.647008 650.00595 
L 431.989362 650.005562 
L 408.772641 649.972251 
L 406.15263 649.969105 
L 382.898274 649.995597 
L 380.247717 649.998694 
L 357.023906 649.99258 
L 333.773421 649.972855 
L 331.149539 649.9737 
L 307.906251 649.979827 
L 305.275171 649.978441 
L 302.643694 649.980212 
L 279.400804 650.049428 
L 256.152994 649.975447 
L 253.526437 649.975524 
L 250.895265 649.979917 
L 227.652069 650.167938 
L 204.413802 649.98469 
L 201.777702 649.979981 
L 199.143517 649.982835 
L 175.903335 650.010734 
L 152.675805 649.995092 
L 150.028967 649.99331 
L 147.386764 649.990602 
L 124.1546 650.0988 
L 100.892936 649.962027 
L 98.280232 649.963481 
L 95.660242 649.969086 
L 72.405865 650.422777 
" clip-path="url(#pb1a7c2b11e)" style="fill: none; stroke: #35b779; stroke-width: 1.5"/>
   </g>
   <g id="PathCollection_12">
    <path d="M 589.893213 661.335433 
L 578.364355 661.32733 
L 564.018845 661.329853 
L 552.52702 661.363202 
L 538.144478 661.364463 
L 523.776242 661.349345 
L 512.270111 661.323417 
L 500.74 661.326117 
L 486.395743 661.345869 
L 472.038043 661.339139 
L 460.521376 661.332727 
L 449.021397 661.355304 
L 434.647008 661.355304 
L 420.27479 661.353202 
L 408.772641 661.336699 
L 394.435228 661.319487 
L 382.898274 661.33263 
L 368.529961 661.349418 
L 357.023906 661.346389 
L 345.504635 661.336616 
L 331.149539 661.341241 
L 319.638175 661.344276 
L 305.275171 661.33671 
L 290.909997 661.346379 
L 279.400804 661.380652 
L 267.889175 661.344019 
L 253.526437 661.34444 
L 239.138464 661.368463 
L 227.652069 661.46138 
L 216.16811 661.370822 
L 201.777702 661.345117 
L 187.397746 661.360697 
L 175.903335 661.374496 
L 164.415181 661.366759 
L 150.028967 661.357071 
L 135.667947 661.342354 
L 124.1546 661.395975 
L 112.626633 661.328193 
L 98.280232 661.33618 
L 83.893817 661.366954 
L 72.405865 661.591083 
" clip-path="url(#pb1a7c2b11e)" style="fill: none; stroke: #90d743; stroke-width: 1.5"/>
   </g>
   <g id="PathCollection_13"/>
   <g id="patch_8">
    <path d="M 72.405865 672.495072 
L 72.405865 171.216827 
" style="fill: none; stroke: #000000; stroke-width: 2; stroke-linejoin: miter; stroke-linecap: square"/>
   </g>
   <g id="patch_9">
    <path d="M 589.893213 672.495072 
L 589.893213 171.216827 
" style="fill: none; stroke: #000000; stroke-width: 2; stroke-linejoin: miter; stroke-linecap: square"/>
   </g>
   <g id="patch_10">
    <path d="M 72.405865 672.495072 
L 589.893213 672.495072 
" style="fill: none; stroke: #000000; stroke-width: 2; stroke-linejoin: miter; stroke-linecap: square"/>
   </g>
   <g id="patch_11">
    <path d="M 72.405865 171.216827 
L 589.893213 171.216827 
" style="fill: none; stroke: #000000; stroke-width: 2; stroke-linejoin: miter; stroke-linecap: square"/>
   </g>
  </g>
  <g id="axes_3">
   <g id="patch_12">
    <path d="M 597.093213 672.495072 
L 648.841947 672.495072 
L 648.841947 171.216827 
L 597.093213 171.216827 
z
" style="fill: #ffffff"/>
   </g>
   <g id="patch_13">
    <path clip-path="url(#p015ea00ca2)" style="fill: #ffffff; stroke: #ffffff; stroke-width: 0.01; stroke-linejoin: miter"/>
   </g>
   <g id="QuadMesh_1">
    <path d="M 597.093213 672.495072 
L 648.841947 672.495072 
L 648.841947 588.948698 
L 597.093213 588.948698 
L 597.093213 672.495072 
" clip-path="url(#p015ea00ca2)" style="fill: #481f70"/>
    <path d="M 597.093213 588.948698 
L 648.841947 588.948698 
L 648.841947 505.402324 
L 597.093213 505.402324 
L 597.093213 588.948698 
" clip-path="url(#p015ea00ca2)" style="fill: #3b528b"/>
    <path d="M 597.093213 505.402324 
L 648.841947 505.402324 
L 648.841947 421.85595 
L 597.093213 421.85595 
L 597.093213 505.402324 
" clip-path="url(#p015ea00ca2)" style="fill: #287c8e"/>
    <path d="M 597.093213 421.85595 
L 648.841947 421.85595 
L 648.841947 338.309575 
L 597.093213 338.309575 
L 597.093213 421.85595 
" clip-path="url(#p015ea00ca2)" style="fill: #20a486"/>
    <path d="M 597.093213 338.309575 
L 648.841947 338.309575 
L 648.841947 254.763201 
L 597.093213 254.763201 
L 597.093213 338.309575 
" clip-path="url(#p015ea00ca2)" style="fill: #5ec962"/>
    <path d="M 597.093213 254.763201 
L 648.841947 254.763201 
L 648.841947 171.216827 
L 597.093213 171.216827 
L 597.093213 254.763201 
" clip-path="url(#p015ea00ca2)" style="fill: #c8e020"/>
   </g>
   <g id="matplotlib.axis_5"/>
   <g id="matplotlib.axis_6">
    <g id="ytick_10">
     <g id="line2d_24">
      <defs>
       <path id="m4758790e19" d="M 0 0 
L 7 0 
" style="stroke: #000000; stroke-width: 2"/>
      </defs>
      <g>
       <use xlink:href="#m4758790e19" x="648.841947" y="672.495072" style="stroke: #000000; stroke-width: 2"/>
      </g>
     </g>
     <g id="text_27">
      <!-- 0.000 -->
      <g transform="translate(659.341947 677.054135) scale(0.12 -0.12)">
       <use xlink:href="#DroidSans-30"/>
       <use xlink:href="#DroidSans-2e" x="55.078125"/>
       <use xlink:href="#DroidSans-30" x="81.884766"/>
       <use xlink:href="#DroidSans-30" x="136.962891"/>
       <use xlink:href="#DroidSans-30" x="192.041016"/>
      </g>
     </g>
    </g>
    <g id="ytick_11">
     <g id="line2d_25">
      <g>
       <use xlink:href="#m4758790e19" x="648.841947" y="588.948698" style="stroke: #000000; stroke-width: 2"/>
      </g>
     </g>
     <g id="text_28">
      <!-- 0.015 -->
      <g transform="translate(659.341947 593.507761) scale(0.12 -0.12)">
       <use xlink:href="#DroidSans-30"/>
       <use xlink:href="#DroidSans-2e" x="55.078125"/>
       <use xlink:href="#DroidSans-30" x="81.884766"/>
       <use xlink:href="#DroidSans-31" x="136.962891"/>
       <use xlink:href="#DroidSans-35" x="192.041016"/>
      </g>
     </g>
    </g>
    <g id="ytick_12">
     <g id="line2d_26">
      <g>
       <use xlink:href="#m4758790e19" x="648.841947" y="505.402324" style="stroke: #000000; stroke-width: 2"/>
      </g>
     </g>
     <g id="text_29">
      <!-- 0.030 -->
      <g transform="translate(659.341947 509.961386) scale(0.12 -0.12)">
       <use xlink:href="#DroidSans-30"/>
       <use xlink:href="#DroidSans-2e" x="55.078125"/>
       <use xlink:href="#DroidSans-30" x="81.884766"/>
       <use xlink:href="#DroidSans-33" x="136.962891"/>
       <use xlink:href="#DroidSans-30" x="192.041016"/>
      </g>
     </g>
    </g>
    <g id="ytick_13">
     <g id="line2d_27">
      <g>
       <use xlink:href="#m4758790e19" x="648.841947" y="421.85595" style="stroke: #000000; stroke-width: 2"/>
      </g>
     </g>
     <g id="text_30">
      <!-- 0.045 -->
      <g transform="translate(659.341947 426.415012) scale(0.12 -0.12)">
       <use xlink:href="#DroidSans-30"/>
       <use xlink:href="#DroidSans-2e" x="55.078125"/>
       <use xlink:href="#DroidSans-30" x="81.884766"/>
       <use xlink:href="#DroidSans-34" x="136.962891"/>
       <use xlink:href="#DroidSans-35" x="192.041016"/>
      </g>
     </g>
    </g>
    <g id="ytick_14">
     <g id="line2d_28">
      <g>
       <use xlink:href="#m4758790e19" x="648.841947" y="338.309575" style="stroke: #000000; stroke-width: 2"/>
      </g>
     </g>
     <g id="text_31">
      <!-- 0.060 -->
      <g transform="translate(659.341947 342.868638) scale(0.12 -0.12)">
       <use xlink:href="#DroidSans-30"/>
       <use xlink:href="#DroidSans-2e" x="55.078125"/>
       <use xlink:href="#DroidSans-30" x="81.884766"/>
       <use xlink:href="#DroidSans-36" x="136.962891"/>
       <use xlink:href="#DroidSans-30" x="192.041016"/>
      </g>
     </g>
    </g>
    <g id="ytick_15">
     <g id="line2d_29">
      <g>
       <use xlink:href="#m4758790e19" x="648.841947" y="254.763201" style="stroke: #000000; stroke-width: 2"/>
      </g>
     </g>
     <g id="text_32">
      <!-- 0.075 -->
      <g transform="translate(659.341947 259.322263) scale(0.12 -0.12)">
       <defs>
        <path id="DroidSans-37" d="M 878 0 
L 2638 4050 
L 281 4050 
L 281 4569 
L 3219 4569 
L 3219 4116 
L 1484 0 
L 878 0 
z
" transform="scale(0.015625)"/>
       </defs>
       <use xlink:href="#DroidSans-30"/>
       <use xlink:href="#DroidSans-2e" x="55.078125"/>
       <use xlink:href="#DroidSans-30" x="81.884766"/>
       <use xlink:href="#DroidSans-37" x="136.962891"/>
       <use xlink:href="#DroidSans-35" x="192.041016"/>
      </g>
     </g>
    </g>
    <g id="ytick_16">
     <g id="line2d_30">
      <g>
       <use xlink:href="#m4758790e19" x="648.841947" y="171.216827" style="stroke: #000000; stroke-width: 2"/>
      </g>
     </g>
     <g id="text_33">
      <!-- 0.090 -->
      <g transform="translate(659.341947 175.775889) scale(0.12 -0.12)">
       <defs>
        <path id="DroidSans-39" d="M 3213 2619 
Q 3213 2291 3180 1964 
Q 3147 1638 3064 1341 
Q 2981 1044 2837 786 
Q 2694 528 2472 340 
Q 2250 153 1940 45 
Q 1631 -63 1216 -63 
Q 1156 -63 1084 -59 
Q 1013 -56 941 -48 
Q 869 -41 800 -31 
Q 731 -22 678 -6 
L 678 481 
Q 788 441 925 422 
Q 1063 403 1197 403 
Q 1619 403 1891 550 
Q 2163 697 2322 948 
Q 2481 1200 2548 1534 
Q 2616 1869 2631 2241 
L 2591 2241 
Q 2528 2128 2440 2031 
Q 2353 1934 2234 1862 
Q 2116 1791 1966 1750 
Q 1816 1709 1631 1709 
Q 1334 1709 1093 1801 
Q 853 1894 684 2072 
Q 516 2250 423 2508 
Q 331 2766 331 3097 
Q 331 3453 429 3739 
Q 528 4025 708 4223 
Q 888 4422 1145 4528 
Q 1403 4634 1722 4634 
Q 2038 4634 2309 4512 
Q 2581 4391 2781 4141 
Q 2981 3891 3097 3511 
Q 3213 3131 3213 2619 
z
M 1728 4153 
Q 1541 4153 1386 4090 
Q 1231 4028 1118 3897 
Q 1006 3766 945 3567 
Q 884 3369 884 3097 
Q 884 2878 936 2704 
Q 988 2531 1091 2409 
Q 1194 2288 1348 2222 
Q 1503 2156 1709 2156 
Q 1922 2156 2094 2229 
Q 2266 2303 2387 2420 
Q 2509 2538 2576 2688 
Q 2644 2838 2644 2988 
Q 2644 3197 2586 3405 
Q 2528 3613 2414 3780 
Q 2300 3947 2128 4050 
Q 1956 4153 1728 4153 
z
" transform="scale(0.015625)"/>
       </defs>
       <use xlink:href="#DroidSans-30"/>
       <use xlink:href="#DroidSans-2e" x="55.078125"/>
       <use xlink:href="#DroidSans-30" x="81.884766"/>
       <use xlink:href="#DroidSans-39" x="136.962891"/>
       <use xlink:href="#DroidSans-30" x="192.041016"/>
      </g>
     </g>
    </g>
    <g id="text_34">
     <!-- 1 - Fidelity -->
     <g transform="translate(712.674135 463.331887) rotate(-90) scale(0.18 -0.18)">
      <defs>
       <path id="DroidSans-20" transform="scale(0.015625)"/>
       <path id="DroidSans-2d" d="M 256 1453 
L 256 1978 
L 1806 1978 
L 1806 1453 
L 256 1453 
z
" transform="scale(0.015625)"/>
       <path id="DroidSans-46" d="M 1203 0 
L 622 0 
L 622 4569 
L 2994 4569 
L 2994 4056 
L 1203 4056 
L 1203 2444 
L 2875 2444 
L 2875 1931 
L 1203 1931 
L 1203 0 
z
" transform="scale(0.015625)"/>
       <path id="DroidSans-69" d="M 1113 0 
L 544 0 
L 544 3431 
L 1113 3431 
L 1113 0 
z
M 500 4359 
Q 500 4547 595 4631 
Q 691 4716 831 4716 
Q 900 4716 961 4695 
Q 1022 4675 1067 4631 
Q 1113 4588 1139 4520 
Q 1166 4453 1166 4359 
Q 1166 4178 1067 4089 
Q 969 4000 831 4000 
Q 691 4000 595 4087 
Q 500 4175 500 4359 
z
" transform="scale(0.015625)"/>
       <path id="DroidSans-64" d="M 2663 459 
L 2638 459 
Q 2569 353 2476 258 
Q 2384 163 2264 91 
Q 2144 19 1994 -22 
Q 1844 -63 1656 -63 
Q 1366 -63 1125 50 
Q 884 163 712 386 
Q 541 609 447 940 
Q 353 1272 353 1709 
Q 353 2150 447 2483 
Q 541 2816 712 3041 
Q 884 3266 1125 3380 
Q 1366 3494 1656 3494 
Q 1841 3494 1991 3453 
Q 2141 3413 2261 3344 
Q 2381 3275 2475 3184 
Q 2569 3094 2638 2994 
L 2675 2994 
Q 2666 3100 2656 3197 
Q 2650 3278 2644 3364 
Q 2638 3450 2638 3500 
L 2638 4863 
L 3206 4863 
L 3206 0 
L 2747 0 
L 2663 459 
z
M 1766 409 
Q 2003 409 2167 481 
Q 2331 553 2432 700 
Q 2534 847 2582 1067 
Q 2631 1288 2638 1581 
L 2638 1709 
Q 2638 2025 2595 2270 
Q 2553 2516 2451 2683 
Q 2350 2850 2181 2936 
Q 2013 3022 1759 3022 
Q 1338 3022 1139 2681 
Q 941 2341 941 1703 
Q 941 1050 1139 729 
Q 1338 409 1766 409 
z
" transform="scale(0.015625)"/>
       <path id="DroidSans-65" d="M 1900 -63 
Q 1556 -63 1272 53 
Q 988 169 783 391 
Q 578 613 465 941 
Q 353 1269 353 1691 
Q 353 2116 456 2450 
Q 559 2784 746 3017 
Q 934 3250 1195 3372 
Q 1456 3494 1772 3494 
Q 2081 3494 2328 3383 
Q 2575 3272 2747 3070 
Q 2919 2869 3011 2586 
Q 3103 2303 3103 1959 
L 3103 1606 
L 941 1606 
Q 956 1003 1195 718 
Q 1434 434 1906 434 
Q 2066 434 2202 450 
Q 2338 466 2464 495 
Q 2591 525 2709 570 
Q 2828 616 2950 672 
L 2950 166 
Q 2825 106 2704 62 
Q 2584 19 2457 -9 
Q 2331 -38 2195 -50 
Q 2059 -63 1900 -63 
z
M 1759 3022 
Q 1403 3022 1195 2778 
Q 988 2534 953 2069 
L 2491 2069 
Q 2491 2281 2448 2457 
Q 2406 2634 2317 2759 
Q 2228 2884 2090 2953 
Q 1953 3022 1759 3022 
z
" transform="scale(0.015625)"/>
       <path id="DroidSans-6c" d="M 1113 0 
L 544 0 
L 544 4863 
L 1113 4863 
L 1113 0 
z
" transform="scale(0.015625)"/>
       <path id="DroidSans-74" d="M 1581 403 
Q 1638 403 1708 409 
Q 1778 416 1843 425 
Q 1909 434 1964 446 
Q 2019 459 2047 469 
L 2047 38 
Q 2006 19 1943 0 
Q 1881 -19 1806 -33 
Q 1731 -47 1650 -55 
Q 1569 -63 1491 -63 
Q 1297 -63 1131 -12 
Q 966 38 845 159 
Q 725 281 656 489 
Q 588 697 588 1013 
L 588 3003 
L 103 3003 
L 103 3256 
L 588 3500 
L 831 4219 
L 1159 4219 
L 1159 3431 
L 2022 3431 
L 2022 3003 
L 1159 3003 
L 1159 1013 
Q 1159 709 1257 556 
Q 1356 403 1581 403 
z
" transform="scale(0.015625)"/>
       <path id="DroidSans-79" d="M 31 3431 
L 622 3431 
L 1294 1516 
Q 1338 1391 1383 1253 
Q 1428 1116 1467 978 
Q 1506 841 1534 712 
Q 1563 584 1575 475 
L 1594 475 
Q 1609 553 1643 687 
Q 1678 822 1720 973 
Q 1763 1125 1808 1272 
Q 1853 1419 1888 1522 
L 2509 3431 
L 3097 3431 
L 1741 -447 
Q 1653 -700 1551 -901 
Q 1450 -1103 1315 -1243 
Q 1181 -1384 1000 -1461 
Q 819 -1538 569 -1538 
Q 406 -1538 287 -1520 
Q 169 -1503 84 -1484 
L 84 -1031 
Q 150 -1047 250 -1058 
Q 350 -1069 459 -1069 
Q 609 -1069 718 -1033 
Q 828 -997 909 -928 
Q 991 -859 1048 -759 
Q 1106 -659 1153 -531 
L 1331 -31 
L 31 3431 
z
" transform="scale(0.015625)"/>
      </defs>
      <use xlink:href="#DroidSans-31"/>
      <use xlink:href="#DroidSans-20" x="55.078125"/>
      <use xlink:href="#DroidSans-2d" x="81.054688"/>
      <use xlink:href="#DroidSans-20" x="113.232422"/>
      <use xlink:href="#DroidSans-46" x="139.208984"/>
      <use xlink:href="#DroidSans-69" x="188.330078"/>
      <use xlink:href="#DroidSans-64" x="214.208984"/>
      <use xlink:href="#DroidSans-65" x="272.802734"/>
      <use xlink:href="#DroidSans-6c" x="326.318359"/>
      <use xlink:href="#DroidSans-69" x="352.197266"/>
      <use xlink:href="#DroidSans-74" x="378.076172"/>
      <use xlink:href="#DroidSans-79" x="411.962891"/>
     </g>
    </g>
   </g>
   <g id="LineCollection_1"/>
   <g id="patch_14">
    <path d="M 597.093213 672.495072 
L 622.96758 672.495072 
L 648.841947 672.495072 
L 648.841947 171.216827 
L 622.96758 171.216827 
L 597.093213 171.216827 
L 597.093213 672.495072 
z
" style="fill: none; stroke: #000000; stroke-width: 2; stroke-linejoin: miter; stroke-linecap: square"/>
   </g>
  </g>
 </g>
 <defs>
  <clipPath id="p2446acb78f">
   <rect x="72.405865" y="3.00024" width="517.487348" height="100.255649"/>
  </clipPath>
  <clipPath id="pb1a7c2b11e">
   <rect x="72.405865" y="171.216827" width="517.487348" height="501.278246"/>
  </clipPath>
  <clipPath id="p015ea00ca2">
   <rect x="597.093213" y="171.216827" width="51.748735" height="501.278246"/>
  </clipPath>
 </defs>
</svg>
