<?xml version="1.0" encoding="utf-8" standalone="no"?>
<!DOCTYPE svg PUBLIC "-//W3C//DTD SVG 1.1//EN"
  "http://www.w3.org/Graphics/SVG/1.1/DTD/svg11.dtd">
<svg xmlns:xlink="http://www.w3.org/1999/xlink" width="432pt" height="576pt" viewBox="0 0 432 576" xmlns="http://www.w3.org/2000/svg" version="1.1">
 <metadata>
  <rdf:RDF xmlns:dc="http://purl.org/dc/elements/1.1/" xmlns:cc="http://creativecommons.org/ns#" xmlns:rdf="http://www.w3.org/1999/02/22-rdf-syntax-ns#">
   <cc:Work>
    <dc:type rdf:resource="http://purl.org/dc/dcmitype/StillImage"/>
    <dc:date>2025-04-28T14:00:00.201329</dc:date>
    <dc:format>image/svg+xml</dc:format>
    <dc:creator>
     <cc:Agent>
      <dc:title>Matplotlib v3.6.3, https://matplotlib.org/</dc:title>
     </cc:Agent>
    </dc:creator>
   </cc:Work>
  </rdf:RDF>
 </metadata>
 <defs>
  <style type="text/css">*{stroke-linejoin: round; stroke-linecap: butt}</style>
 </defs>
 <g id="figure_1">
  <g id="patch_1">
   <path d="M 0 576 
L 432 576 
L 432 0 
L 0 0 
z
" style="fill: #ffffff"/>
  </g>
  <g id="axes_1">
   <g id="patch_2">
    <path d="M 40.21899 156.752677 
L 427.796194 156.752677 
L 427.796194 21.16024 
L 40.21899 21.16024 
z
" style="fill: #ffffff"/>
   </g>
   <g id="matplotlib.axis_1">
    <g id="xtick_1">
     <g id="line2d_1">
      <defs>
       <path id="m1e88cf39ab" d="M 0 0 
L 0 7 
" style="stroke: #000000; stroke-width: 2"/>
      </defs>
      <g>
       <use xlink:href="#m1e88cf39ab" x="57.836136" y="156.752677" style="stroke: #000000; stroke-width: 2"/>
      </g>
     </g>
     <g id="text_1">
      <!-- 0 -->
      <g transform="translate(54.018636 176.370802) scale(0.12 -0.12)">
       <defs>
        <path id="DejaVuSans-30" d="M 2034 4250 
Q 1547 4250 1301 3770 
Q 1056 3291 1056 2328 
Q 1056 1369 1301 889 
Q 1547 409 2034 409 
Q 2525 409 2770 889 
Q 3016 1369 3016 2328 
Q 3016 3291 2770 3770 
Q 2525 4250 2034 4250 
z
M 2034 4750 
Q 2819 4750 3233 4129 
Q 3647 3509 3647 2328 
Q 3647 1150 3233 529 
Q 2819 -91 2034 -91 
Q 1250 -91 836 529 
Q 422 1150 422 2328 
Q 422 3509 836 4129 
Q 1250 4750 2034 4750 
z
" transform="scale(0.015625)"/>
       </defs>
       <use xlink:href="#DejaVuSans-30"/>
      </g>
     </g>
    </g>
    <g id="xtick_2">
     <g id="line2d_2">
      <g>
       <use xlink:href="#m1e88cf39ab" x="108.44018" y="156.752677" style="stroke: #000000; stroke-width: 2"/>
      </g>
     </g>
     <g id="text_2">
      <!-- 50 -->
      <g transform="translate(100.80518 176.370802) scale(0.12 -0.12)">
       <defs>
        <path id="DejaVuSans-35" d="M 691 4666 
L 3169 4666 
L 3169 4134 
L 1269 4134 
L 1269 2991 
Q 1406 3038 1543 3061 
Q 1681 3084 1819 3084 
Q 2600 3084 3056 2656 
Q 3513 2228 3513 1497 
Q 3513 744 3044 326 
Q 2575 -91 1722 -91 
Q 1428 -91 1123 -41 
Q 819 9 494 109 
L 494 744 
Q 775 591 1075 516 
Q 1375 441 1709 441 
Q 2250 441 2565 725 
Q 2881 1009 2881 1497 
Q 2881 1984 2565 2268 
Q 2250 2553 1709 2553 
Q 1456 2553 1204 2497 
Q 953 2441 691 2322 
L 691 4666 
z
" transform="scale(0.015625)"/>
       </defs>
       <use xlink:href="#DejaVuSans-35"/>
       <use xlink:href="#DejaVuSans-30" x="63.623047"/>
      </g>
     </g>
    </g>
    <g id="xtick_3">
     <g id="line2d_3">
      <g>
       <use xlink:href="#m1e88cf39ab" x="159.044224" y="156.752677" style="stroke: #000000; stroke-width: 2"/>
      </g>
     </g>
     <g id="text_3">
      <!-- 100 -->
      <g transform="translate(147.591724 176.370802) scale(0.12 -0.12)">
       <defs>
        <path id="DejaVuSans-31" d="M 794 531 
L 1825 531 
L 1825 4091 
L 703 3866 
L 703 4441 
L 1819 4666 
L 2450 4666 
L 2450 531 
L 3481 531 
L 3481 0 
L 794 0 
L 794 531 
z
" transform="scale(0.015625)"/>
       </defs>
       <use xlink:href="#DejaVuSans-31"/>
       <use xlink:href="#DejaVuSans-30" x="63.623047"/>
       <use xlink:href="#DejaVuSans-30" x="127.246094"/>
      </g>
     </g>
    </g>
    <g id="xtick_4">
     <g id="line2d_4">
      <g>
       <use xlink:href="#m1e88cf39ab" x="209.648268" y="156.752677" style="stroke: #000000; stroke-width: 2"/>
      </g>
     </g>
     <g id="text_4">
      <!-- 150 -->
      <g transform="translate(198.195768 176.370802) scale(0.12 -0.12)">
       <use xlink:href="#DejaVuSans-31"/>
       <use xlink:href="#DejaVuSans-35" x="63.623047"/>
       <use xlink:href="#DejaVuSans-30" x="127.246094"/>
      </g>
     </g>
    </g>
    <g id="xtick_5">
     <g id="line2d_5">
      <g>
       <use xlink:href="#m1e88cf39ab" x="260.252313" y="156.752677" style="stroke: #000000; stroke-width: 2"/>
      </g>
     </g>
     <g id="text_5">
      <!-- 200 -->
      <g transform="translate(248.799813 176.370802) scale(0.12 -0.12)">
       <defs>
        <path id="DejaVuSans-32" d="M 1228 531 
L 3431 531 
L 3431 0 
L 469 0 
L 469 531 
Q 828 903 1448 1529 
Q 2069 2156 2228 2338 
Q 2531 2678 2651 2914 
Q 2772 3150 2772 3378 
Q 2772 3750 2511 3984 
Q 2250 4219 1831 4219 
Q 1534 4219 1204 4116 
Q 875 4013 500 3803 
L 500 4441 
Q 881 4594 1212 4672 
Q 1544 4750 1819 4750 
Q 2544 4750 2975 4387 
Q 3406 4025 3406 3419 
Q 3406 3131 3298 2873 
Q 3191 2616 2906 2266 
Q 2828 2175 2409 1742 
Q 1991 1309 1228 531 
z
" transform="scale(0.015625)"/>
       </defs>
       <use xlink:href="#DejaVuSans-32"/>
       <use xlink:href="#DejaVuSans-30" x="63.623047"/>
       <use xlink:href="#DejaVuSans-30" x="127.246094"/>
      </g>
     </g>
    </g>
    <g id="xtick_6">
     <g id="line2d_6">
      <g>
       <use xlink:href="#m1e88cf39ab" x="310.856357" y="156.752677" style="stroke: #000000; stroke-width: 2"/>
      </g>
     </g>
     <g id="text_6">
      <!-- 250 -->
      <g transform="translate(299.403857 176.370802) scale(0.12 -0.12)">
       <use xlink:href="#DejaVuSans-32"/>
       <use xlink:href="#DejaVuSans-35" x="63.623047"/>
       <use xlink:href="#DejaVuSans-30" x="127.246094"/>
      </g>
     </g>
    </g>
    <g id="xtick_7">
     <g id="line2d_7">
      <g>
       <use xlink:href="#m1e88cf39ab" x="361.460401" y="156.752677" style="stroke: #000000; stroke-width: 2"/>
      </g>
     </g>
     <g id="text_7">
      <!-- 300 -->
      <g transform="translate(350.007901 176.370802) scale(0.12 -0.12)">
       <defs>
        <path id="DejaVuSans-33" d="M 2597 2516 
Q 3050 2419 3304 2112 
Q 3559 1806 3559 1356 
Q 3559 666 3084 287 
Q 2609 -91 1734 -91 
Q 1441 -91 1130 -33 
Q 819 25 488 141 
L 488 750 
Q 750 597 1062 519 
Q 1375 441 1716 441 
Q 2309 441 2620 675 
Q 2931 909 2931 1356 
Q 2931 1769 2642 2001 
Q 2353 2234 1838 2234 
L 1294 2234 
L 1294 2753 
L 1863 2753 
Q 2328 2753 2575 2939 
Q 2822 3125 2822 3475 
Q 2822 3834 2567 4026 
Q 2313 4219 1838 4219 
Q 1578 4219 1281 4162 
Q 984 4106 628 3988 
L 628 4550 
Q 988 4650 1302 4700 
Q 1616 4750 1894 4750 
Q 2613 4750 3031 4423 
Q 3450 4097 3450 3541 
Q 3450 3153 3228 2886 
Q 3006 2619 2597 2516 
z
" transform="scale(0.015625)"/>
       </defs>
       <use xlink:href="#DejaVuSans-33"/>
       <use xlink:href="#DejaVuSans-30" x="63.623047"/>
       <use xlink:href="#DejaVuSans-30" x="127.246094"/>
      </g>
     </g>
    </g>
    <g id="xtick_8">
     <g id="line2d_8">
      <g>
       <use xlink:href="#m1e88cf39ab" x="412.064445" y="156.752677" style="stroke: #000000; stroke-width: 2"/>
      </g>
     </g>
     <g id="text_8">
      <!-- 350 -->
      <g transform="translate(400.611945 176.370802) scale(0.12 -0.12)">
       <use xlink:href="#DejaVuSans-33"/>
       <use xlink:href="#DejaVuSans-35" x="63.623047"/>
       <use xlink:href="#DejaVuSans-30" x="127.246094"/>
      </g>
     </g>
    </g>
   </g>
   <g id="matplotlib.axis_2">
    <g id="ytick_1">
     <g id="line2d_9">
      <defs>
       <path id="mcc0f5833a5" d="M 0 0 
L -7 0 
" style="stroke: #000000; stroke-width: 2"/>
      </defs>
      <g>
       <use xlink:href="#mcc0f5833a5" x="40.21899" y="150.589384" style="stroke: #000000; stroke-width: 2"/>
      </g>
     </g>
     <g id="text_9">
      <!-- 0.00 -->
      <g transform="translate(3.00024 155.148447) scale(0.12 -0.12)">
       <defs>
        <path id="DejaVuSans-2e" d="M 684 794 
L 1344 794 
L 1344 0 
L 684 0 
L 684 794 
z
" transform="scale(0.015625)"/>
       </defs>
       <use xlink:href="#DejaVuSans-30"/>
       <use xlink:href="#DejaVuSans-2e" x="63.623047"/>
       <use xlink:href="#DejaVuSans-30" x="95.410156"/>
       <use xlink:href="#DejaVuSans-30" x="159.033203"/>
      </g>
     </g>
    </g>
    <g id="ytick_2">
     <g id="line2d_10">
      <g>
       <use xlink:href="#mcc0f5833a5" x="40.21899" y="108.84244" style="stroke: #000000; stroke-width: 2"/>
      </g>
     </g>
     <g id="text_10">
      <!-- 0.02 -->
      <g transform="translate(3.00024 113.401503) scale(0.12 -0.12)">
       <use xlink:href="#DejaVuSans-30"/>
       <use xlink:href="#DejaVuSans-2e" x="63.623047"/>
       <use xlink:href="#DejaVuSans-30" x="95.410156"/>
       <use xlink:href="#DejaVuSans-32" x="159.033203"/>
      </g>
     </g>
    </g>
    <g id="ytick_3">
     <g id="line2d_11">
      <g>
       <use xlink:href="#mcc0f5833a5" x="40.21899" y="67.095496" style="stroke: #000000; stroke-width: 2"/>
      </g>
     </g>
     <g id="text_11">
      <!-- 0.04 -->
      <g transform="translate(3.00024 71.654558) scale(0.12 -0.12)">
       <defs>
        <path id="DejaVuSans-34" d="M 2419 4116 
L 825 1625 
L 2419 1625 
L 2419 4116 
z
M 2253 4666 
L 3047 4666 
L 3047 1625 
L 3713 1625 
L 3713 1100 
L 3047 1100 
L 3047 0 
L 2419 0 
L 2419 1100 
L 313 1100 
L 313 1709 
L 2253 4666 
z
" transform="scale(0.015625)"/>
       </defs>
       <use xlink:href="#DejaVuSans-30"/>
       <use xlink:href="#DejaVuSans-2e" x="63.623047"/>
       <use xlink:href="#DejaVuSans-30" x="95.410156"/>
       <use xlink:href="#DejaVuSans-34" x="159.033203"/>
      </g>
     </g>
    </g>
    <g id="ytick_4">
     <g id="line2d_12">
      <g>
       <use xlink:href="#mcc0f5833a5" x="40.21899" y="25.348552" style="stroke: #000000; stroke-width: 2"/>
      </g>
     </g>
     <g id="text_12">
      <!-- 0.06 -->
      <g transform="translate(3.00024 29.907614) scale(0.12 -0.12)">
       <defs>
        <path id="DejaVuSans-36" d="M 2113 2584 
Q 1688 2584 1439 2293 
Q 1191 2003 1191 1497 
Q 1191 994 1439 701 
Q 1688 409 2113 409 
Q 2538 409 2786 701 
Q 3034 994 3034 1497 
Q 3034 2003 2786 2293 
Q 2538 2584 2113 2584 
z
M 3366 4563 
L 3366 3988 
Q 3128 4100 2886 4159 
Q 2644 4219 2406 4219 
Q 1781 4219 1451 3797 
Q 1122 3375 1075 2522 
Q 1259 2794 1537 2939 
Q 1816 3084 2150 3084 
Q 2853 3084 3261 2657 
Q 3669 2231 3669 1497 
Q 3669 778 3244 343 
Q 2819 -91 2113 -91 
Q 1303 -91 875 529 
Q 447 1150 447 2328 
Q 447 3434 972 4092 
Q 1497 4750 2381 4750 
Q 2619 4750 2861 4703 
Q 3103 4656 3366 4563 
z
" transform="scale(0.015625)"/>
       </defs>
       <use xlink:href="#DejaVuSans-30"/>
       <use xlink:href="#DejaVuSans-2e" x="63.623047"/>
       <use xlink:href="#DejaVuSans-30" x="95.410156"/>
       <use xlink:href="#DejaVuSans-36" x="159.033203"/>
      </g>
     </g>
    </g>
   </g>
   <g id="line2d_13">
    <path d="M 57.836136 150.589384 
L 68.974627 150.481978 
L 70.032079 150.236661 
L 70.807543 149.822628 
L 71.442014 149.218686 
L 72.005989 148.37852 
L 72.569963 147.142771 
L 73.133937 145.387724 
L 73.768408 142.624944 
L 74.402879 138.844814 
L 75.107847 133.258392 
L 75.883312 125.295521 
L 76.870267 112.570242 
L 79.901628 70.819628 
L 80.465602 66.768962 
L 80.818086 65.439998 
L 81.100073 65.114578 
L 81.241067 65.208764 
L 81.452557 65.678479 
L 81.734545 66.924094 
L 82.157525 70.110728 
L 82.651003 75.732288 
L 83.35597 86.813947 
L 84.483919 109.069941 
L 85.823358 134.439655 
L 86.528326 143.870324 
L 87.021803 148.106934 
L 87.444784 150.081874 
L 87.726771 150.567251 
L 87.938261 150.519328 
L 88.149752 150.14287 
L 88.502236 148.862715 
L 88.995713 145.970633 
L 89.912171 138.846346 
L 90.828629 132.371434 
L 91.322107 130.173841 
L 91.674591 129.36725 
L 91.956578 129.214488 
L 92.168068 129.388192 
L 92.450055 129.991069 
L 92.873036 131.622113 
L 93.43701 134.878218 
L 95.62241 148.867048 
L 96.045391 150.105145 
L 96.397875 150.555701 
L 96.609365 150.575154 
L 96.891352 150.325359 
L 97.243836 149.616729 
L 97.737314 148.045812 
L 99.711224 141.008345 
L 100.134204 140.483844 
L 100.416192 140.444986 
L 100.698179 140.654399 
L 101.050663 141.24318 
L 101.54414 142.580801 
L 102.390101 145.678341 
L 103.377056 149.060796 
L 103.870534 150.119175 
L 104.293515 150.548158 
L 104.575502 150.575652 
L 104.857489 150.403085 
L 105.209973 149.931927 
L 105.773947 148.713818 
L 107.67736 144.082963 
L 108.100341 143.672966 
L 108.452825 143.60908 
L 108.805309 143.795813 
L 109.228289 144.319576 
L 109.792263 145.412278 
L 111.907167 149.912534 
L 112.471141 150.434696 
L 112.964619 150.587392 
L 113.528593 150.498982 
L 115.432006 149.939109 
L 116.066477 150.098116 
L 117.546909 150.586029 
L 117.96989 150.443526 
L 118.392871 150.043603 
L 118.886348 149.188766 
L 119.450322 147.670107 
L 120.15529 145.054749 
L 122.411187 136.07787 
L 122.904665 135.15951 
L 123.257149 134.906304 
L 123.539136 134.956558 
L 123.821123 135.229438 
L 124.244104 136.032883 
L 124.808078 137.736415 
L 125.654039 141.176235 
L 127.134472 147.247169 
L 127.839439 149.202633 
L 128.403414 150.142788 
L 128.896891 150.528109 
L 129.319872 150.582095 
L 129.813349 150.401998 
L 130.588814 149.826637 
L 131.716762 149.008853 
L 132.42173 148.784915 
L 133.056201 148.817977 
L 133.831666 149.095746 
L 136.722034 150.37304 
L 137.990976 150.530837 
L 140.246873 150.537292 
L 144.617673 150.482085 
L 146.591583 150.56988 
L 147.719532 150.357666 
L 150.257416 149.734283 
L 151.103377 149.855915 
L 152.301823 150.306269 
L 153.288778 150.581869 
L 153.923249 150.5212 
L 154.487223 150.237274 
L 155.121694 149.640456 
L 155.897158 148.577644 
L 157.800572 145.814811 
L 158.364546 145.401126 
L 158.858023 145.300885 
L 159.351501 145.45515 
L 159.915475 145.916731 
L 160.620443 146.815746 
L 162.805843 149.820173 
L 163.510811 150.326931 
L 164.215779 150.553202 
L 165.132237 150.574558 
L 167.24714 150.543138 
L 168.727573 150.543229 
L 169.503037 150.302536 
L 170.348999 149.779156 
L 172.534399 148.231429 
L 173.098373 148.156477 
L 173.662347 148.305453 
L 174.296818 148.717502 
L 175.636257 149.97324 
L 176.341225 150.460235 
L 176.905199 150.589141 
L 177.398677 150.463803 
L 177.962651 150.0454 
L 178.667619 149.187027 
L 180.571032 146.664184 
L 181.135006 146.362078 
L 181.557987 146.35716 
L 182.051464 146.59247 
L 182.615439 147.138118 
L 183.531897 148.40928 
L 184.659845 149.918737 
L 185.294316 150.428349 
L 185.85829 150.588674 
L 186.351768 150.505616 
L 186.986239 150.152133 
L 189.242136 148.597124 
L 189.80611 148.563973 
L 190.440581 148.76578 
L 191.286543 149.322036 
L 192.837472 150.394942 
L 193.54244 150.584151 
L 194.176911 150.522715 
L 194.881878 150.228531 
L 196.362311 149.273306 
L 197.349266 148.803935 
L 198.12473 148.684969 
L 198.900195 148.791975 
L 199.957647 149.188063 
L 202.284041 150.11703 
L 203.623479 150.353209 
L 205.315402 150.401398 
L 207.289312 150.226623 
L 210.17968 149.937995 
L 211.519119 150.07726 
L 214.973461 150.589036 
L 216.594887 150.46225 
L 218.850784 150.309557 
L 220.965688 150.451081 
L 223.715062 150.582395 
L 227.662882 150.507678 
L 231.822192 150.309701 
L 235.911005 150.541373 
L 239.08336 150.350976 
L 242.326212 150.502142 
L 243.24267 150.192924 
L 244.370619 149.546584 
L 246.203535 148.474381 
L 246.979 148.278146 
L 247.683968 148.30788 
L 248.459432 148.562004 
L 249.516884 149.16971 
L 251.420297 150.281873 
L 252.336755 150.541932 
L 253.32371 150.576237 
L 254.804143 150.35607 
L 256.425569 150.177436 
L 257.835504 150.257898 
L 261.501337 150.589332 
L 268.621512 150.483096 
L 272.005357 150.301958 
L 274.543241 150.478677 
L 277.222119 150.58903 
L 285.470242 150.439905 
L 290.687004 149.905655 
L 292.590417 150.091765 
L 296.749727 150.576466 
L 299.146618 150.544921 
L 304.856857 150.382647 
L 320.436646 150.543459 
L 325.935395 150.431298 
L 332.139112 150.583459 
L 335.311467 150.45576 
L 339.118293 150.219294 
L 341.021706 150.434759 
L 342.854622 150.588767 
L 344.123564 150.458004 
L 345.956481 149.992855 
L 347.366416 149.729221 
L 348.494365 149.747909 
L 349.833804 150.021373 
L 352.230694 150.549315 
L 353.570133 150.575386 
L 357.658946 150.462016 
L 360.549315 150.574815 
L 366.11856 150.420437 
L 369.643399 150.585626 
L 374.578174 150.511028 
L 378.455497 150.400101 
L 384.095239 150.539467 
L 387.690575 150.501167 
L 393.612305 150.518231 
L 398.899564 150.44739 
L 402.494899 150.569394 
L 406.795203 150.478082 
L 409.403584 150.568226 
L 410.179049 150.484666 
L 410.179049 150.484666 
" clip-path="url(#p60053b215b)" style="fill: none; stroke: #377eb8; stroke-width: 1.75; stroke-linecap: square"/>
   </g>
   <g id="line2d_14">
    <path d="M 57.836136 58.518917 
L 64.885814 58.520758 
L 65.802272 69.112724 
L 66.789227 78.094403 
L 67.846679 85.752324 
L 68.974627 92.318102 
L 70.173072 97.978741 
L 71.442014 102.885433 
L 72.781453 107.160787 
L 74.191389 110.904632 
L 75.671821 114.198623 
L 77.222751 117.109884 
L 78.844176 119.693872 
L 80.606596 122.085166 
L 82.510009 124.284062 
L 84.554416 126.296871 
L 86.739816 128.133622 
L 89.136707 129.853207 
L 91.745087 131.448298 
L 94.635455 132.951716 
L 97.878307 134.380119 
L 101.473643 135.715616 
L 105.562457 136.989883 
L 110.144747 138.181214 
L 115.432006 139.320274 
L 121.494729 140.393523 
L 128.544407 141.410059 
L 136.792531 142.368971 
L 146.521087 143.270733 
L 158.153055 144.119347 
L 172.181915 144.913143 
L 189.38313 145.655374 
L 210.673157 146.342676 
L 237.461934 146.976016 
L 271.864364 147.556821 
L 316.982304 148.084797 
L 377.609536 148.559652 
L 410.179049 148.747275 
L 410.179049 148.747275 
" clip-path="url(#p60053b215b)" style="fill: none; stroke-dasharray: 11.2,2.8,1.75,2.8; stroke-dashoffset: 0; stroke: #2ca02c; stroke-width: 1.75"/>
   </g>
   <g id="patch_3">
    <path d="M 40.21899 156.752677 
L 40.21899 21.16024 
" style="fill: none; stroke: #000000; stroke-width: 2; stroke-linejoin: miter; stroke-linecap: square"/>
   </g>
   <g id="patch_4">
    <path d="M 427.796194 156.752677 
L 427.796194 21.16024 
" style="fill: none; stroke: #000000; stroke-width: 2; stroke-linejoin: miter; stroke-linecap: square"/>
   </g>
   <g id="patch_5">
    <path d="M 40.21899 156.752677 
L 427.796194 156.752677 
" style="fill: none; stroke: #000000; stroke-width: 2; stroke-linejoin: miter; stroke-linecap: square"/>
   </g>
   <g id="patch_6">
    <path d="M 40.21899 21.16024 
L 427.796194 21.16024 
" style="fill: none; stroke: #000000; stroke-width: 2; stroke-linejoin: miter; stroke-linecap: square"/>
   </g>
   <g id="text_13">
    <!-- UDD ($N = 8$), $p = 0.985$ -->
    <g transform="translate(143.207592 15.16024) scale(0.16 -0.16)">
     <defs>
      <path id="DejaVuSans-55" d="M 556 4666 
L 1191 4666 
L 1191 1831 
Q 1191 1081 1462 751 
Q 1734 422 2344 422 
Q 2950 422 3222 751 
Q 3494 1081 3494 1831 
L 3494 4666 
L 4128 4666 
L 4128 1753 
Q 4128 841 3676 375 
Q 3225 -91 2344 -91 
Q 1459 -91 1007 375 
Q 556 841 556 1753 
L 556 4666 
z
" transform="scale(0.015625)"/>
      <path id="DejaVuSans-44" d="M 1259 4147 
L 1259 519 
L 2022 519 
Q 2988 519 3436 956 
Q 3884 1394 3884 2338 
Q 3884 3275 3436 3711 
Q 2988 4147 2022 4147 
L 1259 4147 
z
M 628 4666 
L 1925 4666 
Q 3281 4666 3915 4102 
Q 4550 3538 4550 2338 
Q 4550 1131 3912 565 
Q 3275 0 1925 0 
L 628 0 
L 628 4666 
z
" transform="scale(0.015625)"/>
      <path id="DejaVuSans-20" transform="scale(0.015625)"/>
      <path id="DejaVuSans-28" d="M 1984 4856 
Q 1566 4138 1362 3434 
Q 1159 2731 1159 2009 
Q 1159 1288 1364 580 
Q 1569 -128 1984 -844 
L 1484 -844 
Q 1016 -109 783 600 
Q 550 1309 550 2009 
Q 550 2706 781 3412 
Q 1013 4119 1484 4856 
L 1984 4856 
z
" transform="scale(0.015625)"/>
      <path id="DejaVuSans-Oblique-4e" d="M 1081 4666 
L 1931 4666 
L 3219 666 
L 4000 4666 
L 4616 4666 
L 3706 0 
L 2853 0 
L 1569 4025 
L 788 0 
L 172 0 
L 1081 4666 
z
" transform="scale(0.015625)"/>
      <path id="DejaVuSans-3d" d="M 678 2906 
L 4684 2906 
L 4684 2381 
L 678 2381 
L 678 2906 
z
M 678 1631 
L 4684 1631 
L 4684 1100 
L 678 1100 
L 678 1631 
z
" transform="scale(0.015625)"/>
      <path id="DejaVuSans-38" d="M 2034 2216 
Q 1584 2216 1326 1975 
Q 1069 1734 1069 1313 
Q 1069 891 1326 650 
Q 1584 409 2034 409 
Q 2484 409 2743 651 
Q 3003 894 3003 1313 
Q 3003 1734 2745 1975 
Q 2488 2216 2034 2216 
z
M 1403 2484 
Q 997 2584 770 2862 
Q 544 3141 544 3541 
Q 544 4100 942 4425 
Q 1341 4750 2034 4750 
Q 2731 4750 3128 4425 
Q 3525 4100 3525 3541 
Q 3525 3141 3298 2862 
Q 3072 2584 2669 2484 
Q 3125 2378 3379 2068 
Q 3634 1759 3634 1313 
Q 3634 634 3220 271 
Q 2806 -91 2034 -91 
Q 1263 -91 848 271 
Q 434 634 434 1313 
Q 434 1759 690 2068 
Q 947 2378 1403 2484 
z
M 1172 3481 
Q 1172 3119 1398 2916 
Q 1625 2713 2034 2713 
Q 2441 2713 2670 2916 
Q 2900 3119 2900 3481 
Q 2900 3844 2670 4047 
Q 2441 4250 2034 4250 
Q 1625 4250 1398 4047 
Q 1172 3844 1172 3481 
z
" transform="scale(0.015625)"/>
      <path id="DejaVuSans-29" d="M 513 4856 
L 1013 4856 
Q 1481 4119 1714 3412 
Q 1947 2706 1947 2009 
Q 1947 1309 1714 600 
Q 1481 -109 1013 -844 
L 513 -844 
Q 928 -128 1133 580 
Q 1338 1288 1338 2009 
Q 1338 2731 1133 3434 
Q 928 4138 513 4856 
z
" transform="scale(0.015625)"/>
      <path id="DejaVuSans-2c" d="M 750 794 
L 1409 794 
L 1409 256 
L 897 -744 
L 494 -744 
L 750 256 
L 750 794 
z
" transform="scale(0.015625)"/>
      <path id="DejaVuSans-Oblique-70" d="M 3175 2156 
Q 3175 2616 2975 2859 
Q 2775 3103 2400 3103 
Q 2144 3103 1911 2972 
Q 1678 2841 1497 2591 
Q 1319 2344 1212 1994 
Q 1106 1644 1106 1300 
Q 1106 863 1306 627 
Q 1506 391 1875 391 
Q 2147 391 2380 519 
Q 2613 647 2778 891 
Q 2956 1147 3065 1494 
Q 3175 1841 3175 2156 
z
M 1394 2969 
Q 1625 3272 1939 3428 
Q 2253 3584 2638 3584 
Q 3175 3584 3472 3232 
Q 3769 2881 3769 2247 
Q 3769 1728 3584 1258 
Q 3400 788 3053 416 
Q 2822 169 2531 39 
Q 2241 -91 1919 -91 
Q 1547 -91 1294 64 
Q 1041 219 916 525 
L 556 -1331 
L -19 -1331 
L 922 3500 
L 1497 3500 
L 1394 2969 
z
" transform="scale(0.015625)"/>
      <path id="DejaVuSans-39" d="M 703 97 
L 703 672 
Q 941 559 1184 500 
Q 1428 441 1663 441 
Q 2288 441 2617 861 
Q 2947 1281 2994 2138 
Q 2813 1869 2534 1725 
Q 2256 1581 1919 1581 
Q 1219 1581 811 2004 
Q 403 2428 403 3163 
Q 403 3881 828 4315 
Q 1253 4750 1959 4750 
Q 2769 4750 3195 4129 
Q 3622 3509 3622 2328 
Q 3622 1225 3098 567 
Q 2575 -91 1691 -91 
Q 1453 -91 1209 -44 
Q 966 3 703 97 
z
M 1959 2075 
Q 2384 2075 2632 2365 
Q 2881 2656 2881 3163 
Q 2881 3666 2632 3958 
Q 2384 4250 1959 4250 
Q 1534 4250 1286 3958 
Q 1038 3666 1038 3163 
Q 1038 2656 1286 2365 
Q 1534 2075 1959 2075 
z
" transform="scale(0.015625)"/>
     </defs>
     <use xlink:href="#DejaVuSans-55" transform="translate(0 0.125)"/>
     <use xlink:href="#DejaVuSans-44" transform="translate(73.193359 0.125)"/>
     <use xlink:href="#DejaVuSans-44" transform="translate(150.195312 0.125)"/>
     <use xlink:href="#DejaVuSans-20" transform="translate(227.197266 0.125)"/>
     <use xlink:href="#DejaVuSans-28" transform="translate(258.984375 0.125)"/>
     <use xlink:href="#DejaVuSans-Oblique-4e" transform="translate(297.998047 0.125)"/>
     <use xlink:href="#DejaVuSans-3d" transform="translate(392.285156 0.125)"/>
     <use xlink:href="#DejaVuSans-38" transform="translate(495.556641 0.125)"/>
     <use xlink:href="#DejaVuSans-29" transform="translate(559.179688 0.125)"/>
     <use xlink:href="#DejaVuSans-2c" transform="translate(598.193359 0.125)"/>
     <use xlink:href="#DejaVuSans-20" transform="translate(629.980469 0.125)"/>
     <use xlink:href="#DejaVuSans-Oblique-70" transform="translate(661.767578 0.125)"/>
     <use xlink:href="#DejaVuSans-3d" transform="translate(744.726562 0.125)"/>
     <use xlink:href="#DejaVuSans-30" transform="translate(847.998047 0.125)"/>
     <use xlink:href="#DejaVuSans-2e" transform="translate(911.621094 0.125)"/>
     <use xlink:href="#DejaVuSans-39" transform="translate(943.408203 0.125)"/>
     <use xlink:href="#DejaVuSans-38" transform="translate(1007.03125 0.125)"/>
     <use xlink:href="#DejaVuSans-35" transform="translate(1070.654297 0.125)"/>
    </g>
   </g>
   <g id="axes_2">
    <g id="patch_7">
     <path d="M 156.492151 48.278727 
L 311.523033 48.278727 
L 311.523033 27.939862 
L 156.492151 27.939862 
z
" style="fill: #ffffff"/>
    </g>
    <g id="matplotlib.axis_3">
     <g id="xtick_9">
      <g id="line2d_15">
       <g>
        <use xlink:href="#m1e88cf39ab" x="156.492151" y="48.278727" style="stroke: #000000; stroke-width: 2"/>
       </g>
      </g>
      <g id="text_14">
       <!-- 0 -->
       <g transform="translate(153.438151 66.073227) scale(0.096 -0.096)">
        <use xlink:href="#DejaVuSans-30"/>
       </g>
      </g>
     </g>
     <g id="xtick_10">
      <g id="line2d_16">
       <g>
        <use xlink:href="#m1e88cf39ab" x="187.498328" y="48.278727" style="stroke: #000000; stroke-width: 2"/>
       </g>
      </g>
      <g id="text_15">
       <!-- 0.2T -->
       <g transform="translate(176.933078 66.073227) scale(0.096 -0.096)">
        <defs>
         <path id="DejaVuSans-54" d="M -19 4666 
L 3928 4666 
L 3928 4134 
L 2272 4134 
L 2272 0 
L 1638 0 
L 1638 4134 
L -19 4134 
L -19 4666 
z
" transform="scale(0.015625)"/>
        </defs>
        <use xlink:href="#DejaVuSans-30"/>
        <use xlink:href="#DejaVuSans-2e" x="63.623047"/>
        <use xlink:href="#DejaVuSans-32" x="95.410156"/>
        <use xlink:href="#DejaVuSans-54" x="159.033203"/>
       </g>
      </g>
     </g>
     <g id="xtick_11">
      <g id="line2d_17">
       <g>
        <use xlink:href="#m1e88cf39ab" x="218.504504" y="48.278727" style="stroke: #000000; stroke-width: 2"/>
       </g>
      </g>
      <g id="text_16">
       <!-- 0.4T -->
       <g transform="translate(207.939254 66.073227) scale(0.096 -0.096)">
        <use xlink:href="#DejaVuSans-30"/>
        <use xlink:href="#DejaVuSans-2e" x="63.623047"/>
        <use xlink:href="#DejaVuSans-34" x="95.410156"/>
        <use xlink:href="#DejaVuSans-54" x="159.033203"/>
       </g>
      </g>
     </g>
     <g id="xtick_12">
      <g id="line2d_18">
       <g>
        <use xlink:href="#m1e88cf39ab" x="249.51068" y="48.278727" style="stroke: #000000; stroke-width: 2"/>
       </g>
      </g>
      <g id="text_17">
       <!-- 0.6T -->
       <g transform="translate(238.94543 66.073227) scale(0.096 -0.096)">
        <use xlink:href="#DejaVuSans-30"/>
        <use xlink:href="#DejaVuSans-2e" x="63.623047"/>
        <use xlink:href="#DejaVuSans-36" x="95.410156"/>
        <use xlink:href="#DejaVuSans-54" x="159.033203"/>
       </g>
      </g>
     </g>
     <g id="xtick_13">
      <g id="line2d_19">
       <g>
        <use xlink:href="#m1e88cf39ab" x="280.516857" y="48.278727" style="stroke: #000000; stroke-width: 2"/>
       </g>
      </g>
      <g id="text_18">
       <!-- 0.8T -->
       <g transform="translate(269.951607 66.073227) scale(0.096 -0.096)">
        <use xlink:href="#DejaVuSans-30"/>
        <use xlink:href="#DejaVuSans-2e" x="63.623047"/>
        <use xlink:href="#DejaVuSans-38" x="95.410156"/>
        <use xlink:href="#DejaVuSans-54" x="159.033203"/>
       </g>
      </g>
     </g>
     <g id="xtick_14">
      <g id="line2d_20">
       <g>
        <use xlink:href="#m1e88cf39ab" x="311.523033" y="48.278727" style="stroke: #000000; stroke-width: 2"/>
       </g>
      </g>
      <g id="text_19">
       <!-- T -->
       <g transform="translate(308.591283 66.073227) scale(0.096 -0.096)">
        <use xlink:href="#DejaVuSans-54"/>
       </g>
      </g>
     </g>
     <g id="text_20">
      <!-- Time -->
      <g transform="translate(220.305967 80.579977) scale(0.112 -0.112)">
       <defs>
        <path id="DejaVuSans-69" d="M 603 3500 
L 1178 3500 
L 1178 0 
L 603 0 
L 603 3500 
z
M 603 4863 
L 1178 4863 
L 1178 4134 
L 603 4134 
L 603 4863 
z
" transform="scale(0.015625)"/>
        <path id="DejaVuSans-6d" d="M 3328 2828 
Q 3544 3216 3844 3400 
Q 4144 3584 4550 3584 
Q 5097 3584 5394 3201 
Q 5691 2819 5691 2113 
L 5691 0 
L 5113 0 
L 5113 2094 
Q 5113 2597 4934 2840 
Q 4756 3084 4391 3084 
Q 3944 3084 3684 2787 
Q 3425 2491 3425 1978 
L 3425 0 
L 2847 0 
L 2847 2094 
Q 2847 2600 2669 2842 
Q 2491 3084 2119 3084 
Q 1678 3084 1418 2786 
Q 1159 2488 1159 1978 
L 1159 0 
L 581 0 
L 581 3500 
L 1159 3500 
L 1159 2956 
Q 1356 3278 1631 3431 
Q 1906 3584 2284 3584 
Q 2666 3584 2933 3390 
Q 3200 3197 3328 2828 
z
" transform="scale(0.015625)"/>
        <path id="DejaVuSans-65" d="M 3597 1894 
L 3597 1613 
L 953 1613 
Q 991 1019 1311 708 
Q 1631 397 2203 397 
Q 2534 397 2845 478 
Q 3156 559 3463 722 
L 3463 178 
Q 3153 47 2828 -22 
Q 2503 -91 2169 -91 
Q 1331 -91 842 396 
Q 353 884 353 1716 
Q 353 2575 817 3079 
Q 1281 3584 2069 3584 
Q 2775 3584 3186 3129 
Q 3597 2675 3597 1894 
z
M 3022 2063 
Q 3016 2534 2758 2815 
Q 2500 3097 2075 3097 
Q 1594 3097 1305 2825 
Q 1016 2553 972 2059 
L 3022 2063 
z
" transform="scale(0.015625)"/>
       </defs>
       <use xlink:href="#DejaVuSans-54"/>
       <use xlink:href="#DejaVuSans-69" x="57.958984"/>
       <use xlink:href="#DejaVuSans-6d" x="85.742188"/>
       <use xlink:href="#DejaVuSans-65" x="183.154297"/>
      </g>
     </g>
    </g>
    <g id="matplotlib.axis_4"/>
    <g id="LineCollection_1">
     <path d="M 161.166904 48.278727 
L 161.166904 27.939862 
" clip-path="url(#p94e4fd642e)" style="fill: none; stroke: #377eb8; stroke-width: 2.5"/>
     <path d="M 174.627319 48.278727 
L 174.627319 27.939862 
" clip-path="url(#p94e4fd642e)" style="fill: none; stroke: #377eb8; stroke-width: 2.5"/>
     <path d="M 195.249872 48.278727 
L 195.249872 27.939862 
" clip-path="url(#p94e4fd642e)" style="fill: none; stroke: #377eb8; stroke-width: 2.5"/>
     <path d="M 220.547177 48.278727 
L 220.547177 27.939862 
" clip-path="url(#p94e4fd642e)" style="fill: none; stroke: #377eb8; stroke-width: 2.5"/>
     <path d="M 247.468007 48.278727 
L 247.468007 27.939862 
" clip-path="url(#p94e4fd642e)" style="fill: none; stroke: #377eb8; stroke-width: 2.5"/>
     <path d="M 272.765313 48.278727 
L 272.765313 27.939862 
" clip-path="url(#p94e4fd642e)" style="fill: none; stroke: #377eb8; stroke-width: 2.5"/>
     <path d="M 293.387865 48.278727 
L 293.387865 27.939862 
" clip-path="url(#p94e4fd642e)" style="fill: none; stroke: #377eb8; stroke-width: 2.5"/>
     <path d="M 306.84828 48.278727 
L 306.84828 27.939862 
" clip-path="url(#p94e4fd642e)" style="fill: none; stroke: #377eb8; stroke-width: 2.5"/>
    </g>
    <g id="patch_8">
     <path d="M 156.492151 48.278727 
L 156.492151 27.939862 
" style="fill: none; stroke: #000000; stroke-width: 2; stroke-linejoin: miter; stroke-linecap: square"/>
    </g>
    <g id="patch_9">
     <path d="M 311.523033 48.278727 
L 311.523033 27.939862 
" style="fill: none; stroke: #000000; stroke-width: 2; stroke-linejoin: miter; stroke-linecap: square"/>
    </g>
    <g id="patch_10">
     <path d="M 156.492151 48.278727 
L 311.523033 48.278727 
" style="fill: none; stroke: #000000; stroke-width: 2; stroke-linejoin: miter; stroke-linecap: square"/>
    </g>
    <g id="patch_11">
     <path d="M 156.492151 27.939862 
L 311.523033 27.939862 
" style="fill: none; stroke: #000000; stroke-width: 2; stroke-linejoin: miter; stroke-linecap: square"/>
    </g>
   </g>
   <g id="legend_1">
    <g id="patch_12">
     <path d="M 257.91068 130.980912 
L 418.95068 130.980912 
Q 421.35068 130.980912 421.35068 128.580912 
L 421.35068 89.220912 
Q 421.35068 86.820912 418.95068 86.820912 
L 257.91068 86.820912 
Q 255.51068 86.820912 255.51068 89.220912 
L 255.51068 128.580912 
Q 255.51068 130.980912 257.91068 130.980912 
z
" style="fill: #ffffff; opacity: 0.8; stroke: #cccccc; stroke-linejoin: miter"/>
    </g>
    <g id="line2d_21">
     <path d="M 260.31068 98.340912 
L 272.31068 98.340912 
L 284.31068 98.340912 
" style="fill: none; stroke: #377eb8; stroke-width: 1.75; stroke-linecap: square"/>
    </g>
    <g id="text_21">
     <!-- $F(\omega) \left[T_2^*\right]$ -->
     <g transform="translate(293.91068 102.540912) scale(0.12 -0.12)">
      <defs>
       <path id="DejaVuSans-Oblique-46" d="M 1081 4666 
L 3756 4666 
L 3653 4134 
L 1606 4134 
L 1338 2759 
L 3188 2759 
L 3084 2228 
L 1234 2228 
L 800 0 
L 172 0 
L 1081 4666 
z
" transform="scale(0.015625)"/>
       <path id="DejaVuSans-Oblique-3c9" d="M 1369 -91 
Q 72 -91 434 1766 
Q 575 2500 1256 3500 
L 1875 3500 
Q 1231 2500 1088 1750 
Q 819 397 1519 397 
Q 2166 397 2478 2078 
L 3009 2078 
Q 2669 388 3316 397 
Q 4013 403 4275 1750 
Q 4419 2500 4169 3500 
L 4788 3500 
Q 5075 2500 4934 1766 
Q 4578 -94 3278 -91 
Q 2428 -88 2503 844 
Q 2194 -91 1369 -91 
z
" transform="scale(0.015625)"/>
       <path id="STIXSizeOneSym-Regular-5b" d="M 2323 -1050 
L 1152 -1050 
L 1152 6822 
L 2323 6822 
L 2323 6611 
L 1600 6611 
L 1600 -838 
L 2323 -838 
L 2323 -1050 
z
" transform="scale(0.015625)"/>
       <path id="DejaVuSans-Oblique-54" d="M 378 4666 
L 4325 4666 
L 4225 4134 
L 2559 4134 
L 1759 0 
L 1125 0 
L 1925 4134 
L 275 4134 
L 378 4666 
z
" transform="scale(0.015625)"/>
       <path id="DejaVuSans-2a" d="M 3009 3897 
L 1888 3291 
L 3009 2681 
L 2828 2375 
L 1778 3009 
L 1778 1831 
L 1422 1831 
L 1422 3009 
L 372 2375 
L 191 2681 
L 1313 3291 
L 191 3897 
L 372 4206 
L 1422 3572 
L 1422 4750 
L 1778 4750 
L 1778 3572 
L 2828 4206 
L 3009 3897 
z
" transform="scale(0.015625)"/>
       <path id="STIXSizeOneSym-Regular-5d" d="M 1299 -1050 
L 128 -1050 
L 128 -838 
L 851 -838 
L 851 6611 
L 128 6611 
L 128 6822 
L 1299 6822 
L 1299 -1050 
z
" transform="scale(0.015625)"/>
      </defs>
      <use xlink:href="#DejaVuSans-Oblique-46" transform="translate(0 0.765625)"/>
      <use xlink:href="#DejaVuSans-28" transform="translate(57.519531 0.765625)"/>
      <use xlink:href="#DejaVuSans-Oblique-3c9" transform="translate(96.533203 0.765625)"/>
      <use xlink:href="#DejaVuSans-29" transform="translate(180.273438 0.765625)"/>
      <use xlink:href="#STIXSizeOneSym-Regular-5b" transform="translate(219.287109 -10.90625) scale(0.95592)"/>
      <use xlink:href="#DejaVuSans-Oblique-54" transform="translate(255.893524 0.765625)"/>
      <use xlink:href="#DejaVuSans-2a" transform="translate(337.631975 39.046875) scale(0.7)"/>
      <use xlink:href="#DejaVuSans-32" transform="translate(316.977509 -26.578125) scale(0.7)"/>
      <use xlink:href="#STIXSizeOneSym-Regular-5d" transform="translate(389.004045 -10.90625) scale(0.95592)"/>
     </g>
    </g>
    <g id="line2d_22">
     <path d="M 260.31068 118.620912 
L 272.31068 118.620912 
L 284.31068 118.620912 
" style="fill: none; stroke-dasharray: 11.2,2.8,1.75,2.8; stroke-dashoffset: 0; stroke: #2ca02c; stroke-width: 1.75"/>
    </g>
    <g id="text_22">
     <!-- $\mathrm{Re}[S(\omega)]/(2\pi)^2 \left[1/T_2^*\right]$ -->
     <g transform="translate(293.91068 122.820912) scale(0.12 -0.12)">
      <defs>
       <path id="DejaVuSans-52" d="M 2841 2188 
Q 3044 2119 3236 1894 
Q 3428 1669 3622 1275 
L 4263 0 
L 3584 0 
L 2988 1197 
Q 2756 1666 2539 1819 
Q 2322 1972 1947 1972 
L 1259 1972 
L 1259 0 
L 628 0 
L 628 4666 
L 2053 4666 
Q 2853 4666 3247 4331 
Q 3641 3997 3641 3322 
Q 3641 2881 3436 2590 
Q 3231 2300 2841 2188 
z
M 1259 4147 
L 1259 2491 
L 2053 2491 
Q 2509 2491 2742 2702 
Q 2975 2913 2975 3322 
Q 2975 3731 2742 3939 
Q 2509 4147 2053 4147 
L 1259 4147 
z
" transform="scale(0.015625)"/>
       <path id="DejaVuSans-5b" d="M 550 4863 
L 1875 4863 
L 1875 4416 
L 1125 4416 
L 1125 -397 
L 1875 -397 
L 1875 -844 
L 550 -844 
L 550 4863 
z
" transform="scale(0.015625)"/>
       <path id="DejaVuSans-Oblique-53" d="M 3859 4513 
L 3738 3897 
Q 3422 4066 3111 4152 
Q 2800 4238 2509 4238 
Q 1944 4238 1609 3991 
Q 1275 3744 1275 3334 
Q 1275 3109 1398 2989 
Q 1522 2869 2034 2731 
L 2413 2638 
Q 3053 2472 3303 2217 
Q 3553 1963 3553 1503 
Q 3553 797 2998 353 
Q 2444 -91 1538 -91 
Q 1166 -91 791 -17 
Q 416 56 38 206 
L 166 856 
Q 513 641 861 531 
Q 1209 422 1556 422 
Q 2147 422 2503 684 
Q 2859 947 2859 1369 
Q 2859 1650 2717 1795 
Q 2575 1941 2106 2059 
L 1728 2156 
Q 1081 2325 845 2545 
Q 609 2766 609 3163 
Q 609 3859 1145 4304 
Q 1681 4750 2541 4750 
Q 2875 4750 3203 4690 
Q 3531 4631 3859 4513 
z
" transform="scale(0.015625)"/>
       <path id="DejaVuSans-5d" d="M 1947 4863 
L 1947 -844 
L 622 -844 
L 622 -397 
L 1369 -397 
L 1369 4416 
L 622 4416 
L 622 4863 
L 1947 4863 
z
" transform="scale(0.015625)"/>
       <path id="DejaVuSans-2f" d="M 1625 4666 
L 2156 4666 
L 531 -594 
L 0 -594 
L 1625 4666 
z
" transform="scale(0.015625)"/>
       <path id="DejaVuSans-Oblique-3c0" d="M 584 3500 
L 3938 3500 
L 3825 2925 
L 3384 2925 
L 2966 775 
Q 2922 550 2981 450 
Q 3038 353 3209 353 
Q 3256 353 3325 363 
Q 3397 369 3419 372 
L 3338 -44 
Q 3222 -84 3103 -103 
Q 2981 -122 2866 -122 
Q 2491 -122 2388 81 
Q 2284 288 2391 838 
L 2797 2925 
L 1506 2925 
L 938 0 
L 350 0 
L 919 2925 
L 472 2925 
L 584 3500 
z
" transform="scale(0.015625)"/>
      </defs>
      <use xlink:href="#DejaVuSans-52" transform="translate(0 0.765625)"/>
      <use xlink:href="#DejaVuSans-65" transform="translate(69.482422 0.765625)"/>
      <use xlink:href="#DejaVuSans-5b" transform="translate(131.005859 0.765625)"/>
      <use xlink:href="#DejaVuSans-Oblique-53" transform="translate(170.019531 0.765625)"/>
      <use xlink:href="#DejaVuSans-28" transform="translate(233.496094 0.765625)"/>
      <use xlink:href="#DejaVuSans-Oblique-3c9" transform="translate(272.509766 0.765625)"/>
      <use xlink:href="#DejaVuSans-29" transform="translate(356.25 0.765625)"/>
      <use xlink:href="#DejaVuSans-5d" transform="translate(395.263672 0.765625)"/>
      <use xlink:href="#DejaVuSans-2f" transform="translate(434.277344 0.765625)"/>
      <use xlink:href="#DejaVuSans-28" transform="translate(467.96875 0.765625)"/>
      <use xlink:href="#DejaVuSans-32" transform="translate(506.982422 0.765625)"/>
      <use xlink:href="#DejaVuSans-Oblique-3c0" transform="translate(570.605469 0.765625)"/>
      <use xlink:href="#DejaVuSans-29" transform="translate(630.810547 0.765625)"/>
      <use xlink:href="#DejaVuSans-32" transform="translate(670.78125 39.046875) scale(0.7)"/>
      <use xlink:href="#STIXSizeOneSym-Regular-5b" transform="translate(718.051758 -10.90625) scale(0.95592)"/>
      <use xlink:href="#DejaVuSans-31" transform="translate(754.658173 0.765625)"/>
      <use xlink:href="#DejaVuSans-2f" transform="translate(818.281219 0.765625)"/>
      <use xlink:href="#DejaVuSans-Oblique-54" transform="translate(851.972626 0.765625)"/>
      <use xlink:href="#DejaVuSans-2a" transform="translate(933.711076 39.046875) scale(0.7)"/>
      <use xlink:href="#DejaVuSans-32" transform="translate(913.05661 -26.578125) scale(0.7)"/>
      <use xlink:href="#STIXSizeOneSym-Regular-5d" transform="translate(985.083147 -10.90625) scale(0.95592)"/>
     </g>
    </g>
   </g>
  </g>
  <g id="axes_3">
   <g id="patch_13">
    <path d="M 40.21899 338.619343 
L 427.796194 338.619343 
L 427.796194 203.026907 
L 40.21899 203.026907 
z
" style="fill: #ffffff"/>
   </g>
   <g id="matplotlib.axis_5">
    <g id="xtick_15">
     <g id="line2d_23">
      <g>
       <use xlink:href="#m1e88cf39ab" x="57.836136" y="338.619343" style="stroke: #000000; stroke-width: 2"/>
      </g>
     </g>
     <g id="text_23">
      <!-- 0 -->
      <g transform="translate(54.018636 358.237468) scale(0.12 -0.12)">
       <use xlink:href="#DejaVuSans-30"/>
      </g>
     </g>
    </g>
    <g id="xtick_16">
     <g id="line2d_24">
      <g>
       <use xlink:href="#m1e88cf39ab" x="108.44018" y="338.619343" style="stroke: #000000; stroke-width: 2"/>
      </g>
     </g>
     <g id="text_24">
      <!-- 50 -->
      <g transform="translate(100.80518 358.237468) scale(0.12 -0.12)">
       <use xlink:href="#DejaVuSans-35"/>
       <use xlink:href="#DejaVuSans-30" x="63.623047"/>
      </g>
     </g>
    </g>
    <g id="xtick_17">
     <g id="line2d_25">
      <g>
       <use xlink:href="#m1e88cf39ab" x="159.044224" y="338.619343" style="stroke: #000000; stroke-width: 2"/>
      </g>
     </g>
     <g id="text_25">
      <!-- 100 -->
      <g transform="translate(147.591724 358.237468) scale(0.12 -0.12)">
       <use xlink:href="#DejaVuSans-31"/>
       <use xlink:href="#DejaVuSans-30" x="63.623047"/>
       <use xlink:href="#DejaVuSans-30" x="127.246094"/>
      </g>
     </g>
    </g>
    <g id="xtick_18">
     <g id="line2d_26">
      <g>
       <use xlink:href="#m1e88cf39ab" x="209.648268" y="338.619343" style="stroke: #000000; stroke-width: 2"/>
      </g>
     </g>
     <g id="text_26">
      <!-- 150 -->
      <g transform="translate(198.195768 358.237468) scale(0.12 -0.12)">
       <use xlink:href="#DejaVuSans-31"/>
       <use xlink:href="#DejaVuSans-35" x="63.623047"/>
       <use xlink:href="#DejaVuSans-30" x="127.246094"/>
      </g>
     </g>
    </g>
    <g id="xtick_19">
     <g id="line2d_27">
      <g>
       <use xlink:href="#m1e88cf39ab" x="260.252313" y="338.619343" style="stroke: #000000; stroke-width: 2"/>
      </g>
     </g>
     <g id="text_27">
      <!-- 200 -->
      <g transform="translate(248.799813 358.237468) scale(0.12 -0.12)">
       <use xlink:href="#DejaVuSans-32"/>
       <use xlink:href="#DejaVuSans-30" x="63.623047"/>
       <use xlink:href="#DejaVuSans-30" x="127.246094"/>
      </g>
     </g>
    </g>
    <g id="xtick_20">
     <g id="line2d_28">
      <g>
       <use xlink:href="#m1e88cf39ab" x="310.856357" y="338.619343" style="stroke: #000000; stroke-width: 2"/>
      </g>
     </g>
     <g id="text_28">
      <!-- 250 -->
      <g transform="translate(299.403857 358.237468) scale(0.12 -0.12)">
       <use xlink:href="#DejaVuSans-32"/>
       <use xlink:href="#DejaVuSans-35" x="63.623047"/>
       <use xlink:href="#DejaVuSans-30" x="127.246094"/>
      </g>
     </g>
    </g>
    <g id="xtick_21">
     <g id="line2d_29">
      <g>
       <use xlink:href="#m1e88cf39ab" x="361.460401" y="338.619343" style="stroke: #000000; stroke-width: 2"/>
      </g>
     </g>
     <g id="text_29">
      <!-- 300 -->
      <g transform="translate(350.007901 358.237468) scale(0.12 -0.12)">
       <use xlink:href="#DejaVuSans-33"/>
       <use xlink:href="#DejaVuSans-30" x="63.623047"/>
       <use xlink:href="#DejaVuSans-30" x="127.246094"/>
      </g>
     </g>
    </g>
    <g id="xtick_22">
     <g id="line2d_30">
      <g>
       <use xlink:href="#m1e88cf39ab" x="412.064445" y="338.619343" style="stroke: #000000; stroke-width: 2"/>
      </g>
     </g>
     <g id="text_30">
      <!-- 350 -->
      <g transform="translate(400.611945 358.237468) scale(0.12 -0.12)">
       <use xlink:href="#DejaVuSans-33"/>
       <use xlink:href="#DejaVuSans-35" x="63.623047"/>
       <use xlink:href="#DejaVuSans-30" x="127.246094"/>
      </g>
     </g>
    </g>
   </g>
   <g id="matplotlib.axis_6">
    <g id="ytick_5">
     <g id="line2d_31">
      <g>
       <use xlink:href="#mcc0f5833a5" x="40.21899" y="332.456051" style="stroke: #000000; stroke-width: 2"/>
      </g>
     </g>
     <g id="text_31">
      <!-- 0.00 -->
      <g transform="translate(3.00024 337.015113) scale(0.12 -0.12)">
       <use xlink:href="#DejaVuSans-30"/>
       <use xlink:href="#DejaVuSans-2e" x="63.623047"/>
       <use xlink:href="#DejaVuSans-30" x="95.410156"/>
       <use xlink:href="#DejaVuSans-30" x="159.033203"/>
      </g>
     </g>
    </g>
    <g id="ytick_6">
     <g id="line2d_32">
      <g>
       <use xlink:href="#mcc0f5833a5" x="40.21899" y="290.709107" style="stroke: #000000; stroke-width: 2"/>
      </g>
     </g>
     <g id="text_32">
      <!-- 0.02 -->
      <g transform="translate(3.00024 295.268169) scale(0.12 -0.12)">
       <use xlink:href="#DejaVuSans-30"/>
       <use xlink:href="#DejaVuSans-2e" x="63.623047"/>
       <use xlink:href="#DejaVuSans-30" x="95.410156"/>
       <use xlink:href="#DejaVuSans-32" x="159.033203"/>
      </g>
     </g>
    </g>
    <g id="ytick_7">
     <g id="line2d_33">
      <g>
       <use xlink:href="#mcc0f5833a5" x="40.21899" y="248.962163" style="stroke: #000000; stroke-width: 2"/>
      </g>
     </g>
     <g id="text_33">
      <!-- 0.04 -->
      <g transform="translate(3.00024 253.521225) scale(0.12 -0.12)">
       <use xlink:href="#DejaVuSans-30"/>
       <use xlink:href="#DejaVuSans-2e" x="63.623047"/>
       <use xlink:href="#DejaVuSans-30" x="95.410156"/>
       <use xlink:href="#DejaVuSans-34" x="159.033203"/>
      </g>
     </g>
    </g>
    <g id="ytick_8">
     <g id="line2d_34">
      <g>
       <use xlink:href="#mcc0f5833a5" x="40.21899" y="207.215219" style="stroke: #000000; stroke-width: 2"/>
      </g>
     </g>
     <g id="text_34">
      <!-- 0.06 -->
      <g transform="translate(3.00024 211.774281) scale(0.12 -0.12)">
       <use xlink:href="#DejaVuSans-30"/>
       <use xlink:href="#DejaVuSans-2e" x="63.623047"/>
       <use xlink:href="#DejaVuSans-30" x="95.410156"/>
       <use xlink:href="#DejaVuSans-36" x="159.033203"/>
      </g>
     </g>
    </g>
   </g>
   <g id="line2d_35">
    <path d="M 57.836136 328.75637 
L 58.259116 328.885233 
L 58.752594 329.335646 
L 59.457562 330.365439 
L 60.58551 332.026295 
L 61.078988 332.396948 
L 61.501968 332.441122 
L 61.924949 332.22077 
L 62.418426 331.666437 
L 63.264388 330.26965 
L 64.180846 328.876352 
L 64.674323 328.489452 
L 65.097304 328.448348 
L 65.520285 328.686 
L 66.013762 329.273184 
L 66.859724 330.727856 
L 67.705685 332.038052 
L 68.199162 332.416617 
L 68.551646 332.438161 
L 68.90413 332.237449 
L 69.327111 331.718476 
L 69.961582 330.500421 
L 71.371518 327.601469 
L 71.794498 327.176293 
L 72.146982 327.091198 
L 72.499466 327.2663 
L 72.922447 327.801922 
L 73.486421 328.949177 
L 74.896357 332.049737 
L 75.319337 332.42931 
L 75.601325 332.428366 
L 75.883312 332.203973 
L 76.235796 331.605222 
L 76.729273 330.221808 
L 77.504738 327.18136 
L 78.491693 323.414031 
L 78.98517 322.334363 
L 79.267157 322.10243 
L 79.478648 322.134429 
L 79.760635 322.459546 
L 80.113119 323.306373 
L 80.606596 325.19519 
L 82.228022 332.180867 
L 82.510009 332.45605 
L 82.651003 332.379307 
L 82.862493 331.957294 
L 83.14448 330.756821 
L 83.496964 328.115626 
L 83.919945 323.129184 
L 84.483919 313.307665 
L 85.188887 296.372224 
L 86.316835 262.636014 
L 87.515281 228.778781 
L 88.149752 216.418942 
L 88.643229 210.834777 
L 88.925216 209.408344 
L 89.136707 209.205121 
L 89.2777 209.481779 
L 89.48919 210.506349 
L 89.841674 213.783257 
L 90.264655 220.102572 
L 90.899126 233.614908 
L 91.886081 260.447023 
L 93.366513 300.139982 
L 94.141978 315.416208 
L 94.776449 324.046227 
L 95.340423 328.90503 
L 95.833901 331.295225 
L 96.186385 332.146401 
L 96.468372 332.424963 
L 96.750359 332.427338 
L 97.102843 332.151946 
L 97.737314 331.25735 
L 98.653772 330.035535 
L 99.147249 329.714963 
L 99.57023 329.676016 
L 100.063708 329.879058 
L 100.698179 330.420919 
L 102.531095 332.143313 
L 103.236063 332.416464 
L 103.941031 332.44099 
L 105.068979 332.205228 
L 106.408418 331.990482 
L 107.536366 332.065404 
L 110.779218 332.455871 
L 130.095336 332.42466 
L 133.620176 332.391535 
L 136.58104 332.294908 
L 139.894389 332.385295 
L 141.374821 332.048568 
L 142.784757 331.79206 
L 143.701215 331.864282 
L 144.899661 332.228922 
L 145.886615 332.454701 
L 146.45059 332.374694 
L 146.944067 332.095076 
L 147.437545 331.571887 
L 148.001519 330.642589 
L 148.706487 328.990399 
L 149.693442 325.982386 
L 151.314868 320.975233 
L 151.949339 319.668406 
L 152.442816 319.090529 
L 152.7953 318.941937 
L 153.147784 319.020292 
L 153.500268 319.321464 
L 153.993745 320.090983 
L 154.628216 321.579965 
L 155.615171 324.581339 
L 157.1661 329.229446 
L 157.941565 330.87408 
L 158.576036 331.760651 
L 159.14001 332.221056 
L 159.703985 332.4264 
L 160.408952 332.431971 
L 161.959882 332.108342 
L 163.08783 332.019671 
L 164.427269 332.171323 
L 166.683166 332.449206 
L 168.727573 332.400767 
L 171.40645 332.393813 
L 176.059238 332.443302 
L 193.401446 332.446381 
L 203.975963 332.394651 
L 207.148318 332.260428 
L 210.250177 332.367881 
L 211.025641 332.083821 
L 211.801106 331.564951 
L 212.717564 330.672431 
L 215.325945 327.936763 
L 215.960416 327.646933 
L 216.52439 327.604212 
L 217.088365 327.768188 
L 217.793332 328.235112 
L 218.709791 329.155957 
L 220.965688 331.559249 
L 221.811649 332.101361 
L 222.65761 332.381887 
L 223.644565 332.454413 
L 229.002321 332.415403 
L 231.610702 332.444143 
L 237.038954 332.454965 
L 261.501337 332.436633 
L 272.216848 332.440267 
L 273.767777 332.403534 
L 274.825228 332.165999 
L 275.953177 331.673125 
L 279.196029 330.043622 
L 280.04199 329.984204 
L 280.887952 330.158832 
L 281.874907 330.601957 
L 285.047262 332.214973 
L 286.17521 332.424249 
L 287.655643 332.439149 
L 291.250979 332.394381 
L 295.833269 332.442048 
L 307.112754 332.455826 
L 337.778854 332.364946 
L 339.118293 332.072569 
L 343.207106 330.957067 
L 344.264558 331.050225 
L 345.5335 331.401264 
L 348.494365 332.308957 
L 349.904301 332.448805 
L 352.371688 332.410938 
L 356.037521 332.445039 
L 363.792166 332.455461 
L 401.084964 332.407557 
L 402.776887 332.157513 
L 406.583713 331.453974 
L 407.852655 331.532732 
L 409.615074 331.899345 
L 410.179049 332.034479 
L 410.179049 332.034479 
" clip-path="url(#pf22db40dbb)" style="fill: none; stroke: #d62728; stroke-width: 1.75; stroke-linecap: square"/>
   </g>
   <g id="line2d_36">
    <path d="M 57.836136 240.385584 
L 64.885814 240.387425 
L 65.802272 250.979391 
L 66.789227 259.96107 
L 67.846679 267.61899 
L 68.974627 274.184769 
L 70.173072 279.845407 
L 71.442014 284.7521 
L 72.781453 289.027454 
L 74.191389 292.771298 
L 75.671821 296.06529 
L 77.222751 298.97655 
L 78.844176 301.560539 
L 80.606596 303.951832 
L 82.510009 306.150729 
L 84.554416 308.163537 
L 86.739816 310.000288 
L 89.136707 311.719874 
L 91.745087 313.314964 
L 94.635455 314.818383 
L 97.878307 316.246786 
L 101.473643 317.582282 
L 105.562457 318.856549 
L 110.144747 320.04788 
L 115.432006 321.186941 
L 121.494729 322.26019 
L 128.544407 323.276726 
L 136.792531 324.235638 
L 146.521087 325.1374 
L 158.153055 325.986014 
L 172.181915 326.77981 
L 189.38313 327.522041 
L 210.673157 328.209343 
L 237.461934 328.842682 
L 271.864364 329.423487 
L 316.982304 329.951464 
L 377.609536 330.426319 
L 410.179049 330.613941 
L 410.179049 330.613941 
" clip-path="url(#pf22db40dbb)" style="fill: none; stroke-dasharray: 11.2,2.8,1.75,2.8; stroke-dashoffset: 0; stroke: #2ca02c; stroke-width: 1.75"/>
   </g>
   <g id="patch_14">
    <path d="M 40.21899 338.619343 
L 40.21899 203.026907 
" style="fill: none; stroke: #000000; stroke-width: 2; stroke-linejoin: miter; stroke-linecap: square"/>
   </g>
   <g id="patch_15">
    <path d="M 427.796194 338.619343 
L 427.796194 203.026907 
" style="fill: none; stroke: #000000; stroke-width: 2; stroke-linejoin: miter; stroke-linecap: square"/>
   </g>
   <g id="patch_16">
    <path d="M 40.21899 338.619343 
L 427.796194 338.619343 
" style="fill: none; stroke: #000000; stroke-width: 2; stroke-linejoin: miter; stroke-linecap: square"/>
   </g>
   <g id="patch_17">
    <path d="M 40.21899 203.026907 
L 427.796194 203.026907 
" style="fill: none; stroke: #000000; stroke-width: 2; stroke-linejoin: miter; stroke-linecap: square"/>
   </g>
   <g id="text_35">
    <!-- PDD ($N = 8$), $p = 0.987$ -->
    <g transform="translate(144.247592 197.026907) scale(0.16 -0.16)">
     <defs>
      <path id="DejaVuSans-50" d="M 1259 4147 
L 1259 2394 
L 2053 2394 
Q 2494 2394 2734 2622 
Q 2975 2850 2975 3272 
Q 2975 3691 2734 3919 
Q 2494 4147 2053 4147 
L 1259 4147 
z
M 628 4666 
L 2053 4666 
Q 2838 4666 3239 4311 
Q 3641 3956 3641 3272 
Q 3641 2581 3239 2228 
Q 2838 1875 2053 1875 
L 1259 1875 
L 1259 0 
L 628 0 
L 628 4666 
z
" transform="scale(0.015625)"/>
      <path id="DejaVuSans-37" d="M 525 4666 
L 3525 4666 
L 3525 4397 
L 1831 0 
L 1172 0 
L 2766 4134 
L 525 4134 
L 525 4666 
z
" transform="scale(0.015625)"/>
     </defs>
     <use xlink:href="#DejaVuSans-50" transform="translate(0 0.125)"/>
     <use xlink:href="#DejaVuSans-44" transform="translate(60.302734 0.125)"/>
     <use xlink:href="#DejaVuSans-44" transform="translate(137.304688 0.125)"/>
     <use xlink:href="#DejaVuSans-20" transform="translate(214.306641 0.125)"/>
     <use xlink:href="#DejaVuSans-28" transform="translate(246.09375 0.125)"/>
     <use xlink:href="#DejaVuSans-Oblique-4e" transform="translate(285.107422 0.125)"/>
     <use xlink:href="#DejaVuSans-3d" transform="translate(379.394531 0.125)"/>
     <use xlink:href="#DejaVuSans-38" transform="translate(482.666016 0.125)"/>
     <use xlink:href="#DejaVuSans-29" transform="translate(546.289062 0.125)"/>
     <use xlink:href="#DejaVuSans-2c" transform="translate(585.302734 0.125)"/>
     <use xlink:href="#DejaVuSans-20" transform="translate(617.089844 0.125)"/>
     <use xlink:href="#DejaVuSans-Oblique-70" transform="translate(648.876953 0.125)"/>
     <use xlink:href="#DejaVuSans-3d" transform="translate(731.835938 0.125)"/>
     <use xlink:href="#DejaVuSans-30" transform="translate(835.107422 0.125)"/>
     <use xlink:href="#DejaVuSans-2e" transform="translate(898.730469 0.125)"/>
     <use xlink:href="#DejaVuSans-39" transform="translate(930.517578 0.125)"/>
     <use xlink:href="#DejaVuSans-38" transform="translate(994.140625 0.125)"/>
     <use xlink:href="#DejaVuSans-37" transform="translate(1057.763672 0.125)"/>
    </g>
   </g>
   <g id="axes_4">
    <g id="patch_18">
     <path d="M 156.492151 230.145394 
L 311.523033 230.145394 
L 311.523033 209.806529 
L 156.492151 209.806529 
z
" style="fill: #ffffff"/>
    </g>
    <g id="matplotlib.axis_7">
     <g id="xtick_23">
      <g id="line2d_37">
       <g>
        <use xlink:href="#m1e88cf39ab" x="156.492151" y="230.145394" style="stroke: #000000; stroke-width: 2"/>
       </g>
      </g>
      <g id="text_36">
       <!-- 0 -->
       <g transform="translate(153.438151 247.939894) scale(0.096 -0.096)">
        <use xlink:href="#DejaVuSans-30"/>
       </g>
      </g>
     </g>
     <g id="xtick_24">
      <g id="line2d_38">
       <g>
        <use xlink:href="#m1e88cf39ab" x="187.498328" y="230.145394" style="stroke: #000000; stroke-width: 2"/>
       </g>
      </g>
      <g id="text_37">
       <!-- 0.2T -->
       <g transform="translate(176.933078 247.939894) scale(0.096 -0.096)">
        <use xlink:href="#DejaVuSans-30"/>
        <use xlink:href="#DejaVuSans-2e" x="63.623047"/>
        <use xlink:href="#DejaVuSans-32" x="95.410156"/>
        <use xlink:href="#DejaVuSans-54" x="159.033203"/>
       </g>
      </g>
     </g>
     <g id="xtick_25">
      <g id="line2d_39">
       <g>
        <use xlink:href="#m1e88cf39ab" x="218.504504" y="230.145394" style="stroke: #000000; stroke-width: 2"/>
       </g>
      </g>
      <g id="text_38">
       <!-- 0.4T -->
       <g transform="translate(207.939254 247.939894) scale(0.096 -0.096)">
        <use xlink:href="#DejaVuSans-30"/>
        <use xlink:href="#DejaVuSans-2e" x="63.623047"/>
        <use xlink:href="#DejaVuSans-34" x="95.410156"/>
        <use xlink:href="#DejaVuSans-54" x="159.033203"/>
       </g>
      </g>
     </g>
     <g id="xtick_26">
      <g id="line2d_40">
       <g>
        <use xlink:href="#m1e88cf39ab" x="249.51068" y="230.145394" style="stroke: #000000; stroke-width: 2"/>
       </g>
      </g>
      <g id="text_39">
       <!-- 0.6T -->
       <g transform="translate(238.94543 247.939894) scale(0.096 -0.096)">
        <use xlink:href="#DejaVuSans-30"/>
        <use xlink:href="#DejaVuSans-2e" x="63.623047"/>
        <use xlink:href="#DejaVuSans-36" x="95.410156"/>
        <use xlink:href="#DejaVuSans-54" x="159.033203"/>
       </g>
      </g>
     </g>
     <g id="xtick_27">
      <g id="line2d_41">
       <g>
        <use xlink:href="#m1e88cf39ab" x="280.516857" y="230.145394" style="stroke: #000000; stroke-width: 2"/>
       </g>
      </g>
      <g id="text_40">
       <!-- 0.8T -->
       <g transform="translate(269.951607 247.939894) scale(0.096 -0.096)">
        <use xlink:href="#DejaVuSans-30"/>
        <use xlink:href="#DejaVuSans-2e" x="63.623047"/>
        <use xlink:href="#DejaVuSans-38" x="95.410156"/>
        <use xlink:href="#DejaVuSans-54" x="159.033203"/>
       </g>
      </g>
     </g>
     <g id="xtick_28">
      <g id="line2d_42">
       <g>
        <use xlink:href="#m1e88cf39ab" x="311.523033" y="230.145394" style="stroke: #000000; stroke-width: 2"/>
       </g>
      </g>
      <g id="text_41">
       <!-- T -->
       <g transform="translate(308.591283 247.939894) scale(0.096 -0.096)">
        <use xlink:href="#DejaVuSans-54"/>
       </g>
      </g>
     </g>
     <g id="text_42">
      <!-- Time -->
      <g transform="translate(220.305967 262.446644) scale(0.112 -0.112)">
       <use xlink:href="#DejaVuSans-54"/>
       <use xlink:href="#DejaVuSans-69" x="57.958984"/>
       <use xlink:href="#DejaVuSans-6d" x="85.742188"/>
       <use xlink:href="#DejaVuSans-65" x="183.154297"/>
      </g>
     </g>
    </g>
    <g id="matplotlib.axis_8"/>
    <g id="LineCollection_2">
     <path d="M 173.717805 230.145394 
L 173.717805 209.806529 
" clip-path="url(#p98941db231)" style="fill: none; stroke: #d62728; stroke-width: 2.5"/>
     <path d="M 190.943458 230.145394 
L 190.943458 209.806529 
" clip-path="url(#p98941db231)" style="fill: none; stroke: #d62728; stroke-width: 2.5"/>
     <path d="M 208.169112 230.145394 
L 208.169112 209.806529 
" clip-path="url(#p98941db231)" style="fill: none; stroke: #d62728; stroke-width: 2.5"/>
     <path d="M 225.394765 230.145394 
L 225.394765 209.806529 
" clip-path="url(#p98941db231)" style="fill: none; stroke: #d62728; stroke-width: 2.5"/>
     <path d="M 242.620419 230.145394 
L 242.620419 209.806529 
" clip-path="url(#p98941db231)" style="fill: none; stroke: #d62728; stroke-width: 2.5"/>
     <path d="M 259.846072 230.145394 
L 259.846072 209.806529 
" clip-path="url(#p98941db231)" style="fill: none; stroke: #d62728; stroke-width: 2.5"/>
     <path d="M 277.071726 230.145394 
L 277.071726 209.806529 
" clip-path="url(#p98941db231)" style="fill: none; stroke: #d62728; stroke-width: 2.5"/>
     <path d="M 294.297379 230.145394 
L 294.297379 209.806529 
" clip-path="url(#p98941db231)" style="fill: none; stroke: #d62728; stroke-width: 2.5"/>
    </g>
    <g id="patch_19">
     <path d="M 156.492151 230.145394 
L 156.492151 209.806529 
" style="fill: none; stroke: #000000; stroke-width: 2; stroke-linejoin: miter; stroke-linecap: square"/>
    </g>
    <g id="patch_20">
     <path d="M 311.523033 230.145394 
L 311.523033 209.806529 
" style="fill: none; stroke: #000000; stroke-width: 2; stroke-linejoin: miter; stroke-linecap: square"/>
    </g>
    <g id="patch_21">
     <path d="M 156.492151 230.145394 
L 311.523033 230.145394 
" style="fill: none; stroke: #000000; stroke-width: 2; stroke-linejoin: miter; stroke-linecap: square"/>
    </g>
    <g id="patch_22">
     <path d="M 156.492151 209.806529 
L 311.523033 209.806529 
" style="fill: none; stroke: #000000; stroke-width: 2; stroke-linejoin: miter; stroke-linecap: square"/>
    </g>
   </g>
   <g id="legend_2">
    <g id="patch_23">
     <path d="M 257.91068 312.847579 
L 418.95068 312.847579 
Q 421.35068 312.847579 421.35068 310.447579 
L 421.35068 271.087579 
Q 421.35068 268.687579 418.95068 268.687579 
L 257.91068 268.687579 
Q 255.51068 268.687579 255.51068 271.087579 
L 255.51068 310.447579 
Q 255.51068 312.847579 257.91068 312.847579 
z
" style="fill: #ffffff; opacity: 0.8; stroke: #cccccc; stroke-linejoin: miter"/>
    </g>
    <g id="line2d_43">
     <path d="M 260.31068 280.207579 
L 272.31068 280.207579 
L 284.31068 280.207579 
" style="fill: none; stroke: #d62728; stroke-width: 1.75; stroke-linecap: square"/>
    </g>
    <g id="text_43">
     <!-- $F(\omega) \left[T_2^*\right]$ -->
     <g transform="translate(293.91068 284.407579) scale(0.12 -0.12)">
      <use xlink:href="#DejaVuSans-Oblique-46" transform="translate(0 0.765625)"/>
      <use xlink:href="#DejaVuSans-28" transform="translate(57.519531 0.765625)"/>
      <use xlink:href="#DejaVuSans-Oblique-3c9" transform="translate(96.533203 0.765625)"/>
      <use xlink:href="#DejaVuSans-29" transform="translate(180.273438 0.765625)"/>
      <use xlink:href="#STIXSizeOneSym-Regular-5b" transform="translate(219.287109 -10.90625) scale(0.95592)"/>
      <use xlink:href="#DejaVuSans-Oblique-54" transform="translate(255.893524 0.765625)"/>
      <use xlink:href="#DejaVuSans-2a" transform="translate(337.631975 39.046875) scale(0.7)"/>
      <use xlink:href="#DejaVuSans-32" transform="translate(316.977509 -26.578125) scale(0.7)"/>
      <use xlink:href="#STIXSizeOneSym-Regular-5d" transform="translate(389.004045 -10.90625) scale(0.95592)"/>
     </g>
    </g>
    <g id="line2d_44">
     <path d="M 260.31068 300.487579 
L 272.31068 300.487579 
L 284.31068 300.487579 
" style="fill: none; stroke-dasharray: 11.2,2.8,1.75,2.8; stroke-dashoffset: 0; stroke: #2ca02c; stroke-width: 1.75"/>
    </g>
    <g id="text_44">
     <!-- $\mathrm{Re}[S(\omega)]/(2\pi)^2 \left[1/T_2^*\right]$ -->
     <g transform="translate(293.91068 304.687579) scale(0.12 -0.12)">
      <use xlink:href="#DejaVuSans-52" transform="translate(0 0.765625)"/>
      <use xlink:href="#DejaVuSans-65" transform="translate(69.482422 0.765625)"/>
      <use xlink:href="#DejaVuSans-5b" transform="translate(131.005859 0.765625)"/>
      <use xlink:href="#DejaVuSans-Oblique-53" transform="translate(170.019531 0.765625)"/>
      <use xlink:href="#DejaVuSans-28" transform="translate(233.496094 0.765625)"/>
      <use xlink:href="#DejaVuSans-Oblique-3c9" transform="translate(272.509766 0.765625)"/>
      <use xlink:href="#DejaVuSans-29" transform="translate(356.25 0.765625)"/>
      <use xlink:href="#DejaVuSans-5d" transform="translate(395.263672 0.765625)"/>
      <use xlink:href="#DejaVuSans-2f" transform="translate(434.277344 0.765625)"/>
      <use xlink:href="#DejaVuSans-28" transform="translate(467.96875 0.765625)"/>
      <use xlink:href="#DejaVuSans-32" transform="translate(506.982422 0.765625)"/>
      <use xlink:href="#DejaVuSans-Oblique-3c0" transform="translate(570.605469 0.765625)"/>
      <use xlink:href="#DejaVuSans-29" transform="translate(630.810547 0.765625)"/>
      <use xlink:href="#DejaVuSans-32" transform="translate(670.78125 39.046875) scale(0.7)"/>
      <use xlink:href="#STIXSizeOneSym-Regular-5b" transform="translate(718.051758 -10.90625) scale(0.95592)"/>
      <use xlink:href="#DejaVuSans-31" transform="translate(754.658173 0.765625)"/>
      <use xlink:href="#DejaVuSans-2f" transform="translate(818.281219 0.765625)"/>
      <use xlink:href="#DejaVuSans-Oblique-54" transform="translate(851.972626 0.765625)"/>
      <use xlink:href="#DejaVuSans-2a" transform="translate(933.711076 39.046875) scale(0.7)"/>
      <use xlink:href="#DejaVuSans-32" transform="translate(913.05661 -26.578125) scale(0.7)"/>
      <use xlink:href="#STIXSizeOneSym-Regular-5d" transform="translate(985.083147 -10.90625) scale(0.95592)"/>
     </g>
    </g>
   </g>
  </g>
  <g id="axes_5">
   <g id="patch_24">
    <path d="M 40.21899 520.48601 
L 427.796194 520.48601 
L 427.796194 384.893573 
L 40.21899 384.893573 
z
" style="fill: #ffffff"/>
   </g>
   <g id="matplotlib.axis_9">
    <g id="xtick_29">
     <g id="line2d_45">
      <g>
       <use xlink:href="#m1e88cf39ab" x="57.836136" y="520.48601" style="stroke: #000000; stroke-width: 2"/>
      </g>
     </g>
     <g id="text_45">
      <!-- 0 -->
      <g transform="translate(54.018636 540.104135) scale(0.12 -0.12)">
       <use xlink:href="#DejaVuSans-30"/>
      </g>
     </g>
    </g>
    <g id="xtick_30">
     <g id="line2d_46">
      <g>
       <use xlink:href="#m1e88cf39ab" x="108.44018" y="520.48601" style="stroke: #000000; stroke-width: 2"/>
      </g>
     </g>
     <g id="text_46">
      <!-- 50 -->
      <g transform="translate(100.80518 540.104135) scale(0.12 -0.12)">
       <use xlink:href="#DejaVuSans-35"/>
       <use xlink:href="#DejaVuSans-30" x="63.623047"/>
      </g>
     </g>
    </g>
    <g id="xtick_31">
     <g id="line2d_47">
      <g>
       <use xlink:href="#m1e88cf39ab" x="159.044224" y="520.48601" style="stroke: #000000; stroke-width: 2"/>
      </g>
     </g>
     <g id="text_47">
      <!-- 100 -->
      <g transform="translate(147.591724 540.104135) scale(0.12 -0.12)">
       <use xlink:href="#DejaVuSans-31"/>
       <use xlink:href="#DejaVuSans-30" x="63.623047"/>
       <use xlink:href="#DejaVuSans-30" x="127.246094"/>
      </g>
     </g>
    </g>
    <g id="xtick_32">
     <g id="line2d_48">
      <g>
       <use xlink:href="#m1e88cf39ab" x="209.648268" y="520.48601" style="stroke: #000000; stroke-width: 2"/>
      </g>
     </g>
     <g id="text_48">
      <!-- 150 -->
      <g transform="translate(198.195768 540.104135) scale(0.12 -0.12)">
       <use xlink:href="#DejaVuSans-31"/>
       <use xlink:href="#DejaVuSans-35" x="63.623047"/>
       <use xlink:href="#DejaVuSans-30" x="127.246094"/>
      </g>
     </g>
    </g>
    <g id="xtick_33">
     <g id="line2d_49">
      <g>
       <use xlink:href="#m1e88cf39ab" x="260.252313" y="520.48601" style="stroke: #000000; stroke-width: 2"/>
      </g>
     </g>
     <g id="text_49">
      <!-- 200 -->
      <g transform="translate(248.799813 540.104135) scale(0.12 -0.12)">
       <use xlink:href="#DejaVuSans-32"/>
       <use xlink:href="#DejaVuSans-30" x="63.623047"/>
       <use xlink:href="#DejaVuSans-30" x="127.246094"/>
      </g>
     </g>
    </g>
    <g id="xtick_34">
     <g id="line2d_50">
      <g>
       <use xlink:href="#m1e88cf39ab" x="310.856357" y="520.48601" style="stroke: #000000; stroke-width: 2"/>
      </g>
     </g>
     <g id="text_50">
      <!-- 250 -->
      <g transform="translate(299.403857 540.104135) scale(0.12 -0.12)">
       <use xlink:href="#DejaVuSans-32"/>
       <use xlink:href="#DejaVuSans-35" x="63.623047"/>
       <use xlink:href="#DejaVuSans-30" x="127.246094"/>
      </g>
     </g>
    </g>
    <g id="xtick_35">
     <g id="line2d_51">
      <g>
       <use xlink:href="#m1e88cf39ab" x="361.460401" y="520.48601" style="stroke: #000000; stroke-width: 2"/>
      </g>
     </g>
     <g id="text_51">
      <!-- 300 -->
      <g transform="translate(350.007901 540.104135) scale(0.12 -0.12)">
       <use xlink:href="#DejaVuSans-33"/>
       <use xlink:href="#DejaVuSans-30" x="63.623047"/>
       <use xlink:href="#DejaVuSans-30" x="127.246094"/>
      </g>
     </g>
    </g>
    <g id="xtick_36">
     <g id="line2d_52">
      <g>
       <use xlink:href="#m1e88cf39ab" x="412.064445" y="520.48601" style="stroke: #000000; stroke-width: 2"/>
      </g>
     </g>
     <g id="text_52">
      <!-- 350 -->
      <g transform="translate(400.611945 540.104135) scale(0.12 -0.12)">
       <use xlink:href="#DejaVuSans-33"/>
       <use xlink:href="#DejaVuSans-35" x="63.623047"/>
       <use xlink:href="#DejaVuSans-30" x="127.246094"/>
      </g>
     </g>
    </g>
    <g id="text_53">
     <!-- $\frac{\omega}{2\pi} \left[\frac{1}{T_2^*}\right]$ -->
     <g transform="translate(211.047592 561.79976) scale(0.16 -0.16)">
      <defs>
       <path id="STIXSizeTwoSym-Regular-5b" d="M 2701 -1786 
L 1216 -1786 
L 1216 10022 
L 2701 10022 
L 2701 9766 
L 1702 9766 
L 1702 -1530 
L 2701 -1530 
L 2701 -1786 
z
" transform="scale(0.015625)"/>
       <path id="STIXSizeTwoSym-Regular-5d" d="M 1722 -1786 
L 237 -1786 
L 237 -1530 
L 1235 -1530 
L 1235 9766 
L 237 9766 
L 237 10022 
L 1722 10022 
L 1722 -1786 
z
" transform="scale(0.015625)"/>
      </defs>
      <use xlink:href="#DejaVuSans-Oblique-3c9" transform="translate(14 44.99375) scale(0.7)"/>
      <use xlink:href="#DejaVuSans-32" transform="translate(0 -39.2375) scale(0.7)"/>
      <use xlink:href="#DejaVuSans-Oblique-3c0" transform="translate(44.536133 -39.2375) scale(0.7)"/>
      <use xlink:href="#STIXSizeTwoSym-Regular-5b" transform="translate(99.179688 -44.698438) scale(0.892082)"/>
      <use xlink:href="#DejaVuSans-31" transform="translate(164.123917 43.965625) scale(0.7)"/>
      <use xlink:href="#DejaVuSans-Oblique-54" transform="translate(140.123917 -50.448437) scale(0.7)"/>
      <use xlink:href="#DejaVuSans-2a" transform="translate(197.340832 -23.651562) scale(0.49)"/>
      <use xlink:href="#DejaVuSans-32" transform="translate(182.882706 -69.589062) scale(0.49)"/>
      <use xlink:href="#STIXSizeTwoSym-Regular-5d" transform="translate(245.801281 -44.698438) scale(0.892082)"/>
      <path d="M 0 18.965625 
L 0 25.215625 
L 86.679688 25.215625 
L 86.679688 18.965625 
L 0 18.965625 
z
"/>
      <path d="M 140.123917 18.965625 
L 140.123917 25.215625 
L 233.301281 25.215625 
L 233.301281 18.965625 
L 140.123917 18.965625 
z
"/>
     </g>
    </g>
   </g>
   <g id="matplotlib.axis_10">
    <g id="ytick_9">
     <g id="line2d_53">
      <g>
       <use xlink:href="#mcc0f5833a5" x="40.21899" y="514.322717" style="stroke: #000000; stroke-width: 2"/>
      </g>
     </g>
     <g id="text_54">
      <!-- 0.00 -->
      <g transform="translate(3.00024 518.88178) scale(0.12 -0.12)">
       <use xlink:href="#DejaVuSans-30"/>
       <use xlink:href="#DejaVuSans-2e" x="63.623047"/>
       <use xlink:href="#DejaVuSans-30" x="95.410156"/>
       <use xlink:href="#DejaVuSans-30" x="159.033203"/>
      </g>
     </g>
    </g>
    <g id="ytick_10">
     <g id="line2d_54">
      <g>
       <use xlink:href="#mcc0f5833a5" x="40.21899" y="472.575773" style="stroke: #000000; stroke-width: 2"/>
      </g>
     </g>
     <g id="text_55">
      <!-- 0.02 -->
      <g transform="translate(3.00024 477.134836) scale(0.12 -0.12)">
       <use xlink:href="#DejaVuSans-30"/>
       <use xlink:href="#DejaVuSans-2e" x="63.623047"/>
       <use xlink:href="#DejaVuSans-30" x="95.410156"/>
       <use xlink:href="#DejaVuSans-32" x="159.033203"/>
      </g>
     </g>
    </g>
    <g id="ytick_11">
     <g id="line2d_55">
      <g>
       <use xlink:href="#mcc0f5833a5" x="40.21899" y="430.828829" style="stroke: #000000; stroke-width: 2"/>
      </g>
     </g>
     <g id="text_56">
      <!-- 0.04 -->
      <g transform="translate(3.00024 435.387892) scale(0.12 -0.12)">
       <use xlink:href="#DejaVuSans-30"/>
       <use xlink:href="#DejaVuSans-2e" x="63.623047"/>
       <use xlink:href="#DejaVuSans-30" x="95.410156"/>
       <use xlink:href="#DejaVuSans-34" x="159.033203"/>
      </g>
     </g>
    </g>
    <g id="ytick_12">
     <g id="line2d_56">
      <g>
       <use xlink:href="#mcc0f5833a5" x="40.21899" y="389.081885" style="stroke: #000000; stroke-width: 2"/>
      </g>
     </g>
     <g id="text_57">
      <!-- 0.06 -->
      <g transform="translate(3.00024 393.640948) scale(0.12 -0.12)">
       <use xlink:href="#DejaVuSans-30"/>
       <use xlink:href="#DejaVuSans-2e" x="63.623047"/>
       <use xlink:href="#DejaVuSans-30" x="95.410156"/>
       <use xlink:href="#DejaVuSans-36" x="159.033203"/>
      </g>
     </g>
    </g>
   </g>
   <g id="line2d_57">
    <path d="M 57.836136 514.322717 
L 66.295749 514.21368 
L 69.538601 513.75974 
L 70.596053 514.02385 
L 71.864995 514.321464 
L 72.499466 514.230445 
L 73.06344 513.926325 
L 73.697911 513.326344 
L 75.883312 510.967867 
L 76.306292 510.952737 
L 76.729273 511.197831 
L 77.222751 511.799006 
L 78.139209 513.421144 
L 78.703183 514.197635 
L 78.98517 514.322717 
L 79.19666 514.238731 
L 79.478648 513.825086 
L 79.760635 512.992757 
L 80.113119 511.245588 
L 80.536099 507.934338 
L 81.029577 502.169984 
L 81.593551 492.902174 
L 82.298519 477.465048 
L 83.35597 448.629675 
L 84.765906 410.865545 
L 85.400377 399.10069 
L 85.893855 393.717397 
L 86.175842 392.335241 
L 86.387332 392.146383 
L 86.528326 392.4286 
L 86.739816 393.46215 
L 87.0923 396.777037 
L 87.515281 403.222994 
L 88.079255 415.411926 
L 88.995713 441.034113 
L 90.617139 486.905871 
L 91.322107 501.039731 
L 91.886081 508.596578 
L 92.379558 512.49994 
L 92.732042 513.899445 
L 93.01403 514.307112 
L 93.22552 514.261762 
L 93.507507 513.818846 
L 93.930488 512.560049 
L 95.62241 506.71724 
L 95.974894 506.267077 
L 96.256881 506.195474 
L 96.538869 506.373357 
L 96.891352 506.912837 
L 97.38483 508.134907 
L 99.429237 513.814454 
L 99.852217 514.243455 
L 100.204701 514.31779 
L 100.557185 514.157352 
L 101.050663 513.619362 
L 102.108114 511.942488 
L 102.813082 511.07705 
L 103.30656 510.817032 
L 103.72954 510.860275 
L 104.152521 511.135457 
L 104.716495 511.78292 
L 106.478915 514.05459 
L 106.972392 514.298815 
L 107.46587 514.280973 
L 107.959347 514.028306 
L 108.734812 513.328252 
L 109.86276 512.335303 
L 110.426734 512.124966 
L 110.920212 512.163151 
L 111.484186 512.444842 
L 112.330148 513.173615 
L 113.458096 514.099271 
L 114.02207 514.305962 
L 114.586045 514.276552 
L 115.220516 513.989203 
L 117.546909 512.615525 
L 118.110884 512.663506 
L 118.745355 512.947868 
L 121.142245 514.316416 
L 121.706219 514.265461 
L 122.340691 513.988731 
L 124.667084 512.699049 
L 125.231059 512.739966 
L 125.86553 513.008148 
L 127.134472 513.882135 
L 127.909936 514.26189 
L 128.473911 514.315562 
L 129.037885 514.148173 
L 129.742853 513.67113 
L 131.575769 512.243125 
L 132.139743 512.147585 
L 132.633221 512.278815 
L 133.267692 512.712937 
L 135.171105 514.295099 
L 135.594085 514.292173 
L 136.017066 514.035122 
L 136.440047 513.493591 
L 136.933524 512.493107 
L 137.567995 510.675324 
L 138.55495 507.062825 
L 139.894389 502.288609 
L 140.52886 500.762694 
L 141.022338 500.086708 
L 141.374821 499.904875 
L 141.727305 499.976282 
L 142.079789 500.291372 
L 142.573267 501.103809 
L 143.207738 502.664504 
L 144.26519 505.994402 
L 145.675125 510.313876 
L 146.521087 512.209996 
L 147.226054 513.277125 
L 147.860525 513.871192 
L 148.494996 514.187752 
L 149.270461 514.318235 
L 150.6099 514.256628 
L 152.654306 514.203133 
L 159.562991 514.315649 
L 188.678162 514.258862 
L 193.471943 514.100286 
L 194.317904 513.715763 
L 195.163866 513.088542 
L 196.221317 512.004075 
L 198.265724 509.820544 
L 198.970692 509.403123 
L 199.534666 509.293802 
L 200.09864 509.404668 
L 200.733111 509.78504 
L 201.508576 510.553533 
L 204.539938 513.934247 
L 205.244905 514.243012 
L 205.949873 514.321769 
L 206.866331 514.187066 
L 208.981235 513.799035 
L 210.109183 513.893703 
L 213.140545 514.319438 
L 214.761971 514.151618 
L 216.453894 514.031768 
L 218.07532 514.171867 
L 220.119726 514.321696 
L 221.952642 514.18379 
L 223.856056 514.10581 
L 229.002321 514.199352 
L 231.046727 514.126306 
L 235.770012 514.220893 
L 238.025909 514.101366 
L 240.211309 514.283582 
L 241.762238 514.301343 
L 243.877141 514.042562 
L 245.287077 513.989459 
L 246.838006 514.184966 
L 248.318439 514.320394 
L 249.234897 514.18225 
L 250.151355 513.811638 
L 251.3498 513.05797 
L 253.041723 512.01074 
L 253.887684 511.744693 
L 254.663149 511.725758 
L 255.50911 511.942069 
L 256.566562 512.464408 
L 259.24544 513.888935 
L 260.443885 514.202265 
L 261.853821 514.318806 
L 267.987041 514.319675 
L 290.827998 514.322712 
L 306.619277 514.216507 
L 308.099709 513.91118 
L 310.214613 513.191819 
L 311.624548 512.822508 
L 312.682 512.77384 
L 313.739452 512.960732 
L 315.149387 513.469563 
L 317.0528 514.137432 
L 318.251246 514.311885 
L 319.731678 514.273186 
L 322.481053 514.161498 
L 327.768311 514.255429 
L 330.447189 514.253148 
L 334.183518 514.293796 
L 337.849351 514.276929 
L 341.37419 514.291911 
L 344.969526 514.279944 
L 348.494365 514.287091 
L 351.948707 514.269036 
L 355.262056 514.287862 
L 358.857392 514.221869 
L 361.888753 514.281269 
L 363.298689 514.040008 
L 366.894025 513.272044 
L 368.162967 513.337692 
L 369.85489 513.684775 
L 372.392774 514.192838 
L 374.296187 514.31646 
L 380.922884 514.321721 
L 410.179049 514.32271 
L 410.179049 514.32271 
" clip-path="url(#p0a2d22217f)" style="fill: none; stroke: #ff7f00; stroke-width: 1.75; stroke-linecap: square"/>
   </g>
   <g id="line2d_58">
    <path d="M 57.836136 422.25225 
L 64.885814 422.254092 
L 65.802272 432.846057 
L 66.789227 441.827737 
L 67.846679 449.485657 
L 68.974627 456.051435 
L 70.173072 461.712074 
L 71.442014 466.618766 
L 72.781453 470.89412 
L 74.191389 474.637965 
L 75.671821 477.931956 
L 77.222751 480.843217 
L 78.844176 483.427205 
L 80.606596 485.818499 
L 82.510009 488.017396 
L 84.554416 490.030204 
L 86.739816 491.866955 
L 89.136707 493.58654 
L 91.745087 495.181631 
L 94.635455 496.68505 
L 97.878307 498.113452 
L 101.473643 499.448949 
L 105.562457 500.723216 
L 110.144747 501.914547 
L 115.432006 503.053608 
L 121.494729 504.126856 
L 128.544407 505.143393 
L 136.792531 506.102304 
L 146.521087 507.004067 
L 158.153055 507.85268 
L 172.181915 508.646477 
L 189.38313 509.388707 
L 210.673157 510.07601 
L 237.461934 510.709349 
L 271.864364 511.290154 
L 316.982304 511.81813 
L 377.609536 512.292986 
L 410.179049 512.480608 
L 410.179049 512.480608 
" clip-path="url(#p0a2d22217f)" style="fill: none; stroke-dasharray: 11.2,2.8,1.75,2.8; stroke-dashoffset: 0; stroke: #2ca02c; stroke-width: 1.75"/>
   </g>
   <g id="patch_25">
    <path d="M 40.21899 520.48601 
L 40.21899 384.893573 
" style="fill: none; stroke: #000000; stroke-width: 2; stroke-linejoin: miter; stroke-linecap: square"/>
   </g>
   <g id="patch_26">
    <path d="M 427.796194 520.48601 
L 427.796194 384.893573 
" style="fill: none; stroke: #000000; stroke-width: 2; stroke-linejoin: miter; stroke-linecap: square"/>
   </g>
   <g id="patch_27">
    <path d="M 40.21899 520.48601 
L 427.796194 520.48601 
" style="fill: none; stroke: #000000; stroke-width: 2; stroke-linejoin: miter; stroke-linecap: square"/>
   </g>
   <g id="patch_28">
    <path d="M 40.21899 384.893573 
L 427.796194 384.893573 
" style="fill: none; stroke: #000000; stroke-width: 2; stroke-linejoin: miter; stroke-linecap: square"/>
   </g>
   <g id="text_58">
    <!-- CPMG ($N = 8$), $p = 0.987$ -->
    <g transform="translate(137.927592 378.893573) scale(0.16 -0.16)">
     <defs>
      <path id="DejaVuSans-43" d="M 4122 4306 
L 4122 3641 
Q 3803 3938 3442 4084 
Q 3081 4231 2675 4231 
Q 1875 4231 1450 3742 
Q 1025 3253 1025 2328 
Q 1025 1406 1450 917 
Q 1875 428 2675 428 
Q 3081 428 3442 575 
Q 3803 722 4122 1019 
L 4122 359 
Q 3791 134 3420 21 
Q 3050 -91 2638 -91 
Q 1578 -91 968 557 
Q 359 1206 359 2328 
Q 359 3453 968 4101 
Q 1578 4750 2638 4750 
Q 3056 4750 3426 4639 
Q 3797 4528 4122 4306 
z
" transform="scale(0.015625)"/>
      <path id="DejaVuSans-4d" d="M 628 4666 
L 1569 4666 
L 2759 1491 
L 3956 4666 
L 4897 4666 
L 4897 0 
L 4281 0 
L 4281 4097 
L 3078 897 
L 2444 897 
L 1241 4097 
L 1241 0 
L 628 0 
L 628 4666 
z
" transform="scale(0.015625)"/>
      <path id="DejaVuSans-47" d="M 3809 666 
L 3809 1919 
L 2778 1919 
L 2778 2438 
L 4434 2438 
L 4434 434 
Q 4069 175 3628 42 
Q 3188 -91 2688 -91 
Q 1594 -91 976 548 
Q 359 1188 359 2328 
Q 359 3472 976 4111 
Q 1594 4750 2688 4750 
Q 3144 4750 3555 4637 
Q 3966 4525 4313 4306 
L 4313 3634 
Q 3963 3931 3569 4081 
Q 3175 4231 2741 4231 
Q 1884 4231 1454 3753 
Q 1025 3275 1025 2328 
Q 1025 1384 1454 906 
Q 1884 428 2741 428 
Q 3075 428 3337 486 
Q 3600 544 3809 666 
z
" transform="scale(0.015625)"/>
     </defs>
     <use xlink:href="#DejaVuSans-43" transform="translate(0 0.125)"/>
     <use xlink:href="#DejaVuSans-50" transform="translate(69.824219 0.125)"/>
     <use xlink:href="#DejaVuSans-4d" transform="translate(130.126953 0.125)"/>
     <use xlink:href="#DejaVuSans-47" transform="translate(216.40625 0.125)"/>
     <use xlink:href="#DejaVuSans-20" transform="translate(293.896484 0.125)"/>
     <use xlink:href="#DejaVuSans-28" transform="translate(325.683594 0.125)"/>
     <use xlink:href="#DejaVuSans-Oblique-4e" transform="translate(364.697266 0.125)"/>
     <use xlink:href="#DejaVuSans-3d" transform="translate(458.984375 0.125)"/>
     <use xlink:href="#DejaVuSans-38" transform="translate(562.255859 0.125)"/>
     <use xlink:href="#DejaVuSans-29" transform="translate(625.878906 0.125)"/>
     <use xlink:href="#DejaVuSans-2c" transform="translate(664.892578 0.125)"/>
     <use xlink:href="#DejaVuSans-20" transform="translate(696.679688 0.125)"/>
     <use xlink:href="#DejaVuSans-Oblique-70" transform="translate(728.466797 0.125)"/>
     <use xlink:href="#DejaVuSans-3d" transform="translate(811.425781 0.125)"/>
     <use xlink:href="#DejaVuSans-30" transform="translate(914.697266 0.125)"/>
     <use xlink:href="#DejaVuSans-2e" transform="translate(978.320312 0.125)"/>
     <use xlink:href="#DejaVuSans-39" transform="translate(1010.107422 0.125)"/>
     <use xlink:href="#DejaVuSans-38" transform="translate(1073.730469 0.125)"/>
     <use xlink:href="#DejaVuSans-37" transform="translate(1137.353516 0.125)"/>
    </g>
   </g>
   <g id="axes_6">
    <g id="patch_29">
     <path d="M 156.492151 412.012061 
L 311.523033 412.012061 
L 311.523033 391.673195 
L 156.492151 391.673195 
z
" style="fill: #ffffff"/>
    </g>
    <g id="matplotlib.axis_11">
     <g id="xtick_37">
      <g id="line2d_59">
       <g>
        <use xlink:href="#m1e88cf39ab" x="156.492151" y="412.012061" style="stroke: #000000; stroke-width: 2"/>
       </g>
      </g>
      <g id="text_59">
       <!-- 0 -->
       <g transform="translate(153.438151 429.806561) scale(0.096 -0.096)">
        <use xlink:href="#DejaVuSans-30"/>
       </g>
      </g>
     </g>
     <g id="xtick_38">
      <g id="line2d_60">
       <g>
        <use xlink:href="#m1e88cf39ab" x="187.498328" y="412.012061" style="stroke: #000000; stroke-width: 2"/>
       </g>
      </g>
      <g id="text_60">
       <!-- 0.2T -->
       <g transform="translate(176.933078 429.806561) scale(0.096 -0.096)">
        <use xlink:href="#DejaVuSans-30"/>
        <use xlink:href="#DejaVuSans-2e" x="63.623047"/>
        <use xlink:href="#DejaVuSans-32" x="95.410156"/>
        <use xlink:href="#DejaVuSans-54" x="159.033203"/>
       </g>
      </g>
     </g>
     <g id="xtick_39">
      <g id="line2d_61">
       <g>
        <use xlink:href="#m1e88cf39ab" x="218.504504" y="412.012061" style="stroke: #000000; stroke-width: 2"/>
       </g>
      </g>
      <g id="text_61">
       <!-- 0.4T -->
       <g transform="translate(207.939254 429.806561) scale(0.096 -0.096)">
        <use xlink:href="#DejaVuSans-30"/>
        <use xlink:href="#DejaVuSans-2e" x="63.623047"/>
        <use xlink:href="#DejaVuSans-34" x="95.410156"/>
        <use xlink:href="#DejaVuSans-54" x="159.033203"/>
       </g>
      </g>
     </g>
     <g id="xtick_40">
      <g id="line2d_62">
       <g>
        <use xlink:href="#m1e88cf39ab" x="249.51068" y="412.012061" style="stroke: #000000; stroke-width: 2"/>
       </g>
      </g>
      <g id="text_62">
       <!-- 0.6T -->
       <g transform="translate(238.94543 429.806561) scale(0.096 -0.096)">
        <use xlink:href="#DejaVuSans-30"/>
        <use xlink:href="#DejaVuSans-2e" x="63.623047"/>
        <use xlink:href="#DejaVuSans-36" x="95.410156"/>
        <use xlink:href="#DejaVuSans-54" x="159.033203"/>
       </g>
      </g>
     </g>
     <g id="xtick_41">
      <g id="line2d_63">
       <g>
        <use xlink:href="#m1e88cf39ab" x="280.516857" y="412.012061" style="stroke: #000000; stroke-width: 2"/>
       </g>
      </g>
      <g id="text_63">
       <!-- 0.8T -->
       <g transform="translate(269.951607 429.806561) scale(0.096 -0.096)">
        <use xlink:href="#DejaVuSans-30"/>
        <use xlink:href="#DejaVuSans-2e" x="63.623047"/>
        <use xlink:href="#DejaVuSans-38" x="95.410156"/>
        <use xlink:href="#DejaVuSans-54" x="159.033203"/>
       </g>
      </g>
     </g>
     <g id="xtick_42">
      <g id="line2d_64">
       <g>
        <use xlink:href="#m1e88cf39ab" x="311.523033" y="412.012061" style="stroke: #000000; stroke-width: 2"/>
       </g>
      </g>
      <g id="text_64">
       <!-- T -->
       <g transform="translate(308.591283 429.806561) scale(0.096 -0.096)">
        <use xlink:href="#DejaVuSans-54"/>
       </g>
      </g>
     </g>
     <g id="text_65">
      <!-- Time -->
      <g transform="translate(220.305967 444.313311) scale(0.112 -0.112)">
       <use xlink:href="#DejaVuSans-54"/>
       <use xlink:href="#DejaVuSans-69" x="57.958984"/>
       <use xlink:href="#DejaVuSans-6d" x="85.742188"/>
       <use xlink:href="#DejaVuSans-65" x="183.154297"/>
      </g>
     </g>
    </g>
    <g id="matplotlib.axis_12"/>
    <g id="LineCollection_3">
     <path d="M 166.181581 412.012061 
L 166.181581 391.673195 
" clip-path="url(#p9698d3be30)" style="fill: none; stroke: #ff7f00; stroke-width: 2.5"/>
     <path d="M 185.560442 412.012061 
L 185.560442 391.673195 
" clip-path="url(#p9698d3be30)" style="fill: none; stroke: #ff7f00; stroke-width: 2.5"/>
     <path d="M 204.939302 412.012061 
L 204.939302 391.673195 
" clip-path="url(#p9698d3be30)" style="fill: none; stroke: #ff7f00; stroke-width: 2.5"/>
     <path d="M 224.318162 412.012061 
L 224.318162 391.673195 
" clip-path="url(#p9698d3be30)" style="fill: none; stroke: #ff7f00; stroke-width: 2.5"/>
     <path d="M 243.697022 412.012061 
L 243.697022 391.673195 
" clip-path="url(#p9698d3be30)" style="fill: none; stroke: #ff7f00; stroke-width: 2.5"/>
     <path d="M 263.075882 412.012061 
L 263.075882 391.673195 
" clip-path="url(#p9698d3be30)" style="fill: none; stroke: #ff7f00; stroke-width: 2.5"/>
     <path d="M 282.454743 412.012061 
L 282.454743 391.673195 
" clip-path="url(#p9698d3be30)" style="fill: none; stroke: #ff7f00; stroke-width: 2.5"/>
     <path d="M 301.833603 412.012061 
L 301.833603 391.673195 
" clip-path="url(#p9698d3be30)" style="fill: none; stroke: #ff7f00; stroke-width: 2.5"/>
    </g>
    <g id="patch_30">
     <path d="M 156.492151 412.012061 
L 156.492151 391.673195 
" style="fill: none; stroke: #000000; stroke-width: 2; stroke-linejoin: miter; stroke-linecap: square"/>
    </g>
    <g id="patch_31">
     <path d="M 311.523033 412.012061 
L 311.523033 391.673195 
" style="fill: none; stroke: #000000; stroke-width: 2; stroke-linejoin: miter; stroke-linecap: square"/>
    </g>
    <g id="patch_32">
     <path d="M 156.492151 412.012061 
L 311.523033 412.012061 
" style="fill: none; stroke: #000000; stroke-width: 2; stroke-linejoin: miter; stroke-linecap: square"/>
    </g>
    <g id="patch_33">
     <path d="M 156.492151 391.673195 
L 311.523033 391.673195 
" style="fill: none; stroke: #000000; stroke-width: 2; stroke-linejoin: miter; stroke-linecap: square"/>
    </g>
   </g>
   <g id="legend_3">
    <g id="patch_34">
     <path d="M 257.91068 494.714245 
L 418.95068 494.714245 
Q 421.35068 494.714245 421.35068 492.314245 
L 421.35068 452.954245 
Q 421.35068 450.554245 418.95068 450.554245 
L 257.91068 450.554245 
Q 255.51068 450.554245 255.51068 452.954245 
L 255.51068 492.314245 
Q 255.51068 494.714245 257.91068 494.714245 
z
" style="fill: #ffffff; opacity: 0.8; stroke: #cccccc; stroke-linejoin: miter"/>
    </g>
    <g id="line2d_65">
     <path d="M 260.31068 462.074245 
L 272.31068 462.074245 
L 284.31068 462.074245 
" style="fill: none; stroke: #ff7f00; stroke-width: 1.75; stroke-linecap: square"/>
    </g>
    <g id="text_66">
     <!-- $F(\omega) \left[T_2^*\right]$ -->
     <g transform="translate(293.91068 466.274245) scale(0.12 -0.12)">
      <use xlink:href="#DejaVuSans-Oblique-46" transform="translate(0 0.765625)"/>
      <use xlink:href="#DejaVuSans-28" transform="translate(57.519531 0.765625)"/>
      <use xlink:href="#DejaVuSans-Oblique-3c9" transform="translate(96.533203 0.765625)"/>
      <use xlink:href="#DejaVuSans-29" transform="translate(180.273438 0.765625)"/>
      <use xlink:href="#STIXSizeOneSym-Regular-5b" transform="translate(219.287109 -10.90625) scale(0.95592)"/>
      <use xlink:href="#DejaVuSans-Oblique-54" transform="translate(255.893524 0.765625)"/>
      <use xlink:href="#DejaVuSans-2a" transform="translate(337.631975 39.046875) scale(0.7)"/>
      <use xlink:href="#DejaVuSans-32" transform="translate(316.977509 -26.578125) scale(0.7)"/>
      <use xlink:href="#STIXSizeOneSym-Regular-5d" transform="translate(389.004045 -10.90625) scale(0.95592)"/>
     </g>
    </g>
    <g id="line2d_66">
     <path d="M 260.31068 482.354245 
L 272.31068 482.354245 
L 284.31068 482.354245 
" style="fill: none; stroke-dasharray: 11.2,2.8,1.75,2.8; stroke-dashoffset: 0; stroke: #2ca02c; stroke-width: 1.75"/>
    </g>
    <g id="text_67">
     <!-- $\mathrm{Re}[S(\omega)]/(2\pi)^2 \left[1/T_2^*\right]$ -->
     <g transform="translate(293.91068 486.554245) scale(0.12 -0.12)">
      <use xlink:href="#DejaVuSans-52" transform="translate(0 0.765625)"/>
      <use xlink:href="#DejaVuSans-65" transform="translate(69.482422 0.765625)"/>
      <use xlink:href="#DejaVuSans-5b" transform="translate(131.005859 0.765625)"/>
      <use xlink:href="#DejaVuSans-Oblique-53" transform="translate(170.019531 0.765625)"/>
      <use xlink:href="#DejaVuSans-28" transform="translate(233.496094 0.765625)"/>
      <use xlink:href="#DejaVuSans-Oblique-3c9" transform="translate(272.509766 0.765625)"/>
      <use xlink:href="#DejaVuSans-29" transform="translate(356.25 0.765625)"/>
      <use xlink:href="#DejaVuSans-5d" transform="translate(395.263672 0.765625)"/>
      <use xlink:href="#DejaVuSans-2f" transform="translate(434.277344 0.765625)"/>
      <use xlink:href="#DejaVuSans-28" transform="translate(467.96875 0.765625)"/>
      <use xlink:href="#DejaVuSans-32" transform="translate(506.982422 0.765625)"/>
      <use xlink:href="#DejaVuSans-Oblique-3c0" transform="translate(570.605469 0.765625)"/>
      <use xlink:href="#DejaVuSans-29" transform="translate(630.810547 0.765625)"/>
      <use xlink:href="#DejaVuSans-32" transform="translate(670.78125 39.046875) scale(0.7)"/>
      <use xlink:href="#STIXSizeOneSym-Regular-5b" transform="translate(718.051758 -10.90625) scale(0.95592)"/>
      <use xlink:href="#DejaVuSans-31" transform="translate(754.658173 0.765625)"/>
      <use xlink:href="#DejaVuSans-2f" transform="translate(818.281219 0.765625)"/>
      <use xlink:href="#DejaVuSans-Oblique-54" transform="translate(851.972626 0.765625)"/>
      <use xlink:href="#DejaVuSans-2a" transform="translate(933.711076 39.046875) scale(0.7)"/>
      <use xlink:href="#DejaVuSans-32" transform="translate(913.05661 -26.578125) scale(0.7)"/>
      <use xlink:href="#STIXSizeOneSym-Regular-5d" transform="translate(985.083147 -10.90625) scale(0.95592)"/>
     </g>
    </g>
   </g>
  </g>
 </g>
 <defs>
  <clipPath id="p60053b215b">
   <rect x="40.21899" y="21.16024" width="387.577204" height="135.592437"/>
  </clipPath>
  <clipPath id="p94e4fd642e">
   <rect x="156.492151" y="27.939862" width="155.030882" height="20.338865"/>
  </clipPath>
  <clipPath id="pf22db40dbb">
   <rect x="40.21899" y="203.026907" width="387.577204" height="135.592437"/>
  </clipPath>
  <clipPath id="p98941db231">
   <rect x="156.492151" y="209.806529" width="155.030882" height="20.338865"/>
  </clipPath>
  <clipPath id="p0a2d22217f">
   <rect x="40.21899" y="384.893573" width="387.577204" height="135.592437"/>
  </clipPath>
  <clipPath id="p9698d3be30">
   <rect x="156.492151" y="391.673195" width="155.030882" height="20.338866"/>
  </clipPath>
 </defs>
</svg>
