<?xml version="1.0" encoding="utf-8" standalone="no"?>
<!DOCTYPE svg PUBLIC "-//W3C//DTD SVG 1.1//EN"
  "http://www.w3.org/Graphics/SVG/1.1/DTD/svg11.dtd">
<svg xmlns:xlink="http://www.w3.org/1999/xlink" width="720pt" height="720pt" viewBox="0 0 720 720" xmlns="http://www.w3.org/2000/svg" version="1.1">
 <metadata>
  <rdf:RDF xmlns:dc="http://purl.org/dc/elements/1.1/" xmlns:cc="http://creativecommons.org/ns#" xmlns:rdf="http://www.w3.org/1999/02/22-rdf-syntax-ns#">
   <cc:Work>
    <dc:type rdf:resource="http://purl.org/dc/dcmitype/StillImage"/>
    <dc:date>2025-04-28T15:04:27.309367</dc:date>
    <dc:format>image/svg+xml</dc:format>
    <dc:creator>
     <cc:Agent>
      <dc:title>Matplotlib v3.6.3, https://matplotlib.org/</dc:title>
     </cc:Agent>
    </dc:creator>
   </cc:Work>
  </rdf:RDF>
 </metadata>
 <defs>
  <style type="text/css">*{stroke-linejoin: round; stroke-linecap: butt}</style>
 </defs>
 <g id="figure_1">
  <g id="patch_1">
   <path d="M 0 720 
L 720 720 
L 720 0 
L 0 0 
z
" style="fill: #ffffff"/>
  </g>
  <g id="axes_1">
   <g id="patch_2">
    <path d="M 65.79649 103.255889 
L 595.300883 103.255889 
L 595.300883 3.00024 
L 65.79649 3.00024 
z
" style="fill: #ffffff"/>
   </g>
   <g id="matplotlib.axis_1">
    <g id="xtick_1">
     <g id="line2d_1">
      <defs>
       <path id="m3129479693" d="M 0 0 
L 0 7 
" style="stroke: #000000; stroke-width: 2"/>
      </defs>
      <g>
       <use xlink:href="#m3129479693" x="89.748474" y="103.255889" style="stroke: #000000; stroke-width: 2"/>
      </g>
     </g>
     <g id="text_1">
      <!-- 0 -->
      <g transform="translate(86.443787 122.874014) scale(0.12 -0.12)">
       <defs>
        <path id="DroidSans-30" d="M 3225 2291 
Q 3225 1738 3145 1300 
Q 3066 863 2889 559 
Q 2713 256 2434 96 
Q 2156 -63 1759 -63 
Q 1391 -63 1117 96 
Q 844 256 664 559 
Q 484 863 395 1300 
Q 306 1738 306 2291 
Q 306 2844 386 3281 
Q 466 3719 639 4020 
Q 813 4322 1089 4481 
Q 1366 4641 1759 4641 
Q 2131 4641 2406 4483 
Q 2681 4325 2862 4023 
Q 3044 3722 3134 3284 
Q 3225 2847 3225 2291 
z
M 884 2291 
Q 884 1822 931 1472 
Q 978 1122 1081 889 
Q 1184 656 1351 539 
Q 1519 422 1759 422 
Q 2000 422 2169 537 
Q 2338 653 2445 884 
Q 2553 1116 2601 1467 
Q 2650 1819 2650 2291 
Q 2650 2759 2601 3109 
Q 2553 3459 2445 3690 
Q 2338 3922 2169 4037 
Q 2000 4153 1759 4153 
Q 1519 4153 1351 4037 
Q 1184 3922 1081 3690 
Q 978 3459 931 3109 
Q 884 2759 884 2291 
z
" transform="scale(0.015625)"/>
       </defs>
       <use xlink:href="#DroidSans-30"/>
      </g>
     </g>
    </g>
    <g id="xtick_2">
     <g id="line2d_2">
      <g>
       <use xlink:href="#m3129479693" x="155.623727" y="103.255889" style="stroke: #000000; stroke-width: 2"/>
      </g>
     </g>
     <g id="text_2">
      <!-- 10 -->
      <g transform="translate(149.014352 122.874014) scale(0.12 -0.12)">
       <defs>
        <path id="DroidSans-31" d="M 2222 0 
L 1672 0 
L 1672 2853 
Q 1672 2988 1673 3141 
Q 1675 3294 1679 3445 
Q 1684 3597 1689 3736 
Q 1694 3875 1697 3981 
Q 1644 3925 1603 3884 
Q 1563 3844 1520 3806 
Q 1478 3769 1431 3726 
Q 1384 3684 1319 3628 
L 856 3250 
L 556 3634 
L 1753 4569 
L 2222 4569 
L 2222 0 
z
" transform="scale(0.015625)"/>
       </defs>
       <use xlink:href="#DroidSans-31"/>
       <use xlink:href="#DroidSans-30" x="55.078125"/>
      </g>
     </g>
    </g>
    <g id="xtick_3">
     <g id="line2d_3">
      <g>
       <use xlink:href="#m3129479693" x="221.49898" y="103.255889" style="stroke: #000000; stroke-width: 2"/>
      </g>
     </g>
     <g id="text_3">
      <!-- 20 -->
      <g transform="translate(214.889605 122.874014) scale(0.12 -0.12)">
       <defs>
        <path id="DroidSans-32" d="M 3150 0 
L 300 0 
L 300 488 
L 1394 1678 
Q 1628 1931 1812 2140 
Q 1997 2350 2126 2550 
Q 2256 2750 2325 2951 
Q 2394 3153 2394 3391 
Q 2394 3575 2341 3715 
Q 2288 3856 2189 3954 
Q 2091 4053 1956 4103 
Q 1822 4153 1656 4153 
Q 1359 4153 1120 4033 
Q 881 3913 666 3725 
L 347 4097 
Q 472 4209 615 4307 
Q 759 4406 925 4478 
Q 1091 4550 1275 4592 
Q 1459 4634 1663 4634 
Q 1963 4634 2205 4550 
Q 2447 4466 2615 4308 
Q 2784 4150 2876 3923 
Q 2969 3697 2969 3413 
Q 2969 3147 2886 2906 
Q 2803 2666 2658 2433 
Q 2513 2200 2311 1965 
Q 2109 1731 1875 1478 
L 997 544 
L 997 519 
L 3150 519 
L 3150 0 
z
" transform="scale(0.015625)"/>
       </defs>
       <use xlink:href="#DroidSans-32"/>
       <use xlink:href="#DroidSans-30" x="55.078125"/>
      </g>
     </g>
    </g>
    <g id="xtick_4">
     <g id="line2d_4">
      <g>
       <use xlink:href="#m3129479693" x="287.374232" y="103.255889" style="stroke: #000000; stroke-width: 2"/>
      </g>
     </g>
     <g id="text_4">
      <!-- 30 -->
      <g transform="translate(280.764857 122.874014) scale(0.12 -0.12)">
       <defs>
        <path id="DroidSans-33" d="M 3003 3500 
Q 3003 3272 2931 3084 
Q 2859 2897 2729 2759 
Q 2600 2622 2419 2533 
Q 2238 2444 2016 2406 
L 2016 2388 
Q 2569 2319 2856 2036 
Q 3144 1753 3144 1300 
Q 3144 1000 3042 750 
Q 2941 500 2734 319 
Q 2528 138 2212 37 
Q 1897 -63 1466 -63 
Q 1125 -63 823 -9 
Q 522 44 256 184 
L 256 716 
Q 528 572 845 494 
Q 1163 416 1453 416 
Q 1741 416 1950 478 
Q 2159 541 2295 656 
Q 2431 772 2495 940 
Q 2559 1109 2559 1319 
Q 2559 1531 2476 1682 
Q 2394 1834 2241 1932 
Q 2088 2031 1867 2078 
Q 1647 2125 1369 2125 
L 953 2125 
L 953 2597 
L 1369 2597 
Q 1622 2597 1819 2659 
Q 2016 2722 2148 2837 
Q 2281 2953 2350 3112 
Q 2419 3272 2419 3463 
Q 2419 3625 2362 3753 
Q 2306 3881 2203 3970 
Q 2100 4059 1956 4106 
Q 1813 4153 1638 4153 
Q 1303 4153 1048 4048 
Q 794 3944 563 3775 
L 275 4166 
Q 394 4263 539 4347 
Q 684 4431 856 4495 
Q 1028 4559 1223 4596 
Q 1419 4634 1638 4634 
Q 1975 4634 2229 4550 
Q 2484 4466 2656 4314 
Q 2828 4163 2915 3955 
Q 3003 3747 3003 3500 
z
" transform="scale(0.015625)"/>
       </defs>
       <use xlink:href="#DroidSans-33"/>
       <use xlink:href="#DroidSans-30" x="55.078125"/>
      </g>
     </g>
    </g>
    <g id="xtick_5">
     <g id="line2d_5">
      <g>
       <use xlink:href="#m3129479693" x="353.249485" y="103.255889" style="stroke: #000000; stroke-width: 2"/>
      </g>
     </g>
     <g id="text_5">
      <!-- 40 -->
      <g transform="translate(346.64011 122.874014) scale(0.12 -0.12)">
       <defs>
        <path id="DroidSans-34" d="M 3397 1025 
L 2731 1025 
L 2731 0 
L 2181 0 
L 2181 1025 
L 72 1025 
L 72 1522 
L 2144 4594 
L 2731 4594 
L 2731 1544 
L 3397 1544 
L 3397 1025 
z
M 2181 1544 
L 2181 2656 
Q 2181 2831 2186 3023 
Q 2191 3216 2197 3398 
Q 2203 3581 2211 3740 
Q 2219 3900 2222 4006 
L 2194 4006 
Q 2172 3944 2139 3867 
Q 2106 3791 2067 3714 
Q 2028 3638 1987 3566 
Q 1947 3494 1913 3444 
L 628 1544 
L 2181 1544 
z
" transform="scale(0.015625)"/>
       </defs>
       <use xlink:href="#DroidSans-34"/>
       <use xlink:href="#DroidSans-30" x="55.078125"/>
      </g>
     </g>
    </g>
    <g id="xtick_6">
     <g id="line2d_6">
      <g>
       <use xlink:href="#m3129479693" x="419.124738" y="103.255889" style="stroke: #000000; stroke-width: 2"/>
      </g>
     </g>
     <g id="text_6">
      <!-- 50 -->
      <g transform="translate(412.515363 122.874014) scale(0.12 -0.12)">
       <defs>
        <path id="DroidSans-35" d="M 1703 2803 
Q 2013 2803 2280 2717 
Q 2547 2631 2745 2462 
Q 2944 2294 3056 2044 
Q 3169 1794 3169 1466 
Q 3169 1109 3062 825 
Q 2956 541 2747 344 
Q 2538 147 2230 42 
Q 1922 -63 1522 -63 
Q 1363 -63 1208 -47 
Q 1053 -31 911 -1 
Q 769 28 641 75 
Q 513 122 409 184 
L 409 722 
Q 513 650 652 594 
Q 791 538 944 500 
Q 1097 463 1251 442 
Q 1406 422 1538 422 
Q 1784 422 1978 480 
Q 2172 538 2306 659 
Q 2441 781 2512 965 
Q 2584 1150 2584 1403 
Q 2584 1850 2309 2086 
Q 2034 2322 1509 2322 
Q 1425 2322 1326 2314 
Q 1228 2306 1129 2293 
Q 1031 2281 942 2267 
Q 853 2253 788 2241 
L 506 2419 
L 678 4569 
L 2834 4569 
L 2834 4050 
L 1172 4050 
L 1050 2741 
Q 1150 2759 1314 2781 
Q 1478 2803 1703 2803 
z
" transform="scale(0.015625)"/>
       </defs>
       <use xlink:href="#DroidSans-35"/>
       <use xlink:href="#DroidSans-30" x="55.078125"/>
      </g>
     </g>
    </g>
    <g id="xtick_7">
     <g id="line2d_7">
      <g>
       <use xlink:href="#m3129479693" x="484.999991" y="103.255889" style="stroke: #000000; stroke-width: 2"/>
      </g>
     </g>
     <g id="text_7">
      <!-- 60 -->
      <g transform="translate(478.390616 122.874014) scale(0.12 -0.12)">
       <defs>
        <path id="DroidSans-36" d="M 353 1953 
Q 353 2281 386 2606 
Q 419 2931 501 3229 
Q 584 3528 728 3784 
Q 872 4041 1094 4230 
Q 1316 4419 1625 4526 
Q 1934 4634 2350 4634 
Q 2409 4634 2481 4631 
Q 2553 4628 2626 4620 
Q 2700 4613 2767 4602 
Q 2834 4591 2888 4575 
L 2888 4091 
Q 2778 4128 2640 4147 
Q 2503 4166 2369 4166 
Q 2088 4166 1873 4098 
Q 1659 4031 1503 3909 
Q 1347 3788 1242 3619 
Q 1138 3450 1072 3245 
Q 1006 3041 975 2809 
Q 944 2578 934 2328 
L 972 2328 
Q 1034 2441 1123 2539 
Q 1213 2638 1331 2708 
Q 1450 2778 1598 2818 
Q 1747 2859 1931 2859 
Q 2228 2859 2468 2767 
Q 2709 2675 2878 2497 
Q 3047 2319 3139 2061 
Q 3231 1803 3231 1472 
Q 3231 1116 3134 831 
Q 3038 547 2856 348 
Q 2675 150 2419 43 
Q 2163 -63 1844 -63 
Q 1531 -63 1257 59 
Q 984 181 784 431 
Q 584 681 468 1059 
Q 353 1438 353 1953 
z
M 1838 416 
Q 2025 416 2179 480 
Q 2334 544 2446 673 
Q 2559 803 2620 1001 
Q 2681 1200 2681 1472 
Q 2681 1691 2629 1864 
Q 2578 2038 2475 2159 
Q 2372 2281 2217 2347 
Q 2063 2413 1856 2413 
Q 1647 2413 1473 2339 
Q 1300 2266 1178 2148 
Q 1056 2031 989 1881 
Q 922 1731 922 1581 
Q 922 1372 980 1164 
Q 1038 956 1152 790 
Q 1266 625 1437 520 
Q 1609 416 1838 416 
z
" transform="scale(0.015625)"/>
       </defs>
       <use xlink:href="#DroidSans-36"/>
       <use xlink:href="#DroidSans-30" x="55.078125"/>
      </g>
     </g>
    </g>
    <g id="xtick_8">
     <g id="line2d_8">
      <g>
       <use xlink:href="#m3129479693" x="550.875244" y="103.255889" style="stroke: #000000; stroke-width: 2"/>
      </g>
     </g>
     <g id="text_8">
      <!-- 70 -->
      <g transform="translate(544.265869 122.874014) scale(0.12 -0.12)">
       <defs>
        <path id="DroidSans-37" d="M 878 0 
L 2638 4050 
L 281 4050 
L 281 4569 
L 3219 4569 
L 3219 4116 
L 1484 0 
L 878 0 
z
" transform="scale(0.015625)"/>
       </defs>
       <use xlink:href="#DroidSans-37"/>
       <use xlink:href="#DroidSans-30" x="55.078125"/>
      </g>
     </g>
    </g>
    <g id="text_9">
     <!-- $\frac{\omega}{2\pi} \left[\frac{1}{T_2^*}\right]$ -->
     <g transform="translate(304.718687 146.857764) scale(0.18 -0.18)">
      <defs>
       <path id="DejaVuSans-Oblique-3c9" d="M 1369 -91 
Q 72 -91 434 1766 
Q 575 2500 1256 3500 
L 1875 3500 
Q 1231 2500 1088 1750 
Q 819 397 1519 397 
Q 2166 397 2478 2078 
L 3009 2078 
Q 2669 388 3316 397 
Q 4013 403 4275 1750 
Q 4419 2500 4169 3500 
L 4788 3500 
Q 5075 2500 4934 1766 
Q 4578 -94 3278 -91 
Q 2428 -88 2503 844 
Q 2194 -91 1369 -91 
z
" transform="scale(0.015625)"/>
       <path id="DejaVuSans-32" d="M 1228 531 
L 3431 531 
L 3431 0 
L 469 0 
L 469 531 
Q 828 903 1448 1529 
Q 2069 2156 2228 2338 
Q 2531 2678 2651 2914 
Q 2772 3150 2772 3378 
Q 2772 3750 2511 3984 
Q 2250 4219 1831 4219 
Q 1534 4219 1204 4116 
Q 875 4013 500 3803 
L 500 4441 
Q 881 4594 1212 4672 
Q 1544 4750 1819 4750 
Q 2544 4750 2975 4387 
Q 3406 4025 3406 3419 
Q 3406 3131 3298 2873 
Q 3191 2616 2906 2266 
Q 2828 2175 2409 1742 
Q 1991 1309 1228 531 
z
" transform="scale(0.015625)"/>
       <path id="DejaVuSans-Oblique-3c0" d="M 584 3500 
L 3938 3500 
L 3825 2925 
L 3384 2925 
L 2966 775 
Q 2922 550 2981 450 
Q 3038 353 3209 353 
Q 3256 353 3325 363 
Q 3397 369 3419 372 
L 3338 -44 
Q 3222 -84 3103 -103 
Q 2981 -122 2866 -122 
Q 2491 -122 2388 81 
Q 2284 288 2391 838 
L 2797 2925 
L 1506 2925 
L 938 0 
L 350 0 
L 919 2925 
L 472 2925 
L 584 3500 
z
" transform="scale(0.015625)"/>
       <path id="STIXSizeTwoSym-Regular-5b" d="M 2701 -1786 
L 1216 -1786 
L 1216 10022 
L 2701 10022 
L 2701 9766 
L 1702 9766 
L 1702 -1530 
L 2701 -1530 
L 2701 -1786 
z
" transform="scale(0.015625)"/>
       <path id="DejaVuSans-31" d="M 794 531 
L 1825 531 
L 1825 4091 
L 703 3866 
L 703 4441 
L 1819 4666 
L 2450 4666 
L 2450 531 
L 3481 531 
L 3481 0 
L 794 0 
L 794 531 
z
" transform="scale(0.015625)"/>
       <path id="DejaVuSans-Oblique-54" d="M 378 4666 
L 4325 4666 
L 4225 4134 
L 2559 4134 
L 1759 0 
L 1125 0 
L 1925 4134 
L 275 4134 
L 378 4666 
z
" transform="scale(0.015625)"/>
       <path id="DejaVuSans-2a" d="M 3009 3897 
L 1888 3291 
L 3009 2681 
L 2828 2375 
L 1778 3009 
L 1778 1831 
L 1422 1831 
L 1422 3009 
L 372 2375 
L 191 2681 
L 1313 3291 
L 191 3897 
L 372 4206 
L 1422 3572 
L 1422 4750 
L 1778 4750 
L 1778 3572 
L 2828 4206 
L 3009 3897 
z
" transform="scale(0.015625)"/>
       <path id="STIXSizeTwoSym-Regular-5d" d="M 1722 -1786 
L 237 -1786 
L 237 -1530 
L 1235 -1530 
L 1235 9766 
L 237 9766 
L 237 10022 
L 1722 10022 
L 1722 -1786 
z
" transform="scale(0.015625)"/>
      </defs>
      <use xlink:href="#DejaVuSans-Oblique-3c9" transform="translate(14 44.99375) scale(0.7)"/>
      <use xlink:href="#DejaVuSans-32" transform="translate(0 -39.2375) scale(0.7)"/>
      <use xlink:href="#DejaVuSans-Oblique-3c0" transform="translate(44.536133 -39.2375) scale(0.7)"/>
      <use xlink:href="#STIXSizeTwoSym-Regular-5b" transform="translate(99.179688 -44.698438) scale(0.892082)"/>
      <use xlink:href="#DejaVuSans-31" transform="translate(164.123917 43.965625) scale(0.7)"/>
      <use xlink:href="#DejaVuSans-Oblique-54" transform="translate(140.123917 -50.448437) scale(0.7)"/>
      <use xlink:href="#DejaVuSans-2a" transform="translate(197.340832 -23.651562) scale(0.49)"/>
      <use xlink:href="#DejaVuSans-32" transform="translate(182.882706 -69.589062) scale(0.49)"/>
      <use xlink:href="#STIXSizeTwoSym-Regular-5d" transform="translate(245.801281 -44.698438) scale(0.892082)"/>
      <path d="M 0 18.965625 
L 0 25.215625 
L 86.679688 25.215625 
L 86.679688 18.965625 
L 0 18.965625 
z
"/>
      <path d="M 140.123917 18.965625 
L 140.123917 25.215625 
L 233.301281 25.215625 
L 233.301281 18.965625 
L 140.123917 18.965625 
z
"/>
     </g>
    </g>
   </g>
   <g id="matplotlib.axis_2">
    <g id="ytick_1">
     <g id="line2d_9">
      <defs>
       <path id="m1f13fb7957" d="M 0 0 
L -7 0 
" style="stroke: #000000; stroke-width: 2"/>
      </defs>
      <g>
       <use xlink:href="#m1f13fb7957" x="65.79649" y="99.669769" style="stroke: #000000; stroke-width: 2"/>
      </g>
     </g>
     <g id="text_10">
      <!-- 0.0 -->
      <g transform="translate(38.86024 104.228831) scale(0.12 -0.12)">
       <defs>
        <path id="DroidSans-2e" d="M 459 347 
Q 459 466 490 548 
Q 522 631 575 682 
Q 628 734 700 757 
Q 772 781 856 781 
Q 938 781 1011 757 
Q 1084 734 1137 682 
Q 1191 631 1222 548 
Q 1253 466 1253 347 
Q 1253 231 1222 148 
Q 1191 66 1137 12 
Q 1084 -41 1011 -66 
Q 938 -91 856 -91 
Q 772 -91 700 -66 
Q 628 -41 575 12 
Q 522 66 490 148 
Q 459 231 459 347 
z
" transform="scale(0.015625)"/>
       </defs>
       <use xlink:href="#DroidSans-30"/>
       <use xlink:href="#DroidSans-2e" x="55.078125"/>
       <use xlink:href="#DroidSans-30" x="81.884766"/>
      </g>
     </g>
    </g>
    <g id="ytick_2">
     <g id="line2d_10">
      <g>
       <use xlink:href="#m1f13fb7957" x="65.79649" y="58.937381" style="stroke: #000000; stroke-width: 2"/>
      </g>
     </g>
     <g id="text_11">
      <!-- 0.2 -->
      <g transform="translate(38.86024 63.496443) scale(0.12 -0.12)">
       <use xlink:href="#DroidSans-30"/>
       <use xlink:href="#DroidSans-2e" x="55.078125"/>
       <use xlink:href="#DroidSans-32" x="81.884766"/>
      </g>
     </g>
    </g>
    <g id="ytick_3">
     <g id="line2d_11">
      <g>
       <use xlink:href="#m1f13fb7957" x="65.79649" y="18.204993" style="stroke: #000000; stroke-width: 2"/>
      </g>
     </g>
     <g id="text_12">
      <!-- 0.4 -->
      <g transform="translate(38.86024 22.764055) scale(0.12 -0.12)">
       <use xlink:href="#DroidSans-30"/>
       <use xlink:href="#DroidSans-2e" x="55.078125"/>
       <use xlink:href="#DroidSans-34" x="81.884766"/>
      </g>
     </g>
    </g>
    <g id="text_13">
     <!-- $\frac{\mathrm{Re}[S(\omega)]}{(2\pi)^2} \left[\frac{1}{T_2^*}\right]$ -->
     <g transform="translate(22.26024 98.578065) rotate(-90) scale(0.18 -0.18)">
      <defs>
       <path id="DejaVuSans-52" d="M 2841 2188 
Q 3044 2119 3236 1894 
Q 3428 1669 3622 1275 
L 4263 0 
L 3584 0 
L 2988 1197 
Q 2756 1666 2539 1819 
Q 2322 1972 1947 1972 
L 1259 1972 
L 1259 0 
L 628 0 
L 628 4666 
L 2053 4666 
Q 2853 4666 3247 4331 
Q 3641 3997 3641 3322 
Q 3641 2881 3436 2590 
Q 3231 2300 2841 2188 
z
M 1259 4147 
L 1259 2491 
L 2053 2491 
Q 2509 2491 2742 2702 
Q 2975 2913 2975 3322 
Q 2975 3731 2742 3939 
Q 2509 4147 2053 4147 
L 1259 4147 
z
" transform="scale(0.015625)"/>
       <path id="DejaVuSans-65" d="M 3597 1894 
L 3597 1613 
L 953 1613 
Q 991 1019 1311 708 
Q 1631 397 2203 397 
Q 2534 397 2845 478 
Q 3156 559 3463 722 
L 3463 178 
Q 3153 47 2828 -22 
Q 2503 -91 2169 -91 
Q 1331 -91 842 396 
Q 353 884 353 1716 
Q 353 2575 817 3079 
Q 1281 3584 2069 3584 
Q 2775 3584 3186 3129 
Q 3597 2675 3597 1894 
z
M 3022 2063 
Q 3016 2534 2758 2815 
Q 2500 3097 2075 3097 
Q 1594 3097 1305 2825 
Q 1016 2553 972 2059 
L 3022 2063 
z
" transform="scale(0.015625)"/>
       <path id="DejaVuSans-5b" d="M 550 4863 
L 1875 4863 
L 1875 4416 
L 1125 4416 
L 1125 -397 
L 1875 -397 
L 1875 -844 
L 550 -844 
L 550 4863 
z
" transform="scale(0.015625)"/>
       <path id="DejaVuSans-Oblique-53" d="M 3859 4513 
L 3738 3897 
Q 3422 4066 3111 4152 
Q 2800 4238 2509 4238 
Q 1944 4238 1609 3991 
Q 1275 3744 1275 3334 
Q 1275 3109 1398 2989 
Q 1522 2869 2034 2731 
L 2413 2638 
Q 3053 2472 3303 2217 
Q 3553 1963 3553 1503 
Q 3553 797 2998 353 
Q 2444 -91 1538 -91 
Q 1166 -91 791 -17 
Q 416 56 38 206 
L 166 856 
Q 513 641 861 531 
Q 1209 422 1556 422 
Q 2147 422 2503 684 
Q 2859 947 2859 1369 
Q 2859 1650 2717 1795 
Q 2575 1941 2106 2059 
L 1728 2156 
Q 1081 2325 845 2545 
Q 609 2766 609 3163 
Q 609 3859 1145 4304 
Q 1681 4750 2541 4750 
Q 2875 4750 3203 4690 
Q 3531 4631 3859 4513 
z
" transform="scale(0.015625)"/>
       <path id="DejaVuSans-28" d="M 1984 4856 
Q 1566 4138 1362 3434 
Q 1159 2731 1159 2009 
Q 1159 1288 1364 580 
Q 1569 -128 1984 -844 
L 1484 -844 
Q 1016 -109 783 600 
Q 550 1309 550 2009 
Q 550 2706 781 3412 
Q 1013 4119 1484 4856 
L 1984 4856 
z
" transform="scale(0.015625)"/>
       <path id="DejaVuSans-29" d="M 513 4856 
L 1013 4856 
Q 1481 4119 1714 3412 
Q 1947 2706 1947 2009 
Q 1947 1309 1714 600 
Q 1481 -109 1013 -844 
L 513 -844 
Q 928 -128 1133 580 
Q 1338 1288 1338 2009 
Q 1338 2731 1133 3434 
Q 928 4138 513 4856 
z
" transform="scale(0.015625)"/>
       <path id="DejaVuSans-5d" d="M 1947 4863 
L 1947 -844 
L 622 -844 
L 622 -397 
L 1369 -397 
L 1369 4416 
L 622 4416 
L 622 4863 
L 1947 4863 
z
" transform="scale(0.015625)"/>
      </defs>
      <use xlink:href="#DejaVuSans-52" transform="translate(0 53.810938) scale(0.7)"/>
      <use xlink:href="#DejaVuSans-65" transform="translate(48.637695 53.810938) scale(0.7)"/>
      <use xlink:href="#DejaVuSans-5b" transform="translate(91.704102 53.810938) scale(0.7)"/>
      <use xlink:href="#DejaVuSans-Oblique-53" transform="translate(119.013672 53.810938) scale(0.7)"/>
      <use xlink:href="#DejaVuSans-28" transform="translate(163.447266 53.810938) scale(0.7)"/>
      <use xlink:href="#DejaVuSans-Oblique-3c9" transform="translate(190.756836 53.810938) scale(0.7)"/>
      <use xlink:href="#DejaVuSans-29" transform="translate(249.375 53.810938) scale(0.7)"/>
      <use xlink:href="#DejaVuSans-5d" transform="translate(276.68457 53.810938) scale(0.7)"/>
      <use xlink:href="#DejaVuSans-28" transform="translate(64 -49.834375) scale(0.7)"/>
      <use xlink:href="#DejaVuSans-32" transform="translate(91.30957 -49.834375) scale(0.7)"/>
      <use xlink:href="#DejaVuSans-Oblique-3c0" transform="translate(135.845703 -49.834375) scale(0.7)"/>
      <use xlink:href="#DejaVuSans-29" transform="translate(177.989258 -49.834375) scale(0.7)"/>
      <use xlink:href="#DejaVuSans-32" transform="translate(205.96875 -23.0375) scale(0.49)"/>
      <use xlink:href="#STIXSizeTwoSym-Regular-5b" transform="translate(316.494141 -44.084375) scale(0.892082)"/>
      <use xlink:href="#DejaVuSans-31" transform="translate(381.43837 44.579688) scale(0.7)"/>
      <use xlink:href="#DejaVuSans-Oblique-54" transform="translate(357.43837 -49.834375) scale(0.7)"/>
      <use xlink:href="#DejaVuSans-2a" transform="translate(414.655285 -23.0375) scale(0.49)"/>
      <use xlink:href="#DejaVuSans-32" transform="translate(400.197159 -68.975) scale(0.49)"/>
      <use xlink:href="#STIXSizeTwoSym-Regular-5d" transform="translate(463.115734 -44.084375) scale(0.892082)"/>
      <path d="M 0 19.579688 
L 0 25.829688 
L 303.994141 25.829688 
L 303.994141 19.579688 
L 0 19.579688 
z
"/>
      <path d="M 357.43837 19.579688 
L 357.43837 25.829688 
L 450.615734 25.829688 
L 450.615734 19.579688 
L 357.43837 19.579688 
z
"/>
     </g>
    </g>
   </g>
   <g id="line2d_12">
    <path d="M 89.864872 7.557315 
L 90.321067 8.365808 
L 90.98911 11.504196 
L 92.113359 20.637736 
L 95.28362 50.4986 
L 96.619718 59.555782 
L 97.764903 65.392739 
L 99.10099 70.334246 
L 100.246174 73.25479 
L 100.914229 74.476961 
L 102.038513 75.805674 
L 102.727468 76.18342 
L 103.395546 76.228067 
L 104.063509 75.937908 
L 104.752579 75.254641 
L 105.208785 74.563201 
L 105.876748 73.159388 
L 106.544826 71.218198 
L 107.233781 68.548016 
L 107.689988 66.346401 
L 108.358065 62.411917 
L 109.482349 53.719095 
L 111.963552 31.988073 
L 112.196415 30.997131 
L 112.652622 30.219002 
L 113.320585 32.017269 
L 113.988663 36.807318 
L 115.133824 48.447185 
L 116.46998 61.530391 
L 117.615141 70.083344 
L 118.283219 73.952699 
L 119.407388 78.989069 
L 120.096458 81.362443 
L 121.432499 84.860252 
L 122.577661 87.027461 
L 123.913816 88.900828 
L 125.058978 90.110243 
L 126.395018 91.192033 
L 127.540295 91.909282 
L 129.332542 92.747123 
L 130.689575 93.206706 
L 132.502814 93.642628 
L 134.984016 93.980479 
L 137.465333 94.07271 
L 139.946651 93.93885 
L 142.427853 93.565048 
L 144.452964 93.049877 
L 146.245326 92.396965 
L 148.058565 91.495586 
L 149.871689 90.277511 
L 151.207845 89.117234 
L 152.353006 87.899465 
L 153.689162 86.159769 
L 154.834324 84.341738 
L 156.170364 81.774505 
L 157.315526 79.155708 
L 159.107888 74.330804 
L 161.821954 66.689292 
L 162.27816 65.661877 
L 162.946123 64.454349 
L 163.614201 63.683137 
L 164.303156 63.414628 
L 164.759362 63.546322 
L 165.42744 64.172365 
L 166.095518 65.26347 
L 166.784473 66.784963 
L 167.908757 69.837562 
L 171.058037 78.905434 
L 172.203199 81.67542 
L 173.539354 84.418276 
L 174.684516 86.380128 
L 176.020557 88.278378 
L 177.165833 89.625147 
L 178.95808 91.320556 
L 180.315113 92.341188 
L 182.128352 93.437504 
L 184.153463 94.389845 
L 186.634666 95.276106 
L 189.572189 96.049142 
L 192.721469 96.654199 
L 197.016025 97.23821 
L 202.646623 97.745431 
L 210.090803 98.160691 
L 220.015613 98.473182 
L 233.778657 98.668388 
L 249.791188 98.672008 
L 262.1972 98.473254 
L 270.309573 98.145123 
L 275.960245 97.71019 
L 279.566763 97.259706 
L 282.715585 96.671995 
L 285.196787 96.003381 
L 287.01037 95.341387 
L 288.822807 94.469033 
L 290.615742 93.318189 
L 291.972775 92.189156 
L 293.329808 90.773818 
L 294.453977 89.341726 
L 295.81101 87.265876 
L 297.602799 84.00828 
L 299.416382 80.632554 
L 300.540552 79.032637 
L 301.229966 78.435251 
L 301.897585 78.209502 
L 302.566351 78.35539 
L 303.254618 78.878215 
L 303.711168 79.4067 
L 305.047553 81.544354 
L 308.673573 88.093952 
L 310.009958 89.971362 
L 311.154775 91.295933 
L 312.49116 92.553166 
L 313.635977 93.425754 
L 315.428913 94.494788 
L 316.785946 95.118674 
L 318.598382 95.767786 
L 321.079584 96.409388 
L 324.229553 96.948904 
L 328.067788 97.342056 
L 332.797329 97.570123 
L 337.759734 97.582268 
L 342.266735 97.384717 
L 345.892755 97.020177 
L 349.041576 96.4562 
L 351.522779 95.737333 
L 353.336362 94.964755 
L 355.129298 93.88708 
L 356.486331 92.775421 
L 357.843364 91.319047 
L 358.967533 89.790619 
L 360.324566 87.520192 
L 363.261172 81.966208 
L 363.929938 81.076956 
L 364.597557 80.553951 
L 365.286971 80.47391 
L 365.742374 80.686364 
L 366.41114 81.345195 
L 367.535309 83.143912 
L 370.705926 89.101603 
L 372.041164 91.029023 
L 373.187128 92.339023 
L 374.522366 93.535601 
L 375.66833 94.33617 
L 377.460119 95.280625 
L 378.817152 95.812038 
L 381.298354 96.507602 
L 383.779556 96.967023 
L 387.384928 97.382481 
L 391.89193 97.657817 
L 397.999152 97.789619 
L 405.443906 97.715759 
L 412.887513 97.412062 
L 418.517537 96.970904 
L 422.812322 96.419826 
L 425.961144 95.797799 
L 428.443493 95.066832 
L 430.255929 94.291964 
L 431.592314 93.500513 
L 432.737132 92.585191 
L 434.073517 91.078008 
L 434.762931 90.026519 
L 435.218334 89.191795 
L 435.8871 87.726627 
L 437.01127 84.502628 
L 439.035921 77.955007 
L 439.492472 77.294558 
L 439.725336 77.189993 
L 440.180739 77.441793 
L 440.849505 78.68256 
L 442.663088 83.253058 
L 443.330707 84.456993 
L 444.454877 85.716715 
L 445.144291 86.100928 
L 445.81191 86.256878 
L 446.936079 86.149079 
L 447.625493 85.904824 
L 448.960731 85.147087 
L 450.774314 83.71848 
L 453.924283 81.028626 
L 455.0691 80.295682 
L 456.405485 79.788668 
L 457.550302 79.705932 
L 458.886687 80.01289 
L 460.031505 80.560059 
L 462.056157 81.896498 
L 464.993909 83.872453 
L 466.786845 84.76997 
L 468.143878 85.230002 
L 469.956314 85.534894 
L 471.74925 85.496805 
L 473.106283 85.257581 
L 474.918719 84.683192 
L 476.944518 83.757378 
L 480.54989 81.73974 
L 482.363473 80.809614 
L 484.155261 80.125809 
L 485.512294 79.810677 
L 487.325878 79.632 
L 489.80708 79.472457 
L 491.143465 79.097317 
L 491.831732 78.720919 
L 492.288283 78.378747 
L 492.955901 77.72279 
L 494.312934 75.819418 
L 495.437104 74.031841 
L 496.10587 73.294856 
L 496.561273 73.109531 
L 496.794137 73.141961 
L 497.250687 73.475239 
L 497.918306 74.575238 
L 499.275339 78.186685 
L 500.399509 81.341063 
L 501.756542 84.449987 
L 502.880711 86.386236 
L 504.237744 88.119914 
L 505.36306 89.191705 
L 506.720093 90.173126 
L 507.844263 90.794632 
L 509.656699 91.528797 
L 511.682498 92.056275 
L 513.930837 92.364787 
L 515.955489 92.431389 
L 517.769072 92.331693 
L 520.250274 91.946186 
L 522.063858 91.468088 
L 524.08851 90.716639 
L 525.880298 89.844518 
L 527.693882 88.761587 
L 530.175084 87.012818 
L 533.325052 84.767814 
L 534.46987 84.136381 
L 535.806255 83.655867 
L 536.951072 83.52049 
L 538.287457 83.714797 
L 539.432274 84.167104 
L 540.768659 84.965445 
L 542.582243 86.344015 
L 546.875881 89.766454 
L 549.357084 91.366029 
L 551.382883 92.395636 
L 553.631222 93.263013 
L 555.655873 93.81286 
L 557.469457 94.122279 
L 559.28304 94.243895 
L 561.307692 94.104151 
L 562.431862 93.858244 
L 563.788895 93.335912 
L 564.913064 92.64749 
L 566.270097 91.384508 
L 567.394266 89.874432 
L 568.751299 87.471054 
L 569.875469 85.332321 
L 570.544235 84.328084 
L 571.232502 83.778758 
L 571.232502 83.778758 
" clip-path="url(#p49a6f2954c)" style="fill: none; stroke: #1f77b4; stroke-width: 1.5; stroke-linecap: square"/>
   </g>
   <g id="patch_3">
    <path d="M 65.79649 103.255889 
L 65.79649 3.00024 
" style="fill: none; stroke: #000000; stroke-width: 2; stroke-linejoin: miter; stroke-linecap: square"/>
   </g>
   <g id="patch_4">
    <path d="M 595.300883 103.255889 
L 595.300883 3.00024 
" style="fill: none; stroke: #000000; stroke-width: 2; stroke-linejoin: miter; stroke-linecap: square"/>
   </g>
   <g id="patch_5">
    <path d="M 65.79649 103.255889 
L 595.300883 103.255889 
" style="fill: none; stroke: #000000; stroke-width: 2; stroke-linejoin: miter; stroke-linecap: square"/>
   </g>
   <g id="patch_6">
    <path d="M 65.79649 3.00024 
L 595.300883 3.00024 
" style="fill: none; stroke: #000000; stroke-width: 2; stroke-linejoin: miter; stroke-linecap: square"/>
   </g>
  </g>
  <g id="axes_2">
   <g id="patch_7">
    <path d="M 65.79649 672.495072 
L 595.300883 672.495072 
L 595.300883 171.216827 
L 65.79649 171.216827 
z
" style="fill: #ffffff"/>
   </g>
   <g id="PathCollection_1">
    <path d="M 65.79649 475.312542 
L 69.18372 475.190442 
L 92.27171 475.535766 
L 96.34517 475.840091 
L 118.746929 475.434142 
L 141.484091 475.522568 
L 145.222149 475.322336 
L 148.691994 475.268653 
L 171.697369 475.338818 
L 194.822329 475.155442 
L 198.172588 475.147733 
L 220.920478 475.512412 
L 224.647808 475.42977 
L 228.352703 475.491174 
L 251.123028 475.408916 
L 254.772366 475.438579 
L 277.598247 475.457622 
L 281.207272 475.400413 
L 304.073467 475.321665 
L 325.786515 476.49209 
L 330.548687 476.737138 
L 335.338093 476.517873 
L 357.023906 475.230758 
L 380.339664 474.974815 
L 383.499126 475.207745 
L 386.685138 474.99995 
L 409.974346 475.421638 
L 430.778647 477.352394 
L 436.449565 478.183828 
L 442.342527 477.562602 
L 462.924785 475.724874 
L 485.642174 475.541287 
L 489.400005 475.562226 
L 511.732858 475.905325 
L 515.875224 475.967624 
L 519.851133 475.74774 
L 542.350444 475.314527 
L 565.272072 475.347935 
L 568.825664 475.301763 
L 572.50518 475.467148 
L 595.300883 475.539221 
L 595.300883 471.983774 
L 595.300883 467.514464 
L 573.45492 467.601288 
L 568.825664 467.325357 
L 563.359961 466.80943 
L 542.350444 466.856567 
L 537.848229 467.721558 
L 515.875224 467.193895 
L 510.307537 466.712882 
L 489.400005 467.147029 
L 468.281095 466.912992 
L 462.924785 467.572114 
L 443.293072 465.505072 
L 436.449565 465.146047 
L 414.727019 467.48445 
L 409.974346 467.756721 
L 387.434127 468.258535 
L 383.499126 468.111835 
L 379.562538 468.257033 
L 357.023906 467.949642 
L 352.83667 468.019746 
L 330.548687 466.519582 
L 308.399097 467.888729 
L 304.073467 467.716929 
L 282.207035 467.620666 
L 277.598247 467.737318 
L 273.126256 467.750171 
L 251.123028 467.772567 
L 229.199001 467.67519 
L 224.647808 467.603168 
L 219.976177 467.561173 
L 198.172588 468.001156 
L 176.13796 467.779897 
L 171.697369 467.905029 
L 149.443402 467.987542 
L 145.222149 467.941851 
L 122.912195 468.040546 
L 118.746929 467.023897 
L 114.495887 467.959341 
L 92.27171 467.499863 
L 70.090497 467.918667 
L 65.79649 467.849253 
L 65.79649 471.983774 
" clip-path="url(#p921507f9aa)" style="fill: #481668"/>
   </g>
   <g id="PathCollection_2">
    <path d="M 65.79649 467.849253 
L 70.090497 467.918667 
L 92.27171 467.499863 
L 114.495887 467.959341 
L 118.746929 467.023897 
L 122.912195 468.040546 
L 145.222149 467.941851 
L 149.443402 467.987542 
L 171.697369 467.905029 
L 176.13796 467.779897 
L 198.172588 468.001156 
L 219.976177 467.561173 
L 224.647808 467.603168 
L 229.199001 467.67519 
L 251.123028 467.772567 
L 273.126256 467.750171 
L 277.598247 467.737318 
L 282.207035 467.620666 
L 304.073467 467.716929 
L 308.399097 467.888729 
L 330.548687 466.519582 
L 352.83667 468.019746 
L 357.023906 467.949642 
L 379.562538 468.257033 
L 383.499126 468.111835 
L 387.434127 468.258535 
L 409.974346 467.756721 
L 414.727019 467.48445 
L 436.449565 465.146047 
L 443.293072 465.505072 
L 462.924785 467.572114 
L 468.281095 466.912992 
L 489.400005 467.147029 
L 510.307537 466.712882 
L 515.875224 467.193895 
L 537.848229 467.721558 
L 542.350444 466.856567 
L 563.359961 466.80943 
L 568.825664 467.325357 
L 573.45492 467.601288 
L 595.300883 467.514464 
L 595.300883 446.919862 
L 595.300883 421.85595 
L 595.300883 396.792037 
L 595.300883 371.728125 
L 595.300883 346.664213 
L 595.300883 321.990979 
L 569.733288 322.459543 
L 568.825664 322.471663 
L 567.923468 322.454403 
L 542.350444 322.487595 
L 541.400631 322.499482 
L 515.875224 322.524636 
L 489.943202 322.114542 
L 489.400005 322.110071 
L 488.858554 322.112888 
L 462.924785 322.489461 
L 437.373622 322.475099 
L 436.449565 322.489002 
L 411.580987 323.121297 
L 409.974346 323.10947 
L 408.345445 323.14237 
L 383.499126 322.549623 
L 358.773134 323.256282 
L 357.023906 323.236713 
L 331.48918 322.490659 
L 330.548687 322.462212 
L 329.611499 322.48753 
L 304.073467 322.827439 
L 302.810431 322.796008 
L 277.598247 322.028327 
L 252.173897 322.595152 
L 251.123028 322.630272 
L 226.445396 323.302065 
L 224.647808 323.275738 
L 198.852055 322.243547 
L 198.172588 322.248538 
L 197.495812 322.241 
L 180.359446 321.6003 
L 196.243404 319.773954 
L 198.172588 319.887045 
L 200.014406 319.856664 
L 224.647808 317.364963 
L 229.461169 317.043524 
L 251.123028 318.702574 
L 276.219204 320.294769 
L 277.598247 320.222589 
L 278.881781 320.385188 
L 304.073467 318.389808 
L 307.475311 318.379798 
L 330.548687 319.216642 
L 352.623985 317.434924 
L 357.023906 317.562897 
L 380.943324 319.18074 
L 383.499126 318.887535 
L 405.522887 317.386135 
L 409.974346 317.324042 
L 414.238325 317.563619 
L 436.449565 319.13207 
L 460.277632 319.094259 
L 462.924785 318.722205 
L 465.818494 318.860845 
L 489.400005 319.968138 
L 512.884855 318.769338 
L 515.875224 318.561755 
L 518.820874 318.811673 
L 542.350444 318.881847 
L 544.938893 319.149833 
L 568.825664 319.23578 
L 594.125386 320.487466 
L 595.300883 320.339377 
L 595.300883 296.536388 
L 595.300883 271.472476 
L 595.300883 246.408564 
L 595.300883 230.982056 
L 585.024461 231.073271 
L 568.825664 230.758872 
L 552.186602 230.656476 
L 542.350444 230.667836 
L 525.913456 230.847778 
L 515.875224 230.960475 
L 499.528222 230.932967 
L 489.400005 230.820892 
L 479.336513 230.871691 
L 462.924785 230.636366 
L 446.363045 230.729675 
L 436.449565 230.67992 
L 426.426034 230.833861 
L 409.974346 230.759649 
L 400.435429 230.375079 
L 383.499126 233.836546 
L 366.727016 230.53052 
L 357.023906 229.646861 
L 339.22572 229.55914 
L 330.548687 228.517895 
L 313.872544 221.344651 
L 312.3676 213.492651 
L 304.073467 213.206235 
L 295.793809 213.506354 
L 277.598247 213.402421 
L 267.755257 221.344651 
L 251.123028 230.707762 
L 234.390666 230.56815 
L 224.647808 230.689192 
L 214.776827 230.689443 
L 198.172588 230.54482 
L 181.205137 230.345591 
L 171.697369 230.378859 
L 162.213838 230.322646 
L 145.222149 230.049563 
L 135.912896 230.157658 
L 118.746929 226.882017 
L 99.086909 227.796555 
L 92.27171 227.688897 
L 72.185144 227.392747 
L 65.79649 227.425929 
L 65.79649 246.408564 
L 65.79649 271.472476 
L 65.79649 296.536388 
L 65.79649 321.6003 
L 65.79649 346.664213 
L 65.79649 371.728125 
L 65.79649 396.792037 
L 65.79649 421.85595 
L 65.79649 446.919862 
M 65.79649 551.331321 
L 88.745131 550.514099 
L 92.27171 550.550634 
L 115.368104 550.374222 
L 118.746929 550.375904 
L 122.074635 550.325828 
L 145.222149 550.389759 
L 168.164593 550.519966 
L 171.697369 550.521564 
L 175.195749 550.487404 
L 198.172588 550.499586 
L 221.194579 550.44466 
L 224.647808 550.526743 
L 228.141494 550.48296 
L 251.123028 550.397663 
L 254.64661 550.511262 
L 277.598247 550.672011 
L 300.365909 550.685431 
L 304.073467 550.550534 
L 326.706415 550.812963 
L 330.548687 550.804069 
L 353.385485 550.61998 
L 357.023906 550.622995 
L 360.672794 550.629889 
L 383.499126 550.649582 
L 406.50016 550.464499 
L 409.974346 550.53032 
L 432.384241 551.024126 
L 436.449565 551.002884 
L 440.432915 550.946521 
L 462.924785 550.514835 
L 485.93344 550.457284 
L 489.400005 550.482986 
L 512.418385 550.448078 
L 515.875224 550.424159 
L 519.321864 550.438422 
L 542.350444 550.556742 
L 565.285667 550.526802 
L 568.825664 550.512036 
L 591.82066 550.470215 
L 595.300883 550.466321 
L 595.300883 547.175511 
L 595.300883 522.111599 
L 595.300883 497.047686 
L 595.300883 475.539221 
L 572.50518 475.467148 
L 568.825664 475.301763 
L 565.272072 475.347935 
L 542.350444 475.314527 
L 519.851133 475.74774 
L 515.875224 475.967624 
L 511.732858 475.905325 
L 489.400005 475.562226 
L 485.642174 475.541287 
L 462.924785 475.724874 
L 442.342527 477.562602 
L 436.449565 478.183828 
L 430.778647 477.352394 
L 409.974346 475.421638 
L 386.685138 474.99995 
L 383.499126 475.207745 
L 380.339664 474.974815 
L 357.023906 475.230758 
L 335.338093 476.517873 
L 330.548687 476.737138 
L 325.786515 476.49209 
L 304.073467 475.321665 
L 281.207272 475.400413 
L 277.598247 475.457622 
L 254.772366 475.438579 
L 251.123028 475.408916 
L 228.352703 475.491174 
L 224.647808 475.42977 
L 220.920478 475.512412 
L 198.172588 475.147733 
L 194.822329 475.155442 
L 171.697369 475.338818 
L 148.691994 475.268653 
L 145.222149 475.322336 
L 141.484091 475.522568 
L 118.746929 475.434142 
L 96.34517 475.840091 
L 92.27171 475.535766 
L 69.18372 475.190442 
L 65.79649 475.312542 
L 65.79649 497.047686 
L 65.79649 522.111599 
L 65.79649 547.175511 
M 143.462761 321.6003 
L 144.230883 320.661875 
L 145.222149 320.635208 
L 159.046397 321.6003 
L 145.222149 321.941161 
" clip-path="url(#p921507f9aa)" style="fill: #443983"/>
   </g>
   <g id="PathCollection_3">
    <path d="M 65.79649 227.425929 
L 72.185144 227.392747 
L 92.27171 227.688897 
L 99.086909 227.796555 
L 118.746929 226.882017 
L 135.912896 230.157658 
L 145.222149 230.049563 
L 162.213838 230.322646 
L 171.697369 230.378859 
L 181.205137 230.345591 
L 198.172588 230.54482 
L 214.776827 230.689443 
L 224.647808 230.689192 
L 234.390666 230.56815 
L 251.123028 230.707762 
L 267.755257 221.344651 
L 277.598247 213.402421 
L 295.793809 213.506354 
L 304.073467 213.206235 
L 312.3676 213.492651 
L 313.872544 221.344651 
L 330.548687 228.517895 
L 339.22572 229.55914 
L 357.023906 229.646861 
L 366.727016 230.53052 
L 383.499126 233.836546 
L 400.435429 230.375079 
L 409.974346 230.759649 
L 426.426034 230.833861 
L 436.449565 230.67992 
L 446.363045 230.729675 
L 462.924785 230.636366 
L 479.336513 230.871691 
L 489.400005 230.820892 
L 499.528222 230.932967 
L 515.875224 230.960475 
L 525.913456 230.847778 
L 542.350444 230.667836 
L 552.186602 230.656476 
L 568.825664 230.758872 
L 585.024461 231.073271 
L 595.300883 230.982056 
L 595.300883 221.344651 
L 595.300883 196.280739 
L 595.300883 171.216827 
L 568.825664 171.216827 
L 542.350444 171.216827 
L 515.875224 171.216827 
L 489.400005 171.216827 
L 462.924785 171.216827 
L 436.449565 171.216827 
L 409.974346 171.216827 
L 383.499126 171.216827 
L 357.023906 171.216827 
L 330.548687 171.216827 
L 304.073467 171.216827 
L 277.598247 171.216827 
L 251.123028 171.216827 
L 224.647808 171.216827 
L 198.172588 171.216827 
L 171.697369 171.216827 
L 145.222149 171.216827 
L 118.746929 171.216827 
L 92.27171 171.216827 
L 65.79649 171.216827 
L 65.79649 196.280739 
L 65.79649 221.344651 
M 65.79649 568.481058 
L 69.921655 568.334158 
L 92.27171 568.565701 
L 96.183857 568.53582 
L 118.746929 568.547047 
L 140.968637 568.212652 
L 145.222149 568.2244 
L 149.437978 568.248326 
L 171.697369 568.258392 
L 193.740039 568.043159 
L 198.172588 568.045509 
L 202.613848 568.034913 
L 224.647808 568.558659 
L 246.93991 568.279294 
L 251.123028 568.263768 
L 274.184075 569.00725 
L 277.598247 569.031162 
L 280.985052 569.033158 
L 304.073467 568.193101 
L 308.295915 568.24206 
L 330.548687 568.190547 
L 334.862278 568.155775 
L 357.023906 568.174139 
L 379.249288 568.216131 
L 383.499126 568.219797 
L 387.78149 568.185338 
L 409.974346 568.6058 
L 413.725266 568.688452 
L 436.449565 568.569713 
L 458.715644 568.254658 
L 462.924785 568.173872 
L 467.230638 568.163102 
L 489.400005 568.327467 
L 493.538867 568.32119 
L 515.875224 568.166637 
L 538.145675 568.258797 
L 542.350444 568.280401 
L 546.538167 568.274934 
L 568.825664 568.181966 
L 573.11984 568.174156 
L 595.300883 568.149341 
L 595.300883 550.466321 
L 591.82066 550.470215 
L 568.825664 550.512036 
L 565.285667 550.526802 
L 542.350444 550.556742 
L 519.321864 550.438422 
L 515.875224 550.424159 
L 512.418385 550.448078 
L 489.400005 550.482986 
L 485.93344 550.457284 
L 462.924785 550.514835 
L 440.432915 550.946521 
L 436.449565 551.002884 
L 432.384241 551.024126 
L 409.974346 550.53032 
L 406.50016 550.464499 
L 383.499126 550.649582 
L 360.672794 550.629889 
L 357.023906 550.622995 
L 353.385485 550.61998 
L 330.548687 550.804069 
L 326.706415 550.812963 
L 304.073467 550.550534 
L 300.365909 550.685431 
L 277.598247 550.672011 
L 254.64661 550.511262 
L 251.123028 550.397663 
L 228.141494 550.48296 
L 224.647808 550.526743 
L 221.194579 550.44466 
L 198.172588 550.499586 
L 175.195749 550.487404 
L 171.697369 550.521564 
L 168.164593 550.519966 
L 145.222149 550.389759 
L 122.074635 550.325828 
L 118.746929 550.375904 
L 115.368104 550.374222 
L 92.27171 550.550634 
L 88.745131 550.514099 
L 65.79649 551.331321 
M 595.300883 320.339377 
L 594.125386 320.487466 
L 568.825664 319.23578 
L 544.938893 319.149833 
L 542.350444 318.881847 
L 518.820874 318.811673 
L 515.875224 318.561755 
L 512.884855 318.769338 
L 489.400005 319.968138 
L 465.818494 318.860845 
L 462.924785 318.722205 
L 460.277632 319.094259 
L 436.449565 319.13207 
L 414.238325 317.563619 
L 409.974346 317.324042 
L 405.522887 317.386135 
L 383.499126 318.887535 
L 380.943324 319.18074 
L 357.023906 317.562897 
L 352.623985 317.434924 
L 330.548687 319.216642 
L 307.475311 318.379798 
L 304.073467 318.389808 
L 278.881781 320.385188 
L 277.598247 320.222589 
L 276.219204 320.294769 
L 251.123028 318.702574 
L 229.461169 317.043524 
L 224.647808 317.364963 
L 200.014406 319.856664 
L 198.172588 319.887045 
L 196.243404 319.773954 
L 180.359446 321.6003 
L 197.495812 322.241 
L 198.172588 322.248538 
L 198.852055 322.243547 
L 224.647808 323.275738 
L 226.445396 323.302065 
L 251.123028 322.630272 
L 252.173897 322.595152 
L 277.598247 322.028327 
L 302.810431 322.796008 
L 304.073467 322.827439 
L 329.611499 322.48753 
L 330.548687 322.462212 
L 331.48918 322.490659 
L 357.023906 323.236713 
L 358.773134 323.256282 
L 383.499126 322.549623 
L 408.345445 323.14237 
L 409.974346 323.10947 
L 411.580987 323.121297 
L 436.449565 322.489002 
L 437.373622 322.475099 
L 462.924785 322.489461 
L 488.858554 322.112888 
L 489.400005 322.110071 
L 489.943202 322.114542 
L 515.875224 322.524636 
L 541.400631 322.499482 
L 542.350444 322.487595 
L 567.923468 322.454403 
L 568.825664 322.471663 
L 569.733288 322.459543 
L 595.300883 321.990979 
L 595.300883 321.6003 
M 145.222149 321.941161 
L 159.046397 321.6003 
L 145.222149 320.635208 
L 144.230883 320.661875 
L 143.462761 321.6003 
" clip-path="url(#p921507f9aa)" style="fill: #375a8c"/>
   </g>
   <g id="PathCollection_4">
    <path d="M 65.79649 603.98571 
L 71.574048 597.303336 
L 79.327162 585.048819 
L 92.27171 585.169729 
L 105.082521 585.175427 
L 118.746929 584.803507 
L 132.018476 584.803507 
L 145.222149 584.62868 
L 158.604731 584.634135 
L 171.697369 595.322569 
L 173.82652 595.287682 
L 198.172588 584.515288 
L 211.139686 584.515288 
L 224.647808 584.796229 
L 238.013983 584.649667 
L 251.123028 584.649667 
L 264.094531 585.0233 
L 277.598247 584.960011 
L 291.03511 584.960011 
L 304.073467 584.531136 
L 317.12416 584.594427 
L 330.548687 584.565707 
L 343.502193 584.502421 
L 357.023906 584.512618 
L 370.510353 584.535807 
L 383.499126 594.825718 
L 386.034059 594.903531 
L 409.974346 584.757279 
L 423.29241 584.695214 
L 436.449565 584.640293 
L 449.673593 584.758522 
L 462.924785 584.58731 
L 475.804949 584.432988 
L 489.400005 584.521845 
L 502.989263 584.438477 
L 515.875224 584.592801 
L 529.248639 584.642814 
L 542.350444 594.642256 
L 565.954976 594.585675 
L 568.825664 594.566034 
L 571.722709 594.560723 
L 595.300883 584.424238 
L 595.300883 572.239423 
L 595.300883 568.149341 
L 573.11984 568.174156 
L 568.825664 568.181966 
L 546.538167 568.274934 
L 542.350444 568.280401 
L 538.145675 568.258797 
L 515.875224 568.166637 
L 493.538867 568.32119 
L 489.400005 568.327467 
L 467.230638 568.163102 
L 462.924785 568.173872 
L 458.715644 568.254658 
L 436.449565 568.569713 
L 413.725266 568.688452 
L 409.974346 568.6058 
L 387.78149 568.185338 
L 383.499126 568.219797 
L 379.249288 568.216131 
L 357.023906 568.174139 
L 334.862278 568.155775 
L 330.548687 568.190547 
L 308.295915 568.24206 
L 304.073467 568.193101 
L 280.985052 569.033158 
L 277.598247 569.031162 
L 274.184075 569.00725 
L 251.123028 568.263768 
L 246.93991 568.279294 
L 224.647808 568.558659 
L 202.613848 568.034913 
L 198.172588 568.045509 
L 193.740039 568.043159 
L 171.697369 568.258392 
L 149.437978 568.248326 
L 145.222149 568.2244 
L 140.968637 568.212652 
L 118.746929 568.547047 
L 96.183857 568.53582 
L 92.27171 568.565701 
L 69.921655 568.334158 
L 65.79649 568.481058 
L 65.79649 572.239423 
L 65.79649 597.303336 
" clip-path="url(#p921507f9aa)" style="fill: #2b758e"/>
   </g>
   <g id="PathCollection_5">
    <path d="M 65.79649 652.090118 
L 87.316061 652.122639 
L 92.27171 652.045151 
L 97.18005 652.077853 
L 118.746929 652.312285 
L 140.308174 652.083187 
L 145.222149 652.045302 
L 150.100336 652.049307 
L 171.697369 652.044003 
L 193.301491 652.042595 
L 198.172588 652.038326 
L 203.056511 652.054737 
L 224.647808 652.212902 
L 246.154164 652.13515 
L 251.123028 652.116865 
L 256.084467 652.128121 
L 277.598247 652.189979 
L 299.187372 652.056793 
L 304.073467 652.046767 
L 308.949048 652.04684 
L 330.548687 652.044894 
L 335.421826 652.044528 
L 357.023906 652.087685 
L 378.577784 652.090161 
L 383.499126 652.090014 
L 405.069772 652.074287 
L 409.974346 652.074409 
L 431.561957 652.058226 
L 436.449565 652.058055 
L 441.337457 652.058495 
L 462.924785 652.040771 
L 484.525466 652.045853 
L 489.400005 652.045561 
L 494.274415 652.045731 
L 515.875224 652.066683 
L 537.324985 652.188728 
L 542.350444 652.188903 
L 547.376193 652.189003 
L 568.825664 652.049027 
L 573.703503 652.048978 
L 595.300883 652.058593 
L 595.300883 647.43116 
L 595.300883 622.367248 
L 595.300883 597.303336 
L 595.300883 584.424238 
L 571.722709 594.560723 
L 568.825664 594.566034 
L 565.954976 594.585675 
L 542.350444 594.642256 
L 529.248639 584.642814 
L 515.875224 584.592801 
L 502.989263 584.438477 
L 489.400005 584.521845 
L 475.804949 584.432988 
L 462.924785 584.58731 
L 449.673593 584.758522 
L 436.449565 584.640293 
L 423.29241 584.695214 
L 409.974346 584.757279 
L 386.034059 594.903531 
L 383.499126 594.825718 
L 370.510353 584.535807 
L 357.023906 584.512618 
L 343.502193 584.502421 
L 330.548687 584.565707 
L 317.12416 584.594427 
L 304.073467 584.531136 
L 291.03511 584.960011 
L 277.598247 584.960011 
L 264.094531 585.0233 
L 251.123028 584.649667 
L 238.013983 584.649667 
L 224.647808 584.796229 
L 211.139686 584.515288 
L 198.172588 584.515288 
L 173.82652 595.287682 
L 171.697369 595.322569 
L 158.604731 584.634135 
L 145.222149 584.62868 
L 132.018476 584.803507 
L 118.746929 584.803507 
L 105.082521 585.175427 
L 92.27171 585.169729 
L 79.327162 585.048819 
L 71.574048 597.303336 
L 65.79649 603.98571 
L 65.79649 622.367248 
L 65.79649 647.43116 
" clip-path="url(#p921507f9aa)" style="fill: #21918c"/>
   </g>
   <g id="PathCollection_6">
    <path d="M 65.79649 657.496979 
L 81.613851 657.520883 
L 92.27171 657.354233 
L 102.827826 657.424565 
L 118.746929 657.597605 
L 134.661874 657.428502 
L 145.222149 657.347084 
L 155.705514 657.355692 
L 171.697369 657.351764 
L 187.694473 657.350722 
L 198.172588 657.341539 
L 208.678293 657.37684 
L 224.647808 657.493824 
L 240.554498 657.436316 
L 251.123028 657.397424 
L 261.675766 657.421366 
L 277.598247 657.467148 
L 293.576492 657.368576 
L 304.073467 657.347036 
L 314.547855 657.347193 
L 330.548687 657.345752 
L 341.020722 657.344965 
L 357.023906 657.376937 
L 372.991382 657.378771 
L 383.499126 657.378456 
L 399.479241 657.366805 
L 409.974346 657.367067 
L 425.966848 657.355079 
L 436.449565 657.354712 
L 446.932892 657.355655 
L 462.924785 657.342525 
L 478.92657 657.346291 
L 489.400005 657.345662 
L 499.873163 657.346028 
L 515.875224 657.36155 
L 531.765387 657.451962 
L 542.350444 657.45233 
L 552.936112 657.452541 
L 568.825664 657.348847 
L 579.301688 657.348742 
L 595.300883 657.355865 
L 595.300883 652.058593 
L 573.703503 652.048978 
L 568.825664 652.049027 
L 547.376193 652.189003 
L 542.350444 652.188903 
L 537.324985 652.188728 
L 515.875224 652.066683 
L 494.274415 652.045731 
L 489.400005 652.045561 
L 484.525466 652.045853 
L 462.924785 652.040771 
L 441.337457 652.058495 
L 436.449565 652.058055 
L 431.561957 652.058226 
L 409.974346 652.074409 
L 405.069772 652.074287 
L 383.499126 652.090014 
L 378.577784 652.090161 
L 357.023906 652.087685 
L 335.421826 652.044528 
L 330.548687 652.044894 
L 308.949048 652.04684 
L 304.073467 652.046767 
L 299.187372 652.056793 
L 277.598247 652.189979 
L 256.084467 652.128121 
L 251.123028 652.116865 
L 246.154164 652.13515 
L 224.647808 652.212902 
L 203.056511 652.054737 
L 198.172588 652.038326 
L 193.301491 652.042595 
L 171.697369 652.044003 
L 150.100336 652.049307 
L 145.222149 652.045302 
L 140.308174 652.083187 
L 118.746929 652.312285 
L 97.18005 652.077853 
L 92.27171 652.045151 
L 87.316061 652.122639 
L 65.79649 652.090118 
" clip-path="url(#p921507f9aa)" style="fill: #25ab82"/>
   </g>
   <g id="PathCollection_7">
    <path d="M 65.79649 662.903841 
L 75.911641 662.919127 
L 92.27171 662.663316 
L 108.475602 662.771276 
L 118.746929 662.882925 
L 129.015573 662.773816 
L 145.222149 662.648867 
L 161.310693 662.662076 
L 171.697369 662.659525 
L 182.087454 662.658848 
L 198.172588 662.644752 
L 214.300075 662.698943 
L 224.647808 662.774745 
L 234.954833 662.737482 
L 251.123028 662.677984 
L 267.267065 662.714611 
L 277.598247 662.744316 
L 287.965611 662.680359 
L 304.073467 662.647305 
L 320.146663 662.647546 
L 330.548687 662.646609 
L 346.619618 662.645403 
L 357.023906 662.666188 
L 367.404979 662.667381 
L 383.499126 662.666899 
L 393.888709 662.659324 
L 409.974346 662.659726 
L 420.371738 662.651931 
L 436.449565 662.651368 
L 452.528327 662.652816 
L 462.924785 662.64428 
L 473.327674 662.646728 
L 489.400005 662.645762 
L 505.471911 662.646325 
L 515.875224 662.656416 
L 526.20579 662.715195 
L 542.350444 662.715757 
L 558.49603 662.716078 
L 568.825664 662.648668 
L 584.899874 662.648507 
L 595.300883 662.653138 
L 595.300883 657.355865 
L 579.301688 657.348742 
L 568.825664 657.348847 
L 552.936112 657.452541 
L 542.350444 657.45233 
L 531.765387 657.451962 
L 515.875224 657.36155 
L 499.873163 657.346028 
L 489.400005 657.345662 
L 478.92657 657.346291 
L 462.924785 657.342525 
L 446.932892 657.355655 
L 436.449565 657.354712 
L 425.966848 657.355079 
L 409.974346 657.367067 
L 399.479241 657.366805 
L 383.499126 657.378456 
L 372.991382 657.378771 
L 357.023906 657.376937 
L 341.020722 657.344965 
L 330.548687 657.345752 
L 314.547855 657.347193 
L 304.073467 657.347036 
L 293.576492 657.368576 
L 277.598247 657.467148 
L 261.675766 657.421366 
L 251.123028 657.397424 
L 240.554498 657.436316 
L 224.647808 657.493824 
L 208.678293 657.37684 
L 198.172588 657.341539 
L 187.694473 657.350722 
L 171.697369 657.351764 
L 155.705514 657.355692 
L 145.222149 657.347084 
L 134.661874 657.428502 
L 118.746929 657.597605 
L 102.827826 657.424565 
L 92.27171 657.354233 
L 81.613851 657.520883 
L 65.79649 657.496979 
" clip-path="url(#p921507f9aa)" style="fill: #4ec36b"/>
   </g>
   <g id="PathCollection_8">
    <path d="M 65.79649 668.310702 
L 70.209431 668.317371 
L 92.27171 667.972398 
L 114.123378 668.117987 
L 118.746929 668.168245 
L 123.369273 668.119131 
L 145.222149 667.95065 
L 166.915871 667.968461 
L 171.697369 667.967287 
L 176.480436 667.966975 
L 198.172588 667.947965 
L 219.921857 668.021047 
L 224.647808 668.055666 
L 229.355167 668.038647 
L 251.123028 667.958544 
L 272.858363 668.007856 
L 277.598247 668.021485 
L 282.354731 667.992142 
L 304.073467 667.947574 
L 325.74547 667.9479 
L 330.548687 667.947467 
L 352.218514 667.94584 
L 357.023906 667.95544 
L 361.818576 667.955991 
L 383.499126 667.955341 
L 388.298178 667.951842 
L 409.974346 667.952384 
L 414.776628 667.948784 
L 436.449565 667.948025 
L 458.123762 667.949976 
L 462.924785 667.946035 
L 467.728778 667.947165 
L 489.400005 667.945863 
L 511.070659 667.946623 
L 515.875224 667.951283 
L 520.646193 667.978429 
L 542.350444 667.979184 
L 564.055948 667.979615 
L 568.825664 667.948489 
L 590.49806 667.948272 
L 595.300883 667.95041 
L 595.300883 662.653138 
L 584.899874 662.648507 
L 568.825664 662.648668 
L 558.49603 662.716078 
L 542.350444 662.715757 
L 526.20579 662.715195 
L 515.875224 662.656416 
L 505.471911 662.646325 
L 489.400005 662.645762 
L 473.327674 662.646728 
L 462.924785 662.64428 
L 452.528327 662.652816 
L 436.449565 662.651368 
L 420.371738 662.651931 
L 409.974346 662.659726 
L 393.888709 662.659324 
L 383.499126 662.666899 
L 367.404979 662.667381 
L 357.023906 662.666188 
L 346.619618 662.645403 
L 330.548687 662.646609 
L 320.146663 662.647546 
L 304.073467 662.647305 
L 287.965611 662.680359 
L 277.598247 662.744316 
L 267.267065 662.714611 
L 251.123028 662.677984 
L 234.954833 662.737482 
L 224.647808 662.774745 
L 214.300075 662.698943 
L 198.172588 662.644752 
L 182.087454 662.658848 
L 171.697369 662.659525 
L 161.310693 662.662076 
L 145.222149 662.648867 
L 129.015573 662.773816 
L 118.746929 662.882925 
L 108.475602 662.771276 
L 92.27171 662.663316 
L 75.911641 662.919127 
L 65.79649 662.903841 
" clip-path="url(#p921507f9aa)" style="fill: #90d743"/>
   </g>
   <g id="PathCollection_9">
    <path d="M 595.300883 667.95041 
L 590.49806 667.948272 
L 568.825664 667.948489 
L 564.055948 667.979615 
L 542.350444 667.979184 
L 520.646193 667.978429 
L 515.875224 667.951283 
L 511.070659 667.946623 
L 489.400005 667.945863 
L 467.728778 667.947165 
L 462.924785 667.946035 
L 458.123762 667.949976 
L 436.449565 667.948025 
L 414.776628 667.948784 
L 409.974346 667.952384 
L 388.298178 667.951842 
L 383.499126 667.955341 
L 361.818576 667.955991 
L 357.023906 667.95544 
L 352.218514 667.94584 
L 330.548687 667.947467 
L 325.74547 667.9479 
L 304.073467 667.947574 
L 282.354731 667.992142 
L 277.598247 668.021485 
L 272.858363 668.007856 
L 251.123028 667.958544 
L 229.355167 668.038647 
L 224.647808 668.055666 
L 219.921857 668.021047 
L 198.172588 667.947965 
L 176.480436 667.966975 
L 171.697369 667.967287 
L 166.915871 667.968461 
L 145.222149 667.95065 
L 123.369273 668.119131 
L 118.746929 668.168245 
L 114.123378 668.117987 
L 92.27171 667.972398 
L 70.209431 668.317371 
L 65.79649 668.310702 
L 65.79649 672.495072 
L 92.27171 672.495072 
L 118.746929 672.495072 
L 145.222149 672.495072 
L 171.697369 672.495072 
L 198.172588 672.495072 
L 224.647808 672.495072 
L 251.123028 672.495072 
L 277.598247 672.495072 
L 304.073467 672.495072 
L 330.548687 672.495072 
L 357.023906 672.495072 
L 383.499126 672.495072 
L 409.974346 672.495072 
L 436.449565 672.495072 
L 462.924785 672.495072 
L 489.400005 672.495072 
L 515.875224 672.495072 
L 542.350444 672.495072 
L 568.825664 672.495072 
L 595.300883 672.495072 
" clip-path="url(#p921507f9aa)" style="fill: #dae319"/>
   </g>
   <g id="matplotlib.axis_3">
    <g id="xtick_9">
     <g id="line2d_13">
      <g>
       <use xlink:href="#m3129479693" x="118.746929" y="672.495072" style="stroke: #000000; stroke-width: 2"/>
      </g>
     </g>
     <g id="text_14">
      <!-- 10 -->
      <g transform="translate(112.137554 692.113197) scale(0.12 -0.12)">
       <use xlink:href="#DroidSans-31"/>
       <use xlink:href="#DroidSans-30" x="55.078125"/>
      </g>
     </g>
    </g>
    <g id="xtick_10">
     <g id="line2d_14">
      <g>
       <use xlink:href="#m3129479693" x="206.997662" y="672.495072" style="stroke: #000000; stroke-width: 2"/>
      </g>
     </g>
     <g id="text_15">
      <!-- 20 -->
      <g transform="translate(200.388287 692.113197) scale(0.12 -0.12)">
       <use xlink:href="#DroidSans-32"/>
       <use xlink:href="#DroidSans-30" x="55.078125"/>
      </g>
     </g>
    </g>
    <g id="xtick_11">
     <g id="line2d_15">
      <g>
       <use xlink:href="#m3129479693" x="295.248394" y="672.495072" style="stroke: #000000; stroke-width: 2"/>
      </g>
     </g>
     <g id="text_16">
      <!-- 30 -->
      <g transform="translate(288.639019 692.113197) scale(0.12 -0.12)">
       <use xlink:href="#DroidSans-33"/>
       <use xlink:href="#DroidSans-30" x="55.078125"/>
      </g>
     </g>
    </g>
    <g id="xtick_12">
     <g id="line2d_16">
      <g>
       <use xlink:href="#m3129479693" x="383.499126" y="672.495072" style="stroke: #000000; stroke-width: 2"/>
      </g>
     </g>
     <g id="text_17">
      <!-- 40 -->
      <g transform="translate(376.889751 692.113197) scale(0.12 -0.12)">
       <use xlink:href="#DroidSans-34"/>
       <use xlink:href="#DroidSans-30" x="55.078125"/>
      </g>
     </g>
    </g>
    <g id="xtick_13">
     <g id="line2d_17">
      <g>
       <use xlink:href="#m3129479693" x="471.749858" y="672.495072" style="stroke: #000000; stroke-width: 2"/>
      </g>
     </g>
     <g id="text_18">
      <!-- 50 -->
      <g transform="translate(465.140483 692.113197) scale(0.12 -0.12)">
       <use xlink:href="#DroidSans-35"/>
       <use xlink:href="#DroidSans-30" x="55.078125"/>
      </g>
     </g>
    </g>
    <g id="xtick_14">
     <g id="line2d_18">
      <g>
       <use xlink:href="#m3129479693" x="560.00059" y="672.495072" style="stroke: #000000; stroke-width: 2"/>
      </g>
     </g>
     <g id="text_19">
      <!-- 60 -->
      <g transform="translate(553.391215 692.113197) scale(0.12 -0.12)">
       <use xlink:href="#DroidSans-36"/>
       <use xlink:href="#DroidSans-30" x="55.078125"/>
      </g>
     </g>
    </g>
    <g id="text_20">
     <!-- $J$ -->
     <g transform="translate(327.848687 712.674135) scale(0.18 -0.18)">
      <defs>
       <path id="DejaVuSans-Oblique-4a" d="M 1069 4666 
L 1703 4666 
L 856 325 
Q 691 -522 298 -901 
Q -94 -1281 -800 -1281 
L -1050 -1281 
L -947 -750 
L -750 -750 
Q -328 -750 -109 -509 
Q 109 -269 225 325 
L 1069 4666 
z
" transform="scale(0.015625)"/>
      </defs>
      <use xlink:href="#DejaVuSans-Oblique-4a" transform="translate(0 0.09375)"/>
     </g>
    </g>
   </g>
   <g id="matplotlib.axis_4">
    <g id="ytick_4">
     <g id="line2d_19">
      <g>
       <use xlink:href="#m1f13fb7957" x="65.79649" y="622.367248" style="stroke: #000000; stroke-width: 2"/>
      </g>
     </g>
     <g id="text_21">
      <!-- 10 -->
      <g transform="translate(42.07774 626.92631) scale(0.12 -0.12)">
       <use xlink:href="#DroidSans-31"/>
       <use xlink:href="#DroidSans-30" x="55.078125"/>
      </g>
     </g>
    </g>
    <g id="ytick_5">
     <g id="line2d_20">
      <g>
       <use xlink:href="#m1f13fb7957" x="65.79649" y="538.820874" style="stroke: #000000; stroke-width: 2"/>
      </g>
     </g>
     <g id="text_22">
      <!-- 20 -->
      <g transform="translate(42.07774 543.379936) scale(0.12 -0.12)">
       <use xlink:href="#DroidSans-32"/>
       <use xlink:href="#DroidSans-30" x="55.078125"/>
      </g>
     </g>
    </g>
    <g id="ytick_6">
     <g id="line2d_21">
      <g>
       <use xlink:href="#m1f13fb7957" x="65.79649" y="455.274499" style="stroke: #000000; stroke-width: 2"/>
      </g>
     </g>
     <g id="text_23">
      <!-- 30 -->
      <g transform="translate(42.07774 459.833562) scale(0.12 -0.12)">
       <use xlink:href="#DroidSans-33"/>
       <use xlink:href="#DroidSans-30" x="55.078125"/>
      </g>
     </g>
    </g>
    <g id="ytick_7">
     <g id="line2d_22">
      <g>
       <use xlink:href="#m1f13fb7957" x="65.79649" y="371.728125" style="stroke: #000000; stroke-width: 2"/>
      </g>
     </g>
     <g id="text_24">
      <!-- 40 -->
      <g transform="translate(42.07774 376.287188) scale(0.12 -0.12)">
       <use xlink:href="#DroidSans-34"/>
       <use xlink:href="#DroidSans-30" x="55.078125"/>
      </g>
     </g>
    </g>
    <g id="ytick_8">
     <g id="line2d_23">
      <g>
       <use xlink:href="#m1f13fb7957" x="65.79649" y="288.181751" style="stroke: #000000; stroke-width: 2"/>
      </g>
     </g>
     <g id="text_25">
      <!-- 50 -->
      <g transform="translate(42.07774 292.740813) scale(0.12 -0.12)">
       <use xlink:href="#DroidSans-35"/>
       <use xlink:href="#DroidSans-30" x="55.078125"/>
      </g>
     </g>
    </g>
    <g id="ytick_9">
     <g id="line2d_24">
      <g>
       <use xlink:href="#m1f13fb7957" x="65.79649" y="204.635376" style="stroke: #000000; stroke-width: 2"/>
      </g>
     </g>
     <g id="text_26">
      <!-- 60 -->
      <g transform="translate(42.07774 209.194439) scale(0.12 -0.12)">
       <use xlink:href="#DroidSans-36"/>
       <use xlink:href="#DroidSans-30" x="55.078125"/>
      </g>
     </g>
    </g>
    <g id="text_27">
     <!-- $N$ -->
     <g transform="translate(33.752115 428.60595) rotate(-90) scale(0.18 -0.18)">
      <defs>
       <path id="DejaVuSans-Oblique-4e" d="M 1081 4666 
L 1931 4666 
L 3219 666 
L 4000 4666 
L 4616 4666 
L 3706 0 
L 2853 0 
L 1569 4025 
L 788 0 
L 172 0 
L 1081 4666 
z
" transform="scale(0.015625)"/>
      </defs>
      <use xlink:href="#DejaVuSans-Oblique-4e" transform="translate(0 0.09375)"/>
     </g>
    </g>
   </g>
   <g id="PathCollection_10"/>
   <g id="PathCollection_11">
    <path d="M 65.79649 467.849253 
L 70.090497 467.918667 
L 92.27171 467.499863 
L 114.495887 467.959341 
L 118.746929 467.023897 
L 122.912195 468.040546 
L 145.222149 467.941851 
L 149.443402 467.987542 
L 171.697369 467.905029 
L 176.13796 467.779897 
L 198.172588 468.001156 
L 219.976177 467.561173 
L 224.647808 467.603168 
L 229.199001 467.67519 
L 251.123028 467.772567 
L 273.126256 467.750171 
L 277.598247 467.737318 
L 282.207035 467.620666 
L 304.073467 467.716929 
L 308.399097 467.888729 
L 330.548687 466.519582 
L 352.83667 468.019746 
L 357.023906 467.949642 
L 379.562538 468.257033 
L 383.499126 468.111835 
L 387.434127 468.258535 
L 409.974346 467.756721 
L 414.727019 467.48445 
L 436.449565 465.146047 
L 443.293072 465.505072 
L 462.924785 467.572114 
L 468.281095 466.912992 
L 489.400005 467.147029 
L 510.307537 466.712882 
L 515.875224 467.193895 
L 537.848229 467.721558 
L 542.350444 466.856567 
L 563.359961 466.80943 
L 568.825664 467.325357 
L 573.45492 467.601288 
L 595.300883 467.514464 
" clip-path="url(#p921507f9aa)" style="fill: none; stroke: #482878; stroke-width: 1.5"/>
    <path d="M 595.300883 475.539221 
L 572.50518 475.467148 
L 568.825664 475.301763 
L 565.272072 475.347935 
L 542.350444 475.314527 
L 519.851133 475.74774 
L 515.875224 475.967624 
L 511.732858 475.905325 
L 489.400005 475.562226 
L 485.642174 475.541287 
L 462.924785 475.724874 
L 442.342527 477.562602 
L 436.449565 478.183828 
L 430.778647 477.352394 
L 409.974346 475.421638 
L 386.685138 474.99995 
L 383.499126 475.207745 
L 380.339664 474.974815 
L 357.023906 475.230758 
L 335.338093 476.517873 
L 330.548687 476.737138 
L 325.786515 476.49209 
L 304.073467 475.321665 
L 281.207272 475.400413 
L 277.598247 475.457622 
L 254.772366 475.438579 
L 251.123028 475.408916 
L 228.352703 475.491174 
L 224.647808 475.42977 
L 220.920478 475.512412 
L 198.172588 475.147733 
L 194.822329 475.155442 
L 171.697369 475.338818 
L 148.691994 475.268653 
L 145.222149 475.322336 
L 141.484091 475.522568 
L 118.746929 475.434142 
L 96.34517 475.840091 
L 92.27171 475.535766 
L 69.18372 475.190442 
L 65.79649 475.312542 
" clip-path="url(#p921507f9aa)" style="fill: none; stroke: #482878; stroke-width: 1.5"/>
   </g>
   <g id="PathCollection_12">
    <path d="M 65.79649 227.425929 
L 72.185144 227.392747 
L 92.27171 227.688897 
L 99.086909 227.796555 
L 118.746929 226.882017 
L 135.912896 230.157658 
L 145.222149 230.049563 
L 162.213838 230.322646 
L 171.697369 230.378859 
L 181.205137 230.345591 
L 198.172588 230.54482 
L 214.776827 230.689443 
L 224.647808 230.689192 
L 234.390666 230.56815 
L 251.123028 230.707762 
L 267.755257 221.344651 
L 277.598247 213.402421 
L 295.793809 213.506354 
L 304.073467 213.206235 
L 312.3676 213.492651 
L 313.872544 221.344651 
L 330.548687 228.517895 
L 339.22572 229.55914 
L 357.023906 229.646861 
L 366.727016 230.53052 
L 383.499126 233.836546 
L 400.435429 230.375079 
L 409.974346 230.759649 
L 426.426034 230.833861 
L 436.449565 230.67992 
L 446.363045 230.729675 
L 462.924785 230.636366 
L 479.336513 230.871691 
L 489.400005 230.820892 
L 499.528222 230.932967 
L 515.875224 230.960475 
L 525.913456 230.847778 
L 542.350444 230.667836 
L 552.186602 230.656476 
L 568.825664 230.758872 
L 585.024461 231.073271 
L 595.300883 230.982056 
" clip-path="url(#p921507f9aa)" style="fill: none; stroke: #3e4989; stroke-width: 1.5"/>
    <path d="M 595.300883 550.466321 
L 591.82066 550.470215 
L 568.825664 550.512036 
L 565.285667 550.526802 
L 542.350444 550.556742 
L 519.321864 550.438422 
L 515.875224 550.424159 
L 512.418385 550.448078 
L 489.400005 550.482986 
L 485.93344 550.457284 
L 462.924785 550.514835 
L 440.432915 550.946521 
L 436.449565 551.002884 
L 432.384241 551.024126 
L 409.974346 550.53032 
L 406.50016 550.464499 
L 383.499126 550.649582 
L 360.672794 550.629889 
L 357.023906 550.622995 
L 353.385485 550.61998 
L 330.548687 550.804069 
L 326.706415 550.812963 
L 304.073467 550.550534 
L 300.365909 550.685431 
L 277.598247 550.672011 
L 254.64661 550.511262 
L 251.123028 550.397663 
L 228.141494 550.48296 
L 224.647808 550.526743 
L 221.194579 550.44466 
L 198.172588 550.499586 
L 175.195749 550.487404 
L 171.697369 550.521564 
L 168.164593 550.519966 
L 145.222149 550.389759 
L 122.074635 550.325828 
L 118.746929 550.375904 
L 115.368104 550.374222 
L 92.27171 550.550634 
L 88.745131 550.514099 
L 65.79649 551.331321 
" clip-path="url(#p921507f9aa)" style="fill: none; stroke: #3e4989; stroke-width: 1.5"/>
    <path d="M 595.300883 320.339377 
L 594.125386 320.487466 
L 568.825664 319.23578 
L 544.938893 319.149833 
L 542.350444 318.881847 
L 518.820874 318.811673 
L 515.875224 318.561755 
L 512.884855 318.769338 
L 489.400005 319.968138 
L 465.818494 318.860845 
L 462.924785 318.722205 
L 460.277632 319.094259 
L 436.449565 319.13207 
L 414.238325 317.563619 
L 409.974346 317.324042 
L 405.522887 317.386135 
L 383.499126 318.887535 
L 380.943324 319.18074 
L 357.023906 317.562897 
L 352.623985 317.434924 
L 330.548687 319.216642 
L 307.475311 318.379798 
L 304.073467 318.389808 
L 278.881781 320.385188 
L 277.598247 320.222589 
L 276.219204 320.294769 
L 251.123028 318.702574 
L 229.461169 317.043524 
L 224.647808 317.364963 
L 200.014406 319.856664 
L 198.172588 319.887045 
L 196.243404 319.773954 
L 180.359446 321.6003 
L 197.495812 322.241 
L 198.172588 322.248538 
L 198.852055 322.243547 
L 224.647808 323.275738 
L 226.445396 323.302065 
L 251.123028 322.630272 
L 252.173897 322.595152 
L 277.598247 322.028327 
L 302.810431 322.796008 
L 304.073467 322.827439 
L 329.611499 322.48753 
L 330.548687 322.462212 
L 331.48918 322.490659 
L 357.023906 323.236713 
L 358.773134 323.256282 
L 383.499126 322.549623 
L 408.345445 323.14237 
L 409.974346 323.10947 
L 411.580987 323.121297 
L 436.449565 322.489002 
L 437.373622 322.475099 
L 462.924785 322.489461 
L 488.858554 322.112888 
L 489.400005 322.110071 
L 489.943202 322.114542 
L 515.875224 322.524636 
L 541.400631 322.499482 
L 542.350444 322.487595 
L 567.923468 322.454403 
L 568.825664 322.471663 
L 569.733288 322.459543 
L 595.300883 321.990979 
" clip-path="url(#p921507f9aa)" style="fill: none; stroke: #3e4989; stroke-width: 1.5"/>
    <path d="M 145.222149 321.941161 
L 159.046397 321.6003 
L 145.222149 320.635208 
L 144.230883 320.661875 
L 143.462761 321.6003 
L 145.222149 321.941161 
z
" clip-path="url(#p921507f9aa)" style="fill: none; stroke: #3e4989; stroke-width: 1.5"/>
   </g>
   <g id="PathCollection_13">
    <path d="M 595.300883 568.149341 
L 573.11984 568.174156 
L 568.825664 568.181966 
L 546.538167 568.274934 
L 542.350444 568.280401 
L 538.145675 568.258797 
L 515.875224 568.166637 
L 493.538867 568.32119 
L 489.400005 568.327467 
L 467.230638 568.163102 
L 462.924785 568.173872 
L 458.715644 568.254658 
L 436.449565 568.569713 
L 413.725266 568.688452 
L 409.974346 568.6058 
L 387.78149 568.185338 
L 383.499126 568.219797 
L 379.249288 568.216131 
L 357.023906 568.174139 
L 334.862278 568.155775 
L 330.548687 568.190547 
L 308.295915 568.24206 
L 304.073467 568.193101 
L 280.985052 569.033158 
L 277.598247 569.031162 
L 274.184075 569.00725 
L 251.123028 568.263768 
L 246.93991 568.279294 
L 224.647808 568.558659 
L 202.613848 568.034913 
L 198.172588 568.045509 
L 193.740039 568.043159 
L 171.697369 568.258392 
L 149.437978 568.248326 
L 145.222149 568.2244 
L 140.968637 568.212652 
L 118.746929 568.547047 
L 96.183857 568.53582 
L 92.27171 568.565701 
L 69.921655 568.334158 
L 65.79649 568.481058 
" clip-path="url(#p921507f9aa)" style="fill: none; stroke: #31688e; stroke-width: 1.5"/>
   </g>
   <g id="PathCollection_14">
    <path d="M 595.300883 584.424238 
L 571.722709 594.560723 
L 568.825664 594.566034 
L 565.954976 594.585675 
L 542.350444 594.642256 
L 529.248639 584.642814 
L 515.875224 584.592801 
L 502.989263 584.438477 
L 489.400005 584.521845 
L 475.804949 584.432988 
L 462.924785 584.58731 
L 449.673593 584.758522 
L 436.449565 584.640293 
L 423.29241 584.695214 
L 409.974346 584.757279 
L 386.034059 594.903531 
L 383.499126 594.825718 
L 370.510353 584.535807 
L 357.023906 584.512618 
L 343.502193 584.502421 
L 330.548687 584.565707 
L 317.12416 584.594427 
L 304.073467 584.531136 
L 291.03511 584.960011 
L 277.598247 584.960011 
L 264.094531 585.0233 
L 251.123028 584.649667 
L 238.013983 584.649667 
L 224.647808 584.796229 
L 211.139686 584.515288 
L 198.172588 584.515288 
L 173.82652 595.287682 
L 171.697369 595.322569 
L 158.604731 584.634135 
L 145.222149 584.62868 
L 132.018476 584.803507 
L 118.746929 584.803507 
L 105.082521 585.175427 
L 92.27171 585.169729 
L 79.327162 585.048819 
L 71.574048 597.303336 
L 65.79649 603.98571 
" clip-path="url(#p921507f9aa)" style="fill: none; stroke: #26828e; stroke-width: 1.5"/>
   </g>
   <g id="PathCollection_15">
    <path d="M 595.300883 652.058593 
L 573.703503 652.048978 
L 568.825664 652.049027 
L 547.376193 652.189003 
L 542.350444 652.188903 
L 537.324985 652.188728 
L 515.875224 652.066683 
L 494.274415 652.045731 
L 489.400005 652.045561 
L 484.525466 652.045853 
L 462.924785 652.040771 
L 441.337457 652.058495 
L 436.449565 652.058055 
L 431.561957 652.058226 
L 409.974346 652.074409 
L 405.069772 652.074287 
L 383.499126 652.090014 
L 378.577784 652.090161 
L 357.023906 652.087685 
L 335.421826 652.044528 
L 330.548687 652.044894 
L 308.949048 652.04684 
L 304.073467 652.046767 
L 299.187372 652.056793 
L 277.598247 652.189979 
L 256.084467 652.128121 
L 251.123028 652.116865 
L 246.154164 652.13515 
L 224.647808 652.212902 
L 203.056511 652.054737 
L 198.172588 652.038326 
L 193.301491 652.042595 
L 171.697369 652.044003 
L 150.100336 652.049307 
L 145.222149 652.045302 
L 140.308174 652.083187 
L 118.746929 652.312285 
L 97.18005 652.077853 
L 92.27171 652.045151 
L 87.316061 652.122639 
L 65.79649 652.090118 
" clip-path="url(#p921507f9aa)" style="fill: none; stroke: #1f9e89; stroke-width: 1.5"/>
   </g>
   <g id="PathCollection_16">
    <path d="M 595.300883 657.355865 
L 579.301688 657.348742 
L 568.825664 657.348847 
L 552.936112 657.452541 
L 542.350444 657.45233 
L 531.765387 657.451962 
L 515.875224 657.36155 
L 499.873163 657.346028 
L 489.400005 657.345662 
L 478.92657 657.346291 
L 462.924785 657.342525 
L 446.932892 657.355655 
L 436.449565 657.354712 
L 425.966848 657.355079 
L 409.974346 657.367067 
L 399.479241 657.366805 
L 383.499126 657.378456 
L 372.991382 657.378771 
L 357.023906 657.376937 
L 341.020722 657.344965 
L 330.548687 657.345752 
L 314.547855 657.347193 
L 304.073467 657.347036 
L 293.576492 657.368576 
L 277.598247 657.467148 
L 261.675766 657.421366 
L 251.123028 657.397424 
L 240.554498 657.436316 
L 224.647808 657.493824 
L 208.678293 657.37684 
L 198.172588 657.341539 
L 187.694473 657.350722 
L 171.697369 657.351764 
L 155.705514 657.355692 
L 145.222149 657.347084 
L 134.661874 657.428502 
L 118.746929 657.597605 
L 102.827826 657.424565 
L 92.27171 657.354233 
L 81.613851 657.520883 
L 65.79649 657.496979 
" clip-path="url(#p921507f9aa)" style="fill: none; stroke: #35b779; stroke-width: 1.5"/>
   </g>
   <g id="PathCollection_17">
    <path d="M 595.300883 662.653138 
L 584.899874 662.648507 
L 568.825664 662.648668 
L 558.49603 662.716078 
L 542.350444 662.715757 
L 526.20579 662.715195 
L 515.875224 662.656416 
L 505.471911 662.646325 
L 489.400005 662.645762 
L 473.327674 662.646728 
L 462.924785 662.64428 
L 452.528327 662.652816 
L 436.449565 662.651368 
L 420.371738 662.651931 
L 409.974346 662.659726 
L 393.888709 662.659324 
L 383.499126 662.666899 
L 367.404979 662.667381 
L 357.023906 662.666188 
L 346.619618 662.645403 
L 330.548687 662.646609 
L 320.146663 662.647546 
L 304.073467 662.647305 
L 287.965611 662.680359 
L 277.598247 662.744316 
L 267.267065 662.714611 
L 251.123028 662.677984 
L 234.954833 662.737482 
L 224.647808 662.774745 
L 214.300075 662.698943 
L 198.172588 662.644752 
L 182.087454 662.658848 
L 171.697369 662.659525 
L 161.310693 662.662076 
L 145.222149 662.648867 
L 129.015573 662.773816 
L 118.746929 662.882925 
L 108.475602 662.771276 
L 92.27171 662.663316 
L 75.911641 662.919127 
L 65.79649 662.903841 
" clip-path="url(#p921507f9aa)" style="fill: none; stroke: #6ece58; stroke-width: 1.5"/>
   </g>
   <g id="PathCollection_18">
    <path d="M 595.300883 667.95041 
L 590.49806 667.948272 
L 568.825664 667.948489 
L 564.055948 667.979615 
L 542.350444 667.979184 
L 520.646193 667.978429 
L 515.875224 667.951283 
L 511.070659 667.946623 
L 489.400005 667.945863 
L 467.728778 667.947165 
L 462.924785 667.946035 
L 458.123762 667.949976 
L 436.449565 667.948025 
L 414.776628 667.948784 
L 409.974346 667.952384 
L 388.298178 667.951842 
L 383.499126 667.955341 
L 361.818576 667.955991 
L 357.023906 667.95544 
L 352.218514 667.94584 
L 330.548687 667.947467 
L 325.74547 667.9479 
L 304.073467 667.947574 
L 282.354731 667.992142 
L 277.598247 668.021485 
L 272.858363 668.007856 
L 251.123028 667.958544 
L 229.355167 668.038647 
L 224.647808 668.055666 
L 219.921857 668.021047 
L 198.172588 667.947965 
L 176.480436 667.966975 
L 171.697369 667.967287 
L 166.915871 667.968461 
L 145.222149 667.95065 
L 123.369273 668.119131 
L 118.746929 668.168245 
L 114.123378 668.117987 
L 92.27171 667.972398 
L 70.209431 668.317371 
L 65.79649 668.310702 
" clip-path="url(#p921507f9aa)" style="fill: none; stroke: #b5de2b; stroke-width: 1.5"/>
   </g>
   <g id="PathCollection_19"/>
   <g id="patch_8">
    <path d="M 65.79649 672.495072 
L 65.79649 171.216827 
" style="fill: none; stroke: #000000; stroke-width: 2; stroke-linejoin: miter; stroke-linecap: square"/>
   </g>
   <g id="patch_9">
    <path d="M 595.300883 672.495072 
L 595.300883 171.216827 
" style="fill: none; stroke: #000000; stroke-width: 2; stroke-linejoin: miter; stroke-linecap: square"/>
   </g>
   <g id="patch_10">
    <path d="M 65.79649 672.495072 
L 595.300883 672.495072 
" style="fill: none; stroke: #000000; stroke-width: 2; stroke-linejoin: miter; stroke-linecap: square"/>
   </g>
   <g id="patch_11">
    <path d="M 65.79649 171.216827 
L 595.300883 171.216827 
" style="fill: none; stroke: #000000; stroke-width: 2; stroke-linejoin: miter; stroke-linecap: square"/>
   </g>
  </g>
  <g id="axes_3">
   <g id="patch_12">
    <path d="M 602.500883 672.495072 
L 655.451322 672.495072 
L 655.451322 171.216827 
L 602.500883 171.216827 
z
" style="fill: #ffffff"/>
   </g>
   <g id="patch_13">
    <path clip-path="url(#p9c4bd3f47c)" style="fill: #ffffff; stroke: #ffffff; stroke-width: 0.01; stroke-linejoin: miter"/>
   </g>
   <g id="QuadMesh_1">
    <path d="M 602.500883 672.495072 
L 655.451322 672.495072 
L 655.451322 616.79749 
L 602.500883 616.79749 
L 602.500883 672.495072 
" clip-path="url(#p9c4bd3f47c)" style="fill: #481668"/>
    <path d="M 602.500883 616.79749 
L 655.451322 616.79749 
L 655.451322 561.099907 
L 602.500883 561.099907 
L 602.500883 616.79749 
" clip-path="url(#p9c4bd3f47c)" style="fill: #443983"/>
    <path d="M 602.500883 561.099907 
L 655.451322 561.099907 
L 655.451322 505.402324 
L 602.500883 505.402324 
L 602.500883 561.099907 
" clip-path="url(#p9c4bd3f47c)" style="fill: #375a8c"/>
    <path d="M 602.500883 505.402324 
L 655.451322 505.402324 
L 655.451322 449.704741 
L 602.500883 449.704741 
L 602.500883 505.402324 
" clip-path="url(#p9c4bd3f47c)" style="fill: #2b758e"/>
    <path d="M 602.500883 449.704741 
L 655.451322 449.704741 
L 655.451322 394.007158 
L 602.500883 394.007158 
L 602.500883 449.704741 
" clip-path="url(#p9c4bd3f47c)" style="fill: #21918c"/>
    <path d="M 602.500883 394.007158 
L 655.451322 394.007158 
L 655.451322 338.309575 
L 602.500883 338.309575 
L 602.500883 394.007158 
" clip-path="url(#p9c4bd3f47c)" style="fill: #25ab82"/>
    <path d="M 602.500883 338.309575 
L 655.451322 338.309575 
L 655.451322 282.611992 
L 602.500883 282.611992 
L 602.500883 338.309575 
" clip-path="url(#p9c4bd3f47c)" style="fill: #4ec36b"/>
    <path d="M 602.500883 282.611992 
L 655.451322 282.611992 
L 655.451322 226.91441 
L 602.500883 226.91441 
L 602.500883 282.611992 
" clip-path="url(#p9c4bd3f47c)" style="fill: #90d743"/>
    <path d="M 602.500883 226.91441 
L 655.451322 226.91441 
L 655.451322 171.216827 
L 602.500883 171.216827 
L 602.500883 226.91441 
" clip-path="url(#p9c4bd3f47c)" style="fill: #dae319"/>
   </g>
   <g id="matplotlib.axis_5"/>
   <g id="matplotlib.axis_6">
    <g id="ytick_10">
     <g id="line2d_25">
      <defs>
       <path id="mdfc72e65ba" d="M 0 0 
L 7 0 
" style="stroke: #000000; stroke-width: 2"/>
      </defs>
      <g>
       <use xlink:href="#mdfc72e65ba" x="655.451322" y="672.495072" style="stroke: #000000; stroke-width: 2"/>
      </g>
     </g>
     <g id="text_28">
      <!-- 0.00 -->
      <g transform="translate(665.951322 677.054135) scale(0.12 -0.12)">
       <use xlink:href="#DroidSans-30"/>
       <use xlink:href="#DroidSans-2e" x="55.078125"/>
       <use xlink:href="#DroidSans-30" x="81.884766"/>
       <use xlink:href="#DroidSans-30" x="136.962891"/>
      </g>
     </g>
    </g>
    <g id="ytick_11">
     <g id="line2d_26">
      <g>
       <use xlink:href="#mdfc72e65ba" x="655.451322" y="616.79749" style="stroke: #000000; stroke-width: 2"/>
      </g>
     </g>
     <g id="text_29">
      <!-- 0.04 -->
      <g transform="translate(665.951322 621.356552) scale(0.12 -0.12)">
       <use xlink:href="#DroidSans-30"/>
       <use xlink:href="#DroidSans-2e" x="55.078125"/>
       <use xlink:href="#DroidSans-30" x="81.884766"/>
       <use xlink:href="#DroidSans-34" x="136.962891"/>
      </g>
     </g>
    </g>
    <g id="ytick_12">
     <g id="line2d_27">
      <g>
       <use xlink:href="#mdfc72e65ba" x="655.451322" y="561.099907" style="stroke: #000000; stroke-width: 2"/>
      </g>
     </g>
     <g id="text_30">
      <!-- 0.08 -->
      <g transform="translate(665.951322 565.658969) scale(0.12 -0.12)">
       <defs>
        <path id="DroidSans-38" d="M 1766 4641 
Q 2028 4641 2261 4572 
Q 2494 4503 2670 4365 
Q 2847 4228 2950 4022 
Q 3053 3816 3053 3541 
Q 3053 3331 2990 3162 
Q 2928 2994 2818 2858 
Q 2709 2722 2559 2614 
Q 2409 2506 2234 2419 
Q 2416 2322 2589 2203 
Q 2763 2084 2898 1936 
Q 3034 1788 3117 1603 
Q 3200 1419 3200 1191 
Q 3200 903 3095 670 
Q 2991 438 2802 275 
Q 2613 113 2348 25 
Q 2084 -63 1766 -63 
Q 1422 -63 1155 21 
Q 888 106 705 264 
Q 522 422 426 650 
Q 331 878 331 1166 
Q 331 1400 401 1587 
Q 472 1775 590 1925 
Q 709 2075 871 2190 
Q 1034 2306 1216 2394 
Q 1063 2491 928 2605 
Q 794 2719 695 2859 
Q 597 3000 539 3170 
Q 481 3341 481 3547 
Q 481 3819 586 4023 
Q 691 4228 869 4365 
Q 1047 4503 1280 4572 
Q 1513 4641 1766 4641 
z
M 891 1159 
Q 891 994 941 855 
Q 991 716 1097 617 
Q 1203 519 1365 464 
Q 1528 409 1753 409 
Q 1972 409 2139 464 
Q 2306 519 2418 620 
Q 2531 722 2587 865 
Q 2644 1009 2644 1184 
Q 2644 1347 2583 1478 
Q 2522 1609 2408 1721 
Q 2294 1834 2134 1934 
Q 1975 2034 1778 2131 
L 1684 2175 
Q 1291 1988 1091 1745 
Q 891 1503 891 1159 
z
M 1759 4166 
Q 1428 4166 1233 4000 
Q 1038 3834 1038 3519 
Q 1038 3341 1092 3212 
Q 1147 3084 1244 2984 
Q 1341 2884 1477 2804 
Q 1613 2725 1772 2650 
Q 1922 2719 2055 2800 
Q 2188 2881 2286 2984 
Q 2384 3088 2440 3219 
Q 2497 3350 2497 3519 
Q 2497 3834 2300 4000 
Q 2103 4166 1759 4166 
z
" transform="scale(0.015625)"/>
       </defs>
       <use xlink:href="#DroidSans-30"/>
       <use xlink:href="#DroidSans-2e" x="55.078125"/>
       <use xlink:href="#DroidSans-30" x="81.884766"/>
       <use xlink:href="#DroidSans-38" x="136.962891"/>
      </g>
     </g>
    </g>
    <g id="ytick_13">
     <g id="line2d_28">
      <g>
       <use xlink:href="#mdfc72e65ba" x="655.451322" y="505.402324" style="stroke: #000000; stroke-width: 2"/>
      </g>
     </g>
     <g id="text_31">
      <!-- 0.12 -->
      <g transform="translate(665.951322 509.961386) scale(0.12 -0.12)">
       <use xlink:href="#DroidSans-30"/>
       <use xlink:href="#DroidSans-2e" x="55.078125"/>
       <use xlink:href="#DroidSans-31" x="81.884766"/>
       <use xlink:href="#DroidSans-32" x="136.962891"/>
      </g>
     </g>
    </g>
    <g id="ytick_14">
     <g id="line2d_29">
      <g>
       <use xlink:href="#mdfc72e65ba" x="655.451322" y="449.704741" style="stroke: #000000; stroke-width: 2"/>
      </g>
     </g>
     <g id="text_32">
      <!-- 0.16 -->
      <g transform="translate(665.951322 454.263804) scale(0.12 -0.12)">
       <use xlink:href="#DroidSans-30"/>
       <use xlink:href="#DroidSans-2e" x="55.078125"/>
       <use xlink:href="#DroidSans-31" x="81.884766"/>
       <use xlink:href="#DroidSans-36" x="136.962891"/>
      </g>
     </g>
    </g>
    <g id="ytick_15">
     <g id="line2d_30">
      <g>
       <use xlink:href="#mdfc72e65ba" x="655.451322" y="394.007158" style="stroke: #000000; stroke-width: 2"/>
      </g>
     </g>
     <g id="text_33">
      <!-- 0.20 -->
      <g transform="translate(665.951322 398.566221) scale(0.12 -0.12)">
       <use xlink:href="#DroidSans-30"/>
       <use xlink:href="#DroidSans-2e" x="55.078125"/>
       <use xlink:href="#DroidSans-32" x="81.884766"/>
       <use xlink:href="#DroidSans-30" x="136.962891"/>
      </g>
     </g>
    </g>
    <g id="ytick_16">
     <g id="line2d_31">
      <g>
       <use xlink:href="#mdfc72e65ba" x="655.451322" y="338.309575" style="stroke: #000000; stroke-width: 2"/>
      </g>
     </g>
     <g id="text_34">
      <!-- 0.24 -->
      <g transform="translate(665.951322 342.868638) scale(0.12 -0.12)">
       <use xlink:href="#DroidSans-30"/>
       <use xlink:href="#DroidSans-2e" x="55.078125"/>
       <use xlink:href="#DroidSans-32" x="81.884766"/>
       <use xlink:href="#DroidSans-34" x="136.962891"/>
      </g>
     </g>
    </g>
    <g id="ytick_17">
     <g id="line2d_32">
      <g>
       <use xlink:href="#mdfc72e65ba" x="655.451322" y="282.611992" style="stroke: #000000; stroke-width: 2"/>
      </g>
     </g>
     <g id="text_35">
      <!-- 0.28 -->
      <g transform="translate(665.951322 287.171055) scale(0.12 -0.12)">
       <use xlink:href="#DroidSans-30"/>
       <use xlink:href="#DroidSans-2e" x="55.078125"/>
       <use xlink:href="#DroidSans-32" x="81.884766"/>
       <use xlink:href="#DroidSans-38" x="136.962891"/>
      </g>
     </g>
    </g>
    <g id="ytick_18">
     <g id="line2d_33">
      <g>
       <use xlink:href="#mdfc72e65ba" x="655.451322" y="226.91441" style="stroke: #000000; stroke-width: 2"/>
      </g>
     </g>
     <g id="text_36">
      <!-- 0.32 -->
      <g transform="translate(665.951322 231.473472) scale(0.12 -0.12)">
       <use xlink:href="#DroidSans-30"/>
       <use xlink:href="#DroidSans-2e" x="55.078125"/>
       <use xlink:href="#DroidSans-33" x="81.884766"/>
       <use xlink:href="#DroidSans-32" x="136.962891"/>
      </g>
     </g>
    </g>
    <g id="ytick_19">
     <g id="line2d_34">
      <g>
       <use xlink:href="#mdfc72e65ba" x="655.451322" y="171.216827" style="stroke: #000000; stroke-width: 2"/>
      </g>
     </g>
     <g id="text_37">
      <!-- 0.36 -->
      <g transform="translate(665.951322 175.775889) scale(0.12 -0.12)">
       <use xlink:href="#DroidSans-30"/>
       <use xlink:href="#DroidSans-2e" x="55.078125"/>
       <use xlink:href="#DroidSans-33" x="81.884766"/>
       <use xlink:href="#DroidSans-36" x="136.962891"/>
      </g>
     </g>
    </g>
    <g id="text_38">
     <!-- 1 - Fidelity -->
     <g transform="translate(712.674135 463.331887) rotate(-90) scale(0.18 -0.18)">
      <defs>
       <path id="DroidSans-20" transform="scale(0.015625)"/>
       <path id="DroidSans-2d" d="M 256 1453 
L 256 1978 
L 1806 1978 
L 1806 1453 
L 256 1453 
z
" transform="scale(0.015625)"/>
       <path id="DroidSans-46" d="M 1203 0 
L 622 0 
L 622 4569 
L 2994 4569 
L 2994 4056 
L 1203 4056 
L 1203 2444 
L 2875 2444 
L 2875 1931 
L 1203 1931 
L 1203 0 
z
" transform="scale(0.015625)"/>
       <path id="DroidSans-69" d="M 1113 0 
L 544 0 
L 544 3431 
L 1113 3431 
L 1113 0 
z
M 500 4359 
Q 500 4547 595 4631 
Q 691 4716 831 4716 
Q 900 4716 961 4695 
Q 1022 4675 1067 4631 
Q 1113 4588 1139 4520 
Q 1166 4453 1166 4359 
Q 1166 4178 1067 4089 
Q 969 4000 831 4000 
Q 691 4000 595 4087 
Q 500 4175 500 4359 
z
" transform="scale(0.015625)"/>
       <path id="DroidSans-64" d="M 2663 459 
L 2638 459 
Q 2569 353 2476 258 
Q 2384 163 2264 91 
Q 2144 19 1994 -22 
Q 1844 -63 1656 -63 
Q 1366 -63 1125 50 
Q 884 163 712 386 
Q 541 609 447 940 
Q 353 1272 353 1709 
Q 353 2150 447 2483 
Q 541 2816 712 3041 
Q 884 3266 1125 3380 
Q 1366 3494 1656 3494 
Q 1841 3494 1991 3453 
Q 2141 3413 2261 3344 
Q 2381 3275 2475 3184 
Q 2569 3094 2638 2994 
L 2675 2994 
Q 2666 3100 2656 3197 
Q 2650 3278 2644 3364 
Q 2638 3450 2638 3500 
L 2638 4863 
L 3206 4863 
L 3206 0 
L 2747 0 
L 2663 459 
z
M 1766 409 
Q 2003 409 2167 481 
Q 2331 553 2432 700 
Q 2534 847 2582 1067 
Q 2631 1288 2638 1581 
L 2638 1709 
Q 2638 2025 2595 2270 
Q 2553 2516 2451 2683 
Q 2350 2850 2181 2936 
Q 2013 3022 1759 3022 
Q 1338 3022 1139 2681 
Q 941 2341 941 1703 
Q 941 1050 1139 729 
Q 1338 409 1766 409 
z
" transform="scale(0.015625)"/>
       <path id="DroidSans-65" d="M 1900 -63 
Q 1556 -63 1272 53 
Q 988 169 783 391 
Q 578 613 465 941 
Q 353 1269 353 1691 
Q 353 2116 456 2450 
Q 559 2784 746 3017 
Q 934 3250 1195 3372 
Q 1456 3494 1772 3494 
Q 2081 3494 2328 3383 
Q 2575 3272 2747 3070 
Q 2919 2869 3011 2586 
Q 3103 2303 3103 1959 
L 3103 1606 
L 941 1606 
Q 956 1003 1195 718 
Q 1434 434 1906 434 
Q 2066 434 2202 450 
Q 2338 466 2464 495 
Q 2591 525 2709 570 
Q 2828 616 2950 672 
L 2950 166 
Q 2825 106 2704 62 
Q 2584 19 2457 -9 
Q 2331 -38 2195 -50 
Q 2059 -63 1900 -63 
z
M 1759 3022 
Q 1403 3022 1195 2778 
Q 988 2534 953 2069 
L 2491 2069 
Q 2491 2281 2448 2457 
Q 2406 2634 2317 2759 
Q 2228 2884 2090 2953 
Q 1953 3022 1759 3022 
z
" transform="scale(0.015625)"/>
       <path id="DroidSans-6c" d="M 1113 0 
L 544 0 
L 544 4863 
L 1113 4863 
L 1113 0 
z
" transform="scale(0.015625)"/>
       <path id="DroidSans-74" d="M 1581 403 
Q 1638 403 1708 409 
Q 1778 416 1843 425 
Q 1909 434 1964 446 
Q 2019 459 2047 469 
L 2047 38 
Q 2006 19 1943 0 
Q 1881 -19 1806 -33 
Q 1731 -47 1650 -55 
Q 1569 -63 1491 -63 
Q 1297 -63 1131 -12 
Q 966 38 845 159 
Q 725 281 656 489 
Q 588 697 588 1013 
L 588 3003 
L 103 3003 
L 103 3256 
L 588 3500 
L 831 4219 
L 1159 4219 
L 1159 3431 
L 2022 3431 
L 2022 3003 
L 1159 3003 
L 1159 1013 
Q 1159 709 1257 556 
Q 1356 403 1581 403 
z
" transform="scale(0.015625)"/>
       <path id="DroidSans-79" d="M 31 3431 
L 622 3431 
L 1294 1516 
Q 1338 1391 1383 1253 
Q 1428 1116 1467 978 
Q 1506 841 1534 712 
Q 1563 584 1575 475 
L 1594 475 
Q 1609 553 1643 687 
Q 1678 822 1720 973 
Q 1763 1125 1808 1272 
Q 1853 1419 1888 1522 
L 2509 3431 
L 3097 3431 
L 1741 -447 
Q 1653 -700 1551 -901 
Q 1450 -1103 1315 -1243 
Q 1181 -1384 1000 -1461 
Q 819 -1538 569 -1538 
Q 406 -1538 287 -1520 
Q 169 -1503 84 -1484 
L 84 -1031 
Q 150 -1047 250 -1058 
Q 350 -1069 459 -1069 
Q 609 -1069 718 -1033 
Q 828 -997 909 -928 
Q 991 -859 1048 -759 
Q 1106 -659 1153 -531 
L 1331 -31 
L 31 3431 
z
" transform="scale(0.015625)"/>
      </defs>
      <use xlink:href="#DroidSans-31"/>
      <use xlink:href="#DroidSans-20" x="55.078125"/>
      <use xlink:href="#DroidSans-2d" x="81.054688"/>
      <use xlink:href="#DroidSans-20" x="113.232422"/>
      <use xlink:href="#DroidSans-46" x="139.208984"/>
      <use xlink:href="#DroidSans-69" x="188.330078"/>
      <use xlink:href="#DroidSans-64" x="214.208984"/>
      <use xlink:href="#DroidSans-65" x="272.802734"/>
      <use xlink:href="#DroidSans-6c" x="326.318359"/>
      <use xlink:href="#DroidSans-69" x="352.197266"/>
      <use xlink:href="#DroidSans-74" x="378.076172"/>
      <use xlink:href="#DroidSans-79" x="411.962891"/>
     </g>
    </g>
   </g>
   <g id="LineCollection_1"/>
   <g id="patch_14">
    <path d="M 602.500883 672.495072 
L 628.976103 672.495072 
L 655.451322 672.495072 
L 655.451322 171.216827 
L 628.976103 171.216827 
L 602.500883 171.216827 
L 602.500883 672.495072 
z
" style="fill: none; stroke: #000000; stroke-width: 2; stroke-linejoin: miter; stroke-linecap: square"/>
   </g>
  </g>
 </g>
 <defs>
  <clipPath id="p49a6f2954c">
   <rect x="65.79649" y="3.00024" width="529.504393" height="100.255649"/>
  </clipPath>
  <clipPath id="p921507f9aa">
   <rect x="65.79649" y="171.216827" width="529.504393" height="501.278246"/>
  </clipPath>
  <clipPath id="p9c4bd3f47c">
   <rect x="602.500883" y="171.216827" width="52.950439" height="501.278246"/>
  </clipPath>
 </defs>
</svg>
