<?xml version="1.0" encoding="utf-8" standalone="no"?>
<!DOCTYPE svg PUBLIC "-//W3C//DTD SVG 1.1//EN"
  "http://www.w3.org/Graphics/SVG/1.1/DTD/svg11.dtd">
<svg xmlns:xlink="http://www.w3.org/1999/xlink" width="864pt" height="288pt" viewBox="0 0 864 288" xmlns="http://www.w3.org/2000/svg" version="1.1">
 <metadata>
  <rdf:RDF xmlns:dc="http://purl.org/dc/elements/1.1/" xmlns:cc="http://creativecommons.org/ns#" xmlns:rdf="http://www.w3.org/1999/02/22-rdf-syntax-ns#">
   <cc:Work>
    <dc:type rdf:resource="http://purl.org/dc/dcmitype/StillImage"/>
    <dc:date>2025-02-25T15:48:31.650762</dc:date>
    <dc:format>image/svg+xml</dc:format>
    <dc:creator>
     <cc:Agent>
      <dc:title>Matplotlib v3.6.3, https://matplotlib.org/</dc:title>
     </cc:Agent>
    </dc:creator>
   </cc:Work>
  </rdf:RDF>
 </metadata>
 <defs>
  <style type="text/css">*{stroke-linejoin: round; stroke-linecap: butt}</style>
 </defs>
 <g id="figure_1">
  <g id="patch_1">
   <path d="M 0 288 
L 864 288 
L 864 0 
L 0 0 
z
" style="fill: #ffffff"/>
  </g>
  <g id="axes_1">
   <g id="patch_2">
    <path d="M 70.21229 226.49226 
L 251.349935 226.49226 
L 251.349935 45.354615 
L 70.21229 45.354615 
z
" style="fill: #ffffff"/>
   </g>
   <g id="matplotlib.axis_1">
    <g id="xtick_1">
     <g id="line2d_1">
      <defs>
       <path id="m3ec2179a7e" d="M 0 0 
L 0 7 
" style="stroke: #000000; stroke-width: 2"/>
      </defs>
      <g>
       <use xlink:href="#m3ec2179a7e" x="78.445819" y="226.49226" style="stroke: #000000; stroke-width: 2"/>
      </g>
     </g>
     <g id="text_1">
      <!-- 0 -->
      <g transform="translate(71.836444 255.22851) scale(0.24 -0.24)">
       <defs>
        <path id="DroidSans-30" d="M 3225 2291 
Q 3225 1738 3145 1300 
Q 3066 863 2889 559 
Q 2713 256 2434 96 
Q 2156 -63 1759 -63 
Q 1391 -63 1117 96 
Q 844 256 664 559 
Q 484 863 395 1300 
Q 306 1738 306 2291 
Q 306 2844 386 3281 
Q 466 3719 639 4020 
Q 813 4322 1089 4481 
Q 1366 4641 1759 4641 
Q 2131 4641 2406 4483 
Q 2681 4325 2862 4023 
Q 3044 3722 3134 3284 
Q 3225 2847 3225 2291 
z
M 884 2291 
Q 884 1822 931 1472 
Q 978 1122 1081 889 
Q 1184 656 1351 539 
Q 1519 422 1759 422 
Q 2000 422 2169 537 
Q 2338 653 2445 884 
Q 2553 1116 2601 1467 
Q 2650 1819 2650 2291 
Q 2650 2759 2601 3109 
Q 2553 3459 2445 3690 
Q 2338 3922 2169 4037 
Q 2000 4153 1759 4153 
Q 1519 4153 1351 4037 
Q 1184 3922 1081 3690 
Q 978 3459 931 3109 
Q 884 2759 884 2291 
z
" transform="scale(0.015625)"/>
       </defs>
       <use xlink:href="#DroidSans-30"/>
      </g>
     </g>
    </g>
    <g id="xtick_2">
     <g id="line2d_2">
      <g>
       <use xlink:href="#m3ec2179a7e" x="243.116405" y="226.49226" style="stroke: #000000; stroke-width: 2"/>
      </g>
     </g>
     <g id="text_2">
      <!-- T -->
      <g transform="translate(236.887655 255.22851) scale(0.24 -0.24)">
       <defs>
        <path id="DroidSans-54" d="M 1953 0 
L 1369 0 
L 1369 4056 
L 63 4056 
L 63 4569 
L 3256 4569 
L 3256 4056 
L 1953 4056 
L 1953 0 
z
" transform="scale(0.015625)"/>
       </defs>
       <use xlink:href="#DroidSans-54"/>
      </g>
     </g>
    </g>
    <g id="text_3">
     <!-- Old Times -->
     <g transform="translate(106.698612 279.23226) scale(0.24 -0.24)">
      <defs>
       <path id="DroidSans-4f" d="M 4353 2291 
Q 4353 1763 4226 1328 
Q 4100 894 3850 584 
Q 3600 275 3229 106 
Q 2859 -63 2375 -63 
Q 1866 -63 1492 106 
Q 1119 275 873 584 
Q 628 894 509 1330 
Q 391 1766 391 2297 
Q 391 2828 509 3261 
Q 628 3694 875 4000 
Q 1122 4306 1497 4473 
Q 1872 4641 2381 4641 
Q 2866 4641 3233 4473 
Q 3600 4306 3850 3998 
Q 4100 3691 4226 3258 
Q 4353 2825 4353 2291 
z
M 1006 2291 
Q 1006 1863 1087 1520 
Q 1169 1178 1336 939 
Q 1503 700 1761 573 
Q 2019 447 2375 447 
Q 2731 447 2989 573 
Q 3247 700 3414 939 
Q 3581 1178 3659 1520 
Q 3738 1863 3738 2291 
Q 3738 2722 3659 3062 
Q 3581 3403 3415 3639 
Q 3250 3875 2994 4001 
Q 2738 4128 2381 4128 
Q 2025 4128 1765 4001 
Q 1506 3875 1337 3639 
Q 1169 3403 1087 3062 
Q 1006 2722 1006 2291 
z
" transform="scale(0.015625)"/>
       <path id="DroidSans-6c" d="M 1113 0 
L 544 0 
L 544 4863 
L 1113 4863 
L 1113 0 
z
" transform="scale(0.015625)"/>
       <path id="DroidSans-64" d="M 2663 459 
L 2638 459 
Q 2569 353 2476 258 
Q 2384 163 2264 91 
Q 2144 19 1994 -22 
Q 1844 -63 1656 -63 
Q 1366 -63 1125 50 
Q 884 163 712 386 
Q 541 609 447 940 
Q 353 1272 353 1709 
Q 353 2150 447 2483 
Q 541 2816 712 3041 
Q 884 3266 1125 3380 
Q 1366 3494 1656 3494 
Q 1841 3494 1991 3453 
Q 2141 3413 2261 3344 
Q 2381 3275 2475 3184 
Q 2569 3094 2638 2994 
L 2675 2994 
Q 2666 3100 2656 3197 
Q 2650 3278 2644 3364 
Q 2638 3450 2638 3500 
L 2638 4863 
L 3206 4863 
L 3206 0 
L 2747 0 
L 2663 459 
z
M 1766 409 
Q 2003 409 2167 481 
Q 2331 553 2432 700 
Q 2534 847 2582 1067 
Q 2631 1288 2638 1581 
L 2638 1709 
Q 2638 2025 2595 2270 
Q 2553 2516 2451 2683 
Q 2350 2850 2181 2936 
Q 2013 3022 1759 3022 
Q 1338 3022 1139 2681 
Q 941 2341 941 1703 
Q 941 1050 1139 729 
Q 1338 409 1766 409 
z
" transform="scale(0.015625)"/>
       <path id="DroidSans-20" transform="scale(0.015625)"/>
       <path id="DroidSans-69" d="M 1113 0 
L 544 0 
L 544 3431 
L 1113 3431 
L 1113 0 
z
M 500 4359 
Q 500 4547 595 4631 
Q 691 4716 831 4716 
Q 900 4716 961 4695 
Q 1022 4675 1067 4631 
Q 1113 4588 1139 4520 
Q 1166 4453 1166 4359 
Q 1166 4178 1067 4089 
Q 969 4000 831 4000 
Q 691 4000 595 4087 
Q 500 4175 500 4359 
z
" transform="scale(0.015625)"/>
       <path id="DroidSans-6d" d="M 4653 0 
L 4653 2209 
Q 4653 2616 4497 2819 
Q 4341 3022 4013 3022 
Q 3784 3022 3625 2948 
Q 3466 2875 3364 2733 
Q 3263 2591 3216 2380 
Q 3169 2169 3169 1894 
L 3169 0 
L 2597 0 
L 2597 2209 
Q 2597 2616 2442 2819 
Q 2288 3022 1959 3022 
Q 1719 3022 1556 2940 
Q 1394 2859 1295 2700 
Q 1197 2541 1155 2309 
Q 1113 2078 1113 1778 
L 1113 0 
L 544 0 
L 544 3431 
L 1006 3431 
L 1088 2969 
L 1119 2969 
Q 1194 3103 1297 3201 
Q 1400 3300 1523 3365 
Q 1647 3431 1786 3462 
Q 1925 3494 2069 3494 
Q 2444 3494 2692 3356 
Q 2941 3219 3059 2925 
L 3084 2925 
Q 3166 3072 3280 3178 
Q 3394 3284 3530 3354 
Q 3666 3425 3816 3459 
Q 3966 3494 4122 3494 
Q 4669 3494 4945 3195 
Q 5222 2897 5222 2241 
L 5222 0 
L 4653 0 
z
" transform="scale(0.015625)"/>
       <path id="DroidSans-65" d="M 1900 -63 
Q 1556 -63 1272 53 
Q 988 169 783 391 
Q 578 613 465 941 
Q 353 1269 353 1691 
Q 353 2116 456 2450 
Q 559 2784 746 3017 
Q 934 3250 1195 3372 
Q 1456 3494 1772 3494 
Q 2081 3494 2328 3383 
Q 2575 3272 2747 3070 
Q 2919 2869 3011 2586 
Q 3103 2303 3103 1959 
L 3103 1606 
L 941 1606 
Q 956 1003 1195 718 
Q 1434 434 1906 434 
Q 2066 434 2202 450 
Q 2338 466 2464 495 
Q 2591 525 2709 570 
Q 2828 616 2950 672 
L 2950 166 
Q 2825 106 2704 62 
Q 2584 19 2457 -9 
Q 2331 -38 2195 -50 
Q 2059 -63 1900 -63 
z
M 1759 3022 
Q 1403 3022 1195 2778 
Q 988 2534 953 2069 
L 2491 2069 
Q 2491 2281 2448 2457 
Q 2406 2634 2317 2759 
Q 2228 2884 2090 2953 
Q 1953 3022 1759 3022 
z
" transform="scale(0.015625)"/>
       <path id="DroidSans-73" d="M 2597 941 
Q 2597 691 2506 503 
Q 2416 316 2245 189 
Q 2075 63 1834 0 
Q 1594 -63 1294 -63 
Q 953 -63 709 -8 
Q 466 47 281 153 
L 281 672 
Q 378 622 497 573 
Q 616 525 747 487 
Q 878 450 1017 426 
Q 1156 403 1294 403 
Q 1497 403 1639 437 
Q 1781 472 1870 536 
Q 1959 600 2000 692 
Q 2041 784 2041 897 
Q 2041 994 2009 1072 
Q 1978 1150 1895 1226 
Q 1813 1303 1669 1381 
Q 1525 1459 1300 1556 
Q 1075 1653 895 1747 
Q 716 1841 591 1956 
Q 466 2072 398 2223 
Q 331 2375 331 2584 
Q 331 2803 417 2973 
Q 503 3144 659 3259 
Q 816 3375 1034 3434 
Q 1253 3494 1522 3494 
Q 1825 3494 2076 3428 
Q 2328 3363 2553 3256 
L 2356 2797 
Q 2153 2888 1939 2955 
Q 1725 3022 1503 3022 
Q 1184 3022 1031 2917 
Q 878 2813 878 2619 
Q 878 2509 914 2428 
Q 950 2347 1037 2275 
Q 1125 2203 1272 2129 
Q 1419 2056 1638 1966 
Q 1863 1872 2039 1778 
Q 2216 1684 2341 1567 
Q 2466 1450 2531 1300 
Q 2597 1150 2597 941 
z
" transform="scale(0.015625)"/>
      </defs>
      <use xlink:href="#DroidSans-4f"/>
      <use xlink:href="#DroidSans-6c" x="74.21875"/>
      <use xlink:href="#DroidSans-64" x="100.097656"/>
      <use xlink:href="#DroidSans-20" x="158.691406"/>
      <use xlink:href="#DroidSans-54" x="184.667969"/>
      <use xlink:href="#DroidSans-69" x="236.572266"/>
      <use xlink:href="#DroidSans-6d" x="262.451172"/>
      <use xlink:href="#DroidSans-65" x="352.050781"/>
      <use xlink:href="#DroidSans-73" x="405.566406"/>
     </g>
    </g>
   </g>
   <g id="matplotlib.axis_2">
    <g id="ytick_1">
     <g id="line2d_3">
      <defs>
       <path id="mabdf945ed5" d="M 0 0 
L -7 0 
" style="stroke: #000000; stroke-width: 2"/>
      </defs>
      <g>
       <use xlink:href="#mabdf945ed5" x="70.21229" y="218.258731" style="stroke: #000000; stroke-width: 2"/>
      </g>
     </g>
     <g id="text_4">
      <!-- 0 -->
      <g transform="translate(46.49354 227.376856) scale(0.24 -0.24)">
       <use xlink:href="#DroidSans-30"/>
      </g>
     </g>
    </g>
    <g id="ytick_2">
     <g id="line2d_4">
      <g>
       <use xlink:href="#mabdf945ed5" x="70.21229" y="53.588144" style="stroke: #000000; stroke-width: 2"/>
      </g>
     </g>
     <g id="text_5">
      <!-- T -->
      <g transform="translate(47.25479 62.706269) scale(0.24 -0.24)">
       <use xlink:href="#DroidSans-54"/>
      </g>
     </g>
    </g>
    <g id="text_6">
     <!-- New Times -->
     <g transform="translate(40.72604 195.087187) rotate(-90) scale(0.24 -0.24)">
      <defs>
       <path id="DroidSans-4e" d="M 4044 0 
L 3372 0 
L 1125 3781 
L 1100 3781 
Q 1119 3541 1131 3303 
Q 1144 3100 1151 2878 
Q 1159 2656 1159 2478 
L 1159 0 
L 622 0 
L 622 4569 
L 1288 4569 
L 3525 806 
L 3547 806 
Q 3538 1044 3525 1275 
Q 3522 1375 3517 1479 
Q 3513 1584 3508 1689 
Q 3503 1794 3501 1891 
Q 3500 1988 3500 2069 
L 3500 4569 
L 4044 4569 
L 4044 0 
z
" transform="scale(0.015625)"/>
       <path id="DroidSans-77" d="M 3150 0 
L 2625 1925 
Q 2613 1981 2594 2051 
Q 2575 2122 2556 2200 
Q 2538 2278 2517 2359 
Q 2497 2441 2478 2519 
Q 2434 2700 2388 2894 
L 2369 2894 
Q 2325 2697 2284 2516 
Q 2250 2359 2211 2193 
Q 2172 2028 2138 1913 
L 1600 0 
L 941 0 
L 63 3431 
L 659 3431 
L 1069 1606 
Q 1100 1466 1131 1302 
Q 1163 1138 1191 977 
Q 1219 816 1241 673 
Q 1263 531 1275 441 
L 1294 441 
Q 1309 522 1336 658 
Q 1363 794 1395 945 
Q 1428 1097 1462 1245 
Q 1497 1394 1528 1497 
L 2088 3431 
L 2700 3431 
L 3238 1497 
Q 3266 1391 3302 1247 
Q 3338 1103 3372 954 
Q 3406 806 3434 668 
Q 3463 531 3475 441 
L 3494 441 
Q 3503 522 3523 658 
Q 3544 794 3572 956 
Q 3600 1119 3633 1289 
Q 3666 1459 3700 1606 
L 4128 3431 
L 4709 3431 
L 3822 0 
L 3150 0 
z
" transform="scale(0.015625)"/>
      </defs>
      <use xlink:href="#DroidSans-4e"/>
      <use xlink:href="#DroidSans-65" x="72.900391"/>
      <use xlink:href="#DroidSans-77" x="126.416016"/>
      <use xlink:href="#DroidSans-20" x="201.025391"/>
      <use xlink:href="#DroidSans-54" x="227.001953"/>
      <use xlink:href="#DroidSans-69" x="278.90625"/>
      <use xlink:href="#DroidSans-6d" x="304.785156"/>
      <use xlink:href="#DroidSans-65" x="394.384766"/>
      <use xlink:href="#DroidSans-73" x="447.900391"/>
     </g>
    </g>
   </g>
   <g id="LineCollection_1">
    <path d="M 111.379936 218.258731 
L 111.379936 154.515196 
" clip-path="url(#p1ad16ca13c)" style="fill: none; stroke-dasharray: 11.1,4.8; stroke-dashoffset: 0; stroke: #1f77b4; stroke-width: 3"/>
    <path d="M 144.314053 218.258731 
L 144.314053 102.539812 
" clip-path="url(#p1ad16ca13c)" style="fill: none; stroke-dasharray: 11.1,4.8; stroke-dashoffset: 0; stroke: #1f77b4; stroke-width: 3"/>
    <path d="M 177.248171 218.258731 
L 177.248171 69.605695 
" clip-path="url(#p1ad16ca13c)" style="fill: none; stroke-dasharray: 11.1,4.8; stroke-dashoffset: 0; stroke: #1f77b4; stroke-width: 3"/>
    <path d="M 210.182288 218.258731 
L 210.182288 55.712845 
" clip-path="url(#p1ad16ca13c)" style="fill: none; stroke-dasharray: 11.1,4.8; stroke-dashoffset: 0; stroke: #1f77b4; stroke-width: 3"/>
   </g>
   <g id="LineCollection_2">
    <path d="M 78.445819 154.515196 
L 111.379936 154.515196 
" clip-path="url(#p1ad16ca13c)" style="fill: none; stroke: #1f77b4; stroke-width: 3"/>
    <path d="M 78.445819 102.539812 
L 144.314053 102.539812 
" clip-path="url(#p1ad16ca13c)" style="fill: none; stroke: #1f77b4; stroke-width: 3"/>
    <path d="M 78.445819 69.605695 
L 177.248171 69.605695 
" clip-path="url(#p1ad16ca13c)" style="fill: none; stroke: #1f77b4; stroke-width: 3"/>
    <path d="M 78.445819 55.712845 
L 210.182288 55.712845 
" clip-path="url(#p1ad16ca13c)" style="fill: none; stroke: #1f77b4; stroke-width: 3"/>
   </g>
   <g id="line2d_5">
    <path d="M 78.445819 218.258731 
L 94.434855 186.527518 
L 103.006297 170.02676 
L 110.09422 156.85024 
L 116.357966 145.654758 
L 122.127206 135.779374 
L 127.566775 126.897564 
L 132.676673 118.967446 
L 137.621735 111.700312 
L 142.401963 105.075804 
L 147.017354 99.067801 
L 151.467911 93.645725 
L 155.753632 88.775726 
L 159.874517 84.421761 
L 163.995403 80.391559 
L 167.951453 76.826657 
L 171.907503 73.557403 
L 175.863553 70.579885 
L 179.819603 67.888533 
L 183.610818 65.571201 
L 187.566868 63.417928 
L 191.522918 61.524964 
L 195.478968 59.880562 
L 199.435019 58.471561 
L 203.555904 57.23852 
L 207.841625 56.19122 
L 212.292181 55.334381 
L 217.072409 54.646689 
L 222.182307 54.140305 
L 227.951547 53.798867 
L 234.874634 53.622089 
L 243.116405 53.588144 
L 243.116405 53.588144 
" clip-path="url(#p1ad16ca13c)" style="fill: none; stroke: #984ea3; stroke-width: 6; stroke-linecap: square"/>
   </g>
   <g id="patch_3">
    <path d="M 70.21229 226.49226 
L 70.21229 45.354615 
" style="fill: none; stroke: #000000; stroke-width: 4; stroke-linejoin: miter; stroke-linecap: square"/>
   </g>
   <g id="patch_4">
    <path d="M 251.349935 226.49226 
L 251.349935 45.354615 
" style="fill: none; stroke: #000000; stroke-width: 4; stroke-linejoin: miter; stroke-linecap: square"/>
   </g>
   <g id="patch_5">
    <path d="M 70.21229 226.49226 
L 251.349935 226.49226 
" style="fill: none; stroke: #000000; stroke-width: 4; stroke-linejoin: miter; stroke-linecap: square"/>
   </g>
   <g id="patch_6">
    <path d="M 70.21229 45.354615 
L 251.349935 45.354615 
" style="fill: none; stroke: #000000; stroke-width: 4; stroke-linejoin: miter; stroke-linecap: square"/>
   </g>
   <g id="text_7">
    <!-- $\kappa_{1}$ -->
    <g transform="translate(141.521112 30.354615) scale(0.36 -0.36)">
     <defs>
      <path id="DejaVuSans-Oblique-3ba" d="M 938 3500 
L 1531 3500 
L 1247 2047 
L 3041 3500 
L 3741 3500 
L 2106 2181 
L 3275 0 
L 2572 0 
L 1628 1806 
L 1122 1403 
L 850 0 
L 256 0 
L 938 3500 
z
" transform="scale(0.015625)"/>
      <path id="DejaVuSans-31" d="M 794 531 
L 1825 531 
L 1825 4091 
L 703 3866 
L 703 4441 
L 1819 4666 
L 2450 4666 
L 2450 531 
L 3481 531 
L 3481 0 
L 794 0 
L 794 531 
z
" transform="scale(0.015625)"/>
     </defs>
     <use xlink:href="#DejaVuSans-Oblique-3ba" transform="translate(0 0.3125)"/>
     <use xlink:href="#DejaVuSans-31" transform="translate(58.935547 -16.09375) scale(0.7)"/>
    </g>
   </g>
  </g>
  <g id="axes_2">
   <g id="patch_7">
    <path d="M 358.21229 226.49226 
L 539.349935 226.49226 
L 539.349935 45.354615 
L 358.21229 45.354615 
z
" style="fill: #ffffff"/>
   </g>
   <g id="matplotlib.axis_3">
    <g id="xtick_3">
     <g id="line2d_6">
      <g>
       <use xlink:href="#m3ec2179a7e" x="366.445819" y="226.49226" style="stroke: #000000; stroke-width: 2"/>
      </g>
     </g>
     <g id="text_8">
      <!-- 0 -->
      <g transform="translate(359.836444 255.22851) scale(0.24 -0.24)">
       <use xlink:href="#DroidSans-30"/>
      </g>
     </g>
    </g>
    <g id="xtick_4">
     <g id="line2d_7">
      <g>
       <use xlink:href="#m3ec2179a7e" x="531.116405" y="226.49226" style="stroke: #000000; stroke-width: 2"/>
      </g>
     </g>
     <g id="text_9">
      <!-- T -->
      <g transform="translate(524.887655 255.22851) scale(0.24 -0.24)">
       <use xlink:href="#DroidSans-54"/>
      </g>
     </g>
    </g>
    <g id="text_10">
     <!-- Old Times -->
     <g transform="translate(394.698612 279.23226) scale(0.24 -0.24)">
      <use xlink:href="#DroidSans-4f"/>
      <use xlink:href="#DroidSans-6c" x="74.21875"/>
      <use xlink:href="#DroidSans-64" x="100.097656"/>
      <use xlink:href="#DroidSans-20" x="158.691406"/>
      <use xlink:href="#DroidSans-54" x="184.667969"/>
      <use xlink:href="#DroidSans-69" x="236.572266"/>
      <use xlink:href="#DroidSans-6d" x="262.451172"/>
      <use xlink:href="#DroidSans-65" x="352.050781"/>
      <use xlink:href="#DroidSans-73" x="405.566406"/>
     </g>
    </g>
   </g>
   <g id="matplotlib.axis_4">
    <g id="ytick_3">
     <g id="line2d_8">
      <g>
       <use xlink:href="#mabdf945ed5" x="358.21229" y="218.258731" style="stroke: #000000; stroke-width: 2"/>
      </g>
     </g>
     <g id="text_11">
      <!-- 0 -->
      <g transform="translate(334.49354 227.376856) scale(0.24 -0.24)">
       <use xlink:href="#DroidSans-30"/>
      </g>
     </g>
    </g>
    <g id="ytick_4">
     <g id="line2d_9">
      <g>
       <use xlink:href="#mabdf945ed5" x="358.21229" y="53.588144" style="stroke: #000000; stroke-width: 2"/>
      </g>
     </g>
     <g id="text_12">
      <!-- T -->
      <g transform="translate(335.25479 62.706269) scale(0.24 -0.24)">
       <use xlink:href="#DroidSans-54"/>
      </g>
     </g>
    </g>
    <g id="text_13">
     <!-- New Times -->
     <g transform="translate(328.72604 195.087187) rotate(-90) scale(0.24 -0.24)">
      <use xlink:href="#DroidSans-4e"/>
      <use xlink:href="#DroidSans-65" x="72.900391"/>
      <use xlink:href="#DroidSans-77" x="126.416016"/>
      <use xlink:href="#DroidSans-20" x="201.025391"/>
      <use xlink:href="#DroidSans-54" x="227.001953"/>
      <use xlink:href="#DroidSans-69" x="278.90625"/>
      <use xlink:href="#DroidSans-6d" x="304.785156"/>
      <use xlink:href="#DroidSans-65" x="394.384766"/>
      <use xlink:href="#DroidSans-73" x="447.900391"/>
     </g>
    </g>
   </g>
   <g id="LineCollection_3">
    <path d="M 399.379936 218.258731 
L 399.379936 210.249877 
" clip-path="url(#p29812f7629)" style="fill: none; stroke-dasharray: 11.1,4.8; stroke-dashoffset: 0; stroke: #1f77b4; stroke-width: 3"/>
    <path d="M 432.314053 218.258731 
L 432.314053 167.795156 
" clip-path="url(#p29812f7629)" style="fill: none; stroke-dasharray: 11.1,4.8; stroke-dashoffset: 0; stroke: #1f77b4; stroke-width: 3"/>
    <path d="M 465.248171 218.258731 
L 465.248171 104.051719 
" clip-path="url(#p29812f7629)" style="fill: none; stroke-dasharray: 11.1,4.8; stroke-dashoffset: 0; stroke: #1f77b4; stroke-width: 3"/>
    <path d="M 498.182288 218.258731 
L 498.182288 61.596998 
" clip-path="url(#p29812f7629)" style="fill: none; stroke-dasharray: 11.1,4.8; stroke-dashoffset: 0; stroke: #1f77b4; stroke-width: 3"/>
   </g>
   <g id="LineCollection_4">
    <path d="M 366.445819 210.249877 
L 399.379936 210.249877 
" clip-path="url(#p29812f7629)" style="fill: none; stroke: #1f77b4; stroke-width: 3"/>
    <path d="M 366.445819 167.795156 
L 432.314053 167.795156 
" clip-path="url(#p29812f7629)" style="fill: none; stroke: #1f77b4; stroke-width: 3"/>
    <path d="M 366.445819 104.051719 
L 465.248171 104.051719 
" clip-path="url(#p29812f7629)" style="fill: none; stroke: #1f77b4; stroke-width: 3"/>
    <path d="M 366.445819 61.596998 
L 498.182288 61.596998 
" clip-path="url(#p29812f7629)" style="fill: none; stroke: #1f77b4; stroke-width: 3"/>
   </g>
   <g id="line2d_10">
    <path d="M 366.445819 218.258731 
L 374.028248 218.153346 
L 378.149134 217.873561 
L 381.610678 217.426459 
L 384.742551 216.808159 
L 387.709588 216.001298 
L 390.511791 215.01626 
L 393.313993 213.793392 
L 396.116195 212.314656 
L 398.753562 210.675592 
L 401.390928 208.786361 
L 404.193131 206.496522 
L 406.995333 203.909901 
L 409.797535 201.024036 
L 412.764572 197.643366 
L 415.896445 193.718042 
L 419.028319 189.437422 
L 422.489862 184.312731 
L 426.116242 178.531719 
L 430.072292 171.791999 
L 434.522848 163.746858 
L 439.632746 154.035458 
L 446.720669 140.042188 
L 459.248161 115.265451 
L 464.522895 105.369575 
L 468.973451 97.478139 
L 472.929501 90.901607 
L 476.555881 85.288864 
L 480.017425 80.338425 
L 483.314133 76.017745 
L 486.446006 72.284295 
L 489.413044 69.089008 
L 492.215246 66.379272 
L 495.017448 63.967745 
L 497.81965 61.849965 
L 500.621852 60.018114 
L 503.424054 58.461111 
L 506.226257 57.164733 
L 509.028459 56.111782 
L 511.995496 55.239974 
L 515.127369 54.561787 
L 518.424078 54.078571 
L 522.215293 53.758338 
L 526.830684 53.607246 
L 531.116405 53.588144 
L 531.116405 53.588144 
" clip-path="url(#p29812f7629)" style="fill: none; stroke: #984ea3; stroke-width: 6; stroke-linecap: square"/>
   </g>
   <g id="patch_8">
    <path d="M 358.21229 226.49226 
L 358.21229 45.354615 
" style="fill: none; stroke: #000000; stroke-width: 4; stroke-linejoin: miter; stroke-linecap: square"/>
   </g>
   <g id="patch_9">
    <path d="M 539.349935 226.49226 
L 539.349935 45.354615 
" style="fill: none; stroke: #000000; stroke-width: 4; stroke-linejoin: miter; stroke-linecap: square"/>
   </g>
   <g id="patch_10">
    <path d="M 358.21229 226.49226 
L 539.349935 226.49226 
" style="fill: none; stroke: #000000; stroke-width: 4; stroke-linejoin: miter; stroke-linecap: square"/>
   </g>
   <g id="patch_11">
    <path d="M 358.21229 45.354615 
L 539.349935 45.354615 
" style="fill: none; stroke: #000000; stroke-width: 4; stroke-linejoin: miter; stroke-linecap: square"/>
   </g>
   <g id="text_14">
    <!-- $\kappa_{-2}$ -->
    <g transform="translate(419.081112 30.354615) scale(0.36 -0.36)">
     <defs>
      <path id="DejaVuSans-2212" d="M 678 2272 
L 4684 2272 
L 4684 1741 
L 678 1741 
L 678 2272 
z
" transform="scale(0.015625)"/>
      <path id="DejaVuSans-32" d="M 1228 531 
L 3431 531 
L 3431 0 
L 469 0 
L 469 531 
Q 828 903 1448 1529 
Q 2069 2156 2228 2338 
Q 2531 2678 2651 2914 
Q 2772 3150 2772 3378 
Q 2772 3750 2511 3984 
Q 2250 4219 1831 4219 
Q 1534 4219 1204 4116 
Q 875 4013 500 3803 
L 500 4441 
Q 881 4594 1212 4672 
Q 1544 4750 1819 4750 
Q 2544 4750 2975 4387 
Q 3406 4025 3406 3419 
Q 3406 3131 3298 2873 
Q 3191 2616 2906 2266 
Q 2828 2175 2409 1742 
Q 1991 1309 1228 531 
z
" transform="scale(0.015625)"/>
     </defs>
     <use xlink:href="#DejaVuSans-Oblique-3ba" transform="translate(0 0.3125)"/>
     <use xlink:href="#DejaVuSans-2212" transform="translate(58.935547 -16.09375) scale(0.7)"/>
     <use xlink:href="#DejaVuSans-32" transform="translate(117.587891 -16.09375) scale(0.7)"/>
    </g>
   </g>
  </g>
  <g id="axes_3">
   <g id="patch_12">
    <path d="M 646.21229 226.49226 
L 827.349935 226.49226 
L 827.349935 45.354615 
L 646.21229 45.354615 
z
" style="fill: #ffffff"/>
   </g>
   <g id="matplotlib.axis_5">
    <g id="xtick_5">
     <g id="line2d_11">
      <g>
       <use xlink:href="#m3ec2179a7e" x="654.445819" y="226.49226" style="stroke: #000000; stroke-width: 2"/>
      </g>
     </g>
     <g id="text_15">
      <!-- 0 -->
      <g transform="translate(647.836444 255.22851) scale(0.24 -0.24)">
       <use xlink:href="#DroidSans-30"/>
      </g>
     </g>
    </g>
    <g id="xtick_6">
     <g id="line2d_12">
      <g>
       <use xlink:href="#m3ec2179a7e" x="819.116405" y="226.49226" style="stroke: #000000; stroke-width: 2"/>
      </g>
     </g>
     <g id="text_16">
      <!-- T -->
      <g transform="translate(812.887655 255.22851) scale(0.24 -0.24)">
       <use xlink:href="#DroidSans-54"/>
      </g>
     </g>
    </g>
    <g id="text_17">
     <!-- Old Times -->
     <g transform="translate(682.698612 279.23226) scale(0.24 -0.24)">
      <use xlink:href="#DroidSans-4f"/>
      <use xlink:href="#DroidSans-6c" x="74.21875"/>
      <use xlink:href="#DroidSans-64" x="100.097656"/>
      <use xlink:href="#DroidSans-20" x="158.691406"/>
      <use xlink:href="#DroidSans-54" x="184.667969"/>
      <use xlink:href="#DroidSans-69" x="236.572266"/>
      <use xlink:href="#DroidSans-6d" x="262.451172"/>
      <use xlink:href="#DroidSans-65" x="352.050781"/>
      <use xlink:href="#DroidSans-73" x="405.566406"/>
     </g>
    </g>
   </g>
   <g id="matplotlib.axis_6">
    <g id="ytick_5">
     <g id="line2d_13">
      <g>
       <use xlink:href="#mabdf945ed5" x="646.21229" y="218.258731" style="stroke: #000000; stroke-width: 2"/>
      </g>
     </g>
     <g id="text_18">
      <!-- 0 -->
      <g transform="translate(622.49354 227.376856) scale(0.24 -0.24)">
       <use xlink:href="#DroidSans-30"/>
      </g>
     </g>
    </g>
    <g id="ytick_6">
     <g id="line2d_14">
      <g>
       <use xlink:href="#mabdf945ed5" x="646.21229" y="53.588144" style="stroke: #000000; stroke-width: 2"/>
      </g>
     </g>
     <g id="text_19">
      <!-- T -->
      <g transform="translate(623.25479 62.706269) scale(0.24 -0.24)">
       <use xlink:href="#DroidSans-54"/>
      </g>
     </g>
    </g>
    <g id="text_20">
     <!-- New Times -->
     <g transform="translate(616.72604 195.087187) rotate(-90) scale(0.24 -0.24)">
      <use xlink:href="#DroidSans-4e"/>
      <use xlink:href="#DroidSans-65" x="72.900391"/>
      <use xlink:href="#DroidSans-77" x="126.416016"/>
      <use xlink:href="#DroidSans-20" x="201.025391"/>
      <use xlink:href="#DroidSans-54" x="227.001953"/>
      <use xlink:href="#DroidSans-69" x="278.90625"/>
      <use xlink:href="#DroidSans-6d" x="304.785156"/>
      <use xlink:href="#DroidSans-65" x="394.384766"/>
      <use xlink:href="#DroidSans-73" x="447.900391"/>
     </g>
    </g>
   </g>
   <g id="LineCollection_5">
    <path d="M 687.379936 218.258731 
L 687.379936 168.707823 
" clip-path="url(#p78628e477f)" style="fill: none; stroke-dasharray: 11.1,4.8; stroke-dashoffset: 0; stroke: #1f77b4; stroke-width: 3"/>
    <path d="M 720.314053 218.258731 
L 720.314053 162.660237 
" clip-path="url(#p78628e477f)" style="fill: none; stroke-dasharray: 11.1,4.8; stroke-dashoffset: 0; stroke: #1f77b4; stroke-width: 3"/>
    <path d="M 753.248171 218.258731 
L 753.248171 129.72612 
" clip-path="url(#p78628e477f)" style="fill: none; stroke-dasharray: 11.1,4.8; stroke-dashoffset: 0; stroke: #1f77b4; stroke-width: 3"/>
    <path d="M 786.182288 218.258731 
L 786.182288 69.905471 
" clip-path="url(#p78628e477f)" style="fill: none; stroke-dasharray: 11.1,4.8; stroke-dashoffset: 0; stroke: #1f77b4; stroke-width: 3"/>
   </g>
   <g id="LineCollection_6">
    <path d="M 654.445819 168.707823 
L 687.379936 168.707823 
" clip-path="url(#p78628e477f)" style="fill: none; stroke: #1f77b4; stroke-width: 3"/>
    <path d="M 654.445819 162.660237 
L 720.314053 162.660237 
" clip-path="url(#p78628e477f)" style="fill: none; stroke: #1f77b4; stroke-width: 3"/>
    <path d="M 654.445819 129.72612 
L 753.248171 129.72612 
" clip-path="url(#p78628e477f)" style="fill: none; stroke: #1f77b4; stroke-width: 3"/>
    <path d="M 654.445819 69.905471 
L 786.182288 69.905471 
" clip-path="url(#p78628e477f)" style="fill: none; stroke: #1f77b4; stroke-width: 3"/>
   </g>
   <g id="line2d_15">
    <path d="M 654.445819 218.258731 
L 662.028248 203.329714 
L 666.149134 195.707935 
L 669.610678 189.762724 
L 672.742551 184.830866 
L 675.544753 180.827761 
L 678.18212 177.442656 
L 680.654651 174.62169 
L 682.962347 172.303116 
L 685.270043 170.288323 
L 687.577739 168.572208 
L 689.885435 167.144466 
L 692.193131 165.989769 
L 694.500826 165.088031 
L 696.973358 164.374685 
L 699.610725 163.863088 
L 702.412927 163.54834 
L 705.874471 163.391168 
L 717.577785 163.066196 
L 720.379988 162.647571 
L 722.852519 162.059999 
L 725.160215 161.29208 
L 727.467911 160.284683 
L 729.610771 159.114942 
L 731.753632 157.704516 
L 733.896492 156.042404 
L 736.204188 153.962765 
L 738.511884 151.578939 
L 740.984415 148.688901 
L 743.456947 145.459612 
L 746.094313 141.65828 
L 749.061351 136.974346 
L 752.358059 131.322704 
L 756.149274 124.347523 
L 760.929501 115.052199 
L 773.456993 90.440315 
L 777.248208 83.606979 
L 780.544917 78.112254 
L 783.511954 73.59146 
L 786.314156 69.733328 
L 788.951523 66.492357 
L 791.424054 63.810317 
L 793.73175 61.622222 
L 796.039446 59.736365 
L 798.347142 58.145398 
L 800.654838 56.836836 
L 802.962534 55.793276 
L 805.27023 54.992695 
L 807.742761 54.374659 
L 810.380128 53.94773 
L 813.347166 53.692465 
L 817.303216 53.591414 
L 819.116405 53.588144 
L 819.116405 53.588144 
" clip-path="url(#p78628e477f)" style="fill: none; stroke: #984ea3; stroke-width: 6; stroke-linecap: square"/>
   </g>
   <g id="patch_13">
    <path d="M 646.21229 226.49226 
L 646.21229 45.354615 
" style="fill: none; stroke: #000000; stroke-width: 4; stroke-linejoin: miter; stroke-linecap: square"/>
   </g>
   <g id="patch_14">
    <path d="M 827.349935 226.49226 
L 827.349935 45.354615 
" style="fill: none; stroke: #000000; stroke-width: 4; stroke-linejoin: miter; stroke-linecap: square"/>
   </g>
   <g id="patch_15">
    <path d="M 646.21229 226.49226 
L 827.349935 226.49226 
" style="fill: none; stroke: #000000; stroke-width: 4; stroke-linejoin: miter; stroke-linecap: square"/>
   </g>
   <g id="patch_16">
    <path d="M 646.21229 45.354615 
L 827.349935 45.354615 
" style="fill: none; stroke: #000000; stroke-width: 4; stroke-linejoin: miter; stroke-linecap: square"/>
   </g>
   <g id="text_21">
    <!-- $\kappa_{3}$ -->
    <g transform="translate(717.521112 30.354615) scale(0.36 -0.36)">
     <defs>
      <path id="DejaVuSans-33" d="M 2597 2516 
Q 3050 2419 3304 2112 
Q 3559 1806 3559 1356 
Q 3559 666 3084 287 
Q 2609 -91 1734 -91 
Q 1441 -91 1130 -33 
Q 819 25 488 141 
L 488 750 
Q 750 597 1062 519 
Q 1375 441 1716 441 
Q 2309 441 2620 675 
Q 2931 909 2931 1356 
Q 2931 1769 2642 2001 
Q 2353 2234 1838 2234 
L 1294 2234 
L 1294 2753 
L 1863 2753 
Q 2328 2753 2575 2939 
Q 2822 3125 2822 3475 
Q 2822 3834 2567 4026 
Q 2313 4219 1838 4219 
Q 1578 4219 1281 4162 
Q 984 4106 628 3988 
L 628 4550 
Q 988 4650 1302 4700 
Q 1616 4750 1894 4750 
Q 2613 4750 3031 4423 
Q 3450 4097 3450 3541 
Q 3450 3153 3228 2886 
Q 3006 2619 2597 2516 
z
" transform="scale(0.015625)"/>
     </defs>
     <use xlink:href="#DejaVuSans-Oblique-3ba" transform="translate(0 0.3125)"/>
     <use xlink:href="#DejaVuSans-33" transform="translate(58.935547 -16.09375) scale(0.7)"/>
    </g>
   </g>
  </g>
 </g>
 <defs>
  <clipPath id="p1ad16ca13c">
   <rect x="70.21229" y="45.354615" width="181.137645" height="181.137645"/>
  </clipPath>
  <clipPath id="p29812f7629">
   <rect x="358.21229" y="45.354615" width="181.137645" height="181.137645"/>
  </clipPath>
  <clipPath id="p78628e477f">
   <rect x="646.21229" y="45.354615" width="181.137645" height="181.137645"/>
  </clipPath>
 </defs>
</svg>
