<?xml version="1.0" encoding="utf-8" standalone="no"?>
<!DOCTYPE svg PUBLIC "-//W3C//DTD SVG 1.1//EN"
  "http://www.w3.org/Graphics/SVG/1.1/DTD/svg11.dtd">
<svg xmlns:xlink="http://www.w3.org/1999/xlink" width="1296pt" height="576pt" viewBox="0 0 1296 576" xmlns="http://www.w3.org/2000/svg" version="1.1">
 <metadata>
  <rdf:RDF xmlns:dc="http://purl.org/dc/elements/1.1/" xmlns:cc="http://creativecommons.org/ns#" xmlns:rdf="http://www.w3.org/1999/02/22-rdf-syntax-ns#">
   <cc:Work>
    <dc:type rdf:resource="http://purl.org/dc/dcmitype/StillImage"/>
    <dc:date>2025-02-25T15:20:09.753811</dc:date>
    <dc:format>image/svg+xml</dc:format>
    <dc:creator>
     <cc:Agent>
      <dc:title>Matplotlib v3.6.3, https://matplotlib.org/</dc:title>
     </cc:Agent>
    </dc:creator>
   </cc:Work>
  </rdf:RDF>
 </metadata>
 <defs>
  <style type="text/css">*{stroke-linejoin: round; stroke-linecap: butt}</style>
 </defs>
 <g id="figure_1">
  <g id="patch_1">
   <path d="M 0 576 
L 1296 576 
L 1296 0 
L 0 0 
z
" style="fill: #ffffff"/>
  </g>
  <g id="axes_1">
   <g id="patch_2">
    <path d="M 188.17274 411.47726 
L 1292.99976 411.47726 
L 1292.99976 3.00024 
L 188.17274 3.00024 
z
" style="fill: #ffffff"/>
   </g>
   <g id="matplotlib.axis_1">
    <g id="xtick_1">
     <g id="line2d_1">
      <defs>
       <path id="m5a40a6bc2c" d="M 0 0 
L 0 10 
" style="stroke: #000000; stroke-width: 6"/>
      </defs>
      <g>
       <use xlink:href="#m5a40a6bc2c" x="238.39215" y="411.47726" style="stroke: #000000; stroke-width: 6"/>
      </g>
     </g>
     <g id="text_1">
      <!-- 0 -->
      <g transform="translate(220.76715 473.60726) scale(0.64 -0.64)">
       <defs>
        <path id="DroidSans-30" d="M 3225 2291 
Q 3225 1738 3145 1300 
Q 3066 863 2889 559 
Q 2713 256 2434 96 
Q 2156 -63 1759 -63 
Q 1391 -63 1117 96 
Q 844 256 664 559 
Q 484 863 395 1300 
Q 306 1738 306 2291 
Q 306 2844 386 3281 
Q 466 3719 639 4020 
Q 813 4322 1089 4481 
Q 1366 4641 1759 4641 
Q 2131 4641 2406 4483 
Q 2681 4325 2862 4023 
Q 3044 3722 3134 3284 
Q 3225 2847 3225 2291 
z
M 884 2291 
Q 884 1822 931 1472 
Q 978 1122 1081 889 
Q 1184 656 1351 539 
Q 1519 422 1759 422 
Q 2000 422 2169 537 
Q 2338 653 2445 884 
Q 2553 1116 2601 1467 
Q 2650 1819 2650 2291 
Q 2650 2759 2601 3109 
Q 2553 3459 2445 3690 
Q 2338 3922 2169 4037 
Q 2000 4153 1759 4153 
Q 1519 4153 1351 4037 
Q 1184 3922 1081 3690 
Q 978 3459 931 3109 
Q 884 2759 884 2291 
z
" transform="scale(0.015625)"/>
       </defs>
       <use xlink:href="#DroidSans-30"/>
      </g>
     </g>
    </g>
    <g id="xtick_2">
     <g id="line2d_2">
      <g>
       <use xlink:href="#m5a40a6bc2c" x="466.754074" y="411.47726" style="stroke: #000000; stroke-width: 6"/>
      </g>
     </g>
     <g id="text_2">
      <!-- 2 -->
      <g transform="translate(449.129074 473.60726) scale(0.64 -0.64)">
       <defs>
        <path id="DroidSans-32" d="M 3150 0 
L 300 0 
L 300 488 
L 1394 1678 
Q 1628 1931 1812 2140 
Q 1997 2350 2126 2550 
Q 2256 2750 2325 2951 
Q 2394 3153 2394 3391 
Q 2394 3575 2341 3715 
Q 2288 3856 2189 3954 
Q 2091 4053 1956 4103 
Q 1822 4153 1656 4153 
Q 1359 4153 1120 4033 
Q 881 3913 666 3725 
L 347 4097 
Q 472 4209 615 4307 
Q 759 4406 925 4478 
Q 1091 4550 1275 4592 
Q 1459 4634 1663 4634 
Q 1963 4634 2205 4550 
Q 2447 4466 2615 4308 
Q 2784 4150 2876 3923 
Q 2969 3697 2969 3413 
Q 2969 3147 2886 2906 
Q 2803 2666 2658 2433 
Q 2513 2200 2311 1965 
Q 2109 1731 1875 1478 
L 997 544 
L 997 519 
L 3150 519 
L 3150 0 
z
" transform="scale(0.015625)"/>
       </defs>
       <use xlink:href="#DroidSans-32"/>
      </g>
     </g>
    </g>
    <g id="xtick_3">
     <g id="line2d_3">
      <g>
       <use xlink:href="#m5a40a6bc2c" x="695.115998" y="411.47726" style="stroke: #000000; stroke-width: 6"/>
      </g>
     </g>
     <g id="text_3">
      <!-- 4 -->
      <g transform="translate(677.490998 473.60726) scale(0.64 -0.64)">
       <defs>
        <path id="DroidSans-34" d="M 3397 1025 
L 2731 1025 
L 2731 0 
L 2181 0 
L 2181 1025 
L 72 1025 
L 72 1522 
L 2144 4594 
L 2731 4594 
L 2731 1544 
L 3397 1544 
L 3397 1025 
z
M 2181 1544 
L 2181 2656 
Q 2181 2831 2186 3023 
Q 2191 3216 2197 3398 
Q 2203 3581 2211 3740 
Q 2219 3900 2222 4006 
L 2194 4006 
Q 2172 3944 2139 3867 
Q 2106 3791 2067 3714 
Q 2028 3638 1987 3566 
Q 1947 3494 1913 3444 
L 628 1544 
L 2181 1544 
z
" transform="scale(0.015625)"/>
       </defs>
       <use xlink:href="#DroidSans-34"/>
      </g>
     </g>
    </g>
    <g id="xtick_4">
     <g id="line2d_4">
      <g>
       <use xlink:href="#m5a40a6bc2c" x="923.477922" y="411.47726" style="stroke: #000000; stroke-width: 6"/>
      </g>
     </g>
     <g id="text_4">
      <!-- 6 -->
      <g transform="translate(905.852922 473.60726) scale(0.64 -0.64)">
       <defs>
        <path id="DroidSans-36" d="M 353 1953 
Q 353 2281 386 2606 
Q 419 2931 501 3229 
Q 584 3528 728 3784 
Q 872 4041 1094 4230 
Q 1316 4419 1625 4526 
Q 1934 4634 2350 4634 
Q 2409 4634 2481 4631 
Q 2553 4628 2626 4620 
Q 2700 4613 2767 4602 
Q 2834 4591 2888 4575 
L 2888 4091 
Q 2778 4128 2640 4147 
Q 2503 4166 2369 4166 
Q 2088 4166 1873 4098 
Q 1659 4031 1503 3909 
Q 1347 3788 1242 3619 
Q 1138 3450 1072 3245 
Q 1006 3041 975 2809 
Q 944 2578 934 2328 
L 972 2328 
Q 1034 2441 1123 2539 
Q 1213 2638 1331 2708 
Q 1450 2778 1598 2818 
Q 1747 2859 1931 2859 
Q 2228 2859 2468 2767 
Q 2709 2675 2878 2497 
Q 3047 2319 3139 2061 
Q 3231 1803 3231 1472 
Q 3231 1116 3134 831 
Q 3038 547 2856 348 
Q 2675 150 2419 43 
Q 2163 -63 1844 -63 
Q 1531 -63 1257 59 
Q 984 181 784 431 
Q 584 681 468 1059 
Q 353 1438 353 1953 
z
M 1838 416 
Q 2025 416 2179 480 
Q 2334 544 2446 673 
Q 2559 803 2620 1001 
Q 2681 1200 2681 1472 
Q 2681 1691 2629 1864 
Q 2578 2038 2475 2159 
Q 2372 2281 2217 2347 
Q 2063 2413 1856 2413 
Q 1647 2413 1473 2339 
Q 1300 2266 1178 2148 
Q 1056 2031 989 1881 
Q 922 1731 922 1581 
Q 922 1372 980 1164 
Q 1038 956 1152 790 
Q 1266 625 1437 520 
Q 1609 416 1838 416 
z
" transform="scale(0.015625)"/>
       </defs>
       <use xlink:href="#DroidSans-36"/>
      </g>
     </g>
    </g>
    <g id="xtick_5">
     <g id="line2d_5">
      <g>
       <use xlink:href="#m5a40a6bc2c" x="1151.839846" y="411.47726" style="stroke: #000000; stroke-width: 6"/>
      </g>
     </g>
     <g id="text_5">
      <!-- 8 -->
      <g transform="translate(1134.214846 473.60726) scale(0.64 -0.64)">
       <defs>
        <path id="DroidSans-38" d="M 1766 4641 
Q 2028 4641 2261 4572 
Q 2494 4503 2670 4365 
Q 2847 4228 2950 4022 
Q 3053 3816 3053 3541 
Q 3053 3331 2990 3162 
Q 2928 2994 2818 2858 
Q 2709 2722 2559 2614 
Q 2409 2506 2234 2419 
Q 2416 2322 2589 2203 
Q 2763 2084 2898 1936 
Q 3034 1788 3117 1603 
Q 3200 1419 3200 1191 
Q 3200 903 3095 670 
Q 2991 438 2802 275 
Q 2613 113 2348 25 
Q 2084 -63 1766 -63 
Q 1422 -63 1155 21 
Q 888 106 705 264 
Q 522 422 426 650 
Q 331 878 331 1166 
Q 331 1400 401 1587 
Q 472 1775 590 1925 
Q 709 2075 871 2190 
Q 1034 2306 1216 2394 
Q 1063 2491 928 2605 
Q 794 2719 695 2859 
Q 597 3000 539 3170 
Q 481 3341 481 3547 
Q 481 3819 586 4023 
Q 691 4228 869 4365 
Q 1047 4503 1280 4572 
Q 1513 4641 1766 4641 
z
M 891 1159 
Q 891 994 941 855 
Q 991 716 1097 617 
Q 1203 519 1365 464 
Q 1528 409 1753 409 
Q 1972 409 2139 464 
Q 2306 519 2418 620 
Q 2531 722 2587 865 
Q 2644 1009 2644 1184 
Q 2644 1347 2583 1478 
Q 2522 1609 2408 1721 
Q 2294 1834 2134 1934 
Q 1975 2034 1778 2131 
L 1684 2175 
Q 1291 1988 1091 1745 
Q 891 1503 891 1159 
z
M 1759 4166 
Q 1428 4166 1233 4000 
Q 1038 3834 1038 3519 
Q 1038 3341 1092 3212 
Q 1147 3084 1244 2984 
Q 1341 2884 1477 2804 
Q 1613 2725 1772 2650 
Q 1922 2719 2055 2800 
Q 2188 2881 2286 2984 
Q 2384 3088 2440 3219 
Q 2497 3350 2497 3519 
Q 2497 3834 2300 4000 
Q 2103 4166 1759 4166 
z
" transform="scale(0.015625)"/>
       </defs>
       <use xlink:href="#DroidSans-38"/>
      </g>
     </g>
    </g>
    <g id="text_6">
     <!-- $\omega$ -->
     <g transform="translate(706.98625 553.77476) scale(0.8 -0.8)">
      <defs>
       <path id="DejaVuSans-Oblique-3c9" d="M 1369 -91 
Q 72 -91 434 1766 
Q 575 2500 1256 3500 
L 1875 3500 
Q 1231 2500 1088 1750 
Q 819 397 1519 397 
Q 2166 397 2478 2078 
L 3009 2078 
Q 2669 388 3316 397 
Q 4013 403 4275 1750 
Q 4419 2500 4169 3500 
L 4788 3500 
Q 5075 2500 4934 1766 
Q 4578 -94 3278 -91 
Q 2428 -88 2503 844 
Q 2194 -91 1369 -91 
z
" transform="scale(0.015625)"/>
      </defs>
      <use xlink:href="#DejaVuSans-Oblique-3c9" transform="translate(0 0.3125)"/>
     </g>
    </g>
   </g>
   <g id="matplotlib.axis_2">
    <g id="ytick_1">
     <g id="line2d_6">
      <defs>
       <path id="m8d87a592ae" d="M 0 0 
L -10 0 
" style="stroke: #000000; stroke-width: 6"/>
      </defs>
      <g>
       <use xlink:href="#m8d87a592ae" x="188.17274" y="392.910124" style="stroke: #000000; stroke-width: 6"/>
      </g>
     </g>
     <g id="text_7">
      <!-- 0.0 -->
      <g transform="translate(87.01274 417.225124) scale(0.64 -0.64)">
       <defs>
        <path id="DroidSans-2e" d="M 459 347 
Q 459 466 490 548 
Q 522 631 575 682 
Q 628 734 700 757 
Q 772 781 856 781 
Q 938 781 1011 757 
Q 1084 734 1137 682 
Q 1191 631 1222 548 
Q 1253 466 1253 347 
Q 1253 231 1222 148 
Q 1191 66 1137 12 
Q 1084 -41 1011 -66 
Q 938 -91 856 -91 
Q 772 -91 700 -66 
Q 628 -41 575 12 
Q 522 66 490 148 
Q 459 231 459 347 
z
" transform="scale(0.015625)"/>
       </defs>
       <use xlink:href="#DroidSans-30"/>
       <use xlink:href="#DroidSans-2e" x="55.078125"/>
       <use xlink:href="#DroidSans-30" x="81.884766"/>
      </g>
     </g>
    </g>
    <g id="ytick_2">
     <g id="line2d_7">
      <g>
       <use xlink:href="#m8d87a592ae" x="188.17274" y="218.069095" style="stroke: #000000; stroke-width: 6"/>
      </g>
     </g>
     <g id="text_8">
      <!-- 0.2 -->
      <g transform="translate(87.01274 242.384095) scale(0.64 -0.64)">
       <use xlink:href="#DroidSans-30"/>
       <use xlink:href="#DroidSans-2e" x="55.078125"/>
       <use xlink:href="#DroidSans-32" x="81.884766"/>
      </g>
     </g>
    </g>
    <g id="ytick_3">
     <g id="line2d_8">
      <g>
       <use xlink:href="#m8d87a592ae" x="188.17274" y="43.228066" style="stroke: #000000; stroke-width: 6"/>
      </g>
     </g>
     <g id="text_9">
      <!-- 0.4 -->
      <g transform="translate(87.01274 67.543066) scale(0.64 -0.64)">
       <use xlink:href="#DroidSans-30"/>
       <use xlink:href="#DroidSans-2e" x="55.078125"/>
       <use xlink:href="#DroidSans-34" x="81.884766"/>
      </g>
     </g>
    </g>
    <g id="text_10">
     <!-- $F(\omega)$ -->
     <g transform="translate(63.78774 295.23875) rotate(-90) scale(0.8 -0.8)">
      <defs>
       <path id="DejaVuSans-Oblique-46" d="M 1081 4666 
L 3756 4666 
L 3653 4134 
L 1606 4134 
L 1338 2759 
L 3188 2759 
L 3084 2228 
L 1234 2228 
L 800 0 
L 172 0 
L 1081 4666 
z
" transform="scale(0.015625)"/>
       <path id="DejaVuSans-28" d="M 1984 4856 
Q 1566 4138 1362 3434 
Q 1159 2731 1159 2009 
Q 1159 1288 1364 580 
Q 1569 -128 1984 -844 
L 1484 -844 
Q 1016 -109 783 600 
Q 550 1309 550 2009 
Q 550 2706 781 3412 
Q 1013 4119 1484 4856 
L 1984 4856 
z
" transform="scale(0.015625)"/>
       <path id="DejaVuSans-29" d="M 513 4856 
L 1013 4856 
Q 1481 4119 1714 3412 
Q 1947 2706 1947 2009 
Q 1947 1309 1714 600 
Q 1481 -109 1013 -844 
L 513 -844 
Q 928 -128 1133 580 
Q 1338 1288 1338 2009 
Q 1338 2731 1133 3434 
Q 928 4138 513 4856 
z
" transform="scale(0.015625)"/>
      </defs>
      <use xlink:href="#DejaVuSans-Oblique-46" transform="translate(0 0.125)"/>
      <use xlink:href="#DejaVuSans-28" transform="translate(57.519531 0.125)"/>
      <use xlink:href="#DejaVuSans-Oblique-3c9" transform="translate(96.533203 0.125)"/>
      <use xlink:href="#DejaVuSans-29" transform="translate(180.273438 0.125)"/>
     </g>
    </g>
   </g>
   <g id="line2d_9">
    <path d="M 238.39215 357.941918 
L 240.402937 358.045996 
L 242.413724 358.357025 
L 244.424512 358.8714 
L 246.435299 359.583157 
L 248.446086 360.484036 
L 250.456873 361.563573 
L 253.473054 363.489848 
L 256.489235 365.738911 
L 259.505415 368.25163 
L 263.52699 371.896546 
L 275.591713 383.170398 
L 278.607894 385.662941 
L 281.624075 387.878865 
L 284.640255 389.754001 
L 286.651042 390.786587 
L 288.66183 391.628054 
L 290.672617 392.265987 
L 292.683404 392.690137 
L 294.694191 392.892557 
L 296.704978 392.867705 
L 298.715766 392.612521 
L 300.726553 392.126485 
L 302.73734 391.411646 
L 304.748127 390.472619 
L 306.758914 389.316557 
L 308.769702 387.953105 
L 310.780489 386.394309 
L 313.79667 383.72183 
L 316.81285 380.700015 
L 320.834425 376.244723 
L 325.861393 370.249084 
L 333.904541 360.607309 
L 337.926116 356.211754 
L 340.942297 353.268559 
L 343.958477 350.715628 
L 345.969265 349.265427 
L 347.980052 348.038312 
L 349.990839 347.050412 
L 352.001626 346.315429 
L 354.012413 345.844445 
L 356.0232 345.645753 
L 358.033988 345.724708 
L 360.044775 346.083605 
L 362.055562 346.721587 
L 364.066349 347.634581 
L 366.077136 348.81526 
L 368.087924 350.253041 
L 370.098711 351.93411 
L 372.109498 353.841478 
L 375.125679 357.082109 
L 378.14186 360.705907 
L 382.163434 365.969412 
L 393.222763 380.888186 
L 396.238944 384.470522 
L 398.249731 386.608792 
L 400.260519 388.499765 
L 402.271306 390.103477 
L 404.282093 391.380892 
L 406.29288 392.29424 
L 408.303667 392.807361 
L 409.309061 392.903057 
L 410.314455 392.88603 
L 411.319848 392.752358 
L 412.325242 392.498276 
L 413.330635 392.12019 
L 414.336029 391.614682 
L 415.341422 390.978521 
L 417.35221 389.302293 
L 419.362997 387.069673 
L 421.373784 384.262284 
L 423.384571 380.865408 
L 425.395358 376.868163 
L 427.406146 372.263647 
L 429.416933 367.04906 
L 431.42772 361.225786 
L 433.438507 354.799446 
L 435.449294 347.779922 
L 438.465475 336.170465 
L 441.481656 323.324424 
L 444.497837 309.327688 
L 447.514017 294.285706 
L 451.535592 272.819928 
L 455.557166 250.055574 
L 461.589528 214.31849 
L 472.648857 148.235739 
L 476.670432 125.492681 
L 480.692006 104.130868 
L 483.708187 89.262038 
L 486.724368 75.558462 
L 489.740548 63.164969 
L 491.751336 55.694881 
L 493.762123 48.898713 
L 495.77291 42.806759 
L 497.783697 37.44548 
L 499.794484 32.837364 
L 501.805272 29.000817 
L 503.816059 25.950081 
L 504.821452 24.722693 
L 505.826846 23.695186 
L 506.832239 22.868155 
L 507.837633 22.241925 
L 508.843027 21.816561 
L 509.84842 21.591864 
L 510.853814 21.567377 
L 511.859207 21.742384 
L 512.864601 22.115912 
L 513.869995 22.686741 
L 514.875388 23.453397 
L 515.880782 24.414166 
L 516.886175 25.567093 
L 517.891569 26.909985 
L 519.902356 30.155762 
L 521.913143 34.129472 
L 523.923931 38.805691 
L 525.934718 44.155811 
L 527.945505 50.148268 
L 529.956292 56.748789 
L 531.967079 63.920655 
L 534.98326 75.664121 
L 537.999441 88.466219 
L 541.015622 102.180644 
L 545.037196 121.623558 
L 550.064164 147.271643 
L 560.1181 200.373739 
L 566.150462 231.627502 
L 571.177429 256.442628 
L 575.199004 275.153435 
L 579.220578 292.641818 
L 582.236759 304.865646 
L 585.25294 316.271605 
L 588.269121 326.826467 
L 591.285301 336.509894 
L 594.301482 345.313873 
L 597.317663 353.241983 
L 600.333844 360.308518 
L 602.344631 364.552379 
L 604.355418 368.433104 
L 606.366205 371.961535 
L 608.376992 375.14991 
L 610.38778 378.011702 
L 612.398567 380.561453 
L 614.409354 382.814614 
L 616.420141 384.787386 
L 618.430928 386.496552 
L 620.441716 387.95933 
L 622.452503 389.193215 
L 624.46329 390.215839 
L 626.474077 391.044825 
L 628.484864 391.697661 
L 631.501045 392.384226 
L 634.517226 392.769596 
L 637.533407 392.907578 
L 640.549587 392.848671 
L 644.571162 392.54388 
L 650.603523 391.796809 
L 663.67364 390.04764 
L 669.706002 389.516111 
L 674.73297 389.276844 
L 680.765331 389.236182 
L 686.797693 389.432889 
L 693.835448 389.886989 
L 705.900171 390.933949 
L 717.964894 391.917738 
L 727.013436 392.442716 
L 736.061979 392.75362 
L 747.121308 392.899117 
L 767.22918 392.873109 
L 799.401775 392.900012 
L 842.6337 392.869875 
L 883.854837 392.798042 
L 897.930347 392.47525 
L 934.124517 391.439211 
L 943.173059 391.506186 
L 952.221601 391.784455 
L 968.307899 392.569668 
L 977.356441 392.881141 
L 983.388803 392.884829 
L 988.415771 392.695471 
L 993.442739 392.283096 
L 998.469707 391.607065 
L 1002.491281 390.853577 
L 1006.512856 389.896916 
L 1010.53443 388.729029 
L 1014.556004 387.347234 
L 1018.577579 385.754694 
L 1022.599153 383.96071 
L 1027.626121 381.459215 
L 1032.653089 378.711445 
L 1038.685451 375.171045 
L 1058.793322 363.102096 
L 1063.82029 360.465032 
L 1067.841865 358.58336 
L 1071.863439 356.945771 
L 1075.885013 355.585528 
L 1078.901194 354.764187 
L 1081.917375 354.123792 
L 1084.933556 353.671444 
L 1087.949737 353.41195 
L 1090.965917 353.347757 
L 1093.982098 353.478924 
L 1096.998279 353.803136 
L 1100.01446 354.315756 
L 1103.03064 355.009917 
L 1107.052215 356.202074 
L 1111.073789 357.674252 
L 1115.095364 359.394601 
L 1120.122332 361.838559 
L 1125.1493 364.535898 
L 1132.187055 368.581202 
L 1147.267959 377.345503 
L 1153.30032 380.550704 
L 1158.327288 382.983459 
L 1163.354256 385.159479 
L 1168.381224 387.054784 
L 1173.408192 388.658238 
L 1178.43516 389.970765 
L 1183.462128 391.00405 
L 1188.489096 391.778832 
L 1193.516064 392.322916 
L 1199.548425 392.717588 
L 1205.580787 392.88871 
L 1213.623936 392.875873 
L 1226.694053 392.579489 
L 1242.78035 392.254323 
L 1242.78035 392.254323 
" clip-path="url(#p93ef378a4e)" style="fill: none; stroke-dasharray: 44.4,19.2; stroke-dashoffset: 0; stroke: #1f77b4; stroke-width: 12"/>
   </g>
   <g id="line2d_10">
    <path d="M 238.39215 392.852212 
L 265.537777 392.760621 
L 271.570139 392.425488 
L 276.597107 391.908183 
L 280.618681 391.2838 
L 284.640255 390.425157 
L 288.66183 389.285118 
L 291.67801 388.215404 
L 294.694191 386.93729 
L 297.710372 385.428212 
L 300.726553 383.665238 
L 303.742734 381.625301 
L 306.758914 379.285438 
L 309.775095 376.623075 
L 312.791276 373.61632 
L 315.807457 370.244286 
L 318.823637 366.487439 
L 321.839818 362.327957 
L 324.855999 357.750107 
L 327.87218 352.740631 
L 330.888361 347.289142 
L 333.904541 341.388515 
L 336.920722 335.035273 
L 339.936903 328.229963 
L 342.953084 320.977513 
L 346.974658 310.629393 
L 350.996232 299.540842 
L 355.017807 287.765451 
L 359.039381 275.37435 
L 364.066349 259.157002 
L 370.098711 238.914776 
L 386.185008 184.307687 
L 391.211976 168.309198 
L 395.233551 156.314547 
L 398.249731 147.914481 
L 401.265912 140.114774 
L 404.282093 132.993946 
L 407.298274 126.627492 
L 409.309061 122.837762 
L 411.319848 119.435114 
L 413.330635 116.438356 
L 415.341422 113.865027 
L 417.35221 111.731263 
L 419.362997 110.051679 
L 421.373784 108.839249 
L 422.379178 108.411796 
L 423.384571 108.105197 
L 424.389965 107.920565 
L 425.395358 107.858891 
L 426.400752 107.921041 
L 427.406146 108.107753 
L 428.411539 108.419638 
L 429.416933 108.857172 
L 431.42772 110.110426 
L 433.438507 111.868624 
L 435.449294 114.130652 
L 437.460082 116.893132 
L 439.470869 120.150397 
L 441.481656 123.894478 
L 443.492443 128.115106 
L 445.50323 132.799726 
L 447.514017 137.933528 
L 450.530198 146.438623 
L 453.546379 155.849127 
L 456.56256 166.0883 
L 459.578741 177.069852 
L 463.600315 192.701523 
L 467.621889 209.237784 
L 473.654251 235.155862 
L 485.718974 287.512914 
L 490.745942 308.100164 
L 494.767516 323.52985 
L 497.783697 334.341529 
L 500.799878 344.403493 
L 503.816059 353.638727 
L 506.832239 361.981454 
L 508.843027 367.020399 
L 510.853814 371.625765 
L 512.864601 375.787359 
L 514.875388 379.497632 
L 516.886175 382.751703 
L 518.896963 385.547383 
L 520.90775 387.885161 
L 522.918537 389.76819 
L 524.929324 391.202241 
L 526.940111 392.195645 
L 528.950899 392.759219 
L 530.961686 392.906171 
L 532.972473 392.651994 
L 534.98326 392.014336 
L 536.994047 391.012865 
L 539.004834 389.669117 
L 541.015622 388.006327 
L 543.026409 386.049258 
L 545.037196 383.824011 
L 548.053377 380.043183 
L 551.069558 375.816236 
L 555.091132 369.657667 
L 560.1181 361.454925 
L 568.161249 348.240635 
L 572.182823 342.056821 
L 575.199004 337.764811 
L 578.215185 333.848346 
L 581.231365 330.368898 
L 583.242153 328.31801 
L 585.25294 326.497344 
L 587.263727 324.917606 
L 589.274514 323.587382 
L 591.285301 322.513118 
L 593.296089 321.699128 
L 595.306876 321.147608 
L 597.317663 320.85867 
L 599.32845 320.830401 
L 601.339237 321.058921 
L 603.350024 321.538471 
L 605.360812 322.261506 
L 607.371599 323.218805 
L 609.382386 324.399588 
L 611.393173 325.791649 
L 613.40396 327.381497 
L 616.420141 330.104835 
L 619.436322 333.186664 
L 622.452503 336.569835 
L 626.474077 341.446118 
L 631.501045 347.925355 
L 643.565768 363.663898 
L 647.587343 368.536206 
L 651.608917 373.054759 
L 654.625098 376.167579 
L 657.641279 379.018058 
L 660.657459 381.590372 
L 663.67364 383.875379 
L 666.689821 385.870411 
L 669.706002 387.578928 
L 672.722182 389.010042 
L 675.738363 390.177935 
L 678.754544 391.101175 
L 681.770725 391.801959 
L 684.786906 392.3053 
L 688.80848 392.716097 
L 692.830054 392.890588 
L 697.857022 392.877474 
L 706.905565 392.561712 
L 715.954107 392.312548 
L 722.991862 392.337874 
L 732.040404 392.619901 
L 742.09434 392.906346 
L 747.121308 392.843881 
L 751.142883 392.613167 
L 755.164457 392.175318 
L 759.186031 391.493904 
L 763.207606 390.54129 
L 767.22918 389.30081 
L 771.250755 387.768424 
L 775.272329 385.953799 
L 779.293903 383.880739 
L 784.320871 380.984667 
L 790.353233 377.20054 
L 802.417956 369.526975 
L 806.43953 367.229533 
L 810.461105 365.197046 
L 813.477286 363.891679 
L 816.493466 362.805738 
L 819.509647 361.963981 
L 822.525828 361.386971 
L 825.542009 361.09049 
L 828.558189 361.085066 
L 831.57437 361.375599 
L 834.590551 361.961108 
L 837.606732 362.834611 
L 840.622913 363.983128 
L 843.639093 365.387823 
L 846.655274 367.024277 
L 850.676848 369.514867 
L 854.698423 372.281478 
L 860.730784 376.738973 
L 868.773933 382.699351 
L 872.795508 385.440335 
L 876.817082 387.880528 
L 879.833263 389.454851 
L 882.849443 390.769082 
L 885.865624 391.791385 
L 888.881805 392.495176 
L 890.892592 392.776913 
L 892.903379 392.90312 
L 894.914167 392.870474 
L 896.924954 392.676978 
L 898.935741 392.321984 
L 900.946528 391.806204 
L 902.957315 391.131709 
L 905.973496 389.830213 
L 908.989677 388.196666 
L 912.005858 386.254491 
L 915.022038 384.033038 
L 918.038219 381.567033 
L 922.059794 377.967354 
L 927.086762 373.114996 
L 940.156878 360.215168 
L 944.178453 356.61977 
L 947.194633 354.158495 
L 950.210814 351.943519 
L 953.226995 350.010157 
L 956.243176 348.388574 
L 959.259357 347.103286 
L 961.270144 346.442636 
L 963.280931 345.943714 
L 965.291718 345.609174 
L 967.302505 345.440394 
L 969.313293 345.437476 
L 971.32408 345.599261 
L 973.334867 345.923354 
L 975.345654 346.406158 
L 978.361835 347.417249 
L 981.378016 348.753877 
L 984.394196 350.390378 
L 987.410377 352.29663 
L 990.426558 354.438732 
L 994.448132 357.597546 
L 999.4751 361.900173 
L 1017.572185 377.861186 
L 1021.593759 380.971078 
L 1025.615334 383.7733 
L 1028.631515 385.645778 
L 1031.647695 387.306632 
L 1034.663876 388.747393 
L 1037.680057 389.964353 
L 1040.696238 390.958427 
L 1043.712418 391.734918 
L 1046.728599 392.303203 
L 1049.74478 392.676326 
L 1052.760961 392.870536 
L 1056.782535 392.884206 
L 1060.80411 392.664166 
L 1065.831078 392.143927 
L 1072.868833 391.154254 
L 1083.928162 389.596477 
L 1089.960524 389.007811 
L 1094.987492 388.740747 
L 1100.01446 388.698388 
L 1105.041428 388.876784 
L 1111.073789 389.34605 
L 1118.111544 390.147368 
L 1135.203235 392.249152 
L 1141.235597 392.712678 
L 1146.262565 392.894942 
L 1151.289533 392.868835 
L 1156.316501 392.631386 
L 1162.348863 392.089473 
L 1168.381224 391.32175 
L 1178.43516 389.776136 
L 1187.483702 388.444886 
L 1193.516064 387.767847 
L 1198.543032 387.403766 
L 1203.57 387.256276 
L 1208.596968 387.340503 
L 1213.623936 387.653338 
L 1218.650904 388.173136 
L 1224.683265 389.013825 
L 1236.747988 391.010191 
L 1242.78035 391.91556 
L 1242.78035 391.91556 
" clip-path="url(#p93ef378a4e)" style="fill: none; stroke: #1f77b4; stroke-width: 12; stroke-linecap: square"/>
   </g>
   <g id="patch_3">
    <path d="M 188.17274 411.47726 
L 188.17274 3.00024 
" style="fill: none; stroke: #000000; stroke-width: 12; stroke-linejoin: miter; stroke-linecap: square"/>
   </g>
   <g id="patch_4">
    <path d="M 1292.99976 411.47726 
L 1292.99976 3.00024 
" style="fill: none; stroke: #000000; stroke-width: 12; stroke-linejoin: miter; stroke-linecap: square"/>
   </g>
   <g id="patch_5">
    <path d="M 188.17274 411.47726 
L 1292.99976 411.47726 
" style="fill: none; stroke: #000000; stroke-width: 12; stroke-linejoin: miter; stroke-linecap: square"/>
   </g>
   <g id="patch_6">
    <path d="M 188.17274 3.00024 
L 1292.99976 3.00024 
" style="fill: none; stroke: #000000; stroke-width: 12; stroke-linejoin: miter; stroke-linecap: square"/>
   </g>
   <g id="legend_1">
    <g id="patch_7">
     <path d="M 616.84976 307.02524 
L 1236.99976 307.02524 
Q 1252.99976 307.02524 1252.99976 291.02524 
L 1252.99976 59.00024 
Q 1252.99976 43.00024 1236.99976 43.00024 
L 616.84976 43.00024 
Q 600.84976 43.00024 600.84976 59.00024 
L 600.84976 291.02524 
Q 600.84976 307.02524 616.84976 307.02524 
z
" style="fill: #ffffff; opacity: 0.8; stroke: #cccccc; stroke-linejoin: miter"/>
    </g>
    <g id="line2d_11">
     <path d="M 632.84976 107.78774 
L 712.84976 107.78774 
L 792.84976 107.78774 
" style="fill: none; stroke-dasharray: 44.4,19.2; stroke-dashoffset: 0; stroke: #1f77b4; stroke-width: 12"/>
    </g>
    <g id="text_11">
     <!-- Old Filter -->
     <g transform="translate(856.84976 135.78774) scale(0.8 -0.8)">
      <defs>
       <path id="DroidSans-4f" d="M 4353 2291 
Q 4353 1763 4226 1328 
Q 4100 894 3850 584 
Q 3600 275 3229 106 
Q 2859 -63 2375 -63 
Q 1866 -63 1492 106 
Q 1119 275 873 584 
Q 628 894 509 1330 
Q 391 1766 391 2297 
Q 391 2828 509 3261 
Q 628 3694 875 4000 
Q 1122 4306 1497 4473 
Q 1872 4641 2381 4641 
Q 2866 4641 3233 4473 
Q 3600 4306 3850 3998 
Q 4100 3691 4226 3258 
Q 4353 2825 4353 2291 
z
M 1006 2291 
Q 1006 1863 1087 1520 
Q 1169 1178 1336 939 
Q 1503 700 1761 573 
Q 2019 447 2375 447 
Q 2731 447 2989 573 
Q 3247 700 3414 939 
Q 3581 1178 3659 1520 
Q 3738 1863 3738 2291 
Q 3738 2722 3659 3062 
Q 3581 3403 3415 3639 
Q 3250 3875 2994 4001 
Q 2738 4128 2381 4128 
Q 2025 4128 1765 4001 
Q 1506 3875 1337 3639 
Q 1169 3403 1087 3062 
Q 1006 2722 1006 2291 
z
" transform="scale(0.015625)"/>
       <path id="DroidSans-6c" d="M 1113 0 
L 544 0 
L 544 4863 
L 1113 4863 
L 1113 0 
z
" transform="scale(0.015625)"/>
       <path id="DroidSans-64" d="M 2663 459 
L 2638 459 
Q 2569 353 2476 258 
Q 2384 163 2264 91 
Q 2144 19 1994 -22 
Q 1844 -63 1656 -63 
Q 1366 -63 1125 50 
Q 884 163 712 386 
Q 541 609 447 940 
Q 353 1272 353 1709 
Q 353 2150 447 2483 
Q 541 2816 712 3041 
Q 884 3266 1125 3380 
Q 1366 3494 1656 3494 
Q 1841 3494 1991 3453 
Q 2141 3413 2261 3344 
Q 2381 3275 2475 3184 
Q 2569 3094 2638 2994 
L 2675 2994 
Q 2666 3100 2656 3197 
Q 2650 3278 2644 3364 
Q 2638 3450 2638 3500 
L 2638 4863 
L 3206 4863 
L 3206 0 
L 2747 0 
L 2663 459 
z
M 1766 409 
Q 2003 409 2167 481 
Q 2331 553 2432 700 
Q 2534 847 2582 1067 
Q 2631 1288 2638 1581 
L 2638 1709 
Q 2638 2025 2595 2270 
Q 2553 2516 2451 2683 
Q 2350 2850 2181 2936 
Q 2013 3022 1759 3022 
Q 1338 3022 1139 2681 
Q 941 2341 941 1703 
Q 941 1050 1139 729 
Q 1338 409 1766 409 
z
" transform="scale(0.015625)"/>
       <path id="DroidSans-20" transform="scale(0.015625)"/>
       <path id="DroidSans-46" d="M 1203 0 
L 622 0 
L 622 4569 
L 2994 4569 
L 2994 4056 
L 1203 4056 
L 1203 2444 
L 2875 2444 
L 2875 1931 
L 1203 1931 
L 1203 0 
z
" transform="scale(0.015625)"/>
       <path id="DroidSans-69" d="M 1113 0 
L 544 0 
L 544 3431 
L 1113 3431 
L 1113 0 
z
M 500 4359 
Q 500 4547 595 4631 
Q 691 4716 831 4716 
Q 900 4716 961 4695 
Q 1022 4675 1067 4631 
Q 1113 4588 1139 4520 
Q 1166 4453 1166 4359 
Q 1166 4178 1067 4089 
Q 969 4000 831 4000 
Q 691 4000 595 4087 
Q 500 4175 500 4359 
z
" transform="scale(0.015625)"/>
       <path id="DroidSans-74" d="M 1581 403 
Q 1638 403 1708 409 
Q 1778 416 1843 425 
Q 1909 434 1964 446 
Q 2019 459 2047 469 
L 2047 38 
Q 2006 19 1943 0 
Q 1881 -19 1806 -33 
Q 1731 -47 1650 -55 
Q 1569 -63 1491 -63 
Q 1297 -63 1131 -12 
Q 966 38 845 159 
Q 725 281 656 489 
Q 588 697 588 1013 
L 588 3003 
L 103 3003 
L 103 3256 
L 588 3500 
L 831 4219 
L 1159 4219 
L 1159 3431 
L 2022 3431 
L 2022 3003 
L 1159 3003 
L 1159 1013 
Q 1159 709 1257 556 
Q 1356 403 1581 403 
z
" transform="scale(0.015625)"/>
       <path id="DroidSans-65" d="M 1900 -63 
Q 1556 -63 1272 53 
Q 988 169 783 391 
Q 578 613 465 941 
Q 353 1269 353 1691 
Q 353 2116 456 2450 
Q 559 2784 746 3017 
Q 934 3250 1195 3372 
Q 1456 3494 1772 3494 
Q 2081 3494 2328 3383 
Q 2575 3272 2747 3070 
Q 2919 2869 3011 2586 
Q 3103 2303 3103 1959 
L 3103 1606 
L 941 1606 
Q 956 1003 1195 718 
Q 1434 434 1906 434 
Q 2066 434 2202 450 
Q 2338 466 2464 495 
Q 2591 525 2709 570 
Q 2828 616 2950 672 
L 2950 166 
Q 2825 106 2704 62 
Q 2584 19 2457 -9 
Q 2331 -38 2195 -50 
Q 2059 -63 1900 -63 
z
M 1759 3022 
Q 1403 3022 1195 2778 
Q 988 2534 953 2069 
L 2491 2069 
Q 2491 2281 2448 2457 
Q 2406 2634 2317 2759 
Q 2228 2884 2090 2953 
Q 1953 3022 1759 3022 
z
" transform="scale(0.015625)"/>
       <path id="DroidSans-72" d="M 2028 3494 
Q 2119 3494 2231 3486 
Q 2344 3478 2425 3463 
L 2350 2938 
Q 2263 2953 2170 2964 
Q 2078 2975 1997 2975 
Q 1800 2975 1637 2895 
Q 1475 2816 1358 2667 
Q 1241 2519 1177 2311 
Q 1113 2103 1113 1850 
L 1113 0 
L 544 0 
L 544 3431 
L 1006 3431 
L 1075 2803 
L 1100 2803 
Q 1178 2938 1267 3063 
Q 1356 3188 1467 3283 
Q 1578 3378 1715 3436 
Q 1853 3494 2028 3494 
z
" transform="scale(0.015625)"/>
      </defs>
      <use xlink:href="#DroidSans-4f"/>
      <use xlink:href="#DroidSans-6c" x="74.21875"/>
      <use xlink:href="#DroidSans-64" x="100.097656"/>
      <use xlink:href="#DroidSans-20" x="158.691406"/>
      <use xlink:href="#DroidSans-46" x="184.667969"/>
      <use xlink:href="#DroidSans-69" x="233.789062"/>
      <use xlink:href="#DroidSans-6c" x="259.667969"/>
      <use xlink:href="#DroidSans-74" x="285.546875"/>
      <use xlink:href="#DroidSans-65" x="319.433594"/>
      <use xlink:href="#DroidSans-72" x="372.949219"/>
     </g>
    </g>
    <g id="line2d_12">
     <path d="M 632.84976 227.80024 
L 712.84976 227.80024 
L 792.84976 227.80024 
" style="fill: none; stroke: #1f77b4; stroke-width: 12; stroke-linecap: square"/>
    </g>
    <g id="text_12">
     <!-- New Filter -->
     <g transform="translate(856.84976 255.80024) scale(0.8 -0.8)">
      <defs>
       <path id="DroidSans-4e" d="M 4044 0 
L 3372 0 
L 1125 3781 
L 1100 3781 
Q 1119 3541 1131 3303 
Q 1144 3100 1151 2878 
Q 1159 2656 1159 2478 
L 1159 0 
L 622 0 
L 622 4569 
L 1288 4569 
L 3525 806 
L 3547 806 
Q 3538 1044 3525 1275 
Q 3522 1375 3517 1479 
Q 3513 1584 3508 1689 
Q 3503 1794 3501 1891 
Q 3500 1988 3500 2069 
L 3500 4569 
L 4044 4569 
L 4044 0 
z
" transform="scale(0.015625)"/>
       <path id="DroidSans-77" d="M 3150 0 
L 2625 1925 
Q 2613 1981 2594 2051 
Q 2575 2122 2556 2200 
Q 2538 2278 2517 2359 
Q 2497 2441 2478 2519 
Q 2434 2700 2388 2894 
L 2369 2894 
Q 2325 2697 2284 2516 
Q 2250 2359 2211 2193 
Q 2172 2028 2138 1913 
L 1600 0 
L 941 0 
L 63 3431 
L 659 3431 
L 1069 1606 
Q 1100 1466 1131 1302 
Q 1163 1138 1191 977 
Q 1219 816 1241 673 
Q 1263 531 1275 441 
L 1294 441 
Q 1309 522 1336 658 
Q 1363 794 1395 945 
Q 1428 1097 1462 1245 
Q 1497 1394 1528 1497 
L 2088 3431 
L 2700 3431 
L 3238 1497 
Q 3266 1391 3302 1247 
Q 3338 1103 3372 954 
Q 3406 806 3434 668 
Q 3463 531 3475 441 
L 3494 441 
Q 3503 522 3523 658 
Q 3544 794 3572 956 
Q 3600 1119 3633 1289 
Q 3666 1459 3700 1606 
L 4128 3431 
L 4709 3431 
L 3822 0 
L 3150 0 
z
" transform="scale(0.015625)"/>
      </defs>
      <use xlink:href="#DroidSans-4e"/>
      <use xlink:href="#DroidSans-65" x="72.900391"/>
      <use xlink:href="#DroidSans-77" x="126.416016"/>
      <use xlink:href="#DroidSans-20" x="201.025391"/>
      <use xlink:href="#DroidSans-46" x="227.001953"/>
      <use xlink:href="#DroidSans-69" x="276.123047"/>
      <use xlink:href="#DroidSans-6c" x="302.001953"/>
      <use xlink:href="#DroidSans-74" x="327.880859"/>
      <use xlink:href="#DroidSans-65" x="361.767578"/>
      <use xlink:href="#DroidSans-72" x="415.283203"/>
     </g>
    </g>
   </g>
  </g>
 </g>
 <defs>
  <clipPath id="p93ef378a4e">
   <rect x="188.17274" y="3.00024" width="1104.82702" height="408.47702"/>
  </clipPath>
 </defs>
</svg>
