<?xml version="1.0" encoding="utf-8" standalone="no"?>
<!DOCTYPE svg PUBLIC "-//W3C//DTD SVG 1.1//EN"
  "http://www.w3.org/Graphics/SVG/1.1/DTD/svg11.dtd">
<svg xmlns:xlink="http://www.w3.org/1999/xlink" width="1152pt" height="288pt" viewBox="0 0 1152 288" xmlns="http://www.w3.org/2000/svg" version="1.1">
 <metadata>
  <rdf:RDF xmlns:dc="http://purl.org/dc/elements/1.1/" xmlns:cc="http://creativecommons.org/ns#" xmlns:rdf="http://www.w3.org/1999/02/22-rdf-syntax-ns#">
   <cc:Work>
    <dc:type rdf:resource="http://purl.org/dc/dcmitype/StillImage"/>
    <dc:date>2025-04-25T14:30:06.003160</dc:date>
    <dc:format>image/svg+xml</dc:format>
    <dc:creator>
     <cc:Agent>
      <dc:title>Matplotlib v3.6.3, https://matplotlib.org/</dc:title>
     </cc:Agent>
    </dc:creator>
   </cc:Work>
  </rdf:RDF>
 </metadata>
 <defs>
  <style type="text/css">*{stroke-linejoin: round; stroke-linecap: butt}</style>
 </defs>
 <g id="figure_1">
  <g id="patch_1">
   <path d="M 0 288 
L 1152 288 
L 1152 0 
L 0 0 
z
" style="fill: #ffffff"/>
  </g>
  <g id="axes_1">
   <g id="patch_2">
    <path d="M 70.925845 226.49226 
L 252.06349 226.49226 
L 252.06349 45.354615 
L 70.925845 45.354615 
z
" style="fill: #ffffff"/>
   </g>
   <g id="matplotlib.axis_1">
    <g id="xtick_1">
     <g id="line2d_1">
      <defs>
       <path id="mc605b22ead" d="M 0 0 
L 0 7 
" style="stroke: #000000; stroke-width: 2"/>
      </defs>
      <g>
       <use xlink:href="#mc605b22ead" x="79.159374" y="226.49226" style="stroke: #000000; stroke-width: 2"/>
      </g>
     </g>
     <g id="text_1">
      <!-- 0 -->
      <g transform="translate(72.549999 255.22851) scale(0.24 -0.24)">
       <defs>
        <path id="DroidSans-30" d="M 3225 2291 
Q 3225 1738 3145 1300 
Q 3066 863 2889 559 
Q 2713 256 2434 96 
Q 2156 -63 1759 -63 
Q 1391 -63 1117 96 
Q 844 256 664 559 
Q 484 863 395 1300 
Q 306 1738 306 2291 
Q 306 2844 386 3281 
Q 466 3719 639 4020 
Q 813 4322 1089 4481 
Q 1366 4641 1759 4641 
Q 2131 4641 2406 4483 
Q 2681 4325 2862 4023 
Q 3044 3722 3134 3284 
Q 3225 2847 3225 2291 
z
M 884 2291 
Q 884 1822 931 1472 
Q 978 1122 1081 889 
Q 1184 656 1351 539 
Q 1519 422 1759 422 
Q 2000 422 2169 537 
Q 2338 653 2445 884 
Q 2553 1116 2601 1467 
Q 2650 1819 2650 2291 
Q 2650 2759 2601 3109 
Q 2553 3459 2445 3690 
Q 2338 3922 2169 4037 
Q 2000 4153 1759 4153 
Q 1519 4153 1351 4037 
Q 1184 3922 1081 3690 
Q 978 3459 931 3109 
Q 884 2759 884 2291 
z
" transform="scale(0.015625)"/>
       </defs>
       <use xlink:href="#DroidSans-30"/>
      </g>
     </g>
    </g>
    <g id="xtick_2">
     <g id="line2d_2">
      <g>
       <use xlink:href="#mc605b22ead" x="243.82996" y="226.49226" style="stroke: #000000; stroke-width: 2"/>
      </g>
     </g>
     <g id="text_2">
      <!-- T -->
      <g transform="translate(237.60121 255.22851) scale(0.24 -0.24)">
       <defs>
        <path id="DroidSans-54" d="M 1953 0 
L 1369 0 
L 1369 4056 
L 63 4056 
L 63 4569 
L 3256 4569 
L 3256 4056 
L 1953 4056 
L 1953 0 
z
" transform="scale(0.015625)"/>
       </defs>
       <use xlink:href="#DroidSans-54"/>
      </g>
     </g>
    </g>
    <g id="text_3">
     <!-- Old Times -->
     <g transform="translate(107.412167 279.23226) scale(0.24 -0.24)">
      <defs>
       <path id="DroidSans-4f" d="M 4353 2291 
Q 4353 1763 4226 1328 
Q 4100 894 3850 584 
Q 3600 275 3229 106 
Q 2859 -63 2375 -63 
Q 1866 -63 1492 106 
Q 1119 275 873 584 
Q 628 894 509 1330 
Q 391 1766 391 2297 
Q 391 2828 509 3261 
Q 628 3694 875 4000 
Q 1122 4306 1497 4473 
Q 1872 4641 2381 4641 
Q 2866 4641 3233 4473 
Q 3600 4306 3850 3998 
Q 4100 3691 4226 3258 
Q 4353 2825 4353 2291 
z
M 1006 2291 
Q 1006 1863 1087 1520 
Q 1169 1178 1336 939 
Q 1503 700 1761 573 
Q 2019 447 2375 447 
Q 2731 447 2989 573 
Q 3247 700 3414 939 
Q 3581 1178 3659 1520 
Q 3738 1863 3738 2291 
Q 3738 2722 3659 3062 
Q 3581 3403 3415 3639 
Q 3250 3875 2994 4001 
Q 2738 4128 2381 4128 
Q 2025 4128 1765 4001 
Q 1506 3875 1337 3639 
Q 1169 3403 1087 3062 
Q 1006 2722 1006 2291 
z
" transform="scale(0.015625)"/>
       <path id="DroidSans-6c" d="M 1113 0 
L 544 0 
L 544 4863 
L 1113 4863 
L 1113 0 
z
" transform="scale(0.015625)"/>
       <path id="DroidSans-64" d="M 2663 459 
L 2638 459 
Q 2569 353 2476 258 
Q 2384 163 2264 91 
Q 2144 19 1994 -22 
Q 1844 -63 1656 -63 
Q 1366 -63 1125 50 
Q 884 163 712 386 
Q 541 609 447 940 
Q 353 1272 353 1709 
Q 353 2150 447 2483 
Q 541 2816 712 3041 
Q 884 3266 1125 3380 
Q 1366 3494 1656 3494 
Q 1841 3494 1991 3453 
Q 2141 3413 2261 3344 
Q 2381 3275 2475 3184 
Q 2569 3094 2638 2994 
L 2675 2994 
Q 2666 3100 2656 3197 
Q 2650 3278 2644 3364 
Q 2638 3450 2638 3500 
L 2638 4863 
L 3206 4863 
L 3206 0 
L 2747 0 
L 2663 459 
z
M 1766 409 
Q 2003 409 2167 481 
Q 2331 553 2432 700 
Q 2534 847 2582 1067 
Q 2631 1288 2638 1581 
L 2638 1709 
Q 2638 2025 2595 2270 
Q 2553 2516 2451 2683 
Q 2350 2850 2181 2936 
Q 2013 3022 1759 3022 
Q 1338 3022 1139 2681 
Q 941 2341 941 1703 
Q 941 1050 1139 729 
Q 1338 409 1766 409 
z
" transform="scale(0.015625)"/>
       <path id="DroidSans-20" transform="scale(0.015625)"/>
       <path id="DroidSans-69" d="M 1113 0 
L 544 0 
L 544 3431 
L 1113 3431 
L 1113 0 
z
M 500 4359 
Q 500 4547 595 4631 
Q 691 4716 831 4716 
Q 900 4716 961 4695 
Q 1022 4675 1067 4631 
Q 1113 4588 1139 4520 
Q 1166 4453 1166 4359 
Q 1166 4178 1067 4089 
Q 969 4000 831 4000 
Q 691 4000 595 4087 
Q 500 4175 500 4359 
z
" transform="scale(0.015625)"/>
       <path id="DroidSans-6d" d="M 4653 0 
L 4653 2209 
Q 4653 2616 4497 2819 
Q 4341 3022 4013 3022 
Q 3784 3022 3625 2948 
Q 3466 2875 3364 2733 
Q 3263 2591 3216 2380 
Q 3169 2169 3169 1894 
L 3169 0 
L 2597 0 
L 2597 2209 
Q 2597 2616 2442 2819 
Q 2288 3022 1959 3022 
Q 1719 3022 1556 2940 
Q 1394 2859 1295 2700 
Q 1197 2541 1155 2309 
Q 1113 2078 1113 1778 
L 1113 0 
L 544 0 
L 544 3431 
L 1006 3431 
L 1088 2969 
L 1119 2969 
Q 1194 3103 1297 3201 
Q 1400 3300 1523 3365 
Q 1647 3431 1786 3462 
Q 1925 3494 2069 3494 
Q 2444 3494 2692 3356 
Q 2941 3219 3059 2925 
L 3084 2925 
Q 3166 3072 3280 3178 
Q 3394 3284 3530 3354 
Q 3666 3425 3816 3459 
Q 3966 3494 4122 3494 
Q 4669 3494 4945 3195 
Q 5222 2897 5222 2241 
L 5222 0 
L 4653 0 
z
" transform="scale(0.015625)"/>
       <path id="DroidSans-65" d="M 1900 -63 
Q 1556 -63 1272 53 
Q 988 169 783 391 
Q 578 613 465 941 
Q 353 1269 353 1691 
Q 353 2116 456 2450 
Q 559 2784 746 3017 
Q 934 3250 1195 3372 
Q 1456 3494 1772 3494 
Q 2081 3494 2328 3383 
Q 2575 3272 2747 3070 
Q 2919 2869 3011 2586 
Q 3103 2303 3103 1959 
L 3103 1606 
L 941 1606 
Q 956 1003 1195 718 
Q 1434 434 1906 434 
Q 2066 434 2202 450 
Q 2338 466 2464 495 
Q 2591 525 2709 570 
Q 2828 616 2950 672 
L 2950 166 
Q 2825 106 2704 62 
Q 2584 19 2457 -9 
Q 2331 -38 2195 -50 
Q 2059 -63 1900 -63 
z
M 1759 3022 
Q 1403 3022 1195 2778 
Q 988 2534 953 2069 
L 2491 2069 
Q 2491 2281 2448 2457 
Q 2406 2634 2317 2759 
Q 2228 2884 2090 2953 
Q 1953 3022 1759 3022 
z
" transform="scale(0.015625)"/>
       <path id="DroidSans-73" d="M 2597 941 
Q 2597 691 2506 503 
Q 2416 316 2245 189 
Q 2075 63 1834 0 
Q 1594 -63 1294 -63 
Q 953 -63 709 -8 
Q 466 47 281 153 
L 281 672 
Q 378 622 497 573 
Q 616 525 747 487 
Q 878 450 1017 426 
Q 1156 403 1294 403 
Q 1497 403 1639 437 
Q 1781 472 1870 536 
Q 1959 600 2000 692 
Q 2041 784 2041 897 
Q 2041 994 2009 1072 
Q 1978 1150 1895 1226 
Q 1813 1303 1669 1381 
Q 1525 1459 1300 1556 
Q 1075 1653 895 1747 
Q 716 1841 591 1956 
Q 466 2072 398 2223 
Q 331 2375 331 2584 
Q 331 2803 417 2973 
Q 503 3144 659 3259 
Q 816 3375 1034 3434 
Q 1253 3494 1522 3494 
Q 1825 3494 2076 3428 
Q 2328 3363 2553 3256 
L 2356 2797 
Q 2153 2888 1939 2955 
Q 1725 3022 1503 3022 
Q 1184 3022 1031 2917 
Q 878 2813 878 2619 
Q 878 2509 914 2428 
Q 950 2347 1037 2275 
Q 1125 2203 1272 2129 
Q 1419 2056 1638 1966 
Q 1863 1872 2039 1778 
Q 2216 1684 2341 1567 
Q 2466 1450 2531 1300 
Q 2597 1150 2597 941 
z
" transform="scale(0.015625)"/>
      </defs>
      <use xlink:href="#DroidSans-4f"/>
      <use xlink:href="#DroidSans-6c" x="74.21875"/>
      <use xlink:href="#DroidSans-64" x="100.097656"/>
      <use xlink:href="#DroidSans-20" x="158.691406"/>
      <use xlink:href="#DroidSans-54" x="184.667969"/>
      <use xlink:href="#DroidSans-69" x="236.572266"/>
      <use xlink:href="#DroidSans-6d" x="262.451172"/>
      <use xlink:href="#DroidSans-65" x="352.050781"/>
      <use xlink:href="#DroidSans-73" x="405.566406"/>
     </g>
    </g>
   </g>
   <g id="matplotlib.axis_2">
    <g id="ytick_1">
     <g id="line2d_3">
      <defs>
       <path id="m2fecd11a2a" d="M 0 0 
L -7 0 
" style="stroke: #000000; stroke-width: 2"/>
      </defs>
      <g>
       <use xlink:href="#m2fecd11a2a" x="70.925845" y="218.258731" style="stroke: #000000; stroke-width: 2"/>
      </g>
     </g>
     <g id="text_4">
      <!-- 0 -->
      <g transform="translate(47.207095 227.376856) scale(0.24 -0.24)">
       <use xlink:href="#DroidSans-30"/>
      </g>
     </g>
    </g>
    <g id="ytick_2">
     <g id="line2d_4">
      <g>
       <use xlink:href="#m2fecd11a2a" x="70.925845" y="53.588144" style="stroke: #000000; stroke-width: 2"/>
      </g>
     </g>
     <g id="text_5">
      <!-- T -->
      <g transform="translate(47.968345 62.706269) scale(0.24 -0.24)">
       <use xlink:href="#DroidSans-54"/>
      </g>
     </g>
    </g>
    <g id="text_6">
     <!-- New Times -->
     <g transform="translate(41.439595 195.087187) rotate(-90) scale(0.24 -0.24)">
      <defs>
       <path id="DroidSans-4e" d="M 4044 0 
L 3372 0 
L 1125 3781 
L 1100 3781 
Q 1119 3541 1131 3303 
Q 1144 3100 1151 2878 
Q 1159 2656 1159 2478 
L 1159 0 
L 622 0 
L 622 4569 
L 1288 4569 
L 3525 806 
L 3547 806 
Q 3538 1044 3525 1275 
Q 3522 1375 3517 1479 
Q 3513 1584 3508 1689 
Q 3503 1794 3501 1891 
Q 3500 1988 3500 2069 
L 3500 4569 
L 4044 4569 
L 4044 0 
z
" transform="scale(0.015625)"/>
       <path id="DroidSans-77" d="M 3150 0 
L 2625 1925 
Q 2613 1981 2594 2051 
Q 2575 2122 2556 2200 
Q 2538 2278 2517 2359 
Q 2497 2441 2478 2519 
Q 2434 2700 2388 2894 
L 2369 2894 
Q 2325 2697 2284 2516 
Q 2250 2359 2211 2193 
Q 2172 2028 2138 1913 
L 1600 0 
L 941 0 
L 63 3431 
L 659 3431 
L 1069 1606 
Q 1100 1466 1131 1302 
Q 1163 1138 1191 977 
Q 1219 816 1241 673 
Q 1263 531 1275 441 
L 1294 441 
Q 1309 522 1336 658 
Q 1363 794 1395 945 
Q 1428 1097 1462 1245 
Q 1497 1394 1528 1497 
L 2088 3431 
L 2700 3431 
L 3238 1497 
Q 3266 1391 3302 1247 
Q 3338 1103 3372 954 
Q 3406 806 3434 668 
Q 3463 531 3475 441 
L 3494 441 
Q 3503 522 3523 658 
Q 3544 794 3572 956 
Q 3600 1119 3633 1289 
Q 3666 1459 3700 1606 
L 4128 3431 
L 4709 3431 
L 3822 0 
L 3150 0 
z
" transform="scale(0.015625)"/>
      </defs>
      <use xlink:href="#DroidSans-4e"/>
      <use xlink:href="#DroidSans-65" x="72.900391"/>
      <use xlink:href="#DroidSans-77" x="126.416016"/>
      <use xlink:href="#DroidSans-20" x="201.025391"/>
      <use xlink:href="#DroidSans-54" x="227.001953"/>
      <use xlink:href="#DroidSans-69" x="278.90625"/>
      <use xlink:href="#DroidSans-6d" x="304.785156"/>
      <use xlink:href="#DroidSans-65" x="394.384766"/>
      <use xlink:href="#DroidSans-73" x="447.900391"/>
     </g>
    </g>
   </g>
   <g id="LineCollection_1">
    <path d="M 112.093491 218.258731 
L 112.093491 154.515196 
" clip-path="url(#p84d33de5a2)" style="fill: none; stroke-dasharray: 11.1,4.8; stroke-dashoffset: 0; stroke: #1f77b4; stroke-width: 3"/>
    <path d="M 145.027608 218.258731 
L 145.027608 102.539812 
" clip-path="url(#p84d33de5a2)" style="fill: none; stroke-dasharray: 11.1,4.8; stroke-dashoffset: 0; stroke: #1f77b4; stroke-width: 3"/>
    <path d="M 177.961726 218.258731 
L 177.961726 69.605695 
" clip-path="url(#p84d33de5a2)" style="fill: none; stroke-dasharray: 11.1,4.8; stroke-dashoffset: 0; stroke: #1f77b4; stroke-width: 3"/>
    <path d="M 210.895843 218.258731 
L 210.895843 55.712845 
" clip-path="url(#p84d33de5a2)" style="fill: none; stroke-dasharray: 11.1,4.8; stroke-dashoffset: 0; stroke: #1f77b4; stroke-width: 3"/>
   </g>
   <g id="LineCollection_2">
    <path d="M 79.159374 154.515196 
L 112.093491 154.515196 
" clip-path="url(#p84d33de5a2)" style="fill: none; stroke: #1f77b4; stroke-width: 3"/>
    <path d="M 79.159374 102.539812 
L 145.027608 102.539812 
" clip-path="url(#p84d33de5a2)" style="fill: none; stroke: #1f77b4; stroke-width: 3"/>
    <path d="M 79.159374 69.605695 
L 177.961726 69.605695 
" clip-path="url(#p84d33de5a2)" style="fill: none; stroke: #1f77b4; stroke-width: 3"/>
    <path d="M 79.159374 55.712845 
L 210.895843 55.712845 
" clip-path="url(#p84d33de5a2)" style="fill: none; stroke: #1f77b4; stroke-width: 3"/>
   </g>
   <g id="line2d_5">
    <path d="M 79.159374 218.258731 
L 95.14841 186.527518 
L 103.719852 170.02676 
L 110.807775 156.85024 
L 117.071521 145.654758 
L 122.840761 135.779374 
L 128.28033 126.897564 
L 133.390228 118.967446 
L 138.33529 111.700312 
L 143.115518 105.075804 
L 147.730909 99.067801 
L 152.181466 93.645725 
L 156.467187 88.775726 
L 160.588072 84.421761 
L 164.708958 80.391559 
L 168.665008 76.826657 
L 172.621058 73.557403 
L 176.577108 70.579885 
L 180.533158 67.888533 
L 184.324373 65.571201 
L 188.280423 63.417928 
L 192.236473 61.524964 
L 196.192523 59.880562 
L 200.148574 58.471561 
L 204.269459 57.23852 
L 208.55518 56.19122 
L 213.005736 55.334381 
L 217.785964 54.646689 
L 222.895862 54.140305 
L 228.665101 53.798867 
L 235.588189 53.622089 
L 243.82996 53.588144 
L 243.82996 53.588144 
" clip-path="url(#p84d33de5a2)" style="fill: none; stroke: #984ea3; stroke-width: 6; stroke-linecap: square"/>
   </g>
   <g id="patch_3">
    <path d="M 70.925845 226.49226 
L 70.925845 45.354615 
" style="fill: none; stroke: #000000; stroke-width: 4; stroke-linejoin: miter; stroke-linecap: square"/>
   </g>
   <g id="patch_4">
    <path d="M 252.06349 226.49226 
L 252.06349 45.354615 
" style="fill: none; stroke: #000000; stroke-width: 4; stroke-linejoin: miter; stroke-linecap: square"/>
   </g>
   <g id="patch_5">
    <path d="M 70.925845 226.49226 
L 252.06349 226.49226 
" style="fill: none; stroke: #000000; stroke-width: 4; stroke-linejoin: miter; stroke-linecap: square"/>
   </g>
   <g id="patch_6">
    <path d="M 70.925845 45.354615 
L 252.06349 45.354615 
" style="fill: none; stroke: #000000; stroke-width: 4; stroke-linejoin: miter; stroke-linecap: square"/>
   </g>
   <g id="text_7">
    <!-- $\kappa_{1}$ -->
    <g transform="translate(142.234667 30.354615) scale(0.36 -0.36)">
     <defs>
      <path id="DejaVuSans-Oblique-3ba" d="M 938 3500 
L 1531 3500 
L 1247 2047 
L 3041 3500 
L 3741 3500 
L 2106 2181 
L 3275 0 
L 2572 0 
L 1628 1806 
L 1122 1403 
L 850 0 
L 256 0 
L 938 3500 
z
" transform="scale(0.015625)"/>
      <path id="DejaVuSans-31" d="M 794 531 
L 1825 531 
L 1825 4091 
L 703 3866 
L 703 4441 
L 1819 4666 
L 2450 4666 
L 2450 531 
L 3481 531 
L 3481 0 
L 794 0 
L 794 531 
z
" transform="scale(0.015625)"/>
     </defs>
     <use xlink:href="#DejaVuSans-Oblique-3ba" transform="translate(0 0.3125)"/>
     <use xlink:href="#DejaVuSans-31" transform="translate(58.935547 -16.09375) scale(0.7)"/>
    </g>
   </g>
  </g>
  <g id="axes_2">
   <g id="patch_7">
    <path d="M 358.925845 226.49226 
L 540.06349 226.49226 
L 540.06349 45.354615 
L 358.925845 45.354615 
z
" style="fill: #ffffff"/>
   </g>
   <g id="matplotlib.axis_3">
    <g id="xtick_3">
     <g id="line2d_6">
      <g>
       <use xlink:href="#mc605b22ead" x="367.159374" y="226.49226" style="stroke: #000000; stroke-width: 2"/>
      </g>
     </g>
     <g id="text_8">
      <!-- 0 -->
      <g transform="translate(360.549999 255.22851) scale(0.24 -0.24)">
       <use xlink:href="#DroidSans-30"/>
      </g>
     </g>
    </g>
    <g id="xtick_4">
     <g id="line2d_7">
      <g>
       <use xlink:href="#mc605b22ead" x="531.82996" y="226.49226" style="stroke: #000000; stroke-width: 2"/>
      </g>
     </g>
     <g id="text_9">
      <!-- T -->
      <g transform="translate(525.60121 255.22851) scale(0.24 -0.24)">
       <use xlink:href="#DroidSans-54"/>
      </g>
     </g>
    </g>
    <g id="text_10">
     <!-- Old Times -->
     <g transform="translate(395.412167 279.23226) scale(0.24 -0.24)">
      <use xlink:href="#DroidSans-4f"/>
      <use xlink:href="#DroidSans-6c" x="74.21875"/>
      <use xlink:href="#DroidSans-64" x="100.097656"/>
      <use xlink:href="#DroidSans-20" x="158.691406"/>
      <use xlink:href="#DroidSans-54" x="184.667969"/>
      <use xlink:href="#DroidSans-69" x="236.572266"/>
      <use xlink:href="#DroidSans-6d" x="262.451172"/>
      <use xlink:href="#DroidSans-65" x="352.050781"/>
      <use xlink:href="#DroidSans-73" x="405.566406"/>
     </g>
    </g>
   </g>
   <g id="matplotlib.axis_4">
    <g id="ytick_3">
     <g id="line2d_8">
      <g>
       <use xlink:href="#m2fecd11a2a" x="358.925845" y="218.258731" style="stroke: #000000; stroke-width: 2"/>
      </g>
     </g>
     <g id="text_11">
      <!-- 0 -->
      <g transform="translate(335.207095 227.376856) scale(0.24 -0.24)">
       <use xlink:href="#DroidSans-30"/>
      </g>
     </g>
    </g>
    <g id="ytick_4">
     <g id="line2d_9">
      <g>
       <use xlink:href="#m2fecd11a2a" x="358.925845" y="53.588144" style="stroke: #000000; stroke-width: 2"/>
      </g>
     </g>
     <g id="text_12">
      <!-- T -->
      <g transform="translate(335.968345 62.706269) scale(0.24 -0.24)">
       <use xlink:href="#DroidSans-54"/>
      </g>
     </g>
    </g>
    <g id="text_13">
     <!-- New Times -->
     <g transform="translate(329.439595 195.087187) rotate(-90) scale(0.24 -0.24)">
      <use xlink:href="#DroidSans-4e"/>
      <use xlink:href="#DroidSans-65" x="72.900391"/>
      <use xlink:href="#DroidSans-77" x="126.416016"/>
      <use xlink:href="#DroidSans-20" x="201.025391"/>
      <use xlink:href="#DroidSans-54" x="227.001953"/>
      <use xlink:href="#DroidSans-69" x="278.90625"/>
      <use xlink:href="#DroidSans-6d" x="304.785156"/>
      <use xlink:href="#DroidSans-65" x="394.384766"/>
      <use xlink:href="#DroidSans-73" x="447.900391"/>
     </g>
    </g>
   </g>
   <g id="LineCollection_3">
    <path d="M 400.093491 218.258731 
L 400.093491 210.249877 
" clip-path="url(#p718a1d232e)" style="fill: none; stroke-dasharray: 11.1,4.8; stroke-dashoffset: 0; stroke: #1f77b4; stroke-width: 3"/>
    <path d="M 433.027608 218.258731 
L 433.027608 167.795156 
" clip-path="url(#p718a1d232e)" style="fill: none; stroke-dasharray: 11.1,4.8; stroke-dashoffset: 0; stroke: #1f77b4; stroke-width: 3"/>
    <path d="M 465.961726 218.258731 
L 465.961726 104.051719 
" clip-path="url(#p718a1d232e)" style="fill: none; stroke-dasharray: 11.1,4.8; stroke-dashoffset: 0; stroke: #1f77b4; stroke-width: 3"/>
    <path d="M 498.895843 218.258731 
L 498.895843 61.596998 
" clip-path="url(#p718a1d232e)" style="fill: none; stroke-dasharray: 11.1,4.8; stroke-dashoffset: 0; stroke: #1f77b4; stroke-width: 3"/>
   </g>
   <g id="LineCollection_4">
    <path d="M 367.159374 210.249877 
L 400.093491 210.249877 
" clip-path="url(#p718a1d232e)" style="fill: none; stroke: #1f77b4; stroke-width: 3"/>
    <path d="M 367.159374 167.795156 
L 433.027608 167.795156 
" clip-path="url(#p718a1d232e)" style="fill: none; stroke: #1f77b4; stroke-width: 3"/>
    <path d="M 367.159374 104.051719 
L 465.961726 104.051719 
" clip-path="url(#p718a1d232e)" style="fill: none; stroke: #1f77b4; stroke-width: 3"/>
    <path d="M 367.159374 61.596998 
L 498.895843 61.596998 
" clip-path="url(#p718a1d232e)" style="fill: none; stroke: #1f77b4; stroke-width: 3"/>
   </g>
   <g id="line2d_10">
    <path d="M 367.159374 218.258731 
L 374.741803 218.153346 
L 378.862689 217.873561 
L 382.324233 217.426459 
L 385.456106 216.808159 
L 388.423143 216.001298 
L 391.225346 215.01626 
L 394.027548 213.793392 
L 396.82975 212.314656 
L 399.467117 210.675592 
L 402.104483 208.786361 
L 404.906686 206.496522 
L 407.708888 203.909901 
L 410.51109 201.024036 
L 413.478127 197.643366 
L 416.61 193.718042 
L 419.741873 189.437422 
L 423.203417 184.312731 
L 426.829797 178.531719 
L 430.785847 171.791999 
L 435.236403 163.746858 
L 440.346301 154.035458 
L 447.434224 140.042188 
L 459.961716 115.265451 
L 465.23645 105.369575 
L 469.687006 97.478139 
L 473.643056 90.901607 
L 477.269436 85.288864 
L 480.73098 80.338425 
L 484.027688 76.017745 
L 487.159561 72.284295 
L 490.126599 69.089008 
L 492.928801 66.379272 
L 495.731003 63.967745 
L 498.533205 61.849965 
L 501.335407 60.018114 
L 504.137609 58.461111 
L 506.939812 57.164733 
L 509.742014 56.111782 
L 512.709051 55.239974 
L 515.840924 54.561787 
L 519.137633 54.078571 
L 522.928848 53.758338 
L 527.544239 53.607246 
L 531.82996 53.588144 
L 531.82996 53.588144 
" clip-path="url(#p718a1d232e)" style="fill: none; stroke: #984ea3; stroke-width: 6; stroke-linecap: square"/>
   </g>
   <g id="patch_8">
    <path d="M 358.925845 226.49226 
L 358.925845 45.354615 
" style="fill: none; stroke: #000000; stroke-width: 4; stroke-linejoin: miter; stroke-linecap: square"/>
   </g>
   <g id="patch_9">
    <path d="M 540.06349 226.49226 
L 540.06349 45.354615 
" style="fill: none; stroke: #000000; stroke-width: 4; stroke-linejoin: miter; stroke-linecap: square"/>
   </g>
   <g id="patch_10">
    <path d="M 358.925845 226.49226 
L 540.06349 226.49226 
" style="fill: none; stroke: #000000; stroke-width: 4; stroke-linejoin: miter; stroke-linecap: square"/>
   </g>
   <g id="patch_11">
    <path d="M 358.925845 45.354615 
L 540.06349 45.354615 
" style="fill: none; stroke: #000000; stroke-width: 4; stroke-linejoin: miter; stroke-linecap: square"/>
   </g>
   <g id="text_14">
    <!-- $\kappa_{-2}$ -->
    <g transform="translate(419.794667 30.354615) scale(0.36 -0.36)">
     <defs>
      <path id="DejaVuSans-2212" d="M 678 2272 
L 4684 2272 
L 4684 1741 
L 678 1741 
L 678 2272 
z
" transform="scale(0.015625)"/>
      <path id="DejaVuSans-32" d="M 1228 531 
L 3431 531 
L 3431 0 
L 469 0 
L 469 531 
Q 828 903 1448 1529 
Q 2069 2156 2228 2338 
Q 2531 2678 2651 2914 
Q 2772 3150 2772 3378 
Q 2772 3750 2511 3984 
Q 2250 4219 1831 4219 
Q 1534 4219 1204 4116 
Q 875 4013 500 3803 
L 500 4441 
Q 881 4594 1212 4672 
Q 1544 4750 1819 4750 
Q 2544 4750 2975 4387 
Q 3406 4025 3406 3419 
Q 3406 3131 3298 2873 
Q 3191 2616 2906 2266 
Q 2828 2175 2409 1742 
Q 1991 1309 1228 531 
z
" transform="scale(0.015625)"/>
     </defs>
     <use xlink:href="#DejaVuSans-Oblique-3ba" transform="translate(0 0.3125)"/>
     <use xlink:href="#DejaVuSans-2212" transform="translate(58.935547 -16.09375) scale(0.7)"/>
     <use xlink:href="#DejaVuSans-32" transform="translate(117.587891 -16.09375) scale(0.7)"/>
    </g>
   </g>
  </g>
  <g id="axes_3">
   <g id="patch_12">
    <path d="M 646.925845 226.49226 
L 828.06349 226.49226 
L 828.06349 45.354615 
L 646.925845 45.354615 
z
" style="fill: #ffffff"/>
   </g>
   <g id="matplotlib.axis_5">
    <g id="xtick_5">
     <g id="line2d_11">
      <g>
       <use xlink:href="#mc605b22ead" x="655.159374" y="226.49226" style="stroke: #000000; stroke-width: 2"/>
      </g>
     </g>
     <g id="text_15">
      <!-- 0 -->
      <g transform="translate(648.549999 255.22851) scale(0.24 -0.24)">
       <use xlink:href="#DroidSans-30"/>
      </g>
     </g>
    </g>
    <g id="xtick_6">
     <g id="line2d_12">
      <g>
       <use xlink:href="#mc605b22ead" x="819.82996" y="226.49226" style="stroke: #000000; stroke-width: 2"/>
      </g>
     </g>
     <g id="text_16">
      <!-- T -->
      <g transform="translate(813.60121 255.22851) scale(0.24 -0.24)">
       <use xlink:href="#DroidSans-54"/>
      </g>
     </g>
    </g>
    <g id="text_17">
     <!-- Old Times -->
     <g transform="translate(683.412167 279.23226) scale(0.24 -0.24)">
      <use xlink:href="#DroidSans-4f"/>
      <use xlink:href="#DroidSans-6c" x="74.21875"/>
      <use xlink:href="#DroidSans-64" x="100.097656"/>
      <use xlink:href="#DroidSans-20" x="158.691406"/>
      <use xlink:href="#DroidSans-54" x="184.667969"/>
      <use xlink:href="#DroidSans-69" x="236.572266"/>
      <use xlink:href="#DroidSans-6d" x="262.451172"/>
      <use xlink:href="#DroidSans-65" x="352.050781"/>
      <use xlink:href="#DroidSans-73" x="405.566406"/>
     </g>
    </g>
   </g>
   <g id="matplotlib.axis_6">
    <g id="ytick_5">
     <g id="line2d_13">
      <g>
       <use xlink:href="#m2fecd11a2a" x="646.925845" y="218.258731" style="stroke: #000000; stroke-width: 2"/>
      </g>
     </g>
     <g id="text_18">
      <!-- 0 -->
      <g transform="translate(623.207095 227.376856) scale(0.24 -0.24)">
       <use xlink:href="#DroidSans-30"/>
      </g>
     </g>
    </g>
    <g id="ytick_6">
     <g id="line2d_14">
      <g>
       <use xlink:href="#m2fecd11a2a" x="646.925845" y="53.588144" style="stroke: #000000; stroke-width: 2"/>
      </g>
     </g>
     <g id="text_19">
      <!-- T -->
      <g transform="translate(623.968345 62.706269) scale(0.24 -0.24)">
       <use xlink:href="#DroidSans-54"/>
      </g>
     </g>
    </g>
    <g id="text_20">
     <!-- New Times -->
     <g transform="translate(617.439595 195.087187) rotate(-90) scale(0.24 -0.24)">
      <use xlink:href="#DroidSans-4e"/>
      <use xlink:href="#DroidSans-65" x="72.900391"/>
      <use xlink:href="#DroidSans-77" x="126.416016"/>
      <use xlink:href="#DroidSans-20" x="201.025391"/>
      <use xlink:href="#DroidSans-54" x="227.001953"/>
      <use xlink:href="#DroidSans-69" x="278.90625"/>
      <use xlink:href="#DroidSans-6d" x="304.785156"/>
      <use xlink:href="#DroidSans-65" x="394.384766"/>
      <use xlink:href="#DroidSans-73" x="447.900391"/>
     </g>
    </g>
   </g>
   <g id="LineCollection_5">
    <path d="M 688.093491 218.258731 
L 688.093491 168.707823 
" clip-path="url(#pac1e7b3f50)" style="fill: none; stroke-dasharray: 11.1,4.8; stroke-dashoffset: 0; stroke: #1f77b4; stroke-width: 3"/>
    <path d="M 721.027608 218.258731 
L 721.027608 162.660237 
" clip-path="url(#pac1e7b3f50)" style="fill: none; stroke-dasharray: 11.1,4.8; stroke-dashoffset: 0; stroke: #1f77b4; stroke-width: 3"/>
    <path d="M 753.961726 218.258731 
L 753.961726 129.72612 
" clip-path="url(#pac1e7b3f50)" style="fill: none; stroke-dasharray: 11.1,4.8; stroke-dashoffset: 0; stroke: #1f77b4; stroke-width: 3"/>
    <path d="M 786.895843 218.258731 
L 786.895843 69.905471 
" clip-path="url(#pac1e7b3f50)" style="fill: none; stroke-dasharray: 11.1,4.8; stroke-dashoffset: 0; stroke: #1f77b4; stroke-width: 3"/>
   </g>
   <g id="LineCollection_6">
    <path d="M 655.159374 168.707823 
L 688.093491 168.707823 
" clip-path="url(#pac1e7b3f50)" style="fill: none; stroke: #1f77b4; stroke-width: 3"/>
    <path d="M 655.159374 162.660237 
L 721.027608 162.660237 
" clip-path="url(#pac1e7b3f50)" style="fill: none; stroke: #1f77b4; stroke-width: 3"/>
    <path d="M 655.159374 129.72612 
L 753.961726 129.72612 
" clip-path="url(#pac1e7b3f50)" style="fill: none; stroke: #1f77b4; stroke-width: 3"/>
    <path d="M 655.159374 69.905471 
L 786.895843 69.905471 
" clip-path="url(#pac1e7b3f50)" style="fill: none; stroke: #1f77b4; stroke-width: 3"/>
   </g>
   <g id="line2d_15">
    <path d="M 655.159374 218.258731 
L 662.741803 203.329714 
L 666.862689 195.707935 
L 670.324233 189.762724 
L 673.456106 184.830866 
L 676.258308 180.827761 
L 678.895675 177.442656 
L 681.368206 174.62169 
L 683.675902 172.303116 
L 685.983598 170.288323 
L 688.291294 168.572208 
L 690.59899 167.144466 
L 692.906686 165.989769 
L 695.214381 165.088031 
L 697.686913 164.374685 
L 700.32428 163.863088 
L 703.126482 163.54834 
L 706.588026 163.391168 
L 718.29134 163.066196 
L 721.093543 162.647571 
L 723.566074 162.059999 
L 725.87377 161.29208 
L 728.181466 160.284683 
L 730.324326 159.114942 
L 732.467187 157.704516 
L 734.610047 156.042404 
L 736.917743 153.962765 
L 739.225439 151.578939 
L 741.69797 148.688901 
L 744.170502 145.459612 
L 746.807868 141.65828 
L 749.774906 136.974346 
L 753.071614 131.322704 
L 756.862829 124.347523 
L 761.643056 115.052199 
L 774.170548 90.440315 
L 777.961763 83.606979 
L 781.258472 78.112254 
L 784.225509 73.59146 
L 787.027711 69.733328 
L 789.665078 66.492357 
L 792.137609 63.810317 
L 794.445305 61.622222 
L 796.753001 59.736365 
L 799.060697 58.145398 
L 801.368393 56.836836 
L 803.676089 55.793276 
L 805.983785 54.992695 
L 808.456316 54.374659 
L 811.093683 53.94773 
L 814.060721 53.692465 
L 818.016771 53.591414 
L 819.82996 53.588144 
L 819.82996 53.588144 
" clip-path="url(#pac1e7b3f50)" style="fill: none; stroke: #984ea3; stroke-width: 6; stroke-linecap: square"/>
   </g>
   <g id="patch_13">
    <path d="M 646.925845 226.49226 
L 646.925845 45.354615 
" style="fill: none; stroke: #000000; stroke-width: 4; stroke-linejoin: miter; stroke-linecap: square"/>
   </g>
   <g id="patch_14">
    <path d="M 828.06349 226.49226 
L 828.06349 45.354615 
" style="fill: none; stroke: #000000; stroke-width: 4; stroke-linejoin: miter; stroke-linecap: square"/>
   </g>
   <g id="patch_15">
    <path d="M 646.925845 226.49226 
L 828.06349 226.49226 
" style="fill: none; stroke: #000000; stroke-width: 4; stroke-linejoin: miter; stroke-linecap: square"/>
   </g>
   <g id="patch_16">
    <path d="M 646.925845 45.354615 
L 828.06349 45.354615 
" style="fill: none; stroke: #000000; stroke-width: 4; stroke-linejoin: miter; stroke-linecap: square"/>
   </g>
   <g id="text_21">
    <!-- $\kappa_{3}$ -->
    <g transform="translate(718.234667 30.354615) scale(0.36 -0.36)">
     <defs>
      <path id="DejaVuSans-33" d="M 2597 2516 
Q 3050 2419 3304 2112 
Q 3559 1806 3559 1356 
Q 3559 666 3084 287 
Q 2609 -91 1734 -91 
Q 1441 -91 1130 -33 
Q 819 25 488 141 
L 488 750 
Q 750 597 1062 519 
Q 1375 441 1716 441 
Q 2309 441 2620 675 
Q 2931 909 2931 1356 
Q 2931 1769 2642 2001 
Q 2353 2234 1838 2234 
L 1294 2234 
L 1294 2753 
L 1863 2753 
Q 2328 2753 2575 2939 
Q 2822 3125 2822 3475 
Q 2822 3834 2567 4026 
Q 2313 4219 1838 4219 
Q 1578 4219 1281 4162 
Q 984 4106 628 3988 
L 628 4550 
Q 988 4650 1302 4700 
Q 1616 4750 1894 4750 
Q 2613 4750 3031 4423 
Q 3450 4097 3450 3541 
Q 3450 3153 3228 2886 
Q 3006 2619 2597 2516 
z
" transform="scale(0.015625)"/>
     </defs>
     <use xlink:href="#DejaVuSans-Oblique-3ba" transform="translate(0 0.3125)"/>
     <use xlink:href="#DejaVuSans-33" transform="translate(58.935547 -16.09375) scale(0.7)"/>
    </g>
   </g>
  </g>
  <g id="axes_4">
   <g id="patch_17">
    <path d="M 934.925845 226.49226 
L 1116.06349 226.49226 
L 1116.06349 45.354615 
L 934.925845 45.354615 
z
" style="fill: #ffffff"/>
   </g>
   <g id="matplotlib.axis_7">
    <g id="xtick_7">
     <g id="line2d_16">
      <g>
       <use xlink:href="#mc605b22ead" x="943.159374" y="226.49226" style="stroke: #000000; stroke-width: 2"/>
      </g>
     </g>
     <g id="text_22">
      <!-- 0 -->
      <g transform="translate(936.549999 255.22851) scale(0.24 -0.24)">
       <use xlink:href="#DroidSans-30"/>
      </g>
     </g>
    </g>
    <g id="xtick_8">
     <g id="line2d_17">
      <g>
       <use xlink:href="#mc605b22ead" x="1107.82996" y="226.49226" style="stroke: #000000; stroke-width: 2"/>
      </g>
     </g>
     <g id="text_23">
      <!-- T -->
      <g transform="translate(1101.60121 255.22851) scale(0.24 -0.24)">
       <use xlink:href="#DroidSans-54"/>
      </g>
     </g>
    </g>
    <g id="text_24">
     <!-- Old Times -->
     <g transform="translate(971.412167 279.23226) scale(0.24 -0.24)">
      <use xlink:href="#DroidSans-4f"/>
      <use xlink:href="#DroidSans-6c" x="74.21875"/>
      <use xlink:href="#DroidSans-64" x="100.097656"/>
      <use xlink:href="#DroidSans-20" x="158.691406"/>
      <use xlink:href="#DroidSans-54" x="184.667969"/>
      <use xlink:href="#DroidSans-69" x="236.572266"/>
      <use xlink:href="#DroidSans-6d" x="262.451172"/>
      <use xlink:href="#DroidSans-65" x="352.050781"/>
      <use xlink:href="#DroidSans-73" x="405.566406"/>
     </g>
    </g>
   </g>
   <g id="matplotlib.axis_8">
    <g id="ytick_7">
     <g id="line2d_18">
      <g>
       <use xlink:href="#m2fecd11a2a" x="934.925845" y="218.258731" style="stroke: #000000; stroke-width: 2"/>
      </g>
     </g>
     <g id="text_25">
      <!-- 0 -->
      <g transform="translate(911.207095 227.376856) scale(0.24 -0.24)">
       <use xlink:href="#DroidSans-30"/>
      </g>
     </g>
    </g>
    <g id="ytick_8">
     <g id="line2d_19">
      <g>
       <use xlink:href="#m2fecd11a2a" x="934.925845" y="53.588144" style="stroke: #000000; stroke-width: 2"/>
      </g>
     </g>
     <g id="text_26">
      <!-- T -->
      <g transform="translate(911.968345 62.706269) scale(0.24 -0.24)">
       <use xlink:href="#DroidSans-54"/>
      </g>
     </g>
    </g>
    <g id="text_27">
     <!-- New Times -->
     <g transform="translate(905.439595 195.087187) rotate(-90) scale(0.24 -0.24)">
      <use xlink:href="#DroidSans-4e"/>
      <use xlink:href="#DroidSans-65" x="72.900391"/>
      <use xlink:href="#DroidSans-77" x="126.416016"/>
      <use xlink:href="#DroidSans-20" x="201.025391"/>
      <use xlink:href="#DroidSans-54" x="227.001953"/>
      <use xlink:href="#DroidSans-69" x="278.90625"/>
      <use xlink:href="#DroidSans-6d" x="304.785156"/>
      <use xlink:href="#DroidSans-65" x="394.384766"/>
      <use xlink:href="#DroidSans-73" x="447.900391"/>
     </g>
    </g>
   </g>
   <g id="LineCollection_7">
    <path d="M 976.093491 218.258731 
L 976.093491 193.026895 
" clip-path="url(#pef644f4126)" style="fill: none; stroke-dasharray: 11.1,4.8; stroke-dashoffset: 0; stroke: #1f77b4; stroke-width: 3"/>
    <path d="M 1009.027608 218.258731 
L 1009.027608 139.927943 
" clip-path="url(#pef644f4126)" style="fill: none; stroke-dasharray: 11.1,4.8; stroke-dashoffset: 0; stroke: #1f77b4; stroke-width: 3"/>
    <path d="M 1041.961726 218.258731 
L 1041.961726 131.918932 
" clip-path="url(#pef644f4126)" style="fill: none; stroke-dasharray: 11.1,4.8; stroke-dashoffset: 0; stroke: #1f77b4; stroke-width: 3"/>
    <path d="M 1074.895843 218.258731 
L 1074.895843 78.81998 
" clip-path="url(#pef644f4126)" style="fill: none; stroke-dasharray: 11.1,4.8; stroke-dashoffset: 0; stroke: #1f77b4; stroke-width: 3"/>
   </g>
   <g id="LineCollection_8">
    <path d="M 943.159374 193.026895 
L 976.093491 193.026895 
" clip-path="url(#pef644f4126)" style="fill: none; stroke: #1f77b4; stroke-width: 3"/>
    <path d="M 943.159374 139.927943 
L 1009.027608 139.927943 
" clip-path="url(#pef644f4126)" style="fill: none; stroke: #1f77b4; stroke-width: 3"/>
    <path d="M 943.159374 131.918932 
L 1041.961726 131.918932 
" clip-path="url(#pef644f4126)" style="fill: none; stroke: #1f77b4; stroke-width: 3"/>
    <path d="M 943.159374 78.81998 
L 1074.895843 78.81998 
" clip-path="url(#pef644f4126)" style="fill: none; stroke: #1f77b4; stroke-width: 3"/>
   </g>
   <g id="line2d_20">
    <path d="M 943.159374 218.258731 
L 947.939601 218.153357 
L 950.576968 217.868821 
L 952.884664 217.390107 
L 954.862689 216.763653 
L 956.840714 215.905044 
L 958.818739 214.788823 
L 960.796764 213.395391 
L 962.774789 211.711453 
L 964.752814 209.730321 
L 966.895675 207.248965 
L 969.038535 204.428048 
L 971.346231 201.031334 
L 973.983598 196.736718 
L 976.950635 191.460338 
L 980.74185 184.216821 
L 992.939671 160.472706 
L 995.906709 155.381124 
L 998.544076 151.286603 
L 1000.851772 148.086073 
L 1002.994632 145.459421 
L 1005.137493 143.178668 
L 1007.115518 141.383704 
L 1009.093543 139.882541 
L 1011.071568 138.664332 
L 1013.049593 137.711799 
L 1015.027618 137.001619 
L 1017.170478 136.472185 
L 1019.478174 136.132675 
L 1022.280376 135.955613 
L 1027.55511 135.914932 
L 1031.016654 135.761389 
L 1033.489185 135.436569 
L 1035.632046 134.942007 
L 1037.610071 134.269556 
L 1039.588096 133.359191 
L 1041.566121 132.18663 
L 1043.544146 130.733556 
L 1045.522171 128.988031 
L 1047.500196 126.944767 
L 1049.643056 124.397124 
L 1051.950752 121.277391 
L 1054.423284 117.530322 
L 1057.06065 113.122615 
L 1060.192523 107.435629 
L 1064.313409 99.441013 
L 1073.873863 80.691322 
L 1077.005736 75.110157 
L 1079.807939 70.561214 
L 1082.28047 66.963361 
L 1084.588166 63.994674 
L 1086.731026 61.593297 
L 1088.709051 59.686722 
L 1090.687076 58.076299 
L 1092.665101 56.753669 
L 1094.643127 55.703926 
L 1096.621152 54.905959 
L 1098.764012 54.294366 
L 1101.071708 53.883865 
L 1103.709075 53.655782 
L 1107.500289 53.588183 
L 1107.82996 53.588144 
L 1107.82996 53.588144 
" clip-path="url(#pef644f4126)" style="fill: none; stroke: #984ea3; stroke-width: 6; stroke-linecap: square"/>
   </g>
   <g id="patch_18">
    <path d="M 934.925845 226.49226 
L 934.925845 45.354615 
" style="fill: none; stroke: #000000; stroke-width: 4; stroke-linejoin: miter; stroke-linecap: square"/>
   </g>
   <g id="patch_19">
    <path d="M 1116.06349 226.49226 
L 1116.06349 45.354615 
" style="fill: none; stroke: #000000; stroke-width: 4; stroke-linejoin: miter; stroke-linecap: square"/>
   </g>
   <g id="patch_20">
    <path d="M 934.925845 226.49226 
L 1116.06349 226.49226 
" style="fill: none; stroke: #000000; stroke-width: 4; stroke-linejoin: miter; stroke-linecap: square"/>
   </g>
   <g id="patch_21">
    <path d="M 934.925845 45.354615 
L 1116.06349 45.354615 
" style="fill: none; stroke: #000000; stroke-width: 4; stroke-linejoin: miter; stroke-linecap: square"/>
   </g>
   <g id="text_28">
    <!-- $\kappa_{-4}$ -->
    <g transform="translate(995.794667 30.354615) scale(0.36 -0.36)">
     <defs>
      <path id="DejaVuSans-34" d="M 2419 4116 
L 825 1625 
L 2419 1625 
L 2419 4116 
z
M 2253 4666 
L 3047 4666 
L 3047 1625 
L 3713 1625 
L 3713 1100 
L 3047 1100 
L 3047 0 
L 2419 0 
L 2419 1100 
L 313 1100 
L 313 1709 
L 2253 4666 
z
" transform="scale(0.015625)"/>
     </defs>
     <use xlink:href="#DejaVuSans-Oblique-3ba" transform="translate(0 0.3125)"/>
     <use xlink:href="#DejaVuSans-2212" transform="translate(58.935547 -16.09375) scale(0.7)"/>
     <use xlink:href="#DejaVuSans-34" transform="translate(117.587891 -16.09375) scale(0.7)"/>
    </g>
   </g>
  </g>
 </g>
 <defs>
  <clipPath id="p84d33de5a2">
   <rect x="70.925845" y="45.354615" width="181.137645" height="181.137645"/>
  </clipPath>
  <clipPath id="p718a1d232e">
   <rect x="358.925845" y="45.354615" width="181.137645" height="181.137645"/>
  </clipPath>
  <clipPath id="pac1e7b3f50">
   <rect x="646.925845" y="45.354615" width="181.137645" height="181.137645"/>
  </clipPath>
  <clipPath id="pef644f4126">
   <rect x="934.925845" y="45.354615" width="181.137645" height="181.137645"/>
  </clipPath>
 </defs>
</svg>
