<?xml version="1.0" encoding="utf-8" standalone="no"?>
<!DOCTYPE svg PUBLIC "-//W3C//DTD SVG 1.1//EN"
  "http://www.w3.org/Graphics/SVG/1.1/DTD/svg11.dtd">
<svg xmlns:xlink="http://www.w3.org/1999/xlink" width="288pt" height="180pt" viewBox="0 0 288 180" xmlns="http://www.w3.org/2000/svg" version="1.1">
 <metadata>
  <rdf:RDF xmlns:dc="http://purl.org/dc/elements/1.1/" xmlns:cc="http://creativecommons.org/ns#" xmlns:rdf="http://www.w3.org/1999/02/22-rdf-syntax-ns#">
   <cc:Work>
    <dc:type rdf:resource="http://purl.org/dc/dcmitype/StillImage"/>
    <dc:date>2025-02-23T16:26:51.787673</dc:date>
    <dc:format>image/svg+xml</dc:format>
    <dc:creator>
     <cc:Agent>
      <dc:title>Matplotlib v3.6.3, https://matplotlib.org/</dc:title>
     </cc:Agent>
    </dc:creator>
   </cc:Work>
  </rdf:RDF>
 </metadata>
 <defs>
  <style type="text/css">*{stroke-linejoin: round; stroke-linecap: butt}</style>
 </defs>
 <g id="figure_1">
  <g id="patch_1">
   <path d="M 0 180 
L 288 180 
L 288 0 
L 0 0 
z
" style="fill: #ffffff"/>
  </g>
  <g id="axes_1">
   <g id="patch_2">
    <path d="M 11.81274 168.88452 
L 276.69476 168.88452 
L 276.69476 3.00024 
L 11.81274 3.00024 
z
" style="fill: #ffffff"/>
   </g>
   <g id="matplotlib.axis_1">
    <g id="xtick_1">
     <g id="line2d_1">
      <defs>
       <path id="m8d4ad542ac" d="M 0 0 
L 0 10 
" style="stroke: #000000; stroke-width: 6"/>
      </defs>
      <g>
       <use xlink:href="#m8d4ad542ac" x="11.81274" y="85.94238" style="stroke: #000000; stroke-width: 6"/>
      </g>
     </g>
     <g id="text_1">
      <!-- 0 -->
      <g transform="translate(3.00024 123.75738) scale(0.32 -0.32)">
       <defs>
        <path id="DroidSans-30" d="M 3225 2291 
Q 3225 1738 3145 1300 
Q 3066 863 2889 559 
Q 2713 256 2434 96 
Q 2156 -63 1759 -63 
Q 1391 -63 1117 96 
Q 844 256 664 559 
Q 484 863 395 1300 
Q 306 1738 306 2291 
Q 306 2844 386 3281 
Q 466 3719 639 4020 
Q 813 4322 1089 4481 
Q 1366 4641 1759 4641 
Q 2131 4641 2406 4483 
Q 2681 4325 2862 4023 
Q 3044 3722 3134 3284 
Q 3225 2847 3225 2291 
z
M 884 2291 
Q 884 1822 931 1472 
Q 978 1122 1081 889 
Q 1184 656 1351 539 
Q 1519 422 1759 422 
Q 2000 422 2169 537 
Q 2338 653 2445 884 
Q 2553 1116 2601 1467 
Q 2650 1819 2650 2291 
Q 2650 2759 2601 3109 
Q 2553 3459 2445 3690 
Q 2338 3922 2169 4037 
Q 2000 4153 1759 4153 
Q 1519 4153 1351 4037 
Q 1184 3922 1081 3690 
Q 978 3459 931 3109 
Q 884 2759 884 2291 
z
" transform="scale(0.015625)"/>
       </defs>
       <use xlink:href="#DroidSans-30"/>
      </g>
     </g>
    </g>
    <g id="xtick_2">
     <g id="line2d_2">
      <g>
       <use xlink:href="#m8d4ad542ac" x="276.69476" y="85.94238" style="stroke: #000000; stroke-width: 6"/>
      </g>
     </g>
     <g id="text_2">
      <!-- T -->
      <g transform="translate(268.38976 123.75738) scale(0.32 -0.32)">
       <defs>
        <path id="DroidSans-54" d="M 1953 0 
L 1369 0 
L 1369 4056 
L 63 4056 
L 63 4569 
L 3256 4569 
L 3256 4056 
L 1953 4056 
L 1953 0 
z
" transform="scale(0.015625)"/>
       </defs>
       <use xlink:href="#DroidSans-54"/>
      </g>
     </g>
    </g>
    <g id="xtick_3">
     <g id="line2d_3">
      <defs>
       <path id="mbf07ac98f6" d="M 0 0 
L 0 1 
" style="stroke: #000000"/>
      </defs>
      <g>
       <use xlink:href="#mbf07ac98f6" x="78.033245" y="85.94238" style="stroke: #000000"/>
      </g>
     </g>
    </g>
    <g id="xtick_4">
     <g id="line2d_4">
      <g>
       <use xlink:href="#mbf07ac98f6" x="144.25375" y="85.94238" style="stroke: #000000"/>
      </g>
     </g>
    </g>
    <g id="xtick_5">
     <g id="line2d_5">
      <g>
       <use xlink:href="#mbf07ac98f6" x="210.474255" y="85.94238" style="stroke: #000000"/>
      </g>
     </g>
    </g>
    <g id="text_3">
     <!-- New Times -->
     <g transform="translate(65.36875 164.76238) scale(0.32 -0.32)">
      <defs>
       <path id="DroidSans-4e" d="M 4044 0 
L 3372 0 
L 1125 3781 
L 1100 3781 
Q 1119 3541 1131 3303 
Q 1144 3100 1151 2878 
Q 1159 2656 1159 2478 
L 1159 0 
L 622 0 
L 622 4569 
L 1288 4569 
L 3525 806 
L 3547 806 
Q 3538 1044 3525 1275 
Q 3522 1375 3517 1479 
Q 3513 1584 3508 1689 
Q 3503 1794 3501 1891 
Q 3500 1988 3500 2069 
L 3500 4569 
L 4044 4569 
L 4044 0 
z
" transform="scale(0.015625)"/>
       <path id="DroidSans-65" d="M 1900 -63 
Q 1556 -63 1272 53 
Q 988 169 783 391 
Q 578 613 465 941 
Q 353 1269 353 1691 
Q 353 2116 456 2450 
Q 559 2784 746 3017 
Q 934 3250 1195 3372 
Q 1456 3494 1772 3494 
Q 2081 3494 2328 3383 
Q 2575 3272 2747 3070 
Q 2919 2869 3011 2586 
Q 3103 2303 3103 1959 
L 3103 1606 
L 941 1606 
Q 956 1003 1195 718 
Q 1434 434 1906 434 
Q 2066 434 2202 450 
Q 2338 466 2464 495 
Q 2591 525 2709 570 
Q 2828 616 2950 672 
L 2950 166 
Q 2825 106 2704 62 
Q 2584 19 2457 -9 
Q 2331 -38 2195 -50 
Q 2059 -63 1900 -63 
z
M 1759 3022 
Q 1403 3022 1195 2778 
Q 988 2534 953 2069 
L 2491 2069 
Q 2491 2281 2448 2457 
Q 2406 2634 2317 2759 
Q 2228 2884 2090 2953 
Q 1953 3022 1759 3022 
z
" transform="scale(0.015625)"/>
       <path id="DroidSans-77" d="M 3150 0 
L 2625 1925 
Q 2613 1981 2594 2051 
Q 2575 2122 2556 2200 
Q 2538 2278 2517 2359 
Q 2497 2441 2478 2519 
Q 2434 2700 2388 2894 
L 2369 2894 
Q 2325 2697 2284 2516 
Q 2250 2359 2211 2193 
Q 2172 2028 2138 1913 
L 1600 0 
L 941 0 
L 63 3431 
L 659 3431 
L 1069 1606 
Q 1100 1466 1131 1302 
Q 1163 1138 1191 977 
Q 1219 816 1241 673 
Q 1263 531 1275 441 
L 1294 441 
Q 1309 522 1336 658 
Q 1363 794 1395 945 
Q 1428 1097 1462 1245 
Q 1497 1394 1528 1497 
L 2088 3431 
L 2700 3431 
L 3238 1497 
Q 3266 1391 3302 1247 
Q 3338 1103 3372 954 
Q 3406 806 3434 668 
Q 3463 531 3475 441 
L 3494 441 
Q 3503 522 3523 658 
Q 3544 794 3572 956 
Q 3600 1119 3633 1289 
Q 3666 1459 3700 1606 
L 4128 3431 
L 4709 3431 
L 3822 0 
L 3150 0 
z
" transform="scale(0.015625)"/>
       <path id="DroidSans-20" transform="scale(0.015625)"/>
       <path id="DroidSans-69" d="M 1113 0 
L 544 0 
L 544 3431 
L 1113 3431 
L 1113 0 
z
M 500 4359 
Q 500 4547 595 4631 
Q 691 4716 831 4716 
Q 900 4716 961 4695 
Q 1022 4675 1067 4631 
Q 1113 4588 1139 4520 
Q 1166 4453 1166 4359 
Q 1166 4178 1067 4089 
Q 969 4000 831 4000 
Q 691 4000 595 4087 
Q 500 4175 500 4359 
z
" transform="scale(0.015625)"/>
       <path id="DroidSans-6d" d="M 4653 0 
L 4653 2209 
Q 4653 2616 4497 2819 
Q 4341 3022 4013 3022 
Q 3784 3022 3625 2948 
Q 3466 2875 3364 2733 
Q 3263 2591 3216 2380 
Q 3169 2169 3169 1894 
L 3169 0 
L 2597 0 
L 2597 2209 
Q 2597 2616 2442 2819 
Q 2288 3022 1959 3022 
Q 1719 3022 1556 2940 
Q 1394 2859 1295 2700 
Q 1197 2541 1155 2309 
Q 1113 2078 1113 1778 
L 1113 0 
L 544 0 
L 544 3431 
L 1006 3431 
L 1088 2969 
L 1119 2969 
Q 1194 3103 1297 3201 
Q 1400 3300 1523 3365 
Q 1647 3431 1786 3462 
Q 1925 3494 2069 3494 
Q 2444 3494 2692 3356 
Q 2941 3219 3059 2925 
L 3084 2925 
Q 3166 3072 3280 3178 
Q 3394 3284 3530 3354 
Q 3666 3425 3816 3459 
Q 3966 3494 4122 3494 
Q 4669 3494 4945 3195 
Q 5222 2897 5222 2241 
L 5222 0 
L 4653 0 
z
" transform="scale(0.015625)"/>
       <path id="DroidSans-73" d="M 2597 941 
Q 2597 691 2506 503 
Q 2416 316 2245 189 
Q 2075 63 1834 0 
Q 1594 -63 1294 -63 
Q 953 -63 709 -8 
Q 466 47 281 153 
L 281 672 
Q 378 622 497 573 
Q 616 525 747 487 
Q 878 450 1017 426 
Q 1156 403 1294 403 
Q 1497 403 1639 437 
Q 1781 472 1870 536 
Q 1959 600 2000 692 
Q 2041 784 2041 897 
Q 2041 994 2009 1072 
Q 1978 1150 1895 1226 
Q 1813 1303 1669 1381 
Q 1525 1459 1300 1556 
Q 1075 1653 895 1747 
Q 716 1841 591 1956 
Q 466 2072 398 2223 
Q 331 2375 331 2584 
Q 331 2803 417 2973 
Q 503 3144 659 3259 
Q 816 3375 1034 3434 
Q 1253 3494 1522 3494 
Q 1825 3494 2076 3428 
Q 2328 3363 2553 3256 
L 2356 2797 
Q 2153 2888 1939 2955 
Q 1725 3022 1503 3022 
Q 1184 3022 1031 2917 
Q 878 2813 878 2619 
Q 878 2509 914 2428 
Q 950 2347 1037 2275 
Q 1125 2203 1272 2129 
Q 1419 2056 1638 1966 
Q 1863 1872 2039 1778 
Q 2216 1684 2341 1567 
Q 2466 1450 2531 1300 
Q 2597 1150 2597 941 
z
" transform="scale(0.015625)"/>
      </defs>
      <use xlink:href="#DroidSans-4e"/>
      <use xlink:href="#DroidSans-65" x="72.900391"/>
      <use xlink:href="#DroidSans-77" x="126.416016"/>
      <use xlink:href="#DroidSans-20" x="201.025391"/>
      <use xlink:href="#DroidSans-54" x="227.001953"/>
      <use xlink:href="#DroidSans-69" x="278.90625"/>
      <use xlink:href="#DroidSans-6d" x="304.785156"/>
      <use xlink:href="#DroidSans-65" x="394.384766"/>
      <use xlink:href="#DroidSans-73" x="447.900391"/>
     </g>
    </g>
   </g>
   <g id="matplotlib.axis_2"/>
   <g id="LineCollection_1">
    <path d="M 28.704581 119.119236 
L 28.704581 52.765524 
" clip-path="url(#p4006af27aa)" style="fill: none; stroke: #1f77b4; stroke-width: 6"/>
    <path d="M 95.464062 119.119236 
L 95.464062 52.765524 
" clip-path="url(#p4006af27aa)" style="fill: none; stroke: #1f77b4; stroke-width: 6"/>
    <path d="M 193.043438 119.119236 
L 193.043438 52.765524 
" clip-path="url(#p4006af27aa)" style="fill: none; stroke: #1f77b4; stroke-width: 6"/>
    <path d="M 259.802919 119.119236 
L 259.802919 52.765524 
" clip-path="url(#p4006af27aa)" style="fill: none; stroke: #1f77b4; stroke-width: 6"/>
   </g>
   <g id="patch_3">
    <path d="M 11.81274 85.94238 
L 276.69476 85.94238 
" style="fill: none; stroke: #000000; stroke-width: 6; stroke-linejoin: miter; stroke-linecap: square"/>
   </g>
  </g>
 </g>
 <defs>
  <clipPath id="p4006af27aa">
   <rect x="11.81274" y="3.00024" width="264.88202" height="165.88428"/>
  </clipPath>
 </defs>
</svg>
